<svg xmlns="http://www.w3.org/2000/svg" data-name="Layer 1" viewBox="0 0 512 512"><path fill="#f1f6f9" d="M475.31006,106.88c.12988,23.5-25.1001,38.54-45.94006,27.66l-1.24-.65a31.40126,31.40126,0,0,1-16.61-27.49,35.49574,35.49574,0,0,0-18.43994-30.49c-17.3-9.42-39.15015-2.16-48.15015,15.36l-41.61987,81.01L276.95,223.58l-9.6,18.69L241,293.56,141.51,487.22a31.7429,31.7429,0,0,1-45.02,12.49c-14.39-8.88-19.1-27.65-11.37-42.69L205.05005,223.58l26.35-51.3,9.6-18.69,26.35-51.3,21.20007-41.26A98.48621,98.48621,0,0,1,421.76,18.71,100.02439,100.02439,0,0,1,475.31006,106.88Z"/><polygon fill="#e53950" points="183.567 405.356 151.409 327.981 119.576 389.943 151.734 467.317 183.567 405.356"/><polygon fill="#e53950" points="261.559 253.544 229.401 176.17 197.569 238.131 229.727 315.506 261.559 253.544"/><path fill="#e53950" d="M451.50565 42.49871l-40.14942 61.24681A35.441 35.441 0 0 0 392.52077 75.6114a34.80481 34.80481 0 0 0-24.6281-2.92333l39.4091-60.1174a98.97133 98.97133 0 0 1 44.20388 29.928zM307.57873 163.96737L275.42066 86.59265 288.55387 61.029A98.29969 98.29969 0 0 1 310.551 32.56638l28.8601 69.43954z"/><polygon fill="#dde8ef" points="303.31 172.28 267.35 242.27 231.4 172.28 267.35 102.29 303.31 172.28"/><polygon fill="#ca2e43" points="276.95 223.58 267.35 242.27 241 293.56 207.418 218.969 231.4 172.28 241 153.59 276.95 223.58"/><path fill="#f1f6f9" d="M82.62789,134.54c-20.83952,10.8788-46.06942-4.156-45.93828-27.66384A100.02587,100.02587,0,0,1,90.24494,18.70693,98.48407,98.48407,0,0,1,223.44608,61.029l203.43736,395.9898c7.98223,15.53737,2.61982,34.93141-12.63977,43.43263a31.73589,31.73589,0,0,1-43.75215-13.22933L167.05718,91.23818c-8.99228-17.50343-30.81813-24.7429-48.10708-15.34484a35.4952,35.4952,0,0,0-18.46819,30.51117A31.41417,31.41417,0,0,1,83.867,133.8931Z"/><polygon fill="#e53950" points="328.433 405.356 360.591 327.981 392.424 389.943 360.266 467.317 328.433 405.356"/><polygon fill="#e53950" points="250.441 253.544 282.599 176.17 314.431 238.131 282.273 315.506 250.441 253.544"/><path fill="#e53950" d="M60.49435 42.49871l40.14942 61.24681A35.441 35.441 0 0 1 119.47923 75.6114a34.80481 34.80481 0 0 1 24.6281-2.92333l-39.4091-60.1174a98.97133 98.97133 0 0 0-44.20388 29.928zM204.42127 163.96737l32.15807-77.37472L223.44613 61.029A98.29969 98.29969 0 0 0 201.449 32.56638l-28.8601 69.43954z"/></svg>