<svg xmlns="http://www.w3.org/2000/svg" data-name="Layer 1" viewBox="0 0 512 512"><path fill="#7a6d79" d="M256,122.16309a7.49975,7.49975,0,0,1-7.5-7.5V7.5a7.5,7.5,0,0,1,15,0V114.66309A7.49975,7.49975,0,0,1,256,122.16309Z"/><path fill="#46cc8d" d="M361.37689,160.96137l-10.91128,97.53485a18.819,18.819,0,0,0,6.37616,16.31266l74.16111,64.28244a18.819,18.819,0,0,1-8.53668,32.65393l-96.13292,19.76268a18.819,18.819,0,0,0-13.54392,11.105l-38.2192,90.39577a18.819,18.819,0,0,1-33.69371,1.97176L192.37432,409.6596a18.819,18.819,0,0,0-14.74676-9.44941l-97.78187-8.41478a18.819,18.819,0,0,1-12.28718-31.43532l66.157-72.49386a18.819,18.819,0,0,0,4.42991-16.945l-22.21332-95.5964A18.819,18.819,0,0,1,142.03188,153.925l89.38938,40.51717a18.819,18.819,0,0,0,17.4846-1.0232l84.05328-50.667A18.819,18.819,0,0,1,361.37689,160.96137Z"/><path fill="#e53950" d="M443.63,258.26a18.51344,18.51344,0,0,1-5.6,11.40991l-70.28,68.5a18.83994,18.83994,0,0,0-5.41,16.66016l16.59,96.73a18.51392,18.51392,0,0,1-3.13,14.02,19.18481,19.18481,0,0,1-12.86,7.83984,18.48923,18.48923,0,0,1-11.31-2.02L264.76,425.73a18.84407,18.84407,0,0,0-17.52,0L160.37,471.3999a18.3987,18.3987,0,0,1-12,1.90015,19.13974,19.13974,0,0,1-12.55-8.28,18.4963,18.4963,0,0,1-2.75-13.46l16.59-96.73a18.84,18.84,0,0,0-5.41-16.66016l-70.28-68.5a18.46808,18.46808,0,0,1-5.68-14.25A19.10529,19.10529,0,0,1,74.86,241.8501a18.61662,18.61662,0,0,1,9.54-4.28L181.52,223.46a18.80788,18.80788,0,0,0,14.17-10.3l43.43-88.01a18.549,18.549,0,0,1,9.38-8.96,19.23389,19.23389,0,0,1,15,0,18.549,18.549,0,0,1,9.38,8.96l43.43,88.01a18.808,18.808,0,0,0,14.17,10.3l97.12,14.11011a18.46843,18.46843,0,0,1,11.59,6.33984A19.14381,19.14381,0,0,1,443.63,258.26Z"/><path fill="#ca2e43" d="M263.5 116.18994V287.48a7.5 7.5 0 1 1-15 0v-171.29A19.23389 19.23389 0 0 1 263.5 116.18994zM375.8 465.58008a19.18481 19.18481 0 0 1-12.86 7.83984l-95.92-129.75A7.49717 7.49717 0 1 1 279.08 334.76zM244.89 343.64014L148.37 473.30005a19.13974 19.13974 0 0 1-12.55-8.28l97.04-130.34009a7.50011 7.50011 0 1 1 12.03 8.96021zM443.63 258.26L258.48 323.23a7.497 7.497 0 1 1-4.96-14.1499l185.67-65.17017A19.14381 19.14381 0 0 1 443.63 258.26zM236.11 308.87012a7.48553 7.48553 0 0 1-9.62 4.46972L68.29 255.41992A19.10529 19.10529 0 0 1 74.86 241.8501L231.64 299.25A7.50661 7.50661 0 0 1 236.11 308.87012z"/><circle cx="256" cy="316.157" r="40.309" fill="#fed402"/><path fill="#fac600" d="M275.99518,281.16187a40.30173,40.30173,0,0,1-54.9903,54.99023,40.306,40.306,0,1,0,54.9903-54.99023Z"/><path fill="#7a6d79" d="M462.43262,110.52441a7.49974,7.49974,0,0,1-7.5-7.5V7.5a7.5,7.5,0,0,1,15,0v95.52441A7.49974,7.49974,0,0,1,462.43262,110.52441Z"/><path fill="#fed402" d="M466.03762,90.26521l9.88512,20.02943a4.02019,4.02019,0,0,0,3.027,2.19922l22.10379,3.21187a4.02022,4.02022,0,0,1,2.228,6.85725L487.2871,138.15372a4.02019,4.02019,0,0,0-1.1562,3.55841l3.77578,22.01448a4.02022,4.02022,0,0,1-5.83313,4.238l-19.77023-10.39383a4.02024,4.02024,0,0,0-3.74153,0l-19.77024,10.39383a4.02021,4.02021,0,0,1-5.83312-4.238l3.77578-22.01448a4.02019,4.02019,0,0,0-1.1562-3.55841L421.58356,122.563a4.02021,4.02021,0,0,1,2.228-6.85725l22.10379-3.21187a4.02019,4.02019,0,0,0,3.027-2.19922l9.88512-20.02943A4.02021,4.02021,0,0,1,466.03762,90.26521Z"/><path fill="#7a6d79" d="M49.56738,110.52441a7.49974,7.49974,0,0,1-7.5-7.5V7.5a7.5,7.5,0,0,1,15,0v95.52441A7.49974,7.49974,0,0,1,49.56738,110.52441Z"/><path fill="#fed402" d="M53.17251,90.26521l9.88512,20.02943a4.02019,4.02019,0,0,0,3.027,2.19922l22.10379,3.21187a4.02021,4.02021,0,0,1,2.228,6.85725L74.422,138.15372a4.02019,4.02019,0,0,0-1.1562,3.55841l3.77578,22.01448a4.02021,4.02021,0,0,1-5.83312,4.238L51.43821,157.57079a4.02024,4.02024,0,0,0-3.74153,0L27.92645,167.96462a4.02022,4.02022,0,0,1-5.83313-4.238l3.77578-22.01448a4.02019,4.02019,0,0,0-1.1562-3.55841L8.71845,122.563a4.02022,4.02022,0,0,1,2.228-6.85725l22.10379-3.21187a4.02019,4.02019,0,0,0,3.027-2.19922l9.88512-20.02943A4.02021,4.02021,0,0,1,53.17251,90.26521Z"/><path fill="#fac600" d="M74.42464 138.14476a4.0387 4.0387 0 0 0-1.16 3.56006l3.78 22.02a4.02007 4.02007 0 0 1-5.84 4.23l-19.77-10.39014a4.64422 4.64422 0 0 0-.94-.34985 58.02636 58.02636 0 0 0 13.24-30.11987 56.73541 56.73541 0 0 0-.48-16.47022 3.97665 3.97665 0 0 0 2.83 1.86011l22.1 3.22a4.014 4.014 0 0 1 2.23 6.8501zM487.28975 138.1787a4.0387 4.0387 0 0 0-1.16 3.56006l3.78 22.02a4.02007 4.02007 0 0 1-5.84 4.23l-19.77-10.39014a4.64348 4.64348 0 0 0-.94-.34985 58.02644 58.02644 0 0 0 13.24006-30.11988 56.735 56.735 0 0 0-.48-16.47021 3.97668 3.97668 0 0 0 2.83 1.86011l22.1 3.22a4.014 4.014 0 0 1 2.23 6.85009z"/></svg>