<svg xmlns="http://www.w3.org/2000/svg" data-name="Layer 1" viewBox="0 0 512 512"><ellipse cx="322.392" cy="322.392" fill="#26a6fe" rx="112.868" ry="78.349" transform="rotate(-45 322.392 322.392)"/><path fill="#0593fc" d="M402.20154,242.58228a56.32649,56.32649,0,0,0-17.96265-12.03736c13.88617,32.73169.14282,80.65943-36.44586,117.24805s-84.51642,50.332-117.24811,36.4458a56.32582,56.32582,0,0,0,12.03736,17.96265c30.59716,30.59716,91.13311,19.66919,135.21075-24.40845S432.79871,273.17944,402.20154,242.58228Z"/><path fill="#fed402" d="M241.98936,299.3769c-8.51279,14.73237-13.88142,29.9846-15.87664,44.513l177.66468-.21266c7.97662-14.25336,13.02016-28.94553,14.91921-42.95885Z"/><path fill="#fac600" d="M380.29181,300.42676a150.53545,150.53545,0,0,1-28.59448,43.31274l52.08-.06225.00141-.00245a136.90924,136.90924,0,0,0,7.69488-16.0885c.02436-.06115.04828-.12231.07257-.18347q.48323-1.21618.93732-2.43262.05741-.1538.11469-.30749.441-1.18928.85418-2.37756c.03144-.09058.06391-.18116.09516-.27173q1.3785-3.99152,2.44574-7.96363c.01342-.05.02569-.10009.03906-.15014q.31815-1.1911.60712-2.37891c.04492-.18432.08734-.36816.13122-.55237q.23721-.99444.4549-1.98645.07443-.34.14605-.67968.2005-.94446.38214-1.886c.04413-.22827.08893-.45654.13147-.68457q.18439-.988.34711-1.97229c.03052-.183.06329-.36633.09277-.54919q.20106-1.24768.37116-2.48926l.00037-.00257Z"/><path fill="#fed402" d="M496.01,228.99l-13.59,13.59a56.659,56.659,0,0,1-79.62.59c-.2-.2-.4-.38989-.6-.59s-.39-.4-.58-.6a56.62472,56.62472,0,0,1,.58-79.61l13.6-13.6a11.99254,11.99254,0,0,1,16.97,0l63.24,63.24A12.00465,12.00465,0,0,1,496.01,228.99Z"/><path fill="#fac600" d="M496.01,212.01l-63.24-63.24a11.99254,11.99254,0,0,0-16.97,0l-4.88086,4.88086,42.18858,42.18868a24.5982,24.5982,0,0,1-.0001,34.78718l-4.68628,4.68625a56.492,56.492,0,0,1-34.42707,16.32129q1.94981,1.125,3.96576,2.08569a56.75292,56.75292,0,0,0,64.46-11.14l13.59-13.59A12.00666,12.00666,0,0,0,496.01,212.01Z"/><path fill="#fac600" d="M448.12 234.17993a60.0411 60.0411 0 0 1-30.16 19.54 56.69619 56.69619 0 0 1-15.16-10.55 7.44349 7.44349 0 0 1 4.81-2.63989 44.84767 44.84767 0 0 0 28.95-15.92 7.50362 7.50362 0 0 1 11.56 9.56994zM420.17 208.22a44.96295 44.96295 0 0 0-15.92 28.95 7.49907 7.49907 0 0 1-2.63 4.81006 56.28757 56.28757 0 0 1-10.56-15.15991 59.9726 59.9726 0 0 1 19.54-30.15015 7.49981 7.49981 0 0 1 9.57 11.55z"/><path fill="#fed402" d="M242.58008,482.41992,228.99,496.01a12.00476,12.00476,0,0,1-16.98,0l-63.24-63.24a11.99268,11.99268,0,0,1,0-16.97L162.37,402.2a56.625,56.625,0,0,1,79.61-.57995c.2.19006.4.38.6001.57995s.38989.4.59.6001a56.659,56.659,0,0,1-.59,79.61987Z"/><path fill="#fac600" d="M253.72,417.96c-.57056-1.19824-1.193-2.37744-1.85144-3.5415a56.527,56.527,0,0,1-16.566,38.00146l-.05905.05905a31.14243,31.14243,0,0,1-44.042,0l-39.55515-39.55514L148.77,415.80005a11.99268,11.99268,0,0,0,0,16.97l63.24,63.24a12.00666,12.00666,0,0,0,16.98,0l13.59009-13.59009A56.75294,56.75294,0,0,0,253.72,417.96Z"/><path fill="#fac600" d="M253.72 417.96a60.04151 60.04151 0 0 1-19.54 30.16A7.5036 7.5036 0 0 1 224.61 436.56006 44.84661 44.84661 0 0 0 240.53 407.61a7.44239 7.44239 0 0 1 2.64-4.80994A56.69789 56.69789 0 0 1 253.72 417.96zM241.98 401.62a7.49908 7.49908 0 0 1-4.80994 2.63A44.96346 44.96346 0 0 0 208.22 420.16992 7.49974 7.49974 0 0 1 196.67 410.6a60.16613 60.16613 0 0 1 30.15-19.53992A56.27875 56.27875 0 0 1 241.98 401.62z"/><rect width="138.947" height="238.005" x="125.483" y="75.954" fill="#26a6fe" rx="31.049" transform="rotate(45 194.957 194.956)"/><path fill="#0593fc" d="M306.27417,137.97888l-29.99939-29.99939a31.04941,31.04941,0,0,1-.00061,43.90967l-124.385,124.38489a31.04889,31.04889,0,0,1-43.91016,0l-24.34082-24.3407.00074.00073,54.34008,54.34a31.04889,31.04889,0,0,0,43.91016,0l124.385-124.38489A31.04936,31.04936,0,0,0,306.27417,137.97888Z"/><path fill="#fed402" d="M373.93,96.99l-13.82,13.82007A57.29628,57.29628,0,0,1,294.9,122a56.60465,56.60465,0,0,1-15.14-10.55c-.22-.21-.43994-.41992-.65991-.63989s-.43006-.44006-.64014-.66016a57.2279,57.2279,0,0,1,.64014-80.34985L292.92,15.99a11.99269,11.99269,0,0,1,16.97,0l64.04,64.03A12.01069,12.01069,0,0,1,373.93,96.99Z"/><path fill="#fac600" d="M325.42 102.28A60.41508 60.41508 0 0 1 294.9 122a56.60465 56.60465 0 0 1-15.14-10.55 7.46662 7.46662 0 0 1 4.82007-2.63989A45.3881 45.3881 0 0 0 313.86 92.71 7.50369 7.50369 0 0 1 325.42 102.28zM297.2 76.05005A45.50348 45.50348 0 0 0 281.1001 105.33 7.466 7.466 0 0 1 278.46 110.1499 57.03922 57.03922 0 0 1 267.91 95a60.32439 60.32439 0 0 1 19.73-30.5 7.4966 7.4966 0 1 1 9.55994 11.55z"/><path fill="#fac600" d="M373.92332,80.06039l-63.24-63.24a11.99252,11.99252,0,0,0-16.97,0l-4.88086,4.88086L331.021,63.88994a24.5982,24.5982,0,0,1-.0001,34.78718l-4.68629,4.68625a56.49187,56.49187,0,0,1-34.42706,16.32128q1.94981,1.125,3.96576,2.0857a56.75291,56.75291,0,0,0,64.46-11.14l13.59-13.59A12.00666,12.00666,0,0,0,373.92332,80.06039Z"/><path fill="#fed402" d="M110.81006,360.11,96.99,373.92993a12.01058,12.01058,0,0,1-16.97,0L15.99,309.89a11.99283,11.99283,0,0,1,0-16.97009L29.80005,279.1a57.22789,57.22789,0,0,1,80.35-.64c.22.21.44007.42.66.64s.42993.44006.63989.66A56.60324,56.60324,0,0,1,122,294.8999,57.29645,57.29645,0,0,1,110.81006,360.11Z"/><path fill="#fac600" d="M122 294.8999a60.41383 60.41383 0 0 1-19.72 30.52A7.50364 7.50364 0 0 1 92.71 313.86a45.388 45.388 0 0 0 16.1001-29.28 7.46663 7.46663 0 0 1 2.63989-4.82A56.60324 56.60324 0 0 1 122 294.8999zM110.15 278.46a7.46648 7.46648 0 0 1-4.81994 2.64 45.505 45.505 0 0 0-29.28 16.1A7.4966 7.4966 0 1 1 64.5 287.64 60.32726 60.32726 0 0 1 95 267.90991 57.043 57.043 0 0 1 110.15 278.46z"/><path fill="#fac600" d="M121.7703,295.87325c-.57056-1.19824-1.193-2.37744-1.85144-3.5415a56.527,56.527,0,0,1-16.566,38.00146l-.059.05906a31.14244,31.14244,0,0,1-44.042,0L19.69657,290.83712l-2.87622,2.87622a11.99268,11.99268,0,0,0,0,16.97l63.24,63.24a12.00666,12.00666,0,0,0,16.98,0l13.59009-13.59009A56.75294,56.75294,0,0,0,121.7703,295.87325Z"/><path fill="#fed402" d="M306.27417,181.88918a30.98545,30.98545,0,0,0,6.11093-8.66718L118.4406,173.222,83.63886,208.0237a30.98526,30.98526,0,0,0-6.11093,8.66736l193.94441,0Z"/><path fill="#fac600" d="M308.19824,179.77246q.76867-.924,1.45386-1.89209c.06445-.09082.12744-.18249.19092-.27392.46875-.67652.91418-1.36475,1.32324-2.06836l.00806-.01441q.65569-1.12922,1.20947-2.29907l.00122-.00269h-57.4436l-43.46912,43.469h60l34.80188-34.80176c.59338-.59338,1.14941-1.20972,1.68433-1.83752C308.03809,179.95837,308.11987,179.86646,308.19824,179.77246Z"/></svg>