<svg xmlns="http://www.w3.org/2000/svg" data-name="Layer 1" viewBox="0 0 512 512"><path fill="#554e56" d="M487.86035,105.46411a77.549,77.549,0,0,0-80.90723-36.1748l-93.563,17.78735V362.70605l143.854-104.6582a115.11193,115.11193,0,0,0,30.61621-152.58374Zm-61.42041,115.575L354.76245,273.187V124.93457L411.294,114.188a32.2122,32.2122,0,0,1,33.57373,15.01123h0A69.28562,69.28562,0,0,1,426.43994,221.03906Z"/><path fill="#433f43" d="M381.294,114.188l-56.5315,10.74658V273.187l30-21.82617V124.93457l45.37085-8.625A32.08575,32.08575,0,0,0,381.294,114.188Z"/><path fill="#433f43" d="M487.86035,105.46411a77.549,77.549,0,0,0-80.90723-36.1748l-.60034.114a78.28609,78.28609,0,0,1,51.50757,36.06079,115.11193,115.11193,0,0,1-30.61621,152.58374l-113.854,82.83228v21.82592l143.854-104.6582a115.11193,115.11193,0,0,0,30.61621-152.58374Z"/><path fill="#554e56" d="M94.7758,357.29287v62.88177a17.47033,17.47033,0,0,1-17.43119,17.5092H69.122a33.33388,33.33388,0,0,0-33.25921,33.408v.00007A33.33388,33.33388,0,0,0,69.122,504.5H150.3898a34.50019,34.50019,0,0,0,34.42291-34.577V357.29287Z"/><path fill="#433f43" d="M169.81274,357.293V454.9231A34.50024,34.50024,0,0,1,135.38965,489.5H54.12207a32.9908,32.9908,0,0,1-14.74341-3.46118A33.23725,33.23725,0,0,0,69.12207,504.5h81.26758a34.50024,34.50024,0,0,0,34.42309-34.5769V357.293Z"/><path fill="#554e56" d="M274.84962,357.29287v62.88177a17.47033,17.47033,0,0,0,17.43119,17.5092h8.22264a33.33388,33.33388,0,0,1,33.25921,33.408v.00007A33.33388,33.33388,0,0,1,300.50345,504.5H219.23562a34.50019,34.50019,0,0,1-34.42291-34.577V357.29287Z"/><path fill="#433f43" d="M300.50342,437.68384h-8.22266a17.47031,17.47031,0,0,1-17.43115-17.50928V357.293H184.81274v15h75.03687v62.88159a17.47031,17.47031,0,0,0,17.43115,17.50928h8.22266a33.33384,33.33384,0,0,1,33.25928,33.408h0a33.37836,33.37836,0,0,1-3.51587,14.947,33.41715,33.41715,0,0,0,18.51587-29.947h0A33.33384,33.33384,0,0,0,300.50342,437.68384Z"/><path fill="#e53950" d="M371.82007,50.23V277.10986A124.07924,124.07924,0,0,1,367.85986,308.28c-.30981,1.17993-.62988,2.34985-.96972,3.52A123.36159,123.36159,0,0,1,270.78,398.79l-8.38989,1.54a418.8885,418.8885,0,0,1-155.02-.75,123.44534,123.44534,0,0,1-95.26026-87.91016c-.16992-.59985-.32983-1.2-.48974-1.7998-.17017-.61011-.33008-1.23-.48-1.8501A124.26593,124.26593,0,0,1,7.5,278.12012V50.23a7.97661,7.97661,0,0,1,7.96-8h348.3999A7.97667,7.97667,0,0,1,371.82007,50.23Z"/><path fill="#ca2e43" d="M363.85986,42.23H341.82007V262.10986A124.07924,124.07924,0,0,1,337.85986,293.28c-.30981,1.17993-.62988,2.34985-.96972,3.52A123.36159,123.36159,0,0,1,240.78,383.79l-8.38989,1.54a418.8885,418.8885,0,0,1-155.02-.75,123.22576,123.22576,0,0,1-16.1023-4.25659,122.47152,122.47152,0,0,0,46.1023,19.25659,418.8885,418.8885,0,0,0,155.02.75l8.38989-1.54a123.36159,123.36159,0,0,0,96.11011-86.99c.33984-1.17017.65991-2.34009.96972-3.52a124.07924,124.07924,0,0,0,3.96021-31.17017V50.23A7.97667,7.97667,0,0,0,363.85986,42.23Z"/><rect width="364.32" height="58.95" x="7.5" y="153.73" fill="#554e56"/><rect width="30" height="58.95" x="341.82" y="153.73" fill="#433f43"/><rect width="15" height="58.95" x="293.05" y="153.73" fill="#685e68"/><rect width="15" height="58.95" x="71.27" y="153.73" fill="#685e68"/><path fill="#433f43" d="M234.8501,148.82007v68.76A11.39508,11.39508,0,0,1,223.45,228.98H155.87012A11.40148,11.40148,0,0,1,144.47,217.58008v-68.76a11.39941,11.39941,0,0,1,11.40015-11.39014H223.45A11.393,11.393,0,0,1,234.8501,148.82007Z"/><path fill="#554e56" d="M181.97,184.21a7.50272,7.50272,0,0,1-7.5,7.5h-30v-15h30A7.50288,7.50288,0,0,1,181.97,184.21Z"/><path fill="#f1f6f9" d="M366.89014,311.80005A123.36159,123.36159,0,0,1,270.78,398.79l-8.38989,1.54a418.8885,418.8885,0,0,1-155.02-.75,123.44534,123.44534,0,0,1-95.26026-87.91016,609.90516,609.90516,0,0,0,168.75,26.28A609.195,609.195,0,0,0,366.89014,311.80005Z"/><path fill="#dde8ef" d="M240.78,383.79l-8.38989,1.54a418.8885,418.8885,0,0,1-155.02-.75,123.22576,123.22576,0,0,1-16.1023-4.25659q1.22827.84192,2.47925,1.654.09667.063.1936.12549,1.18763.76941,2.39429,1.512l.1875.116q5.1797,3.17505,10.70093,5.84765c.12305.05957.24707.11743.37036.17652q1.1499.55115,2.31421,1.07959.28344.12853.56787.25561,1.09387.49,2.2.9585c.20117.0852.40137.17138.603.25561q1.158.48414,2.32983.94483c.15259.06006.304.12231.457.18188q2.82093,1.099,5.71289,2.06348c.19483.06494.39161.126.58692.18994q1.11291.36474,2.23535.71094c.30981.09472.62109.186.93188.27881q.96608.28784,1.93848.56152.52111.14576,1.04443.28735.94263.25525,1.89234.49536c.35132.08912.70239.1792,1.05517.26539.67261.1643,1.34839.32055,2.02564.47412.30688.06958.6123.14257.92041.20971q1.47363.32227,2.96094.61231a418.8885,418.8885,0,0,0,155.02.75l8.38989-1.54a123.36159,123.36159,0,0,0,96.11011-86.99c-12.40528,3.76782-26.05713,7.471-40.84717,10.8562A123.07127,123.07127,0,0,1,240.78,383.79Z"/></svg>