<svg xmlns="http://www.w3.org/2000/svg" data-name="Layer 1" viewBox="0 0 512 512"><path fill="#f1f6f9" d="M164.31166,157.065,144.7104,137.19738a4.2117,4.2117,0,0,0-5.3333-.5289,23.08874,23.08874,0,1,1-20.2213-41.105,4.162,4.162,0,0,0,2.57213-2.53765A23.089,23.089,0,1,1,162.55633,113.8a4.2117,4.2117,0,0,0,.45688,5.34l33.6605,31.50617"/><path fill="#c86d36" d="M196.67371,150.64611c33.13592,14.445,67.33833.93617,95.2851,19.50341,16.84341,11.19043,28.91531,32.37168,28.23789,53.80084-.10552,3.33767-1.03,22.80461-15.35648,36.96311-20.229,19.99186-59.55882,21.86992-84.50337,6.14608-24.00861-15.13385-32.1553-44.49642-39.58708-70.11611-3.88362-13.38805-7.03915-29.09354-16.44769-39.91351Z"/><path fill="#dc8758" d="M471.35059,336.17578c9.04126,40.11548-18.902,82.39771-47.96,104.32422-19.65393,14.83032-39.58374,20.17212-140.57861,21.89331C127.79962,465.03516,110.098,453.553,99.719,440.5c-28.04333-35.26855-9.79766-91.0249-5.44561-104.32422C119.29791,259.7041,203.81055,204.36279,282.812,209.9585c52.584,3.72461,93.824,34.23462,127.06018,58.823C443.41638,293.59766,465.12927,308.57178,471.35059,336.17578Z"/><path fill="#d77f4a" d="M471.35059,336.17578c-6.22132-27.604-27.93421-42.57812-61.4784-67.39429C376.636,244.19312,335.396,213.68311,282.812,209.9585a161.16017,161.16017,0,0,0-26.28125.324c50.81214,4.85962,90.894,34.49414,123.34143,58.499,33.54419,24.81617,55.25708,39.79029,61.4784,67.39429,9.04126,40.11548-18.902,82.39771-47.96,104.32422-19.65393,14.83032-39.58374,20.17212-140.57861,21.89331-9.20032.15674-17.90161.26221-26.16162.32227,16.384.13427,34.98291.03881,56.16162-.32227,100.99487-1.72119,120.92468-7.063,140.57861-21.89331C452.44861,418.57349,480.39185,376.29126,471.35059,336.17578Z"/><path fill="#f1f6f9" d="M80.83932,253.38753,56.26858,233.83914a4.73821,4.73821,0,0,0-6.02811.12811A25.97517,25.97517,0,1,1,22.1147,190.78209a4.68231,4.68231,0,0,0,2.5308-3.181,25.97544,25.97544,0,1,1,48.40177,17.69987,4.73823,4.73823,0,0,0,1.23005,5.90268l41.84238,30.65264"/><path fill="#d77f4a" d="M334.60734,437.64605c3.233-17.82335,9.18132-38.23651,12.45468-56.09837a.9434.9434,0,0,0-.89063-1.10472c-11.95306-.70445-22.50807-7.54071-27.28248-17.82643a29.46923,29.46923,0,0,1-2.5615-14.96247,4.97419,4.97419,0,0,0-6.59274-5.07588,30.80855,30.80855,0,0,1-18.455.73182,31.94789,31.94789,0,0,1-17.8478-12.93817,4.95671,4.95671,0,0,0-7.10614-1.106,27.99865,27.99865,0,0,1-32.72389,1.936.94541.94541,0,0,0-1.32189,1.26077,27.99867,27.99867,0,0,1-3.48172,32.59569,4.95672,4.95672,0,0,0,.76866,7.1505,31.94789,31.94789,0,0,1,12.07946,18.43982c2.56937,11.52441-2.21293,20.67407-5.00153,24.80327a.94636.94636,0,0,0,1.019,1.44715,31.06453,31.06453,0,0,1,21.96146,2.24119c10.04836,5.25559,16.3777,16.12216,16.516,28.09516a.94341.94341,0,0,0,1.06135.94189c17.9967-2.4248,38.66838-7.40091,56.62471-9.7872A.908.908,0,0,0,334.60734,437.64605Z"/><path fill="#c86d36" d="M116.1197,241.85626c38.95686,11.66748,75.33713-8.03063,109.05379,8.94051,20.32091,10.22847,36.65908,32.25894,38.79081,56.28471.332,3.74211,1.9233,25.60956-12.16973,43.35435-19.89941,25.05573-63.57418,32.45444-93.55438,18.25448-28.85532-13.66715-41.9121-45.36449-53.66591-72.97771-6.14218-14.42981-11.7835-31.54614-23.75038-42.363Z"/><path fill="#fef6ad" d="M351.39015 171.48823c6.63588-15.80072 12.66928-34.26362 8.60443-51.5625-2.63591-11.21774-9.12425-19.9525-13.39142-30.22582-15.19485-36.582 24.40067-52.64966 44.01258-60.46921-3.18969 1.27178-7.68585 14.71438-8.74468 18.63656-3.10324 11.4961.09077 22.00762 5.137 31.48662 3.63007 6.81889 7.78623 13.503 9.29042 21.63749 2.58123 13.959-3.91733 27.27634-11.44256 36.07962C374.31971 149.39658 362.29976 159.70711 351.39015 171.48823zM432.06275 218.7693c4.61762-10.99506 8.816-23.84262 5.98746-35.88018-1.83422-7.80595-6.34919-13.88411-9.31853-21.03288-10.57346-25.45584 16.9794-36.63669 30.6265-42.078-2.21957.885-5.34826 10.23912-6.08505 12.9684-2.15942 7.99965.06316 15.31417 3.5746 21.91022 2.526 4.745 5.41811 9.39615 6.46481 15.05661 1.79617 9.71351-2.72591 18.98046-7.96239 25.10629C448.01846 203.39664 439.65428 210.57131 432.06275 218.7693z"/><path fill="#d77f4a" d="M326.98385,437.65571c-3.23337-17.82993-9.18535-38.2528-12.4588-56.121a.93167.93167,0,0,1,.87986-1.091c11.95846-.70021,22.51946-7.53772,27.29561-17.8272A29.46923,29.46923,0,0,0,345.262,347.6541a4.97419,4.97419,0,0,1,6.59279-5.07591,30.8084,30.8084,0,0,0,18.455.73181,31.94775,31.94775,0,0,0,17.84775-12.93813,4.95674,4.95674,0,0,1,7.10623-1.106,27.99887,27.99887,0,0,0,32.72941,1.93254.94372.94372,0,0,1,1.3195,1.25849,27.99892,27.99892,0,0,0,3.47852,32.60137,4.95672,4.95672,0,0,1-.76867,7.15058,31.94779,31.94779,0,0,0-12.07942,18.43978,30.8086,30.8086,0,0,0,1.60429,18.40061,4.97353,4.97353,0,0,1-4.75777,6.82465,29.4694,29.4694,0,0,0-14.82548,3.26635c-10.05205,5.25752-16.38235,16.13013-16.51612,28.10832a.93167.93167,0,0,1-1.04818.93048c-18.003-2.42459-38.68454-7.40388-56.64746-9.79025A.8945.8945,0,0,1,326.98385,437.65571Z"/><path fill="#46cc8d" d="M311.98385,437.65571c-3.23337-17.82993-9.18535-38.2528-12.4588-56.121a.93167.93167,0,0,1,.87986-1.091c11.95846-.70021,22.51946-7.53772,27.29561-17.8272A29.46923,29.46923,0,0,0,330.262,347.6541a4.97419,4.97419,0,0,1,6.59279-5.07591,30.8084,30.8084,0,0,0,18.455.73181,31.94775,31.94775,0,0,0,17.84775-12.93813,4.95674,4.95674,0,0,1,7.10623-1.106,27.99887,27.99887,0,0,0,32.72941,1.93254.94372.94372,0,0,1,1.3195,1.25849,27.99892,27.99892,0,0,0,3.47852,32.60137,4.95672,4.95672,0,0,1-.76867,7.15058,31.94779,31.94779,0,0,0-12.07942,18.43978,30.8086,30.8086,0,0,0,1.60429,18.40061,4.97353,4.97353,0,0,1-4.75777,6.82465,29.4694,29.4694,0,0,0-14.82548,3.26635c-10.05205,5.25752-16.38235,16.13013-16.51612,28.10832a.93167.93167,0,0,1-1.04818.93048c-18.003-2.42459-38.68454-7.40388-56.64746-9.79025A.8945.8945,0,0,1,311.98385,437.65571Z"/><path fill="#00c27a" d="M312.28027,445.61328a7.5,7.5,0,0,1-5.42627-12.67676l59.80518-62.7041a7.50026,7.50026,0,1,1,10.85449,10.35352L317.7085,443.29A7.47865,7.47865,0,0,1,312.28027,445.61328Z"/><path fill="#46cc8d" d="M315.69915,375.66467a30.21713,30.21713,0,0,1-11.81024-13.04814,29.46923,29.46923,0,0,1-2.5615-14.96247,4.97419,4.97419,0,0,0-6.59274-5.07588,30.80855,30.80855,0,0,1-18.455.73182,31.94789,31.94789,0,0,1-17.8478-12.93817,4.95671,4.95671,0,0,0-7.10614-1.106,27.99865,27.99865,0,0,1-32.72389,1.936.94541.94541,0,0,0-1.32189,1.26077,27.99867,27.99867,0,0,1-3.48172,32.59569,4.95672,4.95672,0,0,0,.76866,7.1505,31.94789,31.94789,0,0,1,12.07946,18.43982c2.56937,11.52441-2.21293,20.67407-5.00153,24.80327a.94636.94636,0,0,0,1.019,1.44715,31.06453,31.06453,0,0,1,21.96146,2.24119c10.04836,5.25559,16.3777,16.12216,16.516,28.09516a.94341.94341,0,0,0,1.06135.94189c9.35875-1.261,19.44089-3.21186,29.48838-5.12972"/><path fill="#00c27a" d="M319.30908,445.61328a7.47943,7.47943,0,0,1-5.42822-2.32324l-59.80518-62.7041a7.50026,7.50026,0,1,1,10.8545-10.35352l59.80517,62.7041a7.5,7.5,0,0,1-5.42627,12.67676Z"/><circle cx="315" cy="428" r="27" fill="#e53950"/><path fill="#ca2e43" d="M324.40332,402.68555a27.00409,27.00409,0,0,1-31.20068,41.24218,26.99976,26.99976,0,1,0,31.20068-41.24218Z"/><path fill="#7a6d79" d="M455.43013,504.5H56.56987A30,30,0,0,1,29.4061,487.233L7.5,440.5h497l-21.9061,46.733A30,30,0,0,1,455.43013,504.5Z"/><path fill="#685e68" d="M457.72717,440.5l-10.50964,22.42041a30,30,0,0,1-27.16382,17.26709H26.10352l3.30261,7.04541A29.99978,29.99978,0,0,0,56.56982,504.5H455.43018a29.99978,29.99978,0,0,0,27.16369-17.26709L504.5,440.5Z"/></svg>