<svg xmlns="http://www.w3.org/2000/svg" data-name="Layer 1" viewBox="0 0 512 512"><path fill="#7c4b37" d="M467.24951,13.58887,345.2334,129.1189,330.16748,383.3252l116.583-79.29639A132.01988,132.01988,0,0,0,504.5,194.8623V29.64307C504.5,10.24927,481.3252.26123,467.24951,13.58887ZM447.14893,194.8623a74.52643,74.52643,0,0,1-32.63257,61.68482l-67.011,44.42578,10.89111-105.29614,88.75245-84.03491Z"/><path fill="#aa6a51" d="M263.21818,504.5h-143.62a72.30043,72.30043,0,0,1-71.90566-64.8706L4.9285,26.41811A17.14927,17.14927,0,0,1,21.98249,7.5H360.83384a17.14927,17.14927,0,0,1,17.054,18.91811l-42.764,413.21129A72.30043,72.30043,0,0,1,263.21818,504.5Z"/><ellipse cx="191.408" cy="406.364" fill="#e53950" rx="56.007" ry="56.029"/><path fill="#ca2e43" d="M223.90381,360.74414a56.00064,56.00064,0,0,1-83.75293,68.20093,56.00965,56.00965,0,1,0,83.75293-68.20093Z"/><path fill="#bc7c63" d="M369.42652,108.17637q-54.03609,23.64987-108.07162,47.29974a62.99471,62.99471,0,0,0-37.72267,58.68123q.20637,13.42579.413,26.85215a63.00378,63.00378,0,0,0,21.64267,46.56638l96.48581,83.93322"/><ellipse cx="290.219" cy="226.641" fill="#554e56" rx="24.036" ry="24.045"/><path fill="#433f43" d="M301.78711,205.562a24.0411,24.0411,0,0,1-33.31934,31.3147,24.03942,24.03942,0,1,0,33.31934-31.3147Z"/><path fill="#bc7c63" d="M13.39558,108.17637q54.03609,23.64987,108.07162,47.29974a62.9947,62.9947,0,0,1,37.72267,58.68123q-.20636,13.42579-.413,26.85215a63.00382,63.00382,0,0,1-21.64268,46.56638L40.64838,371.50909Z"/><ellipse cx="92.603" cy="226.641" fill="#554e56" rx="24.036" ry="24.045"/><path fill="#433f43" d="M104.17126,205.562a24.04109,24.04109,0,0,1-33.31933,31.3147,24.03942,24.03942,0,1,0,33.31933-31.3147Z"/></svg>