<svg xmlns="http://www.w3.org/2000/svg" data-name="Layer 1" viewBox="0 0 512 512"><rect width="420.18" height="131.16" x="7.5" y="339.69" fill="#f1f6f9" rx="30"/><path fill="#dde8ef" d="M397.67847,339.68506h-15V367.1576a73.69385,73.69385,0,0,1-73.69385,73.69384H7.5a30,30,0,0,0,30,30H397.67847a30,30,0,0,0,30-30V369.68506A30,30,0,0,0,397.67847,339.68506Z"/><path fill="#e53950" d="M309.74,182.33l93.40991,157.36h-370.79L190.80005,61.12a39.34716,39.34716,0,0,1,55.49-13.73L421.3999,159.82007l39.77,25.53992Z"/><path fill="#ca2e43" d="M288.9627,153.17211a23.41128,23.41128,0,0,0-20.59991,35.35682L306.107,252.11357c15.08332,25.4097-3.2294,57.57637-32.77869,57.57637H49.42285l-17.063,30h370.79L309.74,182.33l151.42993,3.03-45.88871-29.46928Z"/><ellipse cx="461.175" cy="184.05" fill="#f1f6f9" rx="43.325" ry="43.518"/><path fill="#dde8ef" d="M483.32129,146.648a43.55847,43.55847,0,0,1-37.14673,65.92065,42.96954,42.96954,0,0,1-22.14648-6.116A43.3901,43.3901,0,1,0,483.32129,146.648Z"/><path fill="#e53950" d="M427.67993,390.77v15c-16.07007,0-23.91992,3.13989-32.23,6.46-9.27,3.71-18.84985,7.54-37.80981,7.54-18.9502,0-28.53028-3.83008-37.8-7.54-8.31006-3.32007-16.16016-6.46-32.23023-6.46-16.05981,0-23.91992,3.13989-32.23,6.46-9.27,3.71-18.84985,7.54-37.7998,7.54-18.9502,0-28.53-3.83008-37.8-7.54-8.31006-3.32007-16.15991-6.46-32.23-6.46-16.06006,0-23.90991,3.13989-32.23,6.46-9.26,3.71-18.84009,7.54-37.79,7.54s-28.53-3.83008-37.8-7.54c-8.31006-3.32007-16.16992-6.46-32.23-6.46v-15c18.95,0,28.53,3.83,37.80005,7.53,8.30981,3.32995,16.15991,6.47,32.23,6.47,16.06006,0,23.90991-3.14,32.23-6.47,9.26-3.70007,18.84009-7.53,37.79-7.53s28.53,3.83,37.80005,7.53c8.31982,3.32995,16.16992,6.47,32.23,6.47s23.91992-3.14,32.23-6.47c9.27-3.70007,18.84985-7.53,37.7998-7.53,18.9502,0,28.54,3.83,37.80005,7.53,8.32007,3.32995,16.17017,6.47,32.23023,6.47,16.06982,0,23.91992-3.14,32.23974-6.47C399.14014,394.6,408.73,390.77,427.67993,390.77Z"/><path fill="#ca2e43" d="M427.67847,390.77c-18.949.00024-28.53858,3.83008-37.79859,7.53a80.64364,80.64364,0,0,1-16.81372,5.23279,73.94934,73.94934,0,0,1-12.4602,16.19934c17.01074-.37891,26.07251-3.9917,34.844-7.5022,8.30982-3.32,16.15943-6.45972,32.22852-6.46Z"/><circle cx="78.717" cy="381.145" r="7.5" fill="#46cc8d"/><circle cx="150.864" cy="427.012" r="7.5" fill="#46cc8d"/><circle cx="214.5" cy="382.335" r="7.5" fill="#46cc8d"/><circle cx="291.171" cy="428.201" r="7.5" fill="#46cc8d"/><circle cx="356.673" cy="383.525" r="7.5" fill="#46cc8d"/></svg>