<svg xmlns="http://www.w3.org/2000/svg" data-name="Layer 1" viewBox="0 0 512 512"><rect width="497" height="79" x="7.5" y="7.5" fill="#ecbba3" rx="15"/><path fill="#e8ad8c" d="M489.5,7.5h-30V20.2902A36.2098,36.2098,0,0,1,423.2902,56.5H7.5v15a15,15,0,0,0,15,15h467a15,15,0,0,0,15-15v-49A15,15,0,0,0,489.5,7.5Z"/><rect width="457" height="418" x="27.5" y="86.5" fill="#f4d7c8"/><rect width="90" height="418" x="394.5" y="86.5" fill="#e8ad8c"/><path fill="#c57a44" d="M394.5,504.5h-277V323.7081A138.49986,138.49986,0,0,1,255.99986,185.20824h.00038C332.13892,183.36462,394.48975,247.16309,394.5,323.70813Z"/><polygon fill="#e8ad8c" points="117.5 86.61 117.5 504.5 27.5 504.5 27.5 86.5 117.1 86.5 117.5 86.61"/><rect width="90" height="60.93" x="27.5" y="436.07" fill="#e19974"/><rect width="90" height="60.93" x="394.5" y="436.07" fill="#e19974"/><rect width="457" height="60.93" x="27.5" y="86.5" fill="#e19974"/><path fill="#e8ad8c" d="M504.5 39.5v15H466.87012a7.5 7.5 0 0 1 0-15zM52.62988 47a7.49623 7.49623 0 0 1-7.5 7.5H7.5v-15H45.12988A7.49623 7.49623 0 0 1 52.62988 47z"/><path fill="#e19974" d="M484.5 176.37v15H456.26a7.5 7.5 0 0 1 0-15zM430.24 228.87a7.5028 7.5028 0 0 1-7.5 7.5H394.5v-15h28.24A7.50279 7.50279 0 0 1 430.24 228.87zM484.5 266.37v15H456.26a7.5 7.5 0 0 1 0-15zM430.24 318.87a7.5028 7.5028 0 0 1-7.5 7.5H394.5v-15h28.24A7.50279 7.50279 0 0 1 430.24 318.87zM484.5 356.37v15H456.26a7.5 7.5 0 0 1 0-15zM430.24 408.87a7.5028 7.5028 0 0 1-7.5 7.5H394.5v-15h28.24A7.50279 7.50279 0 0 1 430.24 408.87zM117.5 176.37v15H89.26a7.5 7.5 0 1 1 0-15zM63.24 228.87a7.5028 7.5028 0 0 1-7.5 7.5H27.5v-15H55.74A7.50279 7.50279 0 0 1 63.24 228.87zM117.5 266.37v15H89.26a7.5 7.5 0 1 1 0-15zM63.24 318.87a7.5028 7.5028 0 0 1-7.5 7.5H27.5v-15H55.74A7.50279 7.50279 0 0 1 63.24 318.87zM117.5 356.37v15H89.26a7.5 7.5 0 1 1 0-15zM63.24 408.87a7.5028 7.5028 0 0 1-7.5 7.5H27.5v-15H55.74A7.50279 7.50279 0 0 1 63.24 408.87z"/><polygon fill="#883f2e" points="193.483 500.038 164.981 450.672 305.025 369.818 300.892 438.025 193.483 500.038"/><ellipse cx="176.005" cy="477.218" fill="#6d3326" rx="23.213" ry="28.501" transform="rotate(-30 176.005 477.218)"/><polygon fill="#883f2e" points="318.517 500.038 347.019 450.672 206.975 369.818 209.747 437.24 318.517 500.038"/><ellipse cx="335.995" cy="477.218" fill="#6d3326" rx="28.501" ry="23.213" transform="rotate(-60 335.995 477.218)"/><path fill="#fed402" d="M334.32622,382.01354c-2.0035,33.01108-32.65379,75.77069-76.86911,76.86912-35.43044.88019-66.04433-25.67508-75.90518-56.14295-.88347-2.73-12.14331-39.18211,6.90507-61.75311,13.9364-16.51357,31.58692-10.77446,43.695-25.83545,7.58665-9.43689,13.16155-27.24381,1.00431-64.189,8.98251,1.818,52.34252,11.57333,80.27047,53.17224C335.59128,337.14835,335.0061,370.81071,334.32622,382.01354Z"/><path fill="#fac600" d="M313.42676,304.1344c-19.34888-28.82019-46.09668-42.34949-63.69629-48.55054a122.27021,122.27021,0,0,1,33.69629,33.55054c22.16455,33.01392,21.57934,66.67627,20.89941,77.87915-2.00342,33.01111-32.65381,75.77063-76.86914,76.869a69.73293,69.73293,0,0,1-18.43213-2.03479c13.46729,10.75134,30.31568,17.485,48.43213,17.03479,44.21533-1.09839,74.86572-43.85791,76.86914-76.869C335.0061,370.81067,335.59131,337.14832,313.42676,304.1344Z"/><path fill="#fdb441" d="M295.7658,419.86709c-1.01717,16.75955-16.57815,38.46837-39.026,39.026-17.98785.44687-33.53035-13.0351-38.53666-28.50347-.44853-1.386-6.16509-19.89255,3.50567-31.35172,7.07543-8.38386,16.03651-5.47014,22.1837-13.11652,3.85171-4.79106,6.68205-13.83154.50989-32.58839,4.56037.923,26.574,5.87571,40.75288,26.99526A64.59247,64.59247,0,0,1,295.7658,419.86709Z"/><path fill="#fea613" d="M285.15527,380.32825a61.93621,61.93621,0,0,0-15.78564-16.1239c.26245.373.52808.74023.78564,1.1239a64.59329,64.59329,0,0,1,10.6106,39.53882c-1.01733,16.75964-16.57837,38.46838-39.02612,39.026a36.97008,36.97008,0,0,1-19.8086-5.34156c7.01123,11.74427,20.08936,20.70728,34.8086,20.34156,22.44775-.55762,38.00879-22.26636,39.02612-39.026A64.59329,64.59329,0,0,0,285.15527,380.32825Z"/><path fill="#a79ba7" d="M504.5,512H7.5a7.5,7.5,0,0,1,0-15h497a7.5,7.5,0,0,1,0,15Z"/></svg>