<svg xmlns="http://www.w3.org/2000/svg" data-name="Layer 1" viewBox="0 0 512 512"><path fill="#e53950" d="M255.99978,131.5h.00043A215.99978,215.99978,0,0,1,472,347.49978V413.5a0,0,0,0,1,0,0H40a0,0,0,0,1,0,0V347.49978A215.99978,215.99978,0,0,1,255.99978,131.5Z"/><path fill="#ca2e43" d="M346.21881,151.2002a215.54937,215.54937,0,0,1,78.15881,166.29956v.00006A66.00018,66.00018,0,0,1,358.37745,383.5H40v30H472V347.49976A216.02379,216.02379,0,0,0,346.21881,151.2002Z"/><path fill="#f1f6f9" d="M319.87618,86.37618c0,5.361-8.5689,9.52459-9.89047,14.46895-1.36738,5.11575,3.9313,12.99771,1.33982,17.47673-2.62875,4.54343-12.12805,3.87774-15.81537,7.565s-3.02171,13.18654-7.56515,15.81522c-4.479,2.59138-12.36079-2.70742-17.47646-1.3401-4.94423,1.3215-9.10768,9.89037-14.46855,9.89037-5.361,0-9.52459-8.5689-14.469-9.89047-5.11575-1.36738-12.99771,3.93129-17.47673,1.33981-4.54343-2.62874-3.87774-12.128-7.565-15.81536s-13.18654-3.02171-15.81522-7.56515c-2.59138-4.479,2.70742-12.36079,1.3401-17.47646-1.3215-4.94423-9.89037-9.10768-9.89037-14.46855,0-5.361,8.5689-9.52459,9.89047-14.469,1.36738-5.11575-3.93129-12.99771-1.33981-17.47673,2.62874-4.54343,12.128-3.87774,15.81536-7.565S219.51155,33.679,224.055,31.05027c4.479-2.59138,12.36079,2.70742,17.47646,1.34009C246.47568,31.06887,250.63913,22.5,256,22.5c5.361,0,9.52459,8.5689,14.469,9.89047,5.11575,1.36738,12.99771-3.9313,17.47673-1.33982,4.54343,2.62875,3.87774,12.128,7.565,15.81537s13.18654,3.02171,15.81522,7.56515c2.59138,4.479-2.70742,12.36079-1.3401,17.47646C311.30731,76.85186,319.87618,81.01531,319.87618,86.37618Z"/><path fill="#f1f6f9" d="M311.33,118.32007C308.7,122.87,299.2,122.2,295.51,125.89c-3.57,3.56995-3.06,12.59-7.15,15.53992a3.59566,3.59566,0,0,1-.41.27,2.78556,2.78556,0,0,1-.34.18,9.08993,9.08993,0,0,1-5.65.2c-3.72-.74-7.85-2.42005-11.03-1.82a3.80176,3.80176,0,0,0-.46.1c-4.95,1.31994-9.11,9.89-14.47,9.89s-9.52-8.57007-14.47-9.89c-5.11-1.37-13,3.93-17.48,1.34a5.978,5.978,0,0,1-2.03-2.05994c-2.41-3.85-2.52-10.74011-5.53-13.75-1.38995-1.39-3.59-2.16-5.94-2.81994-3.92-1.11011-8.24-1.91016-9.88-4.75-2.59-4.4801,2.71-12.36011,1.34-17.4801-1.32-4.94007-9.89-9.1-9.89-14.46s8.57-9.53,9.89-14.47009c1.37-5.11987-3.93-13-1.34-17.48C203.3,49.89,212.8,50.55005,216.49,46.87c3.69-3.69007,3.02-13.19007,7.56-15.81995,4.48-2.59009,12.37,2.71,17.48,1.34,4.95-1.31994,9.11-9.89,14.47-9.89s9.52,8.57007,14.47,9.89a8.24851,8.24851,0,0,0,2.79.19c4.88-.38,10.96-3.68006,14.69-1.52991a5.32668,5.32668,0,0,1,1.44,1.24c3,3.60986,2.88,11.34,6.12,14.58a3.79564,3.79564,0,0,0,.37.33v.01c3.92,3.3,12.9,2.83008,15.45,7.22,2.59,4.48-2.71,12.36011-1.34,17.48C311.31,76.85,319.88,81.02,319.88,86.38s-8.57,9.5199-9.89,14.47C308.62,105.96,313.92,113.84,311.33,118.32007Z"/><path fill="#dde8ef" d="M311.33,118.32007C308.7,122.87,299.2,122.2,295.51,125.89c-3.57,3.56995-3.06,12.59-7.15,15.53992a3.59566,3.59566,0,0,1-.41.27,2.78556,2.78556,0,0,1-.34.18,6.93615,6.93615,0,0,1-5.65.2c-3.08-.96-6.37-2.9-11.03-1.82a3.80176,3.80176,0,0,0-.46.1c-4.95,1.31994-9.11,9.89-14.47,9.89s-9.52-8.57007-14.47-9.89c-5.11-1.37-13,3.93-17.48,1.34a5.978,5.978,0,0,1-2.03-2.05994c32.12-6.34,56.62-29.34,61.81-57.51,4.46-24.20007-6.9-43.75-10.57-49.55,4.88-.38,10.96-3.68006,14.69-1.52991a5.32668,5.32668,0,0,1,1.44,1.24c3,3.60986,2.88,11.34,6.12,14.58a3.79564,3.79564,0,0,0,.37.33v.01c3.92,3.3,12.9,2.83008,15.45,7.22,2.59,4.48-2.71,12.36011-1.34,17.48C311.31,76.85,319.88,81.02,319.88,86.38s-8.57,9.5199-9.89,14.47C308.62,105.96,313.92,113.84,311.33,118.32007Z"/><path fill="#f1f6f9" d="M504.5,443.5v16a29.99808,29.99808,0,0,1-30,30H37.5a29.99808,29.99808,0,0,1-30-30v-16a30.01443,30.01443,0,0,1,30-30h437a30.01419,30.01419,0,0,1,30,30Z"/><path fill="#dde8ef" d="M503.27,435.01A29.98077,29.98077,0,0,0,474.5,413.5H459.26886a29.73118,29.73118,0,0,1,3.228,13.5v16a29.99809,29.99809,0,0,1-30,30H10.71057A29.99044,29.99044,0,0,0,37.5,489.5h437a29.99808,29.99808,0,0,0,30-30v-16A29.74172,29.74172,0,0,0,503.27,435.01Z"/><path fill="#f1f6f9" d="M337.60352,283.52539l-32.93561,8.68836-33.49036-19.03626,33.49091-19.03662,32.93506,8.68823a7.49981,7.49981,0,1,0,3.82617-14.50342l-18.12055-4.78027,18.64008-10.59521a7.50013,7.50013,0,0,0-7.41211-13.041l-18.94159,10.7666,4.88153-17.936a7.50009,7.50009,0,1,0-14.47363-3.93946l-8.79865,32.32886-34.89666,19.83569V222.85791l24.03808-23.666a7.50012,7.50012,0,1,0-10.52344-10.68945L262.30811,201.808v-21.4486a7.5,7.5,0,0,0-15,0V201.808l-13.51465-13.30554A7.50012,7.50012,0,1,0,223.27,199.19189l24.03809,23.666v36.752l-32.51288-18.48071-8.79865-32.32886a7.50009,7.50009,0,1,0-14.47363,3.93946l4.88153,17.936-18.94159-10.7666a7.50013,7.50013,0,0,0-7.41211,13.041l18.64008,10.59521-18.12055,4.78027a7.49982,7.49982,0,1,0,3.82617,14.50342l32.93506-8.68823,33.49091,19.03662-33.49036,19.03626-32.93561-8.68836a7.5,7.5,0,0,0-3.82617,14.50391l18.12049,4.78027-16.25623,9.24023a7.50013,7.50013,0,1,0,7.41211,13.041l16.5578-9.41162-4.88153,17.936a7.50009,7.50009,0,1,0,14.47363,3.93946l8.79846-32.32886,32.51307-18.48071v38.10693L223.27,348.51855A7.50012,7.50012,0,0,0,233.79346,359.208l13.51465-13.30554v18.73815a7.5,7.5,0,0,0,15,0V345.90247L275.82275,359.208a7.50012,7.50012,0,0,0,10.52344-10.68946l-24.03808-23.6665V285.39014L297.205,305.22583l8.79846,32.32886a7.50009,7.50009,0,0,0,14.47363-3.93946l-4.88153-17.936,16.5578,9.41162a7.50013,7.50013,0,0,0,7.41211-13.041l-16.25623-9.24023,18.12049-4.78027a7.5,7.5,0,0,0-3.82617-14.50391Z"/><path fill="#e53950" d="M504.5,443.5V450c-19.15,0-28.51,4.07007-38.43,8.37988C455.19,463.10986,443.93,468,421.66,468s-33.52-4.89014-44.4-9.62012C367.34,454.07007,357.98,450,338.83,450s-28.52,4.07007-38.43,8.37988C289.52,463.10986,278.26,468,255.99,468c-22.26,0-33.52-4.89014-44.4-9.62012C201.67,454.07007,192.31,450,173.16,450s-28.51,4.07007-38.42,8.37988C123.85,463.10986,112.6,468,90.33,468s-33.52-4.89014-44.4-9.62012C36.01,454.07007,26.65,450,7.5,450v-6.5a29.73964,29.73964,0,0,1,1.23-8.49c21.46.16992,32.49,4.97,43.17,9.61,9.92,4.30993,19.28,8.38,38.43,8.38s28.51-4.07007,38.43-8.38c10.88-4.73,22.14-9.62,44.4-9.62,22.27,0,33.52,4.89,44.41,9.62,9.91,4.30993,19.28,8.38,38.42,8.38,19.15,0,28.52-4.07007,38.43-8.38,10.88-4.73,22.14-9.62,44.41-9.62,22.26,0,33.52,4.89,44.4,9.62,9.92,4.30993,19.28,8.38,38.43,8.38s28.52-4.07007,38.43-8.38c10.69-4.64,21.72-9.44007,43.18-9.61A29.74172,29.74172,0,0,1,504.5,443.5Z"/><path fill="#ca2e43" d="M503.27,435.01c-19.86639.15723-30.79352,4.28271-40.7879,8.57568a29.87273,29.87273,0,0,1-7.51783,19.28565c3.98505-1.39868,7.56684-2.95288,11.10572-4.49146C475.99,454.07007,485.35,450,504.5,450v-6.5A29.74172,29.74172,0,0,0,503.27,435.01Z"/></svg>