<svg xmlns="http://www.w3.org/2000/svg" data-name="Layer 1" viewBox="0 0 512 512"><path fill="#c4e2ff" d="M471.7002,380.17993A19.02723,19.02723,0,0,1,445.75,387.12L405.6001,364,412.04,387.96a18.99914,18.99914,0,0,1-36.71,9.81006l-16.27-60.56006-46.87012-26.98-26.69971-15.37A6.99713,6.99713,0,0,0,275,300.91992V385.6l44.46,44.34a18.97179,18.97179,0,0,1-26.87012,26.79L275,439.18994v46.23a19.00009,19.00009,0,0,1-38,0v-46.23l-17.27,17.23c-7.02,6.99-18.31982,7.82007-25.91992,1.46008a18.89807,18.89807,0,0,1-1.27-27.94006L237,385.6V300.91992A6.99713,6.99713,0,0,0,226.50977,294.86l-73.56983,42.35-16.27,60.56006A18.99914,18.99914,0,0,1,99.96,387.96L106.3999,364,66.25,387.12a18.96148,18.96148,0,1,1-19-32.82l40.1499-23.11011L63.37012,324.77A18.94992,18.94992,0,1,1,73.21,288.16992l60.73,16.22009,73.52-42.31994a7.00355,7.00355,0,0,0,0-12.14014l-73.52-42.31994L73.21,223.83a18.94986,18.94986,0,1,1-9.83984-36.6l24.02978-6.41992L47.25,157.7a18.96148,18.96148,0,1,1,19-32.82L106.3999,148,99.96,124.04a18.99913,18.99913,0,0,1,36.71-9.81l16.27,60.56006,73.56983,42.35A6.99718,6.99718,0,0,0,237,211.08V126.4L192.54,82.06a18.898,18.898,0,0,1,1.27-27.94c7.6001-6.36,18.8999-5.53,25.91992,1.46L237,72.81V26.58a19.0001,19.0001,0,0,1,38,0V72.81l17.27-17.23c7.02-6.99,18.31982-7.81995,25.91992-1.46a18.898,18.898,0,0,1,1.27,27.94L275,126.4v84.68a6.99718,6.99718,0,0,0,10.49023,6.06l73.56983-42.35,16.27-60.56006a18.99913,18.99913,0,0,1,36.71,9.81L405.6001,148,445.75,124.88a18.96148,18.96148,0,1,1,19,32.82l-40.1499,23.11011L448.62988,187.23a18.94986,18.94986,0,1,1-9.83984,36.6l-60.73-16.22-4.6001,2.65L304.54,249.92993a7.00355,7.00355,0,0,0,0,12.14014l31.66992,18.23,41.8501,24.09,60.73-16.22009a18.95,18.95,0,1,1,9.83984,36.6001l-24.02978,6.41992L464.75,354.30005A18.9095,18.9095,0,0,1,471.7002,380.17993Z"/><path fill="#b3dafe" d="M433.62988 202.23a18.9307 18.9307 0 0 1 13.71533 21.8783 18.92378 18.92378 0 0 0 1.28467-36.8783l-16.47607-4.40185-10.59847 6.10048a5.69726 5.69726 0 0 0 1.37161 10.44192zM195.63184 268.87866L133.93994 304.39 73.21 288.16992a18.99907 18.99907 0 0 0-23.27 13.40015c-.11865.44018-.19922.881-.28515 1.32153a18.947 18.947 0 0 1 8.55517.27832l60.73 16.22009 73.52-42.31994A6.98118 6.98118 0 0 0 195.63184 268.87866zM241 22.64a18.97226 18.97226 0 0 1 19 18.94V73.61759a5.88832 5.88832 0 0 0 10.04717 4.1685L277.27 70.58c7.02-6.99 18.31982-7.81995 25.91992-1.46a18.88378 18.88378 0 0 1 1.63477 27.53558L319.46 82.06a18.898 18.898 0 0 0-1.27-27.94c-7.6001-6.36-18.8999-5.53-25.91992 1.46L275 72.81V26.58a19.00131 19.00131 0 0 0-37.6499-3.58228A19.12177 19.12177 0 0 1 241 22.64zM379.37012 115.2A18.99818 18.99818 0 0 1 397.04 139.04l-2.87157 10.68377a5.69726 5.69726 0 0 0 8.345 6.416L430.75 139.88a19.02718 19.02718 0 0 1 25.9502 6.94007 18.8337 18.8337 0 0 1 1.88574 14.42785L464.75 157.7a18.96148 18.96148 0 1 0-19-32.82L405.6001 148 412.04 124.04a18.99914 18.99914 0 0 0-36.71-9.81l-.35987 1.33887A18.94467 18.94467 0 0 1 379.37012 115.2zM266.4874 134.93A22.07721 22.07721 0 0 0 260 150.56208V226.08a6.99718 6.99718 0 0 0 10.49023 6.06l67.64517-38.93948a16.48956 16.48956 0 0 0 7.69836-10.01253l.24925-.92775L285.49023 217.14A6.99718 6.99718 0 0 1 275 211.08V126.44043zM448.62988 324.77a18.94992 18.94992 0 1 0-9.83984-36.6001l-60.73 16.22009-41.8501-24.09-31.66992-18.23a6.89912 6.89912 0 0 1-3.17188-3.94837L289.54 264.92993a7.00355 7.00355 0 0 0 0 12.14014l31.66992 18.23 35.09 20.19869a18.88706 18.88706 0 0 0 14.296 1.87855L423.79 303.16992a18.99907 18.99907 0 0 1 23.27 13.40015 18.77575 18.77575 0 0 1 .2793 8.5448zM51.25 139.88l19.21316 11.06374a10.01243 10.01243 0 0 0 14.66565-11.27556L84.96 139.04a18.975 18.975 0 0 1-.61377-3.73944L66.25 124.88a18.96252 18.96252 0 0 0-28.14062 12.83368A18.95321 18.95321 0 0 1 51.25 139.88zM275 385.6V312.45605L270.49023 309.86A6.99713 6.99713 0 0 0 260 315.91992v74.737a23.95875 23.95875 0 0 0 7.04027 16.96428L304.46 444.93994a18.87585 18.87585 0 0 1 5.2207 16.98657 18.93858 18.93858 0 0 0 9.7793-31.98657zM222 400.55957l-29.46 29.38037c-.13037.12964-.23926.272-.36475.40442L222 400.6zM135.78477 360.232l-13.75254 51.19013A18.96872 18.96872 0 0 0 136.66992 397.77L150.917 344.73975l-5.77812 3.32616A20.03614 20.03614 0 0 0 135.78477 360.232zM266.23657 460.40885A3.65545 3.65545 0 0 0 260 462.99731v37.42261a18.94921 18.94921 0 0 1-.3501 3.5824A18.95839 18.95839 0 0 0 275 485.41992V469.14746zM204.73 70.58l7.22285 7.20613A5.88832 5.88832 0 0 0 222 73.61759V57.84473L219.73 55.58c-7.02-6.99-18.31982-7.81995-25.91992-1.46a18.84493 18.84493 0 0 0-6.47949 11.01965A19.70252 19.70252 0 0 1 204.73 70.58zM121.66992 129.23l16.27 60.56006 73.56983 42.35A6.99718 6.99718 0 0 0 222 226.08V214.544L152.93994 174.79l-16.27-60.56006a19.00455 19.00455 0 0 0-37.00049 1.33624A18.99844 18.99844 0 0 1 121.66992 129.23zM464.75 354.30005l-27.57227-15.87048a19.16427 19.16427 0 0 1-3.54785 1.34045l-11.1794 2.98675a5.49353 5.49353 0 0 0-1.32255 10.06854L449.75 369.30005a18.90988 18.90988 0 0 1 9.14062 19.9862 18.9207 18.9207 0 0 0 5.85938-34.9862z"/></svg>