<svg xmlns="http://www.w3.org/2000/svg" data-name="Layer 1" viewBox="0 0 512 512"><path fill="#46cc8d" d="M472.25977,300.98c.80029-7.64,11.18017-14.88,11.18017-22.74,0-7.85-10.37988-15.09-11.18017-22.74-.80957-7.79,7.85009-17.02,6.25-24.55-1.61963-7.65-13.26954-12.58-15.65967-19.92-2.41016-7.42,4.11963-18.26.98-25.32-3.18018-7.12-15.61011-9.5-19.49-16.19995-3.89014-6.73.23-18.69-4.33008-24.96-3.24-4.45-10.53-5.63-16.3501-7.98a16.20606,16.20606,0,0,1-6.06982-3.82c-5.2-5.77-3.63013-18.33-9.40015-23.53-4.83984-4.36-14.2998-3.04-20.92993-5.21a12.31755,12.31755,0,0,1-3.45-1.69C377.54,97.75,376.48,85.14,369.74,81.24c-6.7-3.87-18.15991,1.49-25.28-1.69-7.06006-3.15-10.73-15.26-18.15991-17.67C318.96,59.5,308.87988,67.13,301.23,65.51c-4.08984-.86005-7.75-4.51-11.5-7.8-3.16992-2.78-6.38989-5.3-9.96-5.68-7.64014-.79-15.91992,8.78-23.77,8.78s-16.12988-9.57-23.77-8.78c-7.8.81-13.91992,11.89-21.46,13.48-7.6499,1.62-17.73-6.01-25.07007-3.63C178.28,64.29,174.6001,76.4,167.54,79.55c-7.12012,3.17-18.58008-2.18-25.28,1.69-6.73,3.9-7.8,16.51-14.07007,21.07-6.29,4.58-18.60986,1.72-24.37988,6.91-5.77,5.2-4.2002,17.76-9.40015,23.53C89.22,138.51,76.56006,138.26,71.99,144.55c-4.56006,6.26-.42993,18.23-4.33008,24.96-3.87988,6.7-16.30981,9.08-19.49,16.2-3.13989,7.06,3.39014,17.9.98,25.32C46.76,218.37,35.10986,223.3,33.49,230.95c-1.59985,7.53,7.06006,16.76,6.25,24.55-.8,7.65-11.17993,14.89-11.17993,22.74,0,7.86,10.37988,15.1,11.17993,22.74.81006,7.8-7.84985,17.02-6.25,24.56,1.61987,7.65,13.27,12.58,15.65991,19.92,2.41016,7.42-4.11987,18.25-.98,25.31,3.18018,7.12,15.61011,9.5,19.49,16.2,3.89014,6.74-.23,18.7,4.33008,24.97,4.57007,6.28,17.22,6.03,22.41992,11.8s3.63013,18.32,9.40015,23.52,18.08984,2.34,24.37988,6.91c6.27,4.56,7.33008,17.17,14.07007,21.07,6.7,3.88,18.15991-1.48,25.28,1.7,7.06006,3.14,10.73,15.26,18.15991,17.67,7.34009,2.38,17.42017-5.26,25.07007-3.64,7.54,1.6,13.65991,12.67,21.46,13.48,7.64014.8,15.91992-8.77,23.77-8.77,5.7,0,11.62012,5.04,17.35986,7.49a12.87043,12.87043,0,0,0,6.41016,1.28c7.8-.81,13.91992-11.88,21.46-13.48,7.6499-1.62,17.73,6.02,25.07007,3.64C333.72,492.2,337.3999,480.08,344.46,476.94c7.12012-3.18,18.58008,2.18,25.28-1.7,6.73-3.9,7.8-16.51,14.07007-21.07,6.29-4.57,18.60986-1.71,24.37988-6.91,5.77-5.19,4.2002-17.75,9.40015-23.52,5.18994-5.77,17.84985-5.52,22.41992-11.8,4.56006-6.27.42993-18.23,4.33008-24.97,3.87988-6.7,16.30981-9.08,19.49-16.2,3.13965-7.06-3.39014-17.89-.98-25.31,2.39013-7.34,14.04-12.27,15.65967-19.92C480.10986,318,471.4502,308.78,472.25977,300.98ZM256,382.11c-6.45,0-13.60986,9.24-19.75,8.16-6.31006-1.1-9.8999-12.25-15.79-14.39-5.99-2.18-15.88989,4.03-21.33984.88-5.5-3.18-5.05-14.88-9.89014-18.94-4.83984-4.08-16.29-1.61005-20.35986-6.46-4.06006-4.84.33984-15.68-2.84009-21.18-3.15015-5.45-14.76-7.03-16.93994-13.03-2.14014-5.88,5.71-14.55,4.59985-20.86-1.06982-6.14-11.42993-11.6-11.42993-18.05,0-6.44,10.36011-11.91,11.42993-18.04,1.11011-6.32-6.74-14.98-4.59985-20.87005,2.17993-5.99,13.78979-7.58,16.93994-13.03,3.17993-5.49-1.22-16.33,2.84009-21.17,4.06982-4.85,15.52-2.39,20.36987-6.46,4.83008-4.06,4.38013-15.76,9.88013-18.94,5.45-3.15,15.34985,3.06,21.34985.88a9.88826,9.88826,0,0,0,3.6001-2.53c4-4.04,7.26-11,12.17993-11.87,2.45-.43,5.07007.79,7.73,2.4,4.01,2.43,8.14014,5.76,12.02,5.76,6.45,0,13.60986-9.23,19.75-8.16,6.31006,1.11005,9.8999,12.26,15.79,14.4a11.751,11.751,0,0,0,5.58984.28c5.46021-.79,11.78-3.45,15.75-1.16,3.44019,1.99,4.56006,7.33,6.09009,12.03.92017,2.81,1.99,5.38995,3.8,6.91,4.83984,4.07,16.29,1.61,20.35986,6.46,4.06006,4.84-.33984,15.68,2.84009,21.18,3.15015,5.44,14.76,7.03,16.93994,13.02,2.14014,5.89-5.71,14.55-4.59985,20.87005,1.06982,6.13,11.42993,11.6,11.42993,18.04,0,6.45-10.36011,11.91-11.42993,18.05-1.11011,6.31,6.74,14.98,4.59985,20.86-2.17993,6-13.78979,7.58-16.93994,13.03-3.17993,5.5,1.22,16.34-2.84009,21.18-4.06982,4.85-15.52,2.38-20.36987,6.46-4.83008,4.06-4.38013,15.76-9.88013,18.94-5.45,3.15-15.34985-3.06-21.34985-.88-5.88013,2.14-9.47,13.29-15.78,14.39C269.60986,391.35,262.45,382.11,256,382.11Z"/><path fill="#00c27a" d="M233.5 51.99542a9.01355 9.01355 0 0 0-1.27.03455 11.52049 11.52049 0 0 0-4.47461 1.54877A15.43988 15.43988 0 0 1 233.5 51.99542zM230.75 390.27a7.1304 7.1304 0 0 0 2.75-1.16156c-4.72485-3.17194-8.06055-11.41931-13.04-13.2284-5.99-2.18-15.88989 4.03-21.33984.88-5.5-3.18-5.05-14.88-9.89014-18.94-4.83984-4.08-16.29-1.61005-20.35986-6.46-4.06006-4.84.33984-15.68-2.84009-21.18-3.15015-5.45-14.76-7.03-16.93994-13.03-2.14014-5.88 5.71-14.55 4.59985-20.86-1.06982-6.14-11.42993-11.6-11.42993-18.05 0-6.44 10.36011-11.91 11.42993-18.04 1.11011-6.32-6.74-14.98-4.59985-20.87005 2.17993-5.99 13.78979-7.58 16.93994-13.03 3.17993-5.49-1.22-16.33 2.84009-21.17 4.06982-4.85 15.52-2.39 20.36987-6.46 4.83008-4.06 4.38013-15.76 9.88013-18.94 5.45-3.15 15.34985 3.06 21.34985.88a9.88826 9.88826 0 0 0 3.6001-2.53c3.20825-3.24024 5.94214-8.35193 9.43652-10.70038A7.15174 7.15174 0 0 0 230.75 166.21c-6.14014-1.07-13.3 8.16-19.75 8.16-3.87988 0-8.01-3.33-12.02-5.76-2.65991-1.61-5.28-2.83-7.73-2.4-4.91992.87-8.17993 7.83-12.17993 11.87a9.88826 9.88826 0 0 1-3.6001 2.53c-6 2.18-15.8999-4.03-21.34985-.88-5.5 3.18-5.05 14.88-9.88013 18.94-4.84985 4.07-16.3 1.61-20.36987 6.46-4.06006 4.84.33984 15.68-2.84009 21.17-3.15015 5.45-14.76 7.04-16.93994 13.03-2.14014 5.89 5.71 14.55 4.59985 20.87005C107.62012 266.33 97.26 271.8 97.26 278.24c0 6.45 10.36011 11.91 11.42993 18.05 1.11011 6.31-6.74 14.98-4.59985 20.86 2.17993 6 13.78979 7.58 16.93994 13.03 3.17993 5.5-1.22 16.34 2.84009 21.18 4.06982 4.85 15.52 2.38 20.35986 6.46 4.84009 4.06 4.39014 15.76 9.89014 18.94 5.45 3.15 15.34985-3.06 21.33984-.88 5.89014 2.14 9.48 13.29 15.79 14.39 6.14014 1.08 13.30005-8.16 19.75-8.16S224.60986 391.35 230.75 390.27zM472.25977 300.98c.80029-7.64 11.18017-14.88 11.18017-22.74 0-7.85-10.37988-15.09-11.18017-22.74-.80957-7.79 7.85009-17.02 6.25-24.55-1.61963-7.65-13.26954-12.58-15.65967-19.92-2.41016-7.42 4.11963-18.26.98-25.32-3.18018-7.12-15.61011-9.5-19.49-16.19995-3.89014-6.73.23-18.69-4.33008-24.96-3.24-4.45-10.53-5.63-16.3501-7.98a16.20606 16.20606 0 0 1-6.06982-3.82c-5.2-5.77-3.63013-18.33-9.40015-23.53-4.83984-4.36-14.2998-3.04-20.92993-5.21a12.31755 12.31755 0 0 1-3.45-1.69C377.54 97.75 376.48 85.14 369.74 81.24c-6.7-3.87-18.15991 1.49-25.28-1.69-7.06006-3.15-10.73-15.26-18.15991-17.67C318.96 59.5 308.87988 67.13 301.23 65.51c-4.08984-.86005-7.75-4.51-11.5-7.8-3.16992-2.78-6.38989-5.3-9.96-5.68-7.64014-.79-15.91992 8.78-23.77 8.78-5.5498 0-11.314-4.78-16.91553-7.30414A33.51569 33.51569 0 0 1 244.73 57.71c3.75 3.29 7.41016 6.94 11.5 7.8 7.6499 1.62 17.73-6.01 25.07007-3.63C288.73 64.29 292.3999 76.4 299.46 79.55c7.12012 3.18 18.58008-2.18 25.28 1.69 6.74 3.9 7.8 16.51 14.07007 21.08a12.31755 12.31755 0 0 0 3.45 1.69c6.63013 2.17 16.09009.85 20.92993 5.21 5.77 5.2 4.2002 17.76 9.40015 23.53a16.20606 16.20606 0 0 0 6.06982 3.82c5.82007 2.35 13.11011 3.53 16.3501 7.98 4.56006 6.27.43994 18.23 4.33008 24.96 3.87988 6.7 16.30981 9.08 19.49 16.2 3.13965 7.06-3.39014 17.9-.98 25.32 2.39013 7.34 14.04 12.27 15.65967 19.92 1.60009 7.53-7.05957 16.76-6.25 24.55.80029 7.65 11.18017 14.89 11.18017 22.74 0 7.86-10.37988 15.1-11.18017 22.74-.80957 7.8 7.85009 17.02 6.25 24.56-1.61963 7.65-13.26954 12.58-15.65967 19.92-2.41016 7.42 4.11963 18.25.98 25.31-3.18018 7.12-15.61011 9.5-19.49 16.2-3.90015 6.74.23 18.7-4.33008 24.97-4.57007 6.28-17.23 6.03-22.41992 11.8-5.2 5.77-3.63013 18.33-9.40015 23.52-5.77 5.2-18.08984 2.34-24.37988 6.91-6.27 4.56-7.34009 17.17-14.07007 21.07-6.7 3.88-18.15991-1.48-25.28 1.7-7.06006 3.14-10.74 15.26-18.15991 17.67-7.34009 2.38-17.42017-5.26-25.07007-3.64-6.05786 1.28552-11.19971 8.68012-17.032 11.95911C244.76367 500.39557 250.48779 495.68 256 495.68c5.7 0 11.62012 5.04 17.35986 7.49a12.87043 12.87043 0 0 0 6.41016 1.28c7.8-.81 13.91992-11.88 21.46-13.48 7.6499-1.62 17.73 6.02 25.07007 3.64C333.72 492.2 337.3999 480.08 344.46 476.94c7.12012-3.18 18.58008 2.18 25.28-1.7 6.73-3.9 7.8-16.51 14.07007-21.07 6.29-4.57 18.60986-1.71 24.37988-6.91 5.77-5.19 4.2002-17.75 9.40015-23.52 5.18994-5.77 17.84985-5.52 22.41992-11.8 4.56006-6.27.42993-18.23 4.33008-24.97 3.87988-6.7 16.30981-9.08 19.49-16.2 3.13965-7.06-3.39014-17.89-.98-25.31 2.39013-7.34 14.04-12.27 15.65967-19.92C480.10986 318 471.4502 308.78 472.25977 300.98zM228.35986 503.17c-.21679-.09259-.43457-.19537-.65185-.29492a11.57445 11.57445 0 0 0 4.522 1.575 9.03561 9.03561 0 0 0 1.32935.03516A14.30193 14.30193 0 0 1 228.35986 503.17z"/><circle cx="36.845" cy="198.75" r="29.345" fill="#e53950"/><path fill="#ca2e43" d="M40.50806,169.64038a29.33634,29.33634,0,0,1-21.20557,49.61713,29.58422,29.58422,0,0,1-3.66309-.23572,29.33955,29.33955,0,1,0,24.86866-49.38141Z"/><circle cx="136.593" cy="475.155" r="29.345" fill="#e53950"/><path fill="#ca2e43" d="M145.64355,447.23926a29.34416,29.34416,0,0,1-33.10156,44.72,29.34293,29.34293,0,1,0,33.10156-44.72Z"/><circle cx="368.486" cy="475.155" r="29.345" fill="#fed402"/><path fill="#fac600" d="M385.98975,451.60162a29.34757,29.34757,0,0,1-45.57837,32.10682,29.34681,29.34681,0,1,0,45.57837-32.10682Z"/><circle cx="475.155" cy="206.197" r="29.345" fill="#fed402"/><path fill="#fac600" d="M487.90918,179.76245a29.34874,29.34874,0,0,1-36.8501,43.1756,29.34464,29.34464,0,1,0,36.8501-43.1756Z"/><circle cx="475.155" cy="342.454" r="29.345" fill="#e53950"/><circle cx="36.845" cy="348.804" r="29.345" fill="#fed402"/><path fill="#fac600" d="M48.54761,321.89221a29.34632,29.34632,0,0,1-38.40552,39.078,29.34469,29.34469,0,1,0,38.40552-39.078Z"/><path fill="#00c27a" d="M271.81006,83.1,271,85.59,267.92993,95l-.05981.2-4.52,13.89L243.98,168.61c-2.65991-1.61-5.28-2.83-7.73-2.4-4.91992.87-8.17993,7.83-12.17993,11.87l-4.64014-5.88a2.99151,2.99151,0,0,0-3.15991-1.03l-20.33008,5.7a2.99882,2.99882,0,0,1-3.65991-3.82l19.82007-60.89,14.27-43.85,17.22,5.6.76.25L271,82.84Z"/><path fill="#e53950" d="M256.81006,83.1,256,85.59,252.92993,95l-.05981.2-4.52,13.89L222.72,187.84a3.00123,3.00123,0,0,1-5.21.93L204.42993,172.2a2.99151,2.99151,0,0,0-3.15991-1.03l-20.33008,5.7a2.99882,2.99882,0,0,1-3.65991-3.82l19.82007-60.89,14.27-43.85,17.22,5.6.76.25L256,82.84Z"/><path fill="#00c27a" d="M383.81006,102.32C377.54,97.75,376.48,85.14,369.74,81.24c-6.7-3.87-18.15991,1.49-25.28-1.69-7.06006-3.15-10.73-15.26-18.15991-17.67C318.96,59.5,308.87988,67.13,301.23,65.51c-4.08984-.86005-7.75-4.51-11.5-7.8l-31.24,9.5v32.2l13.46021,4.09229L274.07007,110l.05981.2,4.52,13.89,18.48,56.8c5.46021-.79,11.78-3.45,15.75-1.16,3.44019,1.99,4.56006,7.33,6.09009,12.03l3.6001-4.56a2.99151,2.99151,0,0,1,3.15991-1.03l20.33008,5.7a2.99882,2.99882,0,0,0,3.65991-3.82l-12.286-37.745A16.36055,16.36055,0,0,1,357.75019,129.588l12.66973,3.852A13.049,13.049,0,0,0,387.26,120.95V104.01A12.31755,12.31755,0,0,1,383.81006,102.32Z"/><path fill="#e53950" d="M331.06006,176.87,310.73,171.17a2.99151,2.99151,0,0,0-3.15991,1.03L294.49,188.77a3.00123,3.00123,0,0,1-5.21-.93L263.6499,109.09l-4.52-13.89-.05981-.2L256,85.59l-.81006-2.49L256,82.84l26.6499-8.68.76-.25,17.22-5.6,14.27,43.85L334.72,173.05A2.99882,2.99882,0,0,1,331.06006,176.87Z"/><polygon fill="#ca2e43" points="256.81 83.1 252.87 95.2 197.1 112.16 211.37 68.31 256.81 83.1"/><polygon fill="#ca2e43" points="314.9 112.16 259.13 95.2 255.19 83.1 300.63 68.31 314.9 112.16"/><path fill="#ca2e43" d="M283.40991,63.63V82.77a27.399,27.399,0,0,1-19.76,26.32l-4.52-13.89-.05981-.2a26.27292,26.27292,0,0,1-6.14014,0l-.05981.2-4.52,13.89a27.399,27.399,0,0,1-19.76-26.32V63.63a27.40991,27.40991,0,0,1,54.81982,0Z"/><path fill="#e53950" d="M272.28589,74.29717l-111.92415,34.031a13.05122,13.05122,0,0,1-16.84788-12.48678V20.56A13.05122,13.05122,0,0,1,160.36174,8.07317l111.92415,34.031Z"/><path fill="#e53950" d="M239.71411,74.29717l111.92415,34.031a13.05122,13.05122,0,0,0,16.84788-12.48678V20.56A13.05122,13.05122,0,0,0,351.63826,8.07317l-111.92415,34.031Z"/><path fill="#ca2e43" d="M317.99512 65.70068H283.40723a7.5 7.5 0 1 1 0-15h34.58789a7.5 7.5 0 0 1 0 15zM228.59277 65.70068H194.00488a7.5 7.5 0 1 1 0-15h34.58789a7.5 7.5 0 0 1 0 15z"/><path fill="#eb5569" d="M283.40991,48.63V67.77a26.93664,26.93664,0,0,1-.76,6.39A27.38457,27.38457,0,0,1,259.07007,95a26.27292,26.27292,0,0,1-6.14014,0A27.38457,27.38457,0,0,1,229.3501,74.16a26.93664,26.93664,0,0,1-.76-6.39V48.63a27.40991,27.40991,0,0,1,54.81982,0Z"/><ellipse cx="132.035" cy="158.679" fill="#e53950" rx="7.5" ry="7.448"/><ellipse cx="99.148" cy="246.827" fill="#fee903" rx="7.5" ry="7.448"/><ellipse cx="117.035" cy="352.251" fill="#e53950" rx="7.5" ry="7.448"/><ellipse cx="196.346" cy="430.81" fill="#fee903" rx="7.5" ry="7.448"/><ellipse cx="308.794" cy="430.81" fill="#fee903" rx="7.5" ry="7.448"/><ellipse cx="384.582" cy="381.956" fill="#e53950" rx="7.5" ry="7.448"/><ellipse cx="416.872" cy="272.848" fill="#fee903" rx="7.5" ry="7.448"/><ellipse cx="382.037" cy="176.852" fill="#e53950" rx="7.5" ry="7.448"/><path fill="#ca2e43" d="M487.90918,316.01866a29.34874,29.34874,0,0,1-36.8501,43.1756,29.34464,29.34464,0,1,0,36.8501-43.1756Z"/></svg>