<svg xmlns="http://www.w3.org/2000/svg" data-name="Layer 1" viewBox="0 0 512 512"><path fill="#685e68" d="M373.57324,100.457a7.49943,7.49943,0,0,1-7.5-7.5V7.5a7.5,7.5,0,0,1,15,0V92.957A7.49943,7.49943,0,0,1,373.57324,100.457Z"/><path fill="#fed402" d="M243.88536,256.13487,330.573,451.374h86l86.68767-195.23916a15,15,0,0,0-1.41259-14.486L431.573,161.5h-116L245.298,241.64887A15,15,0,0,0,243.88536,256.13487Z"/><path fill="#fedf30" d="M504.40234,248.5a14.98439,14.98439,0,0,0-2.5542-6.85107L431.57324,161.5h-116l-70.27539,80.14893A14.98387,14.98387,0,0,0,242.74414,248.5Z"/><line x1="345.072" x2="327.074" y1="161.5" y2="248.5" fill="#fed402"/><line x1="402.074" x2="420.072" y1="161.5" y2="248.5" fill="#c4e2ff"/><path fill="#fedf30" d="M242.74414,248.5a14.985,14.985,0,0,0,1.14111,7.63477l86.688,195.23925h25.81153L327.07422,248.5Z"/><path fill="#554e56" d="M408.24478,121.84556H338.9013l22.75642-23.79613a16.48679,16.48679,0,0,1,23.83064,0Z"/><path fill="#433f43" d="M385.48828,98.04932a16.48247,16.48247,0,0,0-19.415-3.27588,16.43443,16.43443,0,0,1,4.415,3.27588l22.75635,23.79614h15Z"/><path fill="#fedf30" d="M503.26074,256.13477a14.98521,14.98521,0,0,0,1.1416-7.63477h-84.332L390.75977,451.374h25.81347Z"/><path fill="#fed402" d="M504.40234 248.5a14.98439 14.98439 0 0 0-2.5542-6.85107L431.57324 161.5h-29.499l17.99609 87zM315.57324 161.5l-70.27539 80.14893A14.98387 14.98387 0 0 0 242.74414 248.5h84.33008l17.99756-87z"/><path fill="#685e68" d="M330.56415,121.84556h86.01777a15,15,0,0,1,15,15V161.5a0,0,0,0,1,0,0H315.56415a0,0,0,0,1,0,0V136.84556A15,15,0,0,1,330.56415,121.84556Z"/><path fill="#554e56" d="M416.582,121.84546h-30a15.00012,15.00012,0,0,1,15,15V161.5h30V136.84546A15.00012,15.00012,0,0,0,416.582,121.84546Z"/><path fill="#685e68" d="M430.06982,460.37012v8.68994a9.0014,9.0014,0,0,1-4.81982,7.97l-48.25,25.28a9.03394,9.03394,0,0,1-4.98.99,8.89751,8.89751,0,0,1-3.37012-.99l-48.25-25.28a9.011,9.011,0,0,1-4.83008-7.97v-8.68994a9.00076,9.00076,0,0,1,9-9h96.5A9.00044,9.00044,0,0,1,430.06982,460.37012Z"/><path fill="#554e56" d="M430.06982,460.37012v8.68994a9.0014,9.0014,0,0,1-4.81982,7.97l-48.25,25.28a9.03394,9.03394,0,0,1-4.98.99c9.33984-7.04,21.94971-19.90015,22.83984-38.46021a44.01563,44.01563,0,0,0-1.46-13.46972h27.66992A9.00044,9.00044,0,0,1,430.06982,460.37012Z"/><path fill="#685e68" d="M138.42717,100.457a7.49943,7.49943,0,0,1-7.5-7.5V7.5a7.5,7.5,0,0,1,15,0V92.957A7.49944,7.49944,0,0,1,138.42717,100.457Z"/><path fill="#0593fc" d="M8.73929,256.13487,95.427,451.374h86l86.68768-195.23916a15,15,0,0,0-1.41259-14.486L196.427,161.5h-116L10.15188,241.64887A15,15,0,0,0,8.73929,256.13487Z"/><path fill="#26a6fe" d="M269.25627,248.5a14.98462,14.98462,0,0,0-2.5542-6.85107L196.42717,161.5h-116L10.15178,241.64893A14.98365,14.98365,0,0,0,7.59807,248.5Z"/><line x1="109.926" x2="91.928" y1="161.5" y2="248.5" fill="#fed402"/><line x1="166.928" x2="184.926" y1="161.5" y2="248.5" fill="#c4e2ff"/><path fill="#26a6fe" d="M7.59807,248.5a14.98488,14.98488,0,0,0,1.14111,7.63477L95.42717,451.374h25.81152L91.92814,248.5Z"/><path fill="#554e56" d="M173.0987,121.84556H103.75522l22.75642-23.79613a16.48679,16.48679,0,0,1,23.83064,0Z"/><path fill="#26a6fe" d="M268.11467,256.13477a14.98531,14.98531,0,0,0,1.1416-7.63477h-84.332L155.61369,451.374h25.81348Z"/><path fill="#0593fc" d="M269.25627 248.5a14.98462 14.98462 0 0 0-2.5542-6.85107L196.42717 161.5h-29.499l17.9961 87zM80.42717 161.5L10.15178 241.64893A14.98365 14.98365 0 0 0 7.59807 248.5H91.92814l17.99756-87z"/><path fill="#685e68" d="M95.41808,121.84556h86.01777a15,15,0,0,1,15,15V161.5a0,0,0,0,1,0,0H80.41808a0,0,0,0,1,0,0V136.84556A15,15,0,0,1,95.41808,121.84556Z"/><path fill="#433f43" d="M150.34221,98.04932a16.48247,16.48247,0,0,0-19.415-3.27588,16.43459,16.43459,0,0,1,4.415,3.27588l22.75634,23.79614h15Z"/><path fill="#554e56" d="M181.436,121.84546h-30a15.00012,15.00012,0,0,1,15,15V161.5h30V136.84546A15.00012,15.00012,0,0,0,181.436,121.84546Z"/><path fill="#685e68" d="M190.10433,477.02715l-48.25,25.28384a9,9,0,0,1-8.35473,0l-48.25-25.28384a9,9,0,0,1-4.82264-7.97181V460.374a9,9,0,0,1,9-9h96.5a9,9,0,0,1,9,9v8.68131A9,9,0,0,1,190.10433,477.02715Z"/><path fill="#554e56" d="M194.927,460.37012v8.68994a9.00142,9.00142,0,0,1-4.81982,7.97l-48.25,25.28a9.034,9.034,0,0,1-4.98.99c9.33984-7.04,21.9497-19.90015,22.83984-38.46021a44.01594,44.01594,0,0,0-1.46-13.46972H185.927A9.00044,9.00044,0,0,1,194.927,460.37012Z"/></svg>