<svg xmlns="http://www.w3.org/2000/svg" data-name="Layer 1" viewBox="0 0 512 512"><path fill="#46cc8d" d="M503.92,179.97c-4.11,2.33-14.7,9.48-18.49,23.28-.17.59-.32,1.19-.46,1.8A37.641,37.641,0,0,0,488.59,230.8c.4.78.84,1.56,1.31,2.32q.135.24.27.45c.25.41.52.82.79,1.22a1.14,1.14,0,0,1-1.23,1.74c-5.34-1.35-15.79-2.81-26.33,2.7-12.05,6.3-19.64,19.33-19.81,33.68a1.15067,1.15067,0,0,1-1.29,1.15c-16.57-2.24-35.03-6.27-52.45-9.32-1.53-.26-3.06-.52-4.57-.77h-.01c-2.74-.46-5.45-.88-8.11005-1.26q-1.395-.20992-2.76-.38995a1.09293,1.09293,0,0,1-.95-.9c-.08-.42-.15-.84-.24-1.26-.08-.46-.17-.92-.26-1.39-.21-1.15-.45-2.32-.69-3.5-4.01-19.83-10.19-41.74-13.75-61.13a1.15,1.15,0,0,1,1.08-1.34c14.34-.85,26.99-9.05,32.72-21.38,5-10.79,3.05-21.15,1.44-26.43a1.14224,1.14224,0,0,1,1.68-1.31c5.12,3.11,16.34,8.31,30,4.58,14.81-4.05,21.92-15.72,24.15-20.11a1.13491,1.13491,0,0,1,1.84-.28,37.71688,37.71688,0,0,0,13.9,9.1,32.97354,32.97354,0,0,0,12.25,1.99,34.42046,34.42046,0,0,0,17.05-5.22,1.12362,1.12362,0,0,1,1.58,1.51,34.42734,34.42734,0,0,0-4.41,17.27c.24,13.7,8.82,22.54,12.32,25.61A1.1282,1.1282,0,0,1,503.92,179.97Z"/><path fill="#00c27a" d="M372.95 258.77c4.23 1.86 10.17 4.46 12.32 5.2-2.74-.46-5.45-.88-8.11005-1.26-1.37994-.86-2.7-1.72-3.95-2.55q-2.61007-1.74-4.83-3.35C368.56 256.84 370.46 257.68 372.95 258.77zM385.28 263.97c1.51.25 3.04.51 4.57.77A15.26079 15.26079 0 0 1 385.28 263.97zM503.92 179.97c-4.11 2.33-14.7 9.48-18.49 23.28a11.29477 11.29477 0 0 0-.46 1.8A40.94464 40.94464 0 0 0 488.59 230.8c.4.78.84 1.56 1.31 2.32q.11994.22494.27.45c.25.41.52.82.79 1.22a1.14 1.14 0 0 1-1.23 1.74c-5.34-1.35-15.79-2.81-26.33 2.7-12.05 6.3-19.64 19.33-19.81 33.68a1.15067 1.15067 0 0 1-1.29 1.15c-16.57-2.24-35.03-6.27-52.45-9.32 19.2.4 45.7-30.96 47.53-33.17 26.3-31.63 33.27-68.98 35.1-92.86a32.44592 32.44592 0 0 0 5.09.25 34.42046 34.42046 0 0 0 17.05-5.22 1.12362 1.12362 0 0 1 1.58 1.51 34.42734 34.42734 0 0 0-4.41 17.27c.24 13.7 8.82 22.54 12.32 25.61A1.1282 1.1282 0 0 1 503.92 179.97z"/><path fill="#00c27a" d="M373.80859,269.48828a7.5,7.5,0,0,1-5.42627-12.67627l71.74561-75.22363a7.49992,7.49992,0,1,1,10.85449,10.35254l-71.7456,75.22363A7.47725,7.47725,0,0,1,373.80859,269.48828Z"/><path fill="#46cc8d" d="M138.55129,261.41574c3.878-21.37384,11.00952-45.85077,14.93629-67.27112a1.14848,1.14848,0,0,0-1.08217-1.34185c-14.33267-.85044-26.98744-9.05-32.71285-21.38451-5.00624-10.78517-3.053-21.15217-1.44456-26.427a1.144,1.144,0,0,0-1.68226-1.31321c-5.11146,3.10807-16.34057,8.3093-29.99468,4.57914-14.80647-4.045-21.92581-15.71347-24.15287-20.11105a1.13393,1.13393,0,0,0-1.83352-.281c-3.22791,3.35493-12.46627,11.50893-26.15667,11.09562a34.35357,34.35357,0,0,1-17.04323-5.22491,1.13053,1.13053,0,0,0-1.58878,1.51532,34.35362,34.35362,0,0,1,4.41289,17.27131c-.23473,13.69462-8.81659,22.53694-12.32045,25.60254a1.13393,1.13393,0,0,0,.19393,1.84477c4.28731,2.43258,15.606,10.09588,18.94607,25.07711,3.08012,13.81527-2.64644,24.78578-5.99281,29.74451a1.144,1.144,0,0,0,1.23217,1.74249c5.345-1.35714,15.79281-2.81781,26.3291,2.693,12.04988,6.30244,19.64167,19.33091,19.81321,33.68775a1.14849,1.14849,0,0,0,1.28916,1.14444c21.58212-2.90917,46.369-8.8749,67.90233-11.73755A1.10518,1.10518,0,0,0,138.55129,261.41574Z"/><path fill="#00c27a" d="M138.19141,269.48828a7.47725,7.47725,0,0,1-5.42823-2.32373l-71.7456-75.22363a7.49992,7.49992,0,1,1,10.85449-10.35254L143.61768,256.812a7.5,7.5,0,0,1-5.42627,12.67627Z"/><path fill="#46cc8d" d="M340.03,107.11c-6.09,3.43-16.95,11.23-21.79,25.5-5.54,16.31-1.1,34.9,11.29,48.21a1.45911,1.45911,0,0,1-.18,2.18c-22.33,16.2-50.27,32.41-72.52,48.61a1.3801,1.3801,0,0,1-1.66,0q-3.825-2.79-7.87-5.58c-20.72-14.34-44.88-28.69-64.65-43.03a1.45911,1.45911,0,0,1-.18005-2.18c12.39-13.31,16.83-31.9,11.29-48.21-4.84-14.27-15.7-22.07-21.79-25.5a1.44723,1.44723,0,0,1,.4-2.67c7.4-1.62,22.25-6.67,31.5-22.03,10.04-16.66,6.36-33.58,4.56-39.56a1.433,1.433,0,0,1,1.44-1.86c5.89.25,21.49-.35,33.68-12.71A43.3816,43.3816,0,0,0,254.61,8.59a1.43209,1.43209,0,0,1,2.78,0,43.3816,43.3816,0,0,0,11.06,19.69,42.2177,42.2177,0,0,0,20.61,11.44,48.41775,48.41775,0,0,0,13.07,1.27,1.433,1.433,0,0,1,1.44,1.86c-1.8,5.98-5.48,22.9,4.56,39.56,9.25,15.36,24.1,20.41,31.5,22.03A1.44723,1.44723,0,0,1,340.03,107.11Z"/><path fill="#00c27a" d="M340.03,107.11c-6.09,3.43-16.95,11.23-21.79,25.5-5.54,16.31-1.1,34.9,11.29,48.21a1.45911,1.45911,0,0,1-.18,2.18c-22.33,16.2-50.27,32.41-72.52,48.61a1.3801,1.3801,0,0,1-1.66,0q-3.825-2.79-7.87-5.58a213.4745,213.4745,0,0,0,43.98-92.25,212.55764,212.55764,0,0,0-2.22-94.06,48.41775,48.41775,0,0,0,13.07,1.27,1.433,1.433,0,0,1,1.44,1.86c-1.8,5.98-5.48,22.9,4.56,39.56,9.25,15.36,24.1,20.41,31.5,22.03A1.44723,1.44723,0,0,1,340.03,107.11Z"/><path fill="#00c27a" d="M256,239.32422a7.50006,7.50006,0,0,1-7.5-7.5V100.11328a7.5,7.5,0,0,1,15,0V231.82422A7.50006,7.50006,0,0,1,256,239.32422Z"/><circle cx="116.141" cy="446.648" r="47.097" fill="#fac600"/><path fill="#e8b800" d="M138.83478,405.37817a47.07863,47.07863,0,0,0-12.72052-4.76147,47.0986,47.0986,0,0,1-42.7262,79.87518,47.09756,47.09756,0,1,0,55.44672-75.11371Z"/><path fill="#fed402" d="M256.68,313.82c0,2.06-.09,4.13-.29,6.2-.1,1.09-.23,2.19-.39,3.28a67.0282,67.0282,0,0,1-6.96,21.61,177.48948,177.48948,0,0,0-18.16,107.78l3.92,26.7-7.56,13.76L17.37,377.74l7.56-13.76L49.58,353a177.43117,177.43117,0,0,0,77.14-66.3q2.14508-3.33,4.14-6.78h.01a67.44561,67.44561,0,0,1,90.85-25.26c.94.52,1.87006,1.06,2.78,1.62a66.64831,66.64831,0,0,1,12.78,10.14,67.48784,67.48784,0,0,1,18.27,35.15,1.08556,1.08556,0,0,1,.04.26c.17.83.3,1.67.41,2.51A66.63845,66.63845,0,0,1,256.68,313.82Z"/><path fill="#fac600" d="M256,304.34c-.11-.84-.24-1.68-.41-2.51a1.08556,1.08556,0,0,0-.04-.26,67.48784,67.48784,0,0,0-18.27-35.15,66.688,66.688,0,0,0-10.7204-8.79309c-.04553.79743-.09253,1.59509-.16962,2.39307-.1,1.09-.23,2.19-.39,3.28a67.0282,67.0282,0,0,1-6.96,21.61A177.52756,177.52756,0,0,0,207.837,311.51935c-1.82489,5.56116-6.12119,15.22824-8.847,55.33063q-.41456,6.09859-.77682,13.01574a32.84344,32.84344,0,0,1-48.62513,27.0799L50.61182,352.5174c-.3462.15692-.68445.32781-1.0318.4826q-12.91345,5.7615-25.8269,11.52295Q20.56155,371.1315,17.37,377.74L227.24,493.15q3.97431-6.1062,7.94861-12.21234Q233.03432,466.81379,230.88,452.69a177.48948,177.48948,0,0,1,18.16-107.78A67.0282,67.0282,0,0,0,256,323.3c.16-1.09.29-2.19.39-3.28.2-2.07.29-4.14.29-6.2A66.63845,66.63845,0,0,0,256,304.34Z"/><rect width="258.882" height="29.154" x="-6.599" y="419.884" fill="#fed402" rx="14.263" transform="rotate(28.806 122.842 434.461)"/><circle cx="395.859" cy="446.648" r="47.097" fill="#fac600"/><path fill="#e8b800" d="M437.12848,423.95374a47.09109,47.09109,0,0,0-60.637-20.22321,47.09618,47.09618,0,0,1,21.1773,88.3407c-1.09485.602-2.20672,1.14105-3.32617,1.64758a47.09471,47.09471,0,0,0,42.78583-69.76507Z"/><path fill="#fed402" d="M494.63,377.74,284.76,493.15l-7.61331-12.623q1.98665-13.9185,3.9733-27.83692a177.48948,177.48948,0,0,0-18.16-107.78A67.0282,67.0282,0,0,1,256,323.3c-.16-1.09-.29-2.19-.39-3.28-.2-2.07-.29-4.14-.29-6.2a66.63845,66.63845,0,0,1,.68-9.48c.11-.84.24-1.68.41-2.51a1.08556,1.08556,0,0,1,.04-.26,67.48784,67.48784,0,0,1,18.27-35.15,66.64831,66.64831,0,0,1,12.78-10.14c.91-.56,1.84-1.1,2.78-1.62a67.44561,67.44561,0,0,1,90.85,25.26h.01q1.99494,3.45,4.14,6.78A177.43117,177.43117,0,0,0,462.42,353l24.65,10.98Z"/><path fill="#fac600" d="M274.72,259.02v37l-18.27,5.55L256,301.71l-.41.12-29.88,9.09-79.63,24.21a14.99874,14.99874,0,0,1-19.36-14.35V286.7q2.14508-3.33,4.14-6.78h.01a67.44561,67.44561,0,0,1,90.85-25.26c.94.52,1.87006,1.06,2.78,1.62v-6.26a14.88938,14.88938,0,0,1,1.21-5.9L256,253.33Z"/><path fill="#fac600" d="M488.17737,364.53345Q475.29864,358.76672,462.42,353A177.43117,177.43117,0,0,1,385.28,286.7q-2.14508-3.33-4.14-6.78h-.01q-.8506-1.4675-1.76379-2.87536c-.205-.31659-.42462-.61847-.63415-.93055-.41163-.61322-.82032-1.22955-1.249-1.82531-.26495-.36817-.54516-.72-.81647-1.08148-.391-.52094-.777-1.047-1.1809-1.55384-.303-.38031-.62067-.744-.93079-1.11633-.38983-.468-.7746-.94159-1.17535-1.397-.33332-.37885-.68018-.74109-1.02088-1.11109-.39447-.4284-.78442-.86212-1.18847-1.27862-.36164-.37281-.73572-.72931-1.10486-1.09253-.39893-.39252-.79376-.7901-1.20117-1.17133-.38831-.3634-.788-.71087-1.1839-1.064-.40357-.36-.80359-.72461-1.21472-1.07392-.41358-.35138-.83741-.68707-1.25843-1.02752-.40753-.32941-.812-.663-1.22626-.98218-.438-.33747-.88525-.65979-1.33056-.98572-.41077-.30054-.819-.60467-1.23572-.89526-.46252-.32264-.93335-.6305-1.403-.9408-.411-.27154-.82-.54608-1.23633-.80817-.48865-.30767-.98468-.601-1.48041-.89563-.40857-.24273-.81549-.488-1.2287-.72174-.51312-.2904-1.03265-.56689-1.55255-.84344-.40649-.21613-.81177-.43421-1.22223-.64179-.5379-.27215-1.08148-.53082-1.626-.7882-.40075-.1894-.80053-.38007-1.20465-.56141-.56335-.25292-1.13159-.49273-1.70123-.73-.394-.164-.78735-.32867-1.1842-.48516-.58747-.23175-1.1792-.45081-1.77265-.666-.38605-.13983-.77167-.27984-1.16009-.4126-.61219-.20941-1.22773-.40643-1.84546-.5982-.37561-.11652-.7511-.23261-1.1286-.34253-.63691-.18567-1.27674-.35932-1.91877-.52619-.36346-.09436-.7268-.18768-1.09179-.276q-.99142-.24014-1.98987-.44879-.52634-.11077-1.0539-.21423-1.02612-.19922-2.05828-.36591-.50447-.08184-1.01007-.15619-1.06083-.15573-2.12659-.278-.48166-.05511-.96423-.10272-1.09361-.1095-2.19092-.18433c-.30487-.02045-.60993-.03747-.91529-.05383q-1.126-.06053-2.25476-.085c-.28674-.0058-.57348-.00757-.86041-.00965-.77252-.00574-1.5451-.00067-2.31885.02027-.26684.00726-.53357.01886-.80047.02929-.79322.03089-1.58625.0727-2.37982.13184-.24738.01843-.49445.04162-.74177.06286-.81268.06958-1.62475.15046-2.43676.25-.226.02778-.45179.06049-.67774.09058-.83178.1106-1.66266.23267-2.49267.375-.20374.03491-.40692.07514-.61054.112-.851.154-1.70062.32007-2.54864.50787-.17829.03949-.356.08417-.53406.12519-.87091.20031-1.73993.41351-2.60651.64978-.15124.04126-.30175.08758-.45288.12994-.89081.24964-1.77929.51331-2.66424.80133-.12207.03974-.24317.08411-.365.12457-.91132.30243-1.81952.62043-2.72321.96405-.08929.034-.1778.07178-.267.10615-.93414.35974-1.86438.7373-2.78888,1.14154-.04968.02172-.09875.04583-.14844.06768q-1.44313.6352-2.86914,1.34015l-.00042.00019c-.84632.42053-1.69068.84875-2.52637,1.30822-.94.52-1.87006,1.06-2.78,1.62v-6.26a14.88938,14.88938,0,0,0-1.21-5.9L256,253.33l-18.72,5.69v37l18.27,5.55.45.13995.41.12,29.88,9.09,64.5057,19.61176a61.39408,61.39408,0,0,1,26.28669,16.067q.18045.18659.36215.37464a34.3889,34.3889,0,0,1-5.21152,52.21942L279.608,462.9884,277.2,479.39l7.56,13.76L494.63,377.74Q491.4037,371.13675,488.17737,364.53345Z"/><path fill="#fac600" d="M287.5,250.02v55a15.0028,15.0028,0,0,1-15,15h-33a15.0028,15.0028,0,0,1-15-15v-55a15.00287,15.00287,0,0,1,15-15h33a15.00287,15.00287,0,0,1,15,15Z"/><path fill="#ac2538" d="M327.252 270.01611H287.5a7.5 7.5 0 1 1 0-15h39.752a7.5 7.5 0 0 1 0 15zM224.5 270.01611H184.74805a7.5 7.5 0 1 1 0-15H224.5a7.5 7.5 0 0 1 0 15z"/><path fill="#e53950" d="M274.71767,281.01607,146.08123,320.1285a15,15,0,0,1-19.36356-14.35128v-86.5223a15,15,0,0,1,19.36356-14.35128l128.63644,39.11243Z"/><path fill="#e53950" d="M274.72,244.02v37l-2.22.67-59.4,18.06-67.02,20.38a14.99874,14.99874,0,0,1-19.36-14.35V219.25a14.99875,14.99875,0,0,1,19.36-14.35l67.02,20.38,59.4,18.06Z"/><path fill="#e53950" d="M237.28233,281.01607,365.91877,320.1285a15,15,0,0,0,19.36356-14.35128v-86.5223a15,15,0,0,0-19.36356-14.35128L237.28233,244.01607Z"/><path fill="#ca2e43" d="M365.91876,204.90363l-10.63641,3.23407v35.65666a38.704,38.704,0,0,1-49.96322,37.03018L237.28235,260.1377v20.87835L365.9188,320.12849a15,15,0,0,0,19.36355-14.35127V219.25489A15,15,0,0,0,365.91876,204.90363Z"/><path fill="#ca2e43" d="M272.5,243.34v38.35l-59.4,18.06a14.88031,14.88031,0,0,1-3.6-9.73v-55a14.90678,14.90678,0,0,1,3.6-9.74Z"/><rect width="63" height="85" x="224.5" y="220.016" fill="#e53950" rx="15"/><path fill="#ca2e43" d="M272.5,220.01605v34.92184a35.07817,35.07817,0,0,1-35.07817,35.07816H224.5a15,15,0,0,0,15,15h33a15,15,0,0,0,15-15v-55A15,15,0,0,0,272.5,220.01605Z"/><rect width="258.882" height="29.154" x="259.717" y="419.884" fill="#fed402" rx="14.263" transform="rotate(151.194 389.158 434.461)"/></svg>