<svg xmlns="http://www.w3.org/2000/svg" data-name="Layer 1" viewBox="0 0 512 512"><path fill="#fed402" d="M472.90508,277.06285,276.55076,93.562a30,30,0,0,0-39.10152,0L40.147,278.657l216.379,104.20293Z"/><path fill="#eaf6ff" d="M140.5,7.5h231a30,30,0,0,1,30,30v343a0,0,0,0,1,0,0h-291a0,0,0,0,1,0,0V37.5A30,30,0,0,1,140.5,7.5Z"/><path fill="#fac600" d="M445.5,504.5H68.5a30,30,0,0,1-30-30V285.50779a15,15,0,0,1,19.86984-14.18748L257,339.5l198.63016-68.17969A15,15,0,0,1,475.5,285.50779V474.5A30,30,0,0,1,445.5,504.5Z"/><path fill="#e8b800" d="M455.62988,271.32031,430.5,279.94629V444.5a30.00008,30.00008,0,0,1-30,30H38.5a30.00008,30.00008,0,0,0,30,30h377a30.00008,30.00008,0,0,0,30-30V285.50781A15,15,0,0,0,455.62988,271.32031Z"/><rect width="35.846" height="48.352" x="238.076" y="268.148" fill="#d88a55"/><polygon fill="#c57a44" points="238.076 273.546 238.076 268.148 273.921 268.148 273.921 310.344 238.076 273.546"/><path fill="#46cc8d" d="M179.87073,258.23992l73.42045-93.88132a3.43724,3.43724,0,0,1,5.41514,0l73.42045,93.88131a3.4389,3.4389,0,0,1-1.81965,5.43825,284.87876,284.87876,0,0,1-73.27863,9.86617,284.89712,284.89712,0,0,1-75.35751-9.87145A3.43526,3.43526,0,0,1,179.87073,258.23992Z"/><path fill="#00c27a" d="M332.12682,258.23991,258.7064,164.35858a3.43734,3.43734,0,0,0-5.41529,0l-8.08569,10.339L299.13816,243.66a8.32609,8.32609,0,0,1-4.58919,13.2253,284.84784,284.84784,0,0,1-65.897,7.97667,284.4642,284.4642,0,0,1-49.49292-4.16382,3.41522,3.41522,0,0,0,2.512,2.97473,284.89445,284.89445,0,0,0,75.35743,9.87134,284.874,284.874,0,0,0,73.29139-9.86957A3.43491,3.43491,0,0,0,332.12682,258.23991Z"/><path fill="#46cc8d" d="M191.33519,212.20952,253.698,132.46733a2.91959,2.91959,0,0,1,4.5996,0l62.36285,79.74218a2.921,2.921,0,0,1-1.5456,4.61921,241.97379,241.97379,0,0,1-62.2424,8.38026,241.98947,241.98947,0,0,1-64.00817-8.38474A2.91789,2.91789,0,0,1,191.33519,212.20952Z"/><path fill="#00c27a" d="M320.6605,212.20952l-62.3628-79.74218a2.91958,2.91958,0,0,0-4.59961,0L245.50791,142.94l41.87146,53.54037a8.94928,8.94928,0,0,1-5.091,14.23657,241.93473,241.93473,0,0,1-52.9807,6.07218,241.60588,241.60588,0,0,1-38.56909-2.96252,2.89617,2.89617,0,0,0,2.12573,2.99768,241.99235,241.99235,0,0,0,64.00806,8.38477,241.97816,241.97816,0,0,0,62.24243-8.38038A2.92085,2.92085,0,0,0,320.6605,212.20952Z"/><path fill="#46cc8d" d="M206.00486,165.82416l48.21486-61.65142a2.25722,2.25722,0,0,1,3.5561,0l48.21486,61.65141a2.25831,2.25831,0,0,1-1.195,3.57128,187.07855,187.07855,0,0,1-48.12173,6.47906,187.09049,187.09049,0,0,1-49.48691-6.48253A2.25592,2.25592,0,0,1,206.00486,165.82416Z"/><path fill="#00c27a" d="M305.99059,165.82414l-48.21488-61.65151a2.25722,2.25722,0,0,0-3.55613,0l-8.19068,10.47363L272.5724,148.587a9.56459,9.56459,0,0,1-5.57668,15.26786,187.00978,187.00978,0,0,1-36.70729,3.775,186.89971,186.89971,0,0,1-24.45508-1.51806,2.24411,2.24411,0,0,0,1.35376,3.28,187.09492,187.09492,0,0,0,49.48681,6.48266,187.08265,187.08265,0,0,0,48.14108-6.48434A2.25268,2.25268,0,0,0,305.99059,165.82414Z"/><path fill="#fed402" d="M273.16016,100.80005a2.77358,2.77358,0,0,0-.79,2.46l2.59961,15.21a2.77549,2.77549,0,0,1-4.02979,2.92L257.29,114.21a2.79957,2.79957,0,0,0-2.58008,0l-1.66016.87-12,6.31005a2.77909,2.77909,0,0,1-4.02978-2.92l2.60986-15.21a2.75315,2.75315,0,0,0-.7998-2.46L227.79,90.04a2.77814,2.77814,0,0,1,1.54-4.74L244.58984,83.08a2.75566,2.75566,0,0,0,2.09034-1.5199L253.50977,67.73a2.77934,2.77934,0,0,1,4.98046,0l6.82959,13.83008a2.60919,2.60919,0,0,0,.71045.8999,2.6434,2.6434,0,0,0,1.37989.62l15.25976,2.22009a2.77814,2.77814,0,0,1,1.54,4.74Z"/><path fill="#fac600" d="M273.16016,100.80005a2.77358,2.77358,0,0,0-.79,2.46l2.59961,15.21a2.77549,2.77549,0,0,1-4.02979,2.92L257.29,114.21a2.79957,2.79957,0,0,0-2.58008,0l-1.66016.87a44.94022,44.94022,0,0,0,11.79-21,43.64611,43.64611,0,0,0,1.19043-11.62,2.6434,2.6434,0,0,0,1.37989.62l15.25976,2.22009a2.77814,2.77814,0,0,1,1.54,4.74Z"/><path fill="#fed402" d="M277.78809,314.47961a29.99957,29.99957,0,0,0-41.57618,0L47.46533,495.8833A29.8982,29.8982,0,0,0,68.5,504.5h377a29.8982,29.8982,0,0,0,21.03467-8.6167Z"/><path fill="#fac600" d="M447.627,504.4165c.30762-.02148.6167-.03906.92188-.07006.26318-.02662.52295-.06519.78418-.09864.23486-.03.47119-.05395.7041-.08935.31348-.04761.62305-.10791.9331-.165.17627-.03247.355-.05908.53028-.09473.34765-.07056.69043-.15356,1.0332-.23608.13428-.03223.27-.05908.40332-.09326.36914-.09424.7334-.20044,1.09717-.30811.10352-.03076.209-.05713.312-.08887.39063-.12036.77588-.25219,1.15967-.38818.07226-.02539.146-.04761.21826-.07373.40674-.14746.80811-.30615,1.20654-.4707.04639-.019.09375-.03589.13965-.05518q.62256-.26075,1.229-.54932c.02832-.01342.05713-.02539.08545-.03857q.62694-.29919,1.2373-.62671c.01416-.00732.02881-.01416.04248-.02173a30.12151,30.12151,0,0,0,6.87012-5.06494l-39.30225-37.77319A29.99116,29.99116,0,0,1,400.5,474.5H69.71436l-22.249,21.3833a30.12151,30.12151,0,0,0,6.87012,5.06494c.01367.00757.02832.01441.04248.02173q.61011.327,1.2373.62647c.02832.01367.05762.02563.08643.03906q.60645.2871,1.22754.54883c.04785.02.09717.03735.145.05737.39648.16357.79687.32178,1.20166.46875.07226.02612.146.04834.21826.07373.38379.136.769.26782,1.15967.38818.103.03174.20849.05811.312.08887.36377.10767.728.21387,1.09717.30811.1333.03418.269.061.40332.09326.34277.08252.68555.16552,1.0332.23608.17529.03565.354.06226.53028.09473.31005.05713.61962.11743.9331.165.23291.0354.46924.05932.7041.08935.26123.03345.521.072.78418.09864.30518.031.61426.04858.92188.07006.19775.01392.39355.03467.59228.04468q.76245.03846,1.53467.03882h377q.772,0,1.53467-.03882C447.2334,504.45117,447.4292,504.43042,447.627,504.4165Z"/><circle cx="340.51" cy="74.724" r="19.227" fill="#e53950" transform="rotate(-80.783 340.51 74.724)"/><path fill="#ca2e43" d="M349.71338,57.84119a19.22771,19.22771,0,0,1-26.05811,26.13134,19.22658,19.22658,0,1,0,26.05811-26.13134Z"/><circle cx="169.602" cy="131.346" r="19.227" fill="#e53950"/><path fill="#fed402" d="M153.26367 77.96924a7.50124 7.50124 0 0 1-1.85156-14.76856c5.082-1.29882 8.59961-3.34619 10.456-6.08642a14.95381 14.95381 0 0 0 1.82129-4.356 28.01931 28.01931 0 0 1 4.48145-9.43213c3.63476-4.85644 8.84863-8.38769 15.49609-10.49463a7.5 7.5 0 1 1 4.53223 14.29883 15.55044 15.55044 0 0 0-8.02051 5.18408 13.91793 13.91793 0 0 0-2.14355 4.82666 28.79489 28.79489 0 0 1-3.75 8.38868C170.31152 71.394 163.86523 75.5 155.127 77.73389A7.51976 7.51976 0 0 1 153.26367 77.96924zM365.5293 169.33447a7.49755 7.49755 0 0 1-1.86328-.23584c-8.73633-2.23291-15.18262-6.33886-19.15821-12.20312a28.81078 28.81078 0 0 1-3.749-8.38867 13.92056 13.92056 0 0 0-2.14356-4.82715 15.55041 15.55041 0 0 0-8.0205-5.18408 7.5 7.5 0 1 1 4.53222-14.29883c6.64746 2.10693 11.86133 5.63818 15.4961 10.49463a27.98873 27.98873 0 0 1 4.48144 9.4331A14.97082 14.97082 0 0 0 356.9248 148.48c1.85743 2.73926 5.375 4.7876 10.45606 6.08643a7.501 7.501 0 0 1-1.85156 14.76806zM356.83691 230.88477a7.501 7.501 0 0 1-1.85253-14.76807c1.92675-.49268 4.458-1.42529 5.57324-3.07129a7.83754 7.83754 0 0 0 .90332-2.25439 21.17366 21.17366 0 0 1 3.38867-7.08155 22.616 22.616 0 0 1 11.61914-7.90967A7.50028 7.50028 0 0 1 381 210.09961a8.0399 8.0399 0 0 0-4.1416 2.59814 7.1579 7.1579 0 0 0-1.05274 2.47608 21.71106 21.71106 0 0 1-2.83105 6.2876c-3.0127 4.44482-7.81543 7.53662-14.27539 9.1875A7.49626 7.49626 0 0 1 356.83691 230.88477zM160.51465 236.01074a7.518 7.518 0 0 1-1.86231-.23535c-6.459-1.65088-11.26172-4.74268-14.27539-9.189a21.71557 21.71557 0 0 1-2.83007-6.28663 7.16332 7.16332 0 0 0-1.05176-2.47509 8.0446 8.0446 0 0 0-4.14258-2.59864 7.50028 7.50028 0 0 1 4.53125-14.2998 22.62169 22.62169 0 0 1 11.62012 7.91016 21.17961 21.17961 0 0 1 3.38769 7.08056 7.8489 7.8489 0 0 0 .90235 2.25342c1.11621 1.647 3.64648 2.57959 5.57324 3.07178a7.50123 7.50123 0 0 1-1.85254 14.76855z"/><path fill="#ca2e43" d="M178.805,114.46374a19.22772,19.22772,0,0,1-26.05811,26.13135A19.22658,19.22658,0,1,0,178.805,114.46374Z"/></svg>