<svg xmlns="http://www.w3.org/2000/svg" data-name="Layer 1" viewBox="0 0 512 512"><path fill="#d88a55" d="M465.7,161.07007C464.77,161.84,463.79,162.6499,462.77,163.5c-31.74,26.49-103.83008,90.93994-112.42,98.04A4.08253,4.08253,0,0,0,348.86,264.7v70.14a4.02006,4.02006,0,0,0,.4,1.77L403.13,449.3999A37.92367,37.92367,0,0,1,390.04,497.25l-.74.5A39.29153,39.29153,0,0,1,341.86,495.12012a38.71786,38.71786,0,0,1-5.41-5.65015L264.11,382a10.28626,10.28626,0,0,0-16.21,0L175.59009,489.41992l-.03.05a39.17227,39.17227,0,0,1-66.64014-40.08c.13013-.31.28-.61.42017-.91,18.81982-39.36,49.56982-103.81006,53.41992-111.87a4.1537,4.1537,0,0,0,.39-1.77V264.7a4.08226,4.08226,0,0,0-1.49011-3.15991L49.09009,163.45,46.29,161.01a33.6595,33.6595,0,0,1,39.97-54.04l75.02,59.58008a3.07911,3.07911,0,0,0,4.37988-4.08008A103.75237,103.75237,0,0,1,254.95,7.51C312.25,6.92993,359.61,53.54,359.87,110.78c.06994,16.5-10.12,40.34-16.6,53.80994a3.08166,3.08166,0,0,0,4.48,3.9l77.75-61.3.93994-.74a32.701,32.701,0,0,1,43.37012,6.7l.51.63013A33.67331,33.67331,0,0,1,465.7,161.07007Z"/><path fill="#c57a44" d="M329.87 110.78c.06994 16.5-10.12 40.34-16.6 53.80994a3.08166 3.08166 0 0 0 4.48 3.9l35.75806-28.19263c3.60168-10.15307 6.39868-20.8479 6.36194-29.51733C359.61 53.54 312.25 6.92993 254.95 7.51a104.73013 104.73013 0 0 0-13.98718 1.08081C290.81433 15.87476 329.63464 58.97229 329.87 110.78zM470.32007 113.78l-.51-.63013a32.70052 32.70052 0 0 0-40.38037-8.44433 32.568 32.568 0 0 1 10.38037 8.44433l.51.63013a33.67331 33.67331 0 0 1-4.62012 47.29C434.77 161.84 433.79 162.6499 432.77 163.5c-31.74 26.49-103.83008 90.93994-112.42 98.04A4.08253 4.08253 0 0 0 318.86 264.7v70.14a4.02006 4.02006 0 0 0 .4 1.77L373.13 449.3999A37.92367 37.92367 0 0 1 360.04 497.25l-.74.5a39.809 39.809 0 0 1-7.00537 3.74854A39.33937 39.33937 0 0 0 389.30005 497.75l.74-.5a37.92367 37.92367 0 0 0 13.09-47.8501L349.26 336.61a4.02006 4.02006 0 0 1-.4-1.77V264.7a4.08253 4.08253 0 0 1 1.49-3.15991c8.59-7.1001 80.68005-71.55 112.42-98.04 1.02-.8501 2-1.66 2.92993-2.42993A33.67331 33.67331 0 0 0 470.32007 113.78z"/><path fill="#fed2a4" d="M390.04,497.25l-.74.5A39.29153,39.29153,0,0,1,341.86,495.12012L336.45,489.47c.47-3.15991,3.68-22.49,21.69006-34.56006,20.44007-13.69995,42.54993-6.36987,44.99-5.51A37.92367,37.92367,0,0,1,390.04,497.25Z"/><path fill="#ffbd86" d="M372.636,448.36572l.494,1.03418A37.92367,37.92367,0,0,1,360.04,497.25l-.74.5a39.8122,39.8122,0,0,1-7.00525,3.74854l.00244.001a39.28059,39.28059,0,0,0,6.80237,2.10864l.028.00562a39.38849,39.38849,0,0,0,4.63147.69775c.04541.00415.09082.00733.136.01123.75488.06568,1.512.11158,2.27063.13355l.0282.00122c.75927.02148,1.5199.01855,2.28076-.00391.08166-.00244.16333-.00659.24487-.00952.72766-.02612,1.45557-.06982,2.18286-.13647.02515-.00244.05042-.00366.07569-.00586.73974-.06934,1.47851-.16333,2.21594-.2749.11633-.01758.2323-.03736.34851-.05616.69507-.11157,1.38867-.23877,2.07959-.38842.03857-.00831.07715-.0149.1156-.02344.71521-.157,1.42712-.33911,2.13635-.53736.14063-.03906.28089-.08056.42139-.12158.66858-.19482,1.33472-.40429,1.99622-.636.04052-.01416.08142-.02637.12194-.04078.68775-.24316,1.36988-.51245,2.0481-.79614.15552-.06518.31067-.13208.46582-.19946.64978-.2815,1.29614-.57666,1.93543-.896.02966-.01489.05993-.02783.08972-.043.65918-.33105,1.31006-.68872,1.95654-1.06q.23676-.13587.47217-.27588c.646-.38306,1.2876-.77881,1.9187-1.20264l.74-.5a37.92367,37.92367,0,0,0,13.09-47.8501A55.04151,55.04151,0,0,0,372.636,448.36572Z"/><path fill="#fed2a4" d="M175.59009 489.41992l-.03.05a39.17227 39.17227 0 0 1-66.64014-40.08c2.44007-.85 24.55-8.18 44.99 5.5199C171.85 466.92993 175.1 486.15991 175.59009 489.41992zM75.75 148.7a47.34786 47.34786 0 0 1-26.5 14.76l-.15991-.01L46.29 161.01a33.6595 33.6595 0 0 1 39.97-54.04C86.80005 109.6 90.95 131.56006 75.75 148.7zM465.7 161.07007C464.77 161.84 463.79 162.6499 462.77 163.5l-.24.03a47.40814 47.40814 0 0 1-26.5-14.76c-14.93-16.8501-11.18-38.36011-10.53-41.58008l.93994-.74a32.701 32.701 0 0 1 43.37012 6.7l.51.63013A33.67331 33.67331 0 0 1 465.7 161.07007z"/><path fill="#ffbd86" d="M470.32007,113.78l-.51-.63013q-.47937-.5907-.98145-1.15283c-.11206-.12585-.22876-.24536-.34228-.36914-.22547-.24548-.45069-.49121-.68225-.72839-.1399-.14344-.28406-.28052-.42615-.42078-.21094-.2085-.42151-.41736-.63709-.61914-.15686-.14661-.31726-.2876-.47644-.43079-.20727-.1864-.41455-.3728-.62573-.5531-.16846-.14392-.33984-.2832-.51074-.42309-.20752-.16993-.41528-.33911-.6261-.5033-.17883-.13916-.35974-.27454-.541-.40979-.20862-.15552-.41834-.30957-.63-.45972q-.28089-.19922-.56555-.39111-.31586-.21387-.63574-.42017-.2939-.18933-.59082-.37207-.31659-.19427-.63733-.38012c-.20471-.11939-.40991-.2378-.61695-.35254-.21045-.11646-.4226-.22876-.63525-.34046-.21436-.11267-.42859-.22522-.645-.33288-.20715-.103-.4165-.20093-.62549-.29932-.22583-.1062-.45105-.21362-.679-.31457-.199-.08826-.40039-.17054-.60108-.25476-.24145-.10132-.48242-.20435-.72607-.29981-.17969-.07031-.36157-.13428-.54224-.20141-.26709-.09913-.53344-.20057-.80273-.29261-.11829-.0404-.23816-.07544-.35681-.1145a32.8278,32.8278,0,0,0-3.48938-.941c-.05445-.01147-.1084-.02539-.163-.03662-.35241-.07227-.70678-.13452-1.0614-.19531-.10791-.01856-.21545-.04-.32373-.0575-.33716-.05432-.67578-.09961-1.01465-.14343-.12683-.01636-.25329-.035-.38037-.05-.33423-.03918-.66943-.07043-1.00476-.09936-.13-.01123-.26013-.02393-.39026-.0337-.33642-.0249-.67334-.043-1.01037-.05749-.12952-.00574-.259-.01184-.38868-.016-.34045-.01074-.68127-.01526-1.02209-.01538-.124,0-.24805.00012-.37207.00146q-.52222.00586-1.04492.02808c-.114.00488-.22815.01074-.34229.01684q-.53723.02858-1.07422.07422c-.10046.00855-.20092.0188-.30127.02832-.37158.03565-.74316.07593-1.114.12439-.07935.01038-.15857.02259-.23792.03357-.3916.054-.78283.11292-1.17321.1814-.04554.008-.09107.01745-.13648.02563a32.53423,32.53423,0,0,0-9.19214,3.12207l-.0039.002a32.568,32.568,0,0,1,10.38037,8.44433l.51.63013a33.715,33.715,0,0,1,1.60986,40.52051A48.47688,48.47688,0,0,0,462.53,163.53l.24-.03c1.02-.8501,2-1.66,2.92993-2.42993A33.67331,33.67331,0,0,0,470.32007,113.78Z"/><path fill="#fee8c7" d="M255.96289,161.92139q-1.01587,0-2.03662-.04834c-22.33252-1.0586-33.91895-18.94483-35.1665-20.981a7.5,7.5,0,1,1,12.79-7.83691c.32813.53564,8.21143,13.12988,23.08643,13.83447a28.84,28.84,0,0,0,25.834-13.85059,7.50015,7.50015,0,0,1,12.77051,7.86914A43.90755,43.90755,0,0,1,255.96289,161.92139Z"/><circle cx="226" cy="86.607" r="7.5" fill="#fee8c7"/><circle cx="286" cy="86.607" r="7.5" fill="#fee8c7"/><circle cx="256" cy="206.607" r="7.5" fill="#fee8c7"/><circle cx="256" cy="296.607" r="7.5" fill="#fee8c7"/><circle cx="256" cy="341.607" r="7.5" fill="#fee8c7"/><circle cx="256" cy="251.607" r="7.5" fill="#fee8c7"/></svg>