<svg xmlns="http://www.w3.org/2000/svg" data-name="Layer 1" viewBox="0 0 512 512"><path fill="#26a6fe" d="M253.64363 504.5a79.76126 79.76126 0 0 1-62.11987-29.43493 22.13991 22.13991 0 0 1 34.38929-27.894 35.793 35.793 0 0 0 63.45378-20.54125A35.703 35.703 0 0 0 253.661 389.08634c-14.58782 0-20.26054 2.07153-27.86988 5.484-.79761.35736-1.30865.60543-1.4725.68812a22.12027 22.12027 0 0 1-31.96328-23.28076L206.453 287.21489a22.15 22.15 0 0 1 21.876-18.47835h71.16417a22.08876 22.08876 0 1 1 0 44.1772H247.13144l-5.39266 32.42538c3.64371-.284 7.58553-.43 11.92217-.43a80.6023 80.6023 0 0 1 58.09 24.86549 78.97358 78.97358 0 0 1 21.90483 59.14453c-2.164 41.53405-36.58071 74.72591-78.3527 75.5643Q254.47263 504.49965 253.64363 504.5zM133.82454 504.065h-.07l-96.52-.29624a22.08227 22.08227 0 0 1-17.53787-35.51649c.27284-.36023 8.64081-11.47787 66.85856-94.33817 8.57946-12.212 14.11431-23.07295 16.46309-32.30242l.576-4.486a26.30972 26.30972 0 0 0-52.06359-3.90577 22.171 22.171 0 0 1-43.5166-8.51475 70.66983 70.66983 0 0 1 139.955 13.61555 22.01294 22.01294 0 0 1-.179 2.7999l-.93619 7.29816a22.046 22.046 0 0 1-.39411 2.18944c-3.48491 14.97164-11.41546 31.33533-23.57078 48.63663-18.98871 27.02618-32.71685 46.48241-42.63166 60.47833l53.63425.16466a22.08868 22.08868 0 1 1-.06713 44.1772z"/><path fill="#0182fc" d="M36.53076 333.21973A22.0999 22.0999 0 0 1 22.27417 349.752a22.42 22.42 0 0 0 3.22437.885 22.1646 22.1646 0 0 0 26.03222-17.41723 26.22516 26.22516 0 0 1 18.3357-19.9917 26.33789 26.33789 0 0 0-33.3357 19.9917zM133.8916 459.8877l-53.63415-.16456c9.91479-13.99609 23.64294-33.45214 42.63171-60.47827 12.19873-17.36337 20.14247-33.782 23.60789-48.79725.15483-.67089.26935-1.346.357-2.02892l.93616-7.29809a20.62248 20.62248 0 0 0 .17863-2.54775c.1376-38.91653-31.60433-70.62022-70.63969-70.62022a70.76022 70.76022 0 0 0-7.44494.40771 70.56289 70.56289 0 0 1 63.08463 70.21216 20.62616 20.62616 0 0 1-.17863 2.5481l-.93616 7.29809c-.0876.68293-.20212 1.358-.357 2.02892-3.46542 15.01521-11.40916 31.43388-23.60789 48.79725C94.85285 417.79905 84.296 432.7853 75.75024 444.8864a9.445 9.445 0 0 0 7.69024 14.89253l35.45112.10877a22.08473 22.08473 0 0 1 1.24524 44.13549l13.61768.04175h.06994a22.0887 22.0887 0 1 0 .06714-44.17724z"/><path fill="#0593fc" d="M306.66724 290.8252a22.13175 22.13175 0 0 1-22.17408 22.08862h15a22.08879 22.08879 0 1 0 0-44.17725h-15A22.13159 22.13159 0 0 1 306.66724 290.8252zM225.91309 447.1709a22.2176 22.2176 0 0 0-24.7-6.81763 22.03456 22.03456 0 0 1 9.7 6.81763 35.86357 35.86357 0 0 0 35.23864 12.3623A35.56124 35.56124 0 0 1 225.91309 447.1709zM229.6706 327.71056l-.938 5.64013a9.92951 9.92951 0 0 0 9.79833 11.55853l.13 0c1.04773 0 2.092.03955 3.136.08105l5.33459-32.07641h0A17.70068 17.70068 0 0 0 229.6706 327.71056zM210.791 394.57031c-.79761.35742-1.3086.60547-1.47242.68823a22.19227 22.19227 0 0 1-2.636 1.13965 22.13324 22.13324 0 0 0 17.636-1.13965c.16382-.08276.67481-.33081 1.47242-.68823 5.66064-2.53857 10.25586-4.33325 18.24047-5.08691a36.533 36.533 0 0 0-5.3706-.397C224.07312 389.08643 218.40039 391.15771 210.791 394.57031z"/><path fill="#0593fc" d="M311.751,369.77466a80.60183,80.60183,0,0,0-58.09009-24.86548c-3.25366,0-6.28491.082-9.13477.24316A80.61858,80.61858,0,0,1,296.751,369.77466a78.97343,78.97343,0,0,1,21.90478,59.14453c-2.064,39.61426-33.47424,71.61694-72.61621,75.22021,2.51245.23462,5.04822.3606,7.604.3606q.82837,0,1.65955-.0166c41.772-.83838,76.1886-34.03028,78.35266-75.56421A78.97343,78.97343,0,0,0,311.751,369.77466Z"/><path fill="#e53950" d="M39.83608,236.55087C36.54374,228.22,7.0536,150.0855,50.88566,88.8305,88.11179,36.80724,153.692,31.24322,163.638,30.55239c96.44517-6.69892,139.87509,78.76285,224.255,63.5309,33.29169-6.00969,57.36971-24.88,70.62928-37.15953-4.3663,45.20084-20.30732,64.36726-33.36829,73.59-34.90347,24.64657-89.0252,6.37558-110.855,34.42393a68.19673,68.19673,0,0,0-12.31011,25.06205c-1.34422,6.41628-1.258,13.18947-1.08552,26.73585.09562,7.5056.37315,13.724.61163,18.03259Q170.67552,235.65957,39.83608,236.55087Z"/><path fill="#ca2e43" d="M437.62939,73.50073c-6.98645,23.35718-17.98852,35.31421-27.47534,42.01294-34.90356,24.64673-89.02527,6.37573-110.8551,34.42407a68.19679,68.19679,0,0,0-12.31018,25.062c-1.34424,6.41626-1.25794,13.18945-1.08545,26.73584.09558,7.50561.37317,13.72387.61157,18.03247q-125.8482.85766-251.69653,1.71484c2.24,7.85791,4.28247,13.20752,5.0177,15.06787l261.67883-1.78271c-.2384-4.3086-.516-10.52686-.61157-18.03247-.17249-13.54639-.25879-20.31958,1.08545-26.73584a68.19679,68.19679,0,0,1,12.31018-25.062c21.82983-28.04834,75.95154-9.77734,110.8551-34.42407,13.06092-9.22265,29.002-28.38916,33.36817-73.58984A168.95385,168.95385,0,0,1,437.62939,73.50073Z"/><ellipse cx="464.038" cy="52.324" fill="#f1f6f9" rx="40.462" ry="40.306"/><path fill="#dde8ef" d="M484.19458,17.38086a40.4064,40.4064,0,0,1-55.314,54.88672,40.41047,40.41047,0,1,0,55.314-54.88672Z"/><rect width="316.065" height="65.403" x="7.5" y="216.736" fill="#f1f6f9" rx="15.239"/><path fill="#dde8ef" d="M308.325,216.7356H293.55249c.00122.08056.012.15844.012.2395V231.457A35.68143,35.68143,0,0,1,257.883,267.13843H7.51208a15.23275,15.23275,0,0,0,15.2273,15H308.3252a15.23925,15.23925,0,0,0,15.23925-15.23926V231.9751A15.23949,15.23949,0,0,0,308.325,216.7356Z"/></svg>