<svg xmlns="http://www.w3.org/2000/svg" data-name="Layer 1" viewBox="0 0 512 512"><path fill="#433f43" d="M504.5 0A7.49974 7.49974 0 0 0 497 7.5V50.09375A55.0514 55.0514 0 0 1 442.01074 105.083h-4.08612a63.42274 63.42274 0 0 0 22.61005-48.55078V46.69238a7.5 7.5 0 0 0-15 0v9.83985a48.60045 48.60045 0 0 1-48.54541 48.54589c-.03266 0-.06415.0044-.09674.00489h-5.36731a49.40306 49.40306 0 0 0 12.964-33.34766V64.36523a7.5 7.5 0 0 0-15 0v7.37012a34.506 34.506 0 0 1-30.12061 34.20313 7.54719 7.54719 0 0 0-.973.19555 70.08927 70.08927 0 0 0-57.98694 68.93824v31.123a7.5 7.5 0 1 0 15 0v-31.123A55.0514 55.0514 0 0 1 370.398 120.083h71.61279A70.06874 70.06874 0 0 0 512 50.09375V7.5A7.49974 7.49974 0 0 0 504.5 0zM153.60437 106.134a7.54719 7.54719 0 0 0-.973-.19555 34.506 34.506 0 0 1-30.12061-34.20313V64.36523a7.5 7.5 0 0 0-15 0v7.37012A49.40282 49.40282 0 0 0 120.47485 105.083h-5.36743c-.03247-.00049-.064-.00489-.09668-.00489A48.60045 48.60045 0 0 1 66.46533 56.53223V46.69238a7.5 7.5 0 1 0-15 0v9.83985A63.42279 63.42279 0 0 0 74.07544 105.083H69.98926A55.0514 55.0514 0 0 1 15 50.09375V7.5a7.5 7.5 0 0 0-15 0V50.09375A70.06874 70.06874 0 0 0 69.98926 120.083h71.61279a55.0514 55.0514 0 0 1 54.98926 54.98926v31.123a7.5 7.5 0 0 0 15 0v-31.123A70.08927 70.08927 0 0 0 153.60437 106.134z"/><path fill="#bc7c63" d="M337.78166,195.65l126.12977-31.23c8.839-2.18854,16.9323,4.72385,13.53,11.55575L457.14365,216.734c-7.68932,15.44026-25.74187,26.09116-46.594,27.49022l-85.447,5.733Z"/><path fill="#aa6a51" d="M463.91144,164.41992l-20.743,5.13623-16.02472,32.17774c-7.68933,15.44043-25.74189,26.09131-46.59406,27.49023l-51.41186,3.44946L325.1026,249.957l85.447-5.73291c20.85217-1.39892,38.90473-12.0498,46.59406-27.49023l20.29773-40.7583C480.84375,169.1438,472.75043,162.23145,463.91144,164.41992Z"/><path fill="#bc7c63" d="M174.21834,195.65,48.08857,164.42c-8.839-2.18854-16.9323,4.72385-13.53,11.55575L54.85635,216.734c7.68932,15.44026,25.74187,26.09116,46.594,27.49022l85.447,5.733Z"/><path fill="#aa6a51" d="M374.83,215.67993V275.8501a92.34992,92.34992,0,0,1-3.97,26.72L331.65,432.68994l-9.08,30.13013C315.21,487.26,287.67,504.5,256,504.5s-59.21-17.24-66.57007-41.67993L180.28,432.46,141.14,302.57007a92.34985,92.34985,0,0,1-3.97-26.72V215.67993c0-21.28979,21.75989-38.55,48.6-38.55H326.23C353.07,177.12988,374.83,194.39014,374.83,215.67993Z"/><path fill="#bc7c63" d="M331.65,432.68994l-9.08,30.13013a50.30759,50.30759,0,0,1-12.28,20.45,65.50507,65.50507,0,0,1-18.61011,13.26H291.67a83.93867,83.93867,0,0,1-69.87.7,67.12106,67.12106,0,0,1-18.42005-12.3,51.04507,51.04507,0,0,1-13.95007-22.10986L180.28,432.46l48.75-14.47a94.515,94.515,0,0,1,53.13,0Z"/><path fill="#aa6a51" d="M310.29,483.27a65.50507,65.50507,0,0,1-18.61011,13.26H291.67a56.1748,56.1748,0,0,1-26.8-14.88013,54.996,54.996,0,0,1-8.52991-11.02978,57.93642,57.93642,0,0,1-7.84009-27.04v-.25a5.79008,5.79008,0,0,1,.04-.72022,5.86166,5.86166,0,0,1,.11-.73,4.72117,4.72117,0,0,1,.16-.6499.52793.52793,0,0,1,.03-.12012,7.9158,7.9158,0,0,1,.5199-1.23974.05162.05162,0,0,1,.02-.04c.11-.2002.2201-.40015.35-.59009s.27-.38989.42-.57007c.14-.17993.29993-.35986.46-.52978a7.3213,7.3213,0,0,1,1.64-1.28028c.21-.11987.41-.21972.63-.31982a.25036.25036,0,0,1,.07-.04c.13013-.06006.27-.10986.41-.16016.02-.00976.05-.00976.06994-.01977a.91917.91917,0,0,1,.2301-.09009,3.34468,3.34468,0,0,1,.42005-.12012A2.33359,2.33359,0,0,1,254.36,436.04c.14-.03.29-.06006.44006-.08008a1.87918,1.87918,0,0,1,.32995-.05,2.458,2.458,0,0,1,.28-.01977,2.21509,2.21509,0,0,1,.37-.03028h.24a5.41211,5.41211,0,0,1,.7.04,5.83067,5.83067,0,0,1,.73.11011,5.49,5.49,0,0,1,.70007.16992,6.86511,6.86511,0,0,1,.68006.24,8.10189,8.10189,0,0,1,1.27.66992c.18994.13013.38989.27.56994.41016.19.1499.36.31006.52991.47a3.16292,3.16292,0,0,1,.40015.42017q.10491.11975.21.23974a6.51349,6.51349,0,0,1,.71,1.03,3.9501,3.9501,0,0,1,.21.41016,1.97679,1.97679,0,0,1,.17.35986.14227.14227,0,0,1,.02.06006c.05994.11987.11.25.16.38013a2.76848,2.76848,0,0,1,.07995.27,3.31419,3.31419,0,0,1,.12.41992,1.41065,1.41065,0,0,1,.05.22,2.5527,2.5527,0,0,1,.04992.27,1.858,1.858,0,0,1,.04.25,1.915,1.915,0,0,1,.02991.25.87889.87889,0,0,1,.02.16992.33554.33554,0,0,1,0,.1001,1.65229,1.65229,0,0,1,.03.32007A41.0429,41.0429,0,0,0,302.17,483.02Z"/><path fill="#aa6a51" d="M263.5,443.37988a57.89019,57.89019,0,0,1-7.15991,27.24024,54.1078,54.1078,0,0,1-6.69007,9.5,55.82737,55.82737,0,0,1-27.85,17.10986,67.12106,67.12106,0,0,1-18.42005-12.3l7.18006-.90991c.11-.02.22-.03.32995-.04,3.9-.31006,17.39-2.25,27.48-13.75a41.67672,41.67672,0,0,0,10.13-26.6499v-.25a5.68193,5.68193,0,0,1,.04-.72022,6.2473,6.2473,0,0,1,.27-1.37988.52793.52793,0,0,1,.03-.12012A6.99841,6.99841,0,0,1,249.73,439.24a3.22844,3.22844,0,0,1,.42-.57007c.14-.17993.29993-.35986.46-.52978a7.02234,7.02234,0,0,1,2.27-1.6001.25036.25036,0,0,1,.07-.04,3.95438,3.95438,0,0,1,.48-.17993.91917.91917,0,0,1,.2301-.09009,3.34468,3.34468,0,0,1,.42005-.12012A2.33359,2.33359,0,0,1,254.36,436.04c.14-.03.29-.06006.44006-.08008a1.87918,1.87918,0,0,1,.32995-.05,2.458,2.458,0,0,1,.28-.01977,5.1101,5.1101,0,0,1,.55994-.03028h.05a5.41211,5.41211,0,0,1,.7.04,5.83067,5.83067,0,0,1,.73.11011,5.49,5.49,0,0,1,.70007.16992,6.86511,6.86511,0,0,1,.68006.24,6.44986,6.44986,0,0,1,1.27.66992c.18994.13013.38989.27.56994.41016a5.59962,5.59962,0,0,1,.93006.89014,6.62119,6.62119,0,0,1,.91992,1.26977,3.9501,3.9501,0,0,1,.21.41016,1.97679,1.97679,0,0,1,.17.35986.14227.14227,0,0,1,.02.06006,3.59856,3.59856,0,0,1,.24.65015,4.64808,4.64808,0,0,1,.17005.63989,2.5527,2.5527,0,0,1,.04992.27,4.00212,4.00212,0,0,1,.07.5.87889.87889,0,0,1,.02.16992Q263.5,443.04993,263.5,443.37988Z"/><path fill="#433f43" d="M309.0542 292.3916a7.49974 7.49974 0 0 1-7.5-7.5V261.13672a7.5 7.5 0 1 1 15 0V284.8916A7.49974 7.49974 0 0 1 309.0542 292.3916zM209.25928 292.3916a7.49974 7.49974 0 0 1-7.5-7.5V261.13672a7.5 7.5 0 1 1 15 0V284.8916A7.49974 7.49974 0 0 1 209.25928 292.3916z"/><circle cx="256" cy="417.585" r="25.775" fill="#87523e"/><path fill="#7c4b37" d="M264.27356,393.17456a25.77,25.77,0,0,1-27.71643,41.32056,25.77154,25.77154,0,1,0,27.71643-41.32056Z"/></svg>