<svg xmlns="http://www.w3.org/2000/svg" data-name="Layer 1" viewBox="0 0 512 512"><path fill="#e53950" d="M464.5,428.18V502c0,5.52,10.52,10,5,10l-47.57471-15L393.62,512H291l-41.08013-15L221,512H118.38L88.327,497,42.5,512c-5.53,0,5-4.48,5-10V428.18c0-22.3-9.81006-43.39-.58-62.13A140.68659,140.68659,0,0,1,173.17993,287.5H338.82a140.68653,140.68653,0,0,1,126.25361,78.55311C474.31057,384.78857,464.5,405.87793,464.5,428.18Z"/><path fill="#ca2e43" d="M464.5,428.18V502c0,5.52,10.52,10,5,10H429.72c20.09-23.26,26.54-52.41,16.75-75.18-4.96-11.53-17.77-30.01-35.83-31.92005-25.09-2.67-34.27,29.37-71.29,35.89-6.31,1.11-18.03,2.29-32.31,9.28-11.33008,5.54-12.97,9.21-16.04,8.85-15.62-1.81-45.73-104.8-23.27-171.42h71.09a140.68653,140.68653,0,0,1,126.25361,78.55311C474.31057,384.78857,464.5,405.87793,464.5,428.18Z"/><rect width="70" height="85.5" x="221" y="426.5" fill="#f1f6f9"/><path fill="#ffcebf" d="M344.72068,185.09451V213.08a297.91071,297.91071,0,0,0,24.42456,118.136l0,.00009a71.15926,71.15926,0,0,1-2.78594,62.16633l0,.00006a71.15929,71.15929,0,0,1-44.83844,34.97434L300.069,433.86614a76.89953,76.89953,0,0,0-29.15145,14.6279l-.4958.39992a22.97068,22.97068,0,0,1-28.84356,0l-.49574-.39987A76.90087,76.90087,0,0,0,211.93058,433.866l-21.45144-5.50919a71.15932,71.15932,0,0,1-44.83844-34.97434l0-.00006a71.15926,71.15926,0,0,1-2.78594-62.16633l0-.00009A297.91071,297.91071,0,0,0,167.27932,213.08v-27.9855Z"/><path fill="#ced9e1" d="M221,458.92194a57.74762,57.74762,0,0,1,7.58789,5.18695l.42871.34277a42.96073,42.96073,0,0,0,53.89551.05713l.55957-.44775A57.17594,57.17594,0,0,1,291,458.91913V426.5H221Z"/><path fill="#f1f6f9" d="M374.98,359.43a71.16945,71.16945,0,0,1-53.46,68.93l-21.44995,5.51a76.87165,76.87165,0,0,0-29.15,14.62l-.5.4a22.96219,22.96219,0,0,1-28.84,0l-.5-.4a76.87215,76.87215,0,0,0-29.15015-14.62L190.48,428.36a71.16763,71.16763,0,0,1-47.62988-97.14q5.1449-11.925,9.22-24.22A296.57811,296.57811,0,0,0,160.2,277.51H351.8A296.595,296.595,0,0,0,359.93,307q4.065,12.285,9.22,24.22A71.06938,71.06938,0,0,1,374.98,359.43Z"/><path fill="#ffb09e" d="M293.56816,241.34128a39.41988,39.41988,0,0,1,1.73161,13.31517q-.0576,1.42537-.2175,2.82555a39.33623,39.33623,0,1,1-76.93456-15.183,14.5855,14.5855,0,0,1,13.8599-10.65564l47.51911-.51127A14.53585,14.53585,0,0,1,293.56816,241.34128Z"/><path fill="#dde8ef" d="M369.15,331.22q-5.145-11.925-9.22-24.22a296.595,296.595,0,0,1-8.13-29.49H160.2A296.57811,296.57811,0,0,1,152.07007,307q4.3949,3.27,9.08,6.09c14.85,8.94,38.69007,18.5,61.03992,18.5,13.25,0,24.84009-3.46,33.81006-10.05,8.97,6.59,20.56006,10.04,33.81006,10.05a86.58455,86.58455,0,0,0,9.446-.53459c29.91251-3.28685,53.33129,26.10282,41.9391,53.95563A34.84883,34.84883,0,0,1,336.36,393.38c-17.33942,22.12922-57.48243,17.70069-77.78638,51.34351a55.42043,55.42043,0,0,0-4.44007,9.1814A22.92942,22.92942,0,0,0,270.42,448.89l.5-.4a76.87165,76.87165,0,0,1,29.15-14.62l21.45-5.51a71.16775,71.16775,0,0,0,47.63-97.14Z"/><path fill="#ffb09e" d="M310.94458,266.76007q19.68092,1.869,39.36176,3.738a297.90291,297.90291,0,0,1-5.58564-57.418V185.09448H167.2793v15H309.01007a20.873,20.873,0,0,1,20.80549,22.69694c-.96246,10.85148-2.90822,22.91-6.81672,29.63387A55.73883,55.73883,0,0,1,310.94458,266.76007Z"/><path fill="#fe99a0" d="M280.71883,280.76155a29.80946,29.80946,0,1,1-49.79125.5357"/><path fill="#f1f6f9" d="M372.42334,246.7019c-16.60463,15.38989-30.65908,19.3141-41.13843,19.63453-24.3999.746-40.48047-17.70728-59.22485-8.1048-6.47363,3.31634-12.88074,9.78729-15.17066,17.91046h-1.7788c-2.2898-8.12317-8.697-14.59412-15.17054-17.91046-18.7445-9.60248-34.82507,8.85083-59.225,8.1048-10.47929-.32043-24.5338-4.24464-41.13837-19.63453a4.42458,4.42458,0,0,0-7.03018,5.11972c6.88147,14.434,18.75315,31.9964,38.91269,44.13126,20.26245,12.19678,57.06738,23.82837,74.72436,7.82282a31.37134,31.37134,0,0,0,7.07774-9.674A3.03168,3.03168,0,0,1,256,292.35834h0a3.03167,3.03167,0,0,1,2.73873,1.74343,31.37,31.37,0,0,0,7.07764,9.67393c17.657,16.00555,54.462,4.374,74.72442-7.82282,20.15941-12.13485,32.03114-29.69721,38.91268-44.13123A4.42459,4.42459,0,0,0,372.42334,246.7019Z"/><path fill="#dde8ef" d="M216.9231,257.48242a39.32643,39.32643,0,0,0,78.14843-.00165c-7.74231-2.36126-15.14282-3.28009-23.01147.75086-6.47363,3.31634-12.88074,9.78729-15.17066,17.91046h-1.7788c-2.2898-8.12317-8.697-14.59412-15.17054-17.91046C232.06958,254.19971,224.66736,255.11987,216.9231,257.48242Z"/><path fill="#ffcebf" d="M280.71883,231.03431a29.80946,29.80946,0,1,1-49.79125.5357Z"/><circle cx="304.549" cy="212.917" r="7.5" fill="#433f43"/><circle cx="207.451" cy="212.917" r="7.5" fill="#433f43"/><path fill="#e53950" d="M447.89,37.02c-.18,1.87-.39,3.67-.62,5.4-3.55,25.88-13.22,37.3-21.24,42.99-22.86,16.2-58.3,4.19-72.6,22.63a45.01609,45.01609,0,0,0-8.06,16.48c-.88,4.22-.82,8.67-.71,17.57.06,4.94.24,9.03.4,11.86q-14.64.10493-29.29.2-71.055.48-142.09009.97C171.52,149.65,152.21,98.27,180.91,58c24.39-34.2,67.34-37.86,73.85-38.31,63.16-4.41,91.61,51.78,146.87,41.77C423.43,57.5,439.2,45.1,447.89,37.02Z"/><path fill="#ca2e43" d="M447.27,42.42c-3.55,25.88-13.22,37.3-21.24,42.99-22.86,16.2-58.3,4.19-72.6,22.63a45.01609,45.01609,0,0,0-8.06,16.48c-.88,4.22-.82,8.67-.71,17.57.06,4.94.24,9.03.4,11.86q-14.64.10493-29.29.2a39.84885,39.84885,0,0,1-5.26-12.06c-4.85-19.61,6.12-42.31,21.05-53.62,26.76-20.26,55.46,4.27,87.33-13.49C432.95,67.14,441.7,54.38,447.27,42.42Z"/><circle cx="451.5" cy="31.992" r="26.5" fill="#f1f6f9"/><path fill="#dde8ef" d="M460.3125,6.99878A26.498,26.498,0,0,1,431.597,49.47833,26.49746,26.49746,0,1,0,460.3125,6.99878Z"/><rect width="207" height="43" x="152.5" y="142.095" fill="#f1f6f9" rx="10"/><path fill="#dde8ef" d="M349.5,142.09448h-30a10,10,0,0,1,10,10v23a10,10,0,0,1-10,10h30a10,10,0,0,0,10-10v-23A10,10,0,0,0,349.5,142.09448Z"/><path fill="#f1f6f9" d="M42.5 512a10 10 0 0 1-10-10V428.18a140.228 140.228 0 0 1 14.42-62.13l36.75 21.16a69.27029 69.27029 0 0 1 34.71 60.03V512zM479.5 428.18V502a10.00366 10.00366 0 0 1-10 10H393.62V447.24a69.30029 69.30029 0 0 1 34.71-60.03l36.74-21.15.01-.01c0 .01.01.01.01.02A140.27248 140.27248 0 0 1 479.5 428.18z"/><path fill="#dde8ef" d="M479.5,428.18V502a10.00366,10.00366,0,0,1-10,10H429.72c20.09-23.26,26.54-52.41,16.75-75.18-4.96-11.53-17.77-30.01-35.83-31.92005-.83-.09-1.65-.13-2.45-.15a69.66347,69.66347,0,0,1,20.14-17.54l36.74-21.15a.035.035,0,0,0,.02.01A140.27248,140.27248,0,0,1,479.5,428.18Z"/></svg>