<svg xmlns="http://www.w3.org/2000/svg" data-name="Layer 1" viewBox="0 0 512 512"><path fill="#e53950" d="M485,157.5v317a29.99824,29.99824,0,0,1-30,30H57a29.99824,29.99824,0,0,1-30-30v-317Z"/><path fill="#ca2e43" d="M440,157.5v235a82,82,0,0,1-82,82H27a30.00012,30.00012,0,0,0,30,30H455a30,30,0,0,0,30-30v-317Z"/><rect width="497" height="75.51" x="7.5" y="81.99" fill="#fed402" rx="15"/><path fill="#fac600" d="M489.5,81.99048h-15A45.50959,45.50959,0,0,1,428.99072,127.5H402.11063a17.04027,17.04027,0,0,1-17.04582-17.13123c.14048-26.11308.21546-72.85876.21546-72.85876a14.999,14.999,0,0,0-19.36035-14.35l-85.98,26.14A31.3105,31.3105,0,0,1,287.5,69.77v3.44l2.48-1.65a5.00668,5.00668,0,0,1,6.93994,1.39l36.32471,54.55H7.5v15a15,15,0,0,0,15,15h467a15,15,0,0,0,15-15V96.99048A15,15,0,0,0,489.5,81.99048Z"/><rect width="79" height="347" x="216.5" y="157.5" fill="#fed402"/><rect width="79" height="30.327" x="216.5" y="474.173" fill="#fac600"/><path fill="#fac600" d="M216.5,81.99048v113.4801l17.40468-26.137A26.54807,26.54807,0,0,1,256.00181,157.5h0a26.54808,26.54808,0,0,1,22.09777,11.83451L295.5,195.46753V81.99048Z"/><path fill="#ca2e43" d="M216.5,194.78431,193.6001,229.86a5.00206,5.00206,0,0,1-8.49024-.27l-11.71-20.23a5.01179,5.01179,0,0,0-3.68017-2.45l-23.17969-3a4.99767,4.99767,0,0,1-3.52-7.73l25.76134-38.69762,47.737,22.96066Z"/><path fill="#46cc8d" d="M265.66992,106.63l-.70019,1.06L256,121.15l-1.39014,2.09L193.6001,214.86a5.00206,5.00206,0,0,1-8.49024-.27l-11.71-20.23a5.01179,5.01179,0,0,0-3.68017-2.45l-23.17969-3a4.99767,4.99767,0,0,1-3.52-7.73l34.94971-52.5,37.11035-55.73A5.00668,5.00668,0,0,1,222.02,71.56l2.48,1.65,12.78027,8.51L256,94.18l8.28027,5.51a5.0238,5.0238,0,0,1,1.38965,6.94Z"/><path fill="#ca2e43" d="M365.46,203.91l-23.17969,3a5.01179,5.01179,0,0,0-3.68017,2.45l-11.71,20.23a5.00206,5.00206,0,0,1-8.49024.27L295.5,195.46751l0-22.528L280.5,157.5h62.73l25.75,38.68A4.99767,4.99767,0,0,1,365.46,203.91Z"/><polygon fill="#fac600" points="295.5 157.5 285.22 157.5 295.5 172.94 295.5 157.5"/><path fill="#46cc8d" d="M365.46,188.91l-23.17969,3a5.01179,5.01179,0,0,0-3.68017,2.45l-11.71,20.23a5.00206,5.00206,0,0,1-8.49024.27l-61.00976-91.62L256,121.15l-8.96973-13.46-.70019-1.06a5.0238,5.0238,0,0,1,1.38965-6.94L256,94.18l18.71973-12.46L287.5,73.21l2.48-1.65a5.00668,5.00668,0,0,1,6.93994,1.39l37.11035,55.73L368.98,181.18A4.99767,4.99767,0,0,1,365.46,188.91Z"/><path fill="#fac600" d="M232.06006,49.3A31.3105,31.3105,0,0,0,224.5,69.77v3.44l-2.48-1.65a5.00668,5.00668,0,0,0-6.93994,1.39l-37.11035,55.73-31.88965,9.7a14.999,14.999,0,0,1-19.36035-14.35V37.51a14.999,14.999,0,0,1,19.36035-14.35Z"/><path fill="#00c27a" d="M274.71973,62.27v37L266.1001,101.89,256,104.96l-8.96973,2.73-14.97021,4.55-54.09033,16.44,37.11035-55.73A5.00668,5.00668,0,0,1,222.02,71.56l2.48,1.65V69.77a31.3105,31.3105,0,0,1,7.56006-20.47L256,56.58Z"/><path fill="#00c27a" d="M337.83511,134.39546,264.93994,112.24l-14.97021-4.55L241,104.96,230.8999,101.89,222.28027,99.27v-37L241,56.58l23.93994-7.28A31.3105,31.3105,0,0,1,272.5,69.77v3.44l2.48-1.65c2.30029-1.53,20.41016-.91,21.93994,1.39Z"/><path fill="#00c27a" d="M287.5,69.77v22a31.50568,31.50568,0,0,1-30.10986,31.47h-2.78028A31.50568,31.50568,0,0,1,224.5,91.77v-22A31.50177,31.50177,0,0,1,278.28027,47.5c.57959.58,1.12989,1.18,1.65967,1.8A31.3105,31.3105,0,0,1,287.5,69.77Z"/><path fill="#46cc8d" d="M232,97.25966l-85.91877,26.124a15,15,0,0,1-19.36356-14.35128V22.51A15,15,0,0,1,146.08123,8.15875l85.94529,26.132,42.69115,12.98041"/><path fill="#46cc8d" d="M237.28233,84.27118l128.63644,39.11243a15,15,0,0,0,19.36356-14.35128V22.51A15,15,0,0,0,365.91877,8.15875L237.28233,47.27118Z"/><path fill="#00c27a" d="M327.252 73.271H287.5a7.5 7.5 0 0 1 0-15h39.752a7.5 7.5 0 0 1 0 15zM224.5 73.271H184.74805a7.5 7.5 0 0 1 0-15H224.5a7.5 7.5 0 0 1 0 15z"/><rect width="63" height="85" x="224.5" y="23.271" fill="#08b865" rx="31.5"/><path fill="#09a755" d="M269.47559,26.29559A31.37185,31.37185,0,0,1,272.5,39.77112V61.77118a31.5,31.5,0,0,1-31.5,31.5h0a31.37164,31.37164,0,0,1-13.47559-3.02441A31.49967,31.49967,0,0,0,256,108.27118h0a31.5,31.5,0,0,0,31.5-31.5V54.77112A31.49988,31.49988,0,0,0,269.47559,26.29559Z"/></svg>