<svg xmlns="http://www.w3.org/2000/svg" data-name="Layer 1" viewBox="0 0 512 512"><rect width="34.183" height="61.109" x="238.908" y="334.27" fill="#d88a55"/><polygon fill="#c57a44" points="238.908 339.418 238.908 334.27 273.091 334.27 273.091 374.51 238.908 339.418"/><path fill="#46cc8d" d="M183.40185,324.82152l70.01576-89.52782a3.27785,3.27785,0,0,1,5.164,0l70.01576,89.5278a3.27944,3.27944,0,0,1-1.73527,5.18607,271.50955,271.50955,0,0,1-141.74351-.005A3.276,3.276,0,0,1,183.40185,324.82152Z"/><path fill="#00c27a" d="M328.59744,324.8215l-70.01573-89.52782a3.27793,3.27793,0,0,0-5.16416,0l-7.71074,9.85954,51.43175,65.7645a7.94,7.94,0,0,1-4.37639,12.612,271.21585,271.21585,0,0,1-110.039,3.636,3.25683,3.25683,0,0,0,2.39547,2.83678,271.51148,271.51148,0,0,0,141.7556.00169A3.27562,3.27562,0,0,0,328.59744,324.8215Z"/><path fill="#46cc8d" d="M194.33467,280.92566l59.47094-76.04435a2.78418,2.78418,0,0,1,4.38629,0l59.47093,76.04433a2.78553,2.78553,0,0,1-1.47392,4.405,230.61865,230.61865,0,0,1-120.396-.00428A2.78258,2.78258,0,0,1,194.33467,280.92566Z"/><path fill="#00c27a" d="M317.66284,280.92566,258.192,204.88132a2.7842,2.7842,0,0,0-4.38632,0l-7.81038,9.987,39.92978,51.05757a8.53427,8.53427,0,0,1-4.85488,13.57638,230.34354,230.34354,0,0,1-87.3044,2.96546,2.76187,2.76187,0,0,0,2.02716,2.85867,230.61649,230.61649,0,0,0,120.39593.00419A2.7854,2.7854,0,0,0,317.66284,280.92566Z"/><path fill="#46cc8d" d="M208.32407,236.6913l45.979-58.79248a2.15255,2.15255,0,0,1,3.3912,0l45.979,58.79247a2.15359,2.15359,0,0,1-1.13954,3.40567,178.29919,178.29919,0,0,1-93.08229-.00331A2.15131,2.15131,0,0,1,208.32407,236.6913Z"/><path fill="#00c27a" d="M303.67321,236.69128l-45.979-58.79257a2.15254,2.15254,0,0,0-3.39122,0l-7.81085,9.98794,25.31261,32.36682a9.12106,9.12106,0,0,1-5.31808,14.55985,178.23017,178.23017,0,0,1-58.32612,2.15232,2.14,2.14,0,0,0,1.291,3.12792,178.29646,178.29646,0,0,0,93.10064-.00159A2.14821,2.14821,0,0,0,303.67321,236.69128Z"/><circle cx="255.998" cy="175.545" r="19.073" fill="#e53950"/><path fill="#ca2e43" d="M261.74339,157.35692a19.072,19.072,0,0,1-21.47291,28.96859,19.07082,19.07082,0,1,0,21.47291-28.96859Z"/><path fill="#e53950" d="M256,7.5C118.75732,7.5,7.5,118.7572,7.5,256S118.75732,504.5,256,504.5,504.5,393.24268,504.5,256,393.24268,7.5,256,7.5Zm0,379.95142A131.45142,131.45142,0,1,1,387.45142,256,131.4514,131.4514,0,0,1,256,387.45142Z"/><path fill="#ca2e43" d="M241 125.40552a132.819 132.819 0 0 0-15-.85694 131.45142 131.45142 0 0 0 0 262.90284 132.819 132.819 0 0 0 15-.85694 131.45332 131.45332 0 0 1 0-261.189zM256 7.5c-5.03809 0-10.03613.168-15 .46362C371.2561 15.72131 474.5 123.79517 474.5 256c0 132.20459-103.2439 240.27881-233.5 248.03638 4.96387.29565 9.96191.46362 15 .46362 137.24268 0 248.5-111.25732 248.5-248.5S393.24268 7.5 256 7.5z"/><path fill="#fff" d="M72.4873 253.06445a4.29906 4.29906 0 0 1 2.19239 3.89063 3.84547 3.84547 0 0 1-2.15821 3.68554L59.502 267.82617l28.877-.13086c2.40039-.01172 3.61425 2.90821 3.62695 5.834.01367 2.9248-1.17383 5.85547-3.57422 5.86621l-45.37793.2041c-4.27539.01855-5.86426-2.89844-5.877-5.82324-.01856-4.2002.42285-6.00293 5.80957-9.10254l13.46679-7.78613L42.917 249.22217c-5.41406-3.05078-5.87207-4.84815-5.8916-9.04834-.01269-3 1.54883-5.85889 5.8252-5.87793l45.37793-.2041c2.40039-.01026 3.61328 2.90966 3.62695 5.835.01269 2.9248-1.17383 5.85644-3.57422 5.8667l-28.12695.126zM65.4541 209.855l2.8916-10.87353c.5791-2.17383 3.00879-2.8462 5.32813-2.23 1.957.521 4.00683 2.15284 3.37012 4.54493L74.15137 212.169l12.32226 3.27783 5.168-19.4253c.5791-2.17529 3.22656-2.79 5.90723-2.07568 2.32031.61719 4.58691 2.30664 3.95117 4.69775l-6.86523 25.80469c-.65528 2.46485-2.47168 4.6211-4.79 4.00391L43.81641 216.207c-2.31934-.61719-2.82325-3.39062-2.168-5.85547l6.86523-25.80371c.63574-2.39209 3.44336-2.73242 5.7627-2.11523 2.68164.71484 4.67383 2.56347 4.09472 4.73828l-5.168 19.42578zM58.30176 168.72461a3.48821 3.48821 0 0 1-1.374-4.84619l7.42481-13.6333c4.91406-9.02246 12.18262-14.37061 22.918-8.52344 7.375 4.0166 9.76074 9.67139 9.02929 15.249l18.92969-.10644a2.46174 2.46174 0 0 1 1.36524.3164c2.56836 1.39893 3.46875 6.33008 1.81836 9.35938a3.99572 3.99572 0 0 1-3.70313 2.25244l-22.43164-.519-2.36719 4.34668 15.8711 8.645c2.10742 1.147 1.76172 4.29052.36328 6.85791-1.39844 2.56884-3.85156 4.564-5.959 3.41552zm11.45605-7.08154l12.25 6.67334 3.55078-6.52149c2.00879-3.6875 1.71387-6.75195-2.89648-9.26269s-7.34375-1.09571-9.35254 2.59179zM85.76074 122.93555a3.49 3.49 0 0 1-.13672-5.03614l10.55567-11.38476c6.98535-7.53418 15.34863-10.92774 24.3125-2.61621 6.16015 5.71094 7.0791 11.78027 4.99414 17.00586l18.376 4.56006a2.46657 2.46657 0 0 1 1.24415.64306c2.1455 1.98828 1.80371 6.98975-.542 9.519a3.99643 3.99643 0 0 1-4.14453 1.27149l-21.61523-6.02881-3.36524 3.62988 13.25489 12.28858c1.75976 1.63135.65039 4.59228-1.33887 6.73681-1.98828 2.145-4.85645 3.47413-6.61719 1.84229zM98.61035 118.895l10.22949 9.48437 5.04786-5.44433c2.85546-3.08008 3.32519-6.12256-.52442-9.6919-3.85058-3.57031-6.84863-2.87255-9.7041.20752zM149.00684 103.273a1.95309 1.95309 0 0 0-.8252-.71484l-27.07422-13.0254a1.75715 1.75715 0 0 1-.57715-.60791c-1.51953-2.32177 1.32618-6.603 4.02442-8.36865 1.56836-1.02685 2.54394-.76806 4.01465-.02783L147.90723 90.9082l-1.82911-21.83545a3.3109 3.3109 0 0 1 1.63282-3.66748c2.69922-1.76562 7.76074-2.65771 9.28027-.33593a1.75141 1.75141 0 0 1 .3252.77246l1.15722 29.9834a1.93044 1.93044 0 0 0 .32325 1.043l10.30566 15.751c1.31445 2.00781-.47656 4.61426-2.92383 6.21484-2.44726 1.60108-5.55176 2.19922-6.86523.19043zM204.96973 53.709c-4.14063 1.06543-5.93848 4.00684-4.666 8.94678l4.958 19.24756c1.27246 4.939 4.26758 6.64551 8.48047 5.561 5.81054-1.49707 5.03222-6.021 4.52051-8.91016-.47364-2.74365 1.80859-4.10645 4.71289-4.854 3.92382-1.01075 6.001-.46192 7.123 3.89648 2.48926 9.66016-3.93359 17.20117-14.32031 19.87646-9.51465 2.45166-18.62891-.1582-21.84766-12.65087l-4.957-19.249c-3.21875-12.49219 3.501-19.18066 13.01563-21.63086 10.38672-2.67529 19.57812.53321 21.9541 9.75782 1.123 4.35791-.43164 5.84326-4.28125 6.834-3.04981.78564-5.72559.62207-6.544-1.9541C212.55859 56.71094 211.14355 52.11719 204.96973 53.709zM263.332 68.04688l-14.92383.00585.00684 20.32422c.001 2.39942-2.92285 3.60059-5.84863 3.60254-2.92481 0-5.84961-1.19873-5.85059-3.59912l-.0166-47.69678c-.001-2.47461 2.92383-3.52636 5.84863-3.52734s5.84961 1.04736 5.85059 3.523l.00683 18.37451 14.92383-.00586-.00683-18.373c0-2.47558 2.92382-3.52636 5.84863-3.52734 2.9248-.002 5.85058 1.04736 5.85156 3.522l.0166 47.69873c0 2.39942-2.92383 3.60059-5.84863 3.60157s-5.85059-1.19873-5.85059-3.59864zM292.88672 43.145a3.49226 3.49226 0 0 1 4.37207-2.50635l15.02344 3.90576c9.94336 2.58448 16.89257 8.34229 13.81738 20.17383-2.11328 8.1294-7.02246 11.81153-12.61231 12.45117l4.68555 18.34278a2.465 2.465 0 0 1 .02246 1.40039c-.73535 2.83008-5.30273 4.897-8.6416 4.03027a3.996 3.996 0 0 1-3.08008-3.04883l-4.92675-21.8916-4.79-1.24463L292.21094 92.249c-.60449 2.32325-3.73731 2.749-6.56739 2.01221-2.83105-.73535-5.35937-2.63232-4.75585-4.95459zm9.64355 9.40332l-3.50879 13.49951L306.207 67.916c4.06445 1.05664 6.96582.02783 8.28711-5.05176 1.32031-5.08155-.71289-7.39258-4.77832-8.44873zM341.21191 58.1875c1.04-2.24609 4.13575-1.96875 6.79-.73926 2.65332 1.231 4.86621 3.4126 3.8252 5.65967l-20.0586 43.2793c-1.00878 2.17822-4.168 2.03662-6.82128.80713-2.6543-1.23047-4.80372-3.54932-3.79395-5.72754zM362.69336 112.53076c5.15625-7.46875-15.30664-19.6792-5.33789-34.12353 6.3916-9.26026 16.90625-7.19727 24.62207-1.87159 3.27148 2.25831 11.8584 9.0962 8.53516 13.91065-1.1504 1.667-4.60352 4.29443-7.32129 2.41992-2.22168-1.5332-1.77637-4.68848-6.83692-8.18213-4.38281-3.0249-7.41015-2.47119-8.72949-.55713-4.26074 6.17383 16.11719 18.50684 5.38086 34.0625-6.13574 8.88916-15.94043 9.23-24.8916 3.05176-8.08594-5.58057-12.14942-14.21728-9.33789-18.292 1.44922-2.09766 5.43164-3.90674 7.77636-2.2876 2.90235 2.002 1.60059 7.84815 7.3418 11.81006C356.7334 114.43213 360.64844 115.49365 362.69336 112.53076zM428.44922 120.48975c1.666 1.8291.37695 4.42334-1.45215 6.08935-2.10742 1.91992-4.7959 2.64356-6.31152.98047l-6.96973-7.65234-30.1084 27.42334c-1.77441 1.61621-4.63183.26123-6.60058-1.90039-1.97071-2.16309-3.05176-5.13379-1.27735-6.749l30.1084-27.42431-6.96973-7.65137c-1.51367-1.66358-.543-4.27344 1.56348-6.19238 1.83008-1.666 4.5332-2.708 6.2002-.87891zM420.7793 175.58789a4.29661 4.29661 0 0 1-3.71778-2.47363 3.84559 3.84559 0 0 1 .25391-4.2627l8.34668-12.30664-25.68066 13.20654c-2.13477 1.09717-4.54-.9541-5.87891-3.55517-1.33692-2.602-1.60742-5.75195.52734-6.84961l40.35547-20.75391c3.80274-1.95556 6.541-.0747 7.87891 2.52686 1.9209 3.73633 2.34472 5.54248-1.05176 10.74707l-8.47363 13.04492 15.54.69678c6.21.26416 7.43164 1.65967 9.35351 5.39551 1.37207 2.66748 1.27539 5.92236-2.52734 7.87793l-40.35645 20.75341c-2.13476 1.09766-4.53906-.95459-5.87793-3.55615-1.33691-2.60156-1.60742-5.752.52735-6.84961l25.01367-12.86377zM417.10449 201.36914a3.84862 3.84862 0 0 1 .83985-.01758l47.60546 4.58838c2.73633.2876 4.65625 3.34229 5.3418 6.72315.68457 3.38086.10547 6.94238-2.30371 8.271L426.53613 243.7627a3.93892 3.93892 0 0 1-.78027.31152c-2.71875.55078-5.55274-3.23731-6.19238-6.398-.37305-1.8374-.083-3.42676 1.37207-4.17969l8.68066-4.36133L426.47559 213.626l-9.69532-.6377c-1.63183-.12793-2.51757-1.479-2.89062-3.3164C413.251 206.51123 414.38574 201.919 417.10449 201.36914zm20.8418 23.55371l18.61133-9.35644-20.78516-1.375zM434.26855 269.54883c9.06934.35742 8.43653-23.46094 25.97364-22.7666 11.24219.4458 15.125 10.43261 14.7539 19.7998-.15722 3.97266-1.33984 14.88574-7.18652 14.6543-2.02344-.08106-6.0918-1.59375-5.96094-4.89063.10645-2.69824 3.01075-4.00976 3.25391-10.15527.21094-5.32129-1.876-7.58105-4.19922-7.67188-7.49414-.29785-7.01172 23.51661-25.89844 22.76758-10.792-.42675-16.32519-8.52832-15.89453-19.39551.38867-9.8164 5.51172-17.87109 10.458-17.6748 2.54785.10059 6.20605 2.49707 6.09277 5.3457-.13965 3.52246-5.77441 5.55176-6.0498 12.52149C429.47461 265.5293 430.67188 269.40625 434.26855 269.54883z"/><path fill="#fed402" d="M258.48892 420.1063l6.82686 13.83272a2.77645 2.77645 0 0 0 2.09048 1.51883l15.26532 2.21818a2.77642 2.77642 0 0 1 1.53873 4.73574l-11.04608 10.76728a2.77641 2.77641 0 0 0-.79849 2.45751l2.60762 15.20363a2.77643 2.77643 0 0 1-4.02847 2.92685l-13.65371-7.17818a2.77646 2.77646 0 0 0-2.584 0L241.05349 473.767a2.77643 2.77643 0 0 1-4.02847-2.92685l2.60763-15.20363a2.77644 2.77644 0 0 0-.7985-2.45751l-11.04608-10.76728a2.77643 2.77643 0 0 1 1.53874-4.73574l15.26531-2.21818a2.77646 2.77646 0 0 0 2.09049-1.51883l6.82685-13.83272A2.77644 2.77644 0 0 1 258.48892 420.1063zM414.58008 387.23a2.75417 2.75417 0 0 0-.8 2.46L416.37988 404.89a2.7732 2.7732 0 0 1-4.02 2.93006L398.7 400.64a2.80546 2.80546 0 0 0-1.85986-.26 2.70043 2.70043 0 0 0-.72.26L382.46 407.82007a2.77328 2.77328 0 0 1-4.02-2.93006l2.6001-15.20007a2.77583 2.77583 0 0 0-.79-2.46L369.2 376.47a2.77823 2.77823 0 0 1 1.54-4.74L386 369.51a2.75591 2.75591 0 0 0 2.09009-1.52l6.82983-13.83008a2.779 2.779 0 0 1 4.98 0L406.73 367.99a2.22081 2.22081 0 0 0 .29.46 2.71486 2.71486 0 0 0 1.8 1.06006l15.26 2.22a2.7783 2.7783 0 0 1 1.54 4.74z"/><path fill="#fac600" d="M273.16914 453.17748a2.75416 2.75416 0 0 0-.8 2.46l2.59985 15.20007a2.7732 2.7732 0 0 1-4.02 2.93006L257.289 466.58751a2.8054 2.8054 0 0 0-1.85986-.26A27.18055 27.18055 0 0 0 265.644 453.52807a27.49164 27.49164 0 0 0-.03491-19.13062 2.71486 2.71486 0 0 0 1.8 1.06006l15.26 2.22a2.7783 2.7783 0 0 1 1.54 4.74zM414.58008 387.232a2.75416 2.75416 0 0 0-.8 2.46l2.59985 15.20007a2.7732 2.7732 0 0 1-4.02 2.93006L398.7 400.64206a2.8054 2.8054 0 0 0-1.85986-.26 27.18067 27.18067 0 0 0 10.21484-12.79943A27.49164 27.49164 0 0 0 407.02 368.452a2.71486 2.71486 0 0 0 1.8 1.06006l15.26 2.22a2.7783 2.7783 0 0 1 1.54 4.74zM132.66214 387.23a2.75416 2.75416 0 0 0-.8 2.46L134.462 404.89a2.7732 2.7732 0 0 1-4.02 2.93006L116.782 400.64a2.80549 2.80549 0 0 0-1.85987-.26A27.18061 27.18061 0 0 0 125.137 387.58057a27.49164 27.49164 0 0 0-.03491-19.13062 2.71483 2.71483 0 0 0 1.8 1.06006l15.26 2.22a2.7783 2.7783 0 0 1 1.54 4.74z"/><path fill="#fed402" d="M117.98193,354.16085l6.82685,13.83272a2.77645,2.77645,0,0,0,2.09049,1.51883l15.26531,2.21818a2.77643,2.77643,0,0,1,1.53874,4.73574L132.65723,387.2336a2.77647,2.77647,0,0,0-.79849,2.45751l2.60763,15.20363a2.77644,2.77644,0,0,1-4.02847,2.92685l-13.65371-7.17818a2.77646,2.77646,0,0,0-2.584,0l-13.65371,7.17818a2.77643,2.77643,0,0,1-4.02847-2.92685l2.60762-15.20363a2.77641,2.77641,0,0,0-.79849-2.45751L87.28108,376.46632a2.77642,2.77642,0,0,1,1.53873-4.73574l15.26532-2.21818a2.77645,2.77645,0,0,0,2.09048-1.51883l6.82686-13.83272A2.77643,2.77643,0,0,1,117.98193,354.16085Z"/><circle cx="438.799" cy="317.759" r="7.5" fill="#00c27a"/><circle cx="336.052" cy="426.059" r="7.5" fill="#00c27a"/><circle cx="179.489" cy="426.059" r="7.5" fill="#00c27a"/><circle cx="78.94" cy="317.759" r="7.5" fill="#00c27a"/></svg>