<svg xmlns="http://www.w3.org/2000/svg" data-name="Layer 1" viewBox="0 0 512 512"><path fill="#46cc8d" d="M288.5,37.5001V37.5h-65v.0001a476.03811,476.03811,0,0,1-41.01168,193.29845l-.00006.00013A202.9928,202.9928,0,0,0,165,313.22528V474.5a30,30,0,0,0,30,30H317a30,30,0,0,0,30-30V313.22528a202.9928,202.9928,0,0,0-17.48826-82.4266l-.00006-.00013A476.03811,476.03811,0,0,1,288.5,37.5001Z"/><path fill="#00c27a" d="M329.51172,230.79858h-.00006A476.03872,476.03872,0,0,1,288.5,37.50006V37.5H253.08344A476.03178,476.03178,0,0,0,292.957,198.014l.00006.00012a202.99262,202.99262,0,0,1,17.48828,82.42651V389.71545a82,82,0,0,1-82,82H165V474.5a30,30,0,0,0,30,30H317a30,30,0,0,0,30-30V313.22534A202.9934,202.9934,0,0,0,329.51172,230.79858Z"/><path fill="#fed402" d="M288.5,37.50006V37.5h-65v.00006a476.03306,476.03306,0,0,1-24.818,151.68158l43.1759,43.176a20.00015,20.00015,0,0,0,28.2843,0l43.1759-43.176A476.03306,476.03306,0,0,1,288.5,37.50006Z"/><path fill="#fac600" d="M292.957,198.01416c1.19483,2.689,2.315,5.406,3.38971,8.13879l16.97131-16.97131q-1.48361-4.41321-2.87677-8.85364c-.05273-.16772-.10675-.33508-.15936-.5028q-1.38483-4.41981-2.683-8.864c-.05133-.17578-.10108-.35205-.15222-.528q-1.28385-4.41468-2.48462-8.8512c-.01123-.0415-.023-.083-.03412-.12451q-1.19833-4.44286-2.30725-8.90833c-.07642-.30676-.15119-.61389-.227-.92077q-2.17291-8.799-4.00989-17.67438-.12434-.60076-.24683-1.2019-1.78774-8.754-3.24621-17.57239-.11381-.68793-.22687-1.37586-.70908-4.36632-1.34167-8.74548c-.03-.209-.057-.41846-.08674-.62756q-.582-4.09883-1.08972-8.20905c-.05938-.47766-.121-.955-.179-1.43292q-.5203-4.29162-.964-8.59381c-.04633-.45026-.088-.901-.13306-1.35144q-.38937-3.89585-.71515-7.79932c-.03674-.44055-.07715-.88067-.11267-1.32135q-.3425-4.25244-.60669-8.51324c-.03693-.591-.06988-1.18225-.10461-1.77344q-.23136-3.93549-.40082-7.87665c-.01325-.31323-.03058-.626-.04315-.93921q-.17094-4.25271-.25983-8.51178-.02215-.99307-.03906-1.98633c-.05207-2.87268-.08771-5.74646-.08771-8.62225V37.5H253.08344A476.03178,476.03178,0,0,0,292.957,198.014Z"/><rect width="182" height="99.021" x="165" y="325.187" fill="#e53950"/><path fill="#ca2e43" d="M310.44531,390.65381a80.72763,80.72763,0,0,1-7.2749,33.55395H347v-99.021H310.44531Z"/><circle cx="256" cy="374.697" r="21.529" fill="#fed402"/><rect width="92" height="45" x="210" y="7.5" fill="#fed402" rx="5"/><path fill="#fac600" d="M297,7.5H280.52533v2.6139A24.14873,24.14873,0,0,1,256.3766,34.26263H210V47.5a5,5,0,0,0,5,5h82a5,5,0,0,0,5-5v-35A5,5,0,0,0,297,7.5Z"/><path fill="#c4e2ff" d="M399.95288,143.46484C393.36853,167.9436,389.5,197.788,389.5,230c0,83.1189,25.74365,150.5,57.5,150.5s57.5-67.3811,57.5-150.5c0-32.212-3.86853-62.0564-10.45288-86.53516Z"/><path fill="#b3dafe" d="M494.04712,143.46484H467.59381A357.03994,357.03994,0,0,1,474.5,215c0,79.08057-23.30341,143.91089-52.91675,150.02417C429.24756,374.92676,437.87451,380.5,447,380.5c31.75635,0,57.5-67.3811,57.5-150.5C504.5,197.788,500.63147,167.9436,494.04712,143.46484Z"/><path fill="#c4e2ff" d="M488.5,497h-34V380.5a7.5,7.5,0,0,0-15,0V497h-34a7.5,7.5,0,0,0,0,15h83a7.5,7.5,0,0,0,0-15Z"/><path fill="#fed402" d="M447,380.5c31.75635,0,57.5-67.3811,57.5-150.5-17.74933-8.57117-31.2923-8.81677-40.99286-6.8927-14.37158,2.85059-19.6214,10.32971-34.07684,13.209C414.17651,239.35461,400.05884,234.99976,389.5,230,389.5,313.1189,415.24365,380.5,447,380.5Z"/><path fill="#fac600" d="M474.43536,222.1438c-1.35363,75.80908-24.13562,136.95215-52.85211,142.88037l.00061.00073a54.54622,54.54622,0,0,0,7.40125,7.93042c.04651.04.0932.07886.13971.11865q.67135.575,1.35009,1.10645.11316.0888.22638.17627.649.50171,1.30445.96313c.08038.05664.16058.115.24115.17078q.68755.477,1.38189.9093c.05072.03162.101.06568.1518.09693a30.11714,30.11714,0,0,0,3.16974,1.70837c.04107.01892.08252.03491.12359.05359q.7024.32043,1.41065.59546c.14416.056.28912.10571.43365.15893.37128.13684.74341.26673,1.117.385.18017.05689.36084.10938.5415.16187q.5138.14977,1.03033.27588c.19446.04736.389.0935.584.13574.33929.07373.67975.13672,1.02063.195.19372.033.38714.06848.58142.09643.3642.05249.72974.0907,1.0957.12537.1687.01611.33673.03821.5058.05029.53345.03833,1.06842.06128,1.60547.06128,31.75635,0,57.5-67.3811,57.5-150.5C492.63037,224.26807,482.65161,222.27,474.43536,222.1438Z"/><circle cx="424.709" cy="278.25" r="7.5" fill="#fee903"/><circle cx="447" cy="328.804" r="7.5" fill="#fee903"/><circle cx="462" cy="289.107" r="7.5" fill="#fee903"/><path fill="#c4e2ff" d="M17.95288,143.46484C11.36853,167.9436,7.5,197.788,7.5,230c0,83.1189,25.74365,150.5,57.5,150.5s57.5-67.3811,57.5-150.5c0-32.212-3.86853-62.0564-10.45288-86.53516Z"/><path fill="#c4e2ff" d="M106.5,497h-34V380.5a7.5,7.5,0,0,0-15,0V497h-34a7.5,7.5,0,0,0,0,15h83a7.5,7.5,0,0,0,0-15Z"/><path fill="#fed402" d="M65,380.5c31.75635,0,57.5-67.3811,57.5-150.5-17.74933-8.57117-31.2923-8.81677-40.99286-6.8927-14.37158,2.85059-19.6214,10.32971-34.07684,13.209C32.17651,239.35461,18.05884,234.99976,7.5,230,7.5,313.1189,33.24365,380.5,65,380.5Z"/><circle cx="42.709" cy="278.25" r="7.5" fill="#fee903"/><circle cx="65" cy="328.804" r="7.5" fill="#fee903"/><circle cx="80" cy="289.107" r="7.5" fill="#fee903"/><path fill="#b3dafe" d="M112.04712,143.46484H85.59381A357.03994,357.03994,0,0,1,92.5,215c0,79.08057-23.30341,143.91089-52.91675,150.02417C47.24756,374.92676,55.87451,380.5,65,380.5c31.75635,0,57.5-67.3811,57.5-150.5C122.5,197.788,118.63147,167.9436,112.04712,143.46484Z"/><path fill="#fac600" d="M92.43536,222.1438C91.08173,297.95288,68.29974,359.096,39.58325,365.02417l.00061.00073a54.54622,54.54622,0,0,0,7.40125,7.93042c.04651.04.0932.07886.13971.11865q.67135.575,1.35009,1.10645.11316.0888.22638.17627.649.50171,1.30445.96313c.08038.05664.16058.115.24115.17078q.68756.477,1.38189.9093c.05072.03162.101.06568.1518.09693a30.11714,30.11714,0,0,0,3.16974,1.70837c.04107.01892.08252.03491.12359.05359q.70241.32043,1.41065.59546c.14416.056.28912.10571.43365.15893.37128.13684.74341.26673,1.11695.385.18017.05689.36084.10938.5415.16187q.5138.14977,1.03033.27588c.19446.04736.389.0935.584.13574.33929.07373.67975.13672,1.02063.195.19372.033.38714.06848.58142.09643.3642.05249.72974.0907,1.0957.12537.1687.01611.33673.03821.5058.05029C63.928,380.47705,64.463,380.5,65,380.5c31.75635,0,57.5-67.3811,57.5-150.5C110.63037,224.26807,100.65161,222.27,92.43536,222.1438Z"/></svg>