<svg xmlns="http://www.w3.org/2000/svg" data-name="Layer 1" viewBox="0 0 512 512"><path fill="#7a6d79" d="M255.99219,83.35254a7.50189,7.50189,0,0,1-7.34571-6.02539c-1.18066-5.88477-5.94677-36.40039,16.25831-59.26563A64.472,64.472,0,0,1,298.11133.15723a7.50033,7.50033,0,0,1,3.05859,14.68554,49.51714,49.51714,0,0,0-25.50439,13.669c-17.33057,17.8457-12.877,43.04883-12.312,45.86426a7.50414,7.50414,0,0,1-7.36133,8.97656Z"/><path fill="#f1f6f9" d="M407.58248,317.1249,372.61871,488.29429A20.40879,20.40879,0,0,1,352.5497,504.5H159.4503a20.40879,20.40879,0,0,1-20.069-16.20571L104.41752,317.1249Z"/><path fill="#dde8ef" d="M373.47705,317.125,352.45952,420.01874a65.35529,65.35529,0,0,1-58.85837,52.07038q-77.50752,6.15624-155.015,12.31249l.79511,3.89258A20.40869,20.40869,0,0,0,159.45032,504.5H352.54968a20.40858,20.40858,0,0,0,20.069-16.20581L407.58252,317.125Z"/><path fill="#fed402" d="M440.03,263.8999a60.116,60.116,0,0,1-32.44995,53.22022,61.37125,61.37125,0,0,1-28.64014,7.02H133.06A61.39451,61.39451,0,0,1,89.85,306.49c-.67-.66992-1.33-1.34985-1.97-2.04a59.57342,59.57342,0,0,1-15.91-40.55c0-33.25,27.34-60.23,61.09-60.23h3.15c-.08-1.49-.15-3-.15-4.52978,0-42.74024,35.16-77.40015,78.51-77.40015q3.105,0,6.17.24h70.52q3.06006-.23986,6.17993-.24c43.34009,0,78.5,34.65991,78.5,77.40015,0,1.52978-.06994,3.03979-.1499,4.52978h3.1499A61.339,61.339,0,0,1,422.15,221.32007,59.6541,59.6541,0,0,1,440.03,263.8999Z"/><path fill="#fac600" d="M440.03,263.8999a60.116,60.116,0,0,1-32.44995,53.22022,61.37125,61.37125,0,0,1-28.64014,7.02H133.06A61.39451,61.39451,0,0,1,89.85,306.49c-.67-.66992-1.33-1.34985-1.97-2.04q117.045.88513,234.08-.17993,20.19668-.17909,40.38592-.42377c27.53906-.33371,47.52836-27.21987,38.9436-53.3888q-.2729-.83184-.57952-1.6574A46.64389,46.64389,0,0,0,365.05179,219.354a14.38585,14.38585,0,0,1-11.54617-11.78351A97.05133,97.05133,0,0,0,333.6,163.2c-28.5199-35.26-71.75-36.25-78.06995-36.29,1.37-1.07007,3.62-2.78979,6.68994-4.92993h29.04q3.06006-.23986,6.17993-.24c43.34009,0,78.5,34.65991,78.5,77.40015,0,1.52978-.06994,3.03979-.1499,4.52978h3.1499A61.339,61.339,0,0,1,422.15,221.32007,59.6541,59.6541,0,0,1,440.03,263.8999Z"/><ellipse cx="256" cy="112.337" fill="#e53950" rx="36.556" ry="36.485"/><path fill="#ca2e43" d="M273.25964,80.17139a36.54019,36.54019,0,0,1-49.51922,49.332,36.53711,36.53711,0,1,0,49.51922-49.332Z"/><path fill="#fe4fb7" d="M216.832,203.26758a7.47083,7.47083,0,0,1-2.20166-.332l-29.03808-8.90625a7.49962,7.49962,0,1,1,4.39843-14.33985l29.03809,8.90625a7.50095,7.50095,0,0,1-2.19678,14.67188Z"/><path fill="#01c0fa" d="M136.273,283.71484a7.50165,7.50165,0,0,1-6.05078-11.92382l17.76806-24.332a7.5,7.5,0,0,1,12.11426,8.84571l-17.76806,24.332A7.4923,7.4923,0,0,1,136.273,283.71484Z"/><path fill="#46cc8d" d="M241.74854,286.21484a7.46872,7.46872,0,0,1-4.83008-1.76562l-23.11377-19.48438a7.5,7.5,0,0,1,9.668-11.46875l23.11377,19.48438a7.5,7.5,0,0,1-4.83789,13.23437Z"/><path fill="#fe4fb7" d="M350.67578,291.832A7.5,7.5,0,0,1,345.8042,278.627l22.99463-19.62109a7.4998,7.4998,0,0,1,9.73633,11.41016l-22.99463,19.62109A7.47083,7.47083,0,0,1,350.67578,291.832Z"/><path fill="#46cc8d" d="M319.541,264.13574a7.50015,7.50015,0,0,1-6.835-4.40527L300.29541,232.3584a7.49974,7.49974,0,1,1,13.66113-6.19336l12.41065,27.37207a7.503,7.503,0,0,1-6.82617,10.59863Z"/><path fill="#01c0fa" d="M278.14014,194.18848a7.501,7.501,0,0,1-2.355-14.62207l28.83056-9.53907a7.49978,7.49978,0,1,1,4.71192,14.24024l-28.83057,9.53906A7.48992,7.48992,0,0,1,278.14014,194.18848Z"/><polygon fill="#e53950" points="382.318 440.813 394.573 380.813 117.427 380.813 129.682 440.813 382.318 440.813"/><path fill="#ca2e43" d="M361.50952,380.8125l-3.18471,15.59114a36.76713,36.76713,0,0,1-36.0233,29.40886h-195.683l3.064,15h252.6352l12.25573-60Z"/><circle cx="257.821" cy="410.813" r="55.51" fill="#fed402"/><path fill="#fac600" d="M295.176,369.75269a55.51138,55.51138,0,0,1-89.71045,59.51586A55.51148,55.51148,0,1,0,295.176,369.75269Z"/></svg>