<svg xmlns="http://www.w3.org/2000/svg" data-name="Layer 1" viewBox="0 0 512 512"><path fill="#fed402" d="M259.60507,9.741l9.88511,20.02944a4.02025,4.02025,0,0,0,3.027,2.19922l22.10379,3.21186a4.02021,4.02021,0,0,1,2.22806,6.85725L280.85454,57.62951a4.02024,4.02024,0,0,0-1.1562,3.55841l3.77578,22.01448a4.02021,4.02021,0,0,1-5.83312,4.238L257.87077,77.04659a4.0202,4.0202,0,0,0-3.74154,0L234.359,87.44041a4.02021,4.02021,0,0,1-5.83312-4.238l3.77578-22.01448a4.02024,4.02024,0,0,0-1.1562-3.55841L215.151,42.03877a4.02021,4.02021,0,0,1,2.22806-6.85725l22.10379-3.21186a4.02025,4.02025,0,0,0,3.027-2.19922L252.39493,9.741A4.02022,4.02022,0,0,1,259.60507,9.741Z"/><path fill="#e53950" d="M256 203.5a7.49974 7.49974 0 0 1-7.5-7.5V129.66309a7.5 7.5 0 0 1 15 0V196A7.49974 7.49974 0 0 1 256 203.5zM256 389.83691a7.49974 7.49974 0 0 1-7.5-7.5V316a7.5 7.5 0 0 1 15 0v66.33691A7.49974 7.49974 0 0 1 256 389.83691z"/><path fill="#fed402" d="M166.666 352.834a7.5 7.5 0 0 1-5.30323-12.80371l46.90772-46.90722A7.50023 7.50023 0 1 1 218.877 303.73047L171.96924 350.6377A7.47907 7.47907 0 0 1 166.666 352.834zM259.60507 426.32987l9.88511 20.02943a4.02023 4.02023 0 0 0 3.027 2.19922l22.10379 3.21187a4.02021 4.02021 0 0 1 2.22806 6.85725l-15.99446 15.59074a4.02024 4.02024 0 0 0-1.1562 3.55841l3.77578 22.01448a4.02021 4.02021 0 0 1-5.83312 4.238l-19.77023-10.39383a4.0202 4.0202 0 0 0-3.74154 0L234.359 504.02928a4.02021 4.02021 0 0 1-5.83312-4.238l3.77578-22.01448a4.02024 4.02024 0 0 0-1.1562-3.55841L215.151 458.62764a4.02021 4.02021 0 0 1 2.22806-6.85725l22.10379-3.21187a4.02023 4.02023 0 0 0 3.027-2.19922l9.88511-20.02943A4.02021 4.02021 0 0 1 259.60507 426.32987z"/><path fill="#e53950" d="M196 263.5H129.66309a7.5 7.5 0 0 1 0-15H196a7.5 7.5 0 0 1 0 15zM382.33691 263.5H316a7.5 7.5 0 0 1 0-15h66.33691a7.5 7.5 0 0 1 0 15z"/><path fill="#46cc8d" d="M487.29 265.91992a4.0387 4.0387 0 0 0-1.16 3.56006l3.78 22.02a4.02006 4.02006 0 0 1-5.84 4.23L464.3 285.33984a4.64422 4.64422 0 0 0-.94-.34985 4.06884 4.06884 0 0 0-2.8.34985L440.79 295.73a4.01356 4.01356 0 0 1-5.83-4.23l3.77-22.02a4.00484 4.00484 0 0 0-1.15-3.56006l-16-15.58984a4.01683 4.01683 0 0 1 2.23-6.8501l22.11-3.22a4.00745 4.00745 0 0 0 3.02-2.2l9.89-20.02a4.01894 4.01894 0 0 1 7.21 0l9.88 20.02a2.33031 2.33031 0 0 0 .2.33984 3.97665 3.97665 0 0 0 2.83 1.86011l22.1 3.22a4.014 4.014 0 0 1 2.23 6.8501zM53.17251 218.03544l9.88512 20.02943a4.02019 4.02019 0 0 0 3.027 2.19922L88.18839 243.476a4.0202 4.0202 0 0 1 2.228 6.85724L74.422 265.92394a4.0202 4.0202 0 0 0-1.1562 3.55842l3.77578 22.01447a4.02021 4.02021 0 0 1-5.83312 4.238L51.43821 285.341a4.02018 4.02018 0 0 0-3.74153 0L27.92645 295.73484a4.02021 4.02021 0 0 1-5.83313-4.238l3.77578-22.01447a4.0202 4.0202 0 0 0-1.1562-3.55842L8.71845 250.3332a4.02021 4.02021 0 0 1 2.228-6.85724l22.10379-3.21187a4.02019 4.02019 0 0 0 3.027-2.19922l9.88512-20.02943A4.0202 4.0202 0 0 1 53.17251 218.03544z"/><path fill="#e53950" d="M436.18,133.58984l-22.34-.27978a3.98871,3.98871,0,0,0-3.15,1.46c-.06.06982-.12.1499-.18.23l-12.9,18.24a4.0203,4.0203,0,0,1-7.12-1.13013L383.86,130.78a4.00657,4.00657,0,0,0-2.64-2.63989L359.89,121.51a4.02024,4.02024,0,0,1-1.13-7.11987L377,101.49a3.99724,3.99724,0,0,0,1.69-3.33008l-.28-22.33984a4.01756,4.01756,0,0,1,6.42-3.27l17.9,13.35986a4.01822,4.01822,0,0,0,3.7.58008l.87-.29,20.28-6.87988a4.02019,4.02019,0,0,1,5.1,5.09985l-7.17,21.15015a4.01806,4.01806,0,0,0,.58,3.7l13.36,17.8999A4.01753,4.01753,0,0,1,436.18,133.58984Z"/><path fill="#fed402" d="M298.42627,221.07324a7.5,7.5,0,0,1-5.30322-12.80371l46.90771-46.90723a7.50024,7.50024,0,0,1,10.60645,10.60743L303.72949,218.877A7.479,7.479,0,0,1,298.42627,221.07324Z"/><path fill="#e53950" d="M138.10776,378.99057l-7.17311,21.15278a4.02021,4.02021,0,0,0,.5853,3.69548l13.35861,17.90087a4.02021,4.02021,0,0,1-3.27333,6.42428l-22.33411-.28547a4.02022,4.02022,0,0,0-3.33373,1.69862L103.04068,447.8136a4.02022,4.02022,0,0,1-7.12137-1.12792l-6.63012-21.32921a4.02019,4.02019,0,0,0-2.64566-2.64566l-21.32921-6.63012a4.02022,4.02022,0,0,1-1.12792-7.12137l18.23647-12.89671a4.02022,4.02022,0,0,0,1.69862-3.33373L83.836,370.39477a4.02021,4.02021,0,0,1,6.42428-3.27333l17.90087,13.35861a4.02021,4.02021,0,0,0,3.69548.5853l21.15278-7.17311A4.02021,4.02021,0,0,1,138.10776,378.99057Z"/><path fill="#fed402" d="M213.57373 221.07324a7.47819 7.47819 0 0 1-5.30322-2.19629l-46.90772-46.90722a7.50024 7.50024 0 0 1 10.60645-10.60743L218.877 208.26953a7.5 7.5 0 0 1-5.30322 12.80371zM345.334 352.834a7.47824 7.47824 0 0 1-5.30322-2.19628l-46.90771-46.90723a7.50023 7.50023 0 0 1 10.60644-10.60742l46.90772 46.90722A7.5 7.5 0 0 1 345.334 352.834z"/><path fill="#26a6fe" d="M434.86 426.8501l-22.33-.29a4.05013 4.05013 0 0 0-3.34 1.7l-.84 1.18994L396.3 446.5a4.01941 4.01941 0 0 1-7.12-1.12988L382.55 424.04a4.07688 4.07688 0 0 0-2.65-2.6499L358.57 414.76a4.0193 4.0193 0 0 1-1.13-7.11987L375.68 394.75a4.05037 4.05037 0 0 0 1.7-3.34009l-.29-22.32983a4.02839 4.02839 0 0 1 6.43-3.28l17.9 13.35986a4.01506 4.01506 0 0 0 3.69.59009l21.16-7.16992a4.013 4.013 0 0 1 5.09 5.08984l-7.17 21.16016a4.00145 4.00145 0 0 0 .59 3.68994l13.35 17.8999A4.02223 4.02223 0 0 1 434.86 426.8501zM139.42431 85.73431l-7.17312 21.15278a4.02022 4.02022 0 0 0 .58531 3.69547l13.35861 17.90088a4.02021 4.02021 0 0 1-3.27334 6.42427l-22.3341-.28547a4.02021 4.02021 0 0 0-3.33374 1.69863l-12.8967 18.23646a4.02021 4.02021 0 0 1-7.12137-1.12791l-6.63012-21.32921a4.02022 4.02022 0 0 0-2.64567-2.64567l-21.3292-6.63012a4.02021 4.02021 0 0 1-1.12792-7.12137l18.23647-12.8967A4.02023 4.02023 0 0 0 85.438 99.47261l-.28547-22.3341a4.02021 4.02021 0 0 1 6.42428-3.27333l17.90087 13.3586a4.02022 4.02022 0 0 0 3.69547.58531L134.326 80.636A4.02021 4.02021 0 0 1 139.42431 85.73431z"/><circle cx="256" cy="256" r="23" fill="#26a6fe"/><path fill="#0593fc" d="M269.42285,237.32861a22.99515,22.99515,0,0,1-34.3457,28.22046,22.99841,22.99841,0,1,0,34.3457-28.22046Z"/><path fill="#00c27a" d="M487.29 265.91992a4.0387 4.0387 0 0 0-1.16 3.56006l3.78 22.02a4.02006 4.02006 0 0 1-5.84 4.23L464.3 285.33984a4.64422 4.64422 0 0 0-.94-.34985 58.02652 58.02652 0 0 0 13.24-30.11987 56.73541 56.73541 0 0 0-.48-16.47022 3.97665 3.97665 0 0 0 2.83 1.86011l22.1 3.22a4.014 4.014 0 0 1 2.23 6.8501zM74.42464 265.91992a4.0387 4.0387 0 0 0-1.16 3.56006l3.78 22.02a4.02007 4.02007 0 0 1-5.84 4.23l-19.77-10.39014a4.64422 4.64422 0 0 0-.94-.34985 58.02636 58.02636 0 0 0 13.24-30.11987 56.73541 56.73541 0 0 0-.48-16.47022 3.97665 3.97665 0 0 0 2.83 1.86011l22.1 3.22a4.014 4.014 0 0 1 2.23 6.8501z"/><path fill="#fac600" d="M280.85719 57.62614a4.0387 4.0387 0 0 0-1.16 3.56006l3.78 22.02a4.02007 4.02007 0 0 1-5.84 4.23l-19.77-10.39013a4.64321 4.64321 0 0 0-.94-.34986 58.02636 58.02636 0 0 0 13.24-30.11987 56.73506 56.73506 0 0 0-.48-16.47022 3.97663 3.97663 0 0 0 2.83 1.86011l22.1 3.22a4.014 4.014 0 0 1 2.23 6.8501zM280.85719 474.215a4.0387 4.0387 0 0 0-1.16 3.56006l3.78 22.02a4.02007 4.02007 0 0 1-5.84 4.23l-19.77-10.39014a4.64377 4.64377 0 0 0-.94-.34985 58.02635 58.02635 0 0 0 13.24-30.11988 56.735 56.735 0 0 0-.48-16.47021 3.97666 3.97666 0 0 0 2.83 1.86011l22.1 3.22a4.014 4.014 0 0 1 2.23 6.8501z"/><path fill="#ca2e43" d="M436.18,133.58984l-22.34-.27978a3.98871,3.98871,0,0,0-3.15,1.46A100.47584,100.47584,0,0,0,407.3,86.2l20.28-6.87988a4.02019,4.02019,0,0,1,5.1,5.09985l-7.17,21.15015a4.01806,4.01806,0,0,0,.58,3.7l13.36,17.8999A4.01753,4.01753,0,0,1,436.18,133.58984Z"/><path fill="#0593fc" d="M142.926 134.92356l-22.34-.27979a3.9887 3.9887 0 0 0-3.15 1.46 100.65021 100.65021 0 0 0 1.1-26.84009 100.29727 100.29727 0 0 0-4.49-21.73l20.28-6.87988a4.02019 4.02019 0 0 1 5.1 5.09985l-7.17 21.15015a4.01806 4.01806 0 0 0 .58 3.7l13.36 17.8999A4.01754 4.01754 0 0 1 142.926 134.92356zM434.86 426.8501l-22.33-.29a4.05013 4.05013 0 0 0-3.34 1.7l-.84 1.18994a72.633 72.633 0 0 0-5.46-49.59985 4.10063 4.10063 0 0 0 2.22-.1001l21.16-7.16992a4.013 4.013 0 0 1 5.09 5.08984l-7.17 21.16016a4.00145 4.00145 0 0 0 .59 3.68994l13.35 17.8999A4.02223 4.02223 0 0 1 434.86 426.8501z"/><path fill="#ca2e43" d="M141.6051,428.17829l-22.33-.29a4.05012,4.05012,0,0,0-3.34,1.69995l-.84,1.18994a72.62049,72.62049,0,0,0,1.48-26.8,73.19843,73.19843,0,0,0-6.94-22.7998,4.1006,4.1006,0,0,0,2.22-.1001l21.16-7.16992a4.013,4.013,0,0,1,5.09,5.08984l-7.17,21.16016a4.00144,4.00144,0,0,0,.59,3.68994l13.35,17.8999A4.02223,4.02223,0,0,1,141.6051,428.17829Z"/></svg>