<svg xmlns="http://www.w3.org/2000/svg" data-name="Layer 1" viewBox="0 0 512 512"><path fill="#f1f6f9" d="M179.35363,504.5h0a22.35272,22.35272,0,0,1-22.35272-22.35272l0-242.15468h44.70548l0,242.15469A22.35271,22.35271,0,0,1,179.35363,504.5Z"/><polygon fill="#dde8ef" points="201.706 276.29 201.706 394.23 156.996 318.34 154.396 314.8 156.996 312.68 201.706 276.29"/><path fill="#26a6fe" d="M307.68994,252.80005A156.22706,156.22706,0,1,1,228.48,15.43s0-.01.01025,0a156.34909,156.34909,0,0,1,79.19971,237.37006Z"/><path fill="#f1f6f9" d="M258.66016,158.74731a156.47362,156.47362,0,0,0-79.30664,4.95984,155.75943,155.75943,0,0,1,85.709,130.65027,156.55018,156.55018,0,0,0,67.25928-98.82861A156.68967,156.68967,0,0,0,258.66016,158.74731Z"/><path fill="#fed402" d="M90.31787 292.00085a155.76159 155.76159 0 0 0 57.27881 24.66089 155.63941 155.63941 0 0 0 31.75684-152.95459A155.59241 155.59241 0 0 1 48.73975 249.36072 155.83464 155.83464 0 0 0 90.31787 292.00085zM119.74463 111.13483a156.6658 156.6658 0 0 1-26.1001-78.07776 156.546 156.546 0 0 0-67.25879 98.82849 155.71046 155.71046 0 0 0 152.96778 31.82159A156.58645 156.58645 0 0 1 119.74463 111.13483zM268.38916 35.41345a155.76168 155.76168 0 0 0-57.27881-24.66089 155.63947 155.63947 0 0 0-31.75683 152.95459 155.59181 155.59181 0 0 1 130.61377-85.6535A155.83589 155.83589 0 0 0 268.38916 35.41345z"/><path fill="#f1f6f9" d="M271.08984,163.71a91.7333,91.7333,0,0,1-91.73974,91.73c-.99024,0-1.97022-.02-2.9502-.04993a91.72874,91.72874,0,0,1-.08008-183.36q1.51539-.06,3.03028-.06A91.73548,91.73548,0,0,1,271.08984,163.71Z"/><path fill="#f1f6f9" d="M176.3999,255.39a91.72874,91.72874,0,0,1-.08008-183.36C142.39014,129.81,144.08008,200.14,176.3999,255.39Z"/><path fill="#dde8ef" d="M271.08984,163.71a91.7333,91.7333,0,0,1-91.73974,91.73c-.99024,0-1.97022-.02-2.9502-.04993-32.31982-55.25-34.00976-125.58-.08008-183.36q1.51539-.06,3.03028-.06A91.73548,91.73548,0,0,1,271.08984,163.71Z"/><path fill="#fac600" d="M309.96973,78.05a156.814,156.814,0,0,0-67.15967,19.41,91.43565,91.43565,0,0,0-63.46-25.49c-.66016,0-1.33008.01-1.99024.03.31006-1.12.64014-2.23.98-3.32q2.595-4.2,5.44043-8.32A180.9037,180.9037,0,0,1,228.48,15.43l.27.09c1.60986.54,3.21973,1.1,4.83008,1.7.13965.05.27978.11.41992.16q2.08521.77994,4.14014,1.62c.42968.18.86963.36,1.2998.54,1.27979.53,2.56006,1.09,3.84033,1.66l.75.33c1.44971.67,2.89991,1.36,4.33985,2.08.46.22.91015.45,1.37011.68,1.08985.56,2.17969,1.13,3.25977,1.71.43018.23.85986.45,1.28027.68q2.1145,1.155,4.19971,2.39c.37988.22.75.46,1.12988.68q1.62012.97494,3.21,1.98c.48.3.9502.61,1.43018.91,1.21.79,2.41992,1.59,3.62012,2.42.16992.12.34961.23.52.35q2.95458,2.055,5.79,4.23c.1499.11.31.23.46.35.75976.58,1.50976,1.18,2.25976,1.77.26026.22.54.43.8003.63995.71.57,1.3999,1.15,2.08984,1.73.29.25.58984.49.89014.74.66992.58,1.33984,1.16,2,1.75.2998.26.60009.52.88964.78.67041.59,1.32032,1.19,1.97022,1.8.27978.26.56982.51.83984.77.66016.62,1.31006,1.25,1.96,1.88.26026.25.52.5.77.75.66016.65,1.31006,1.31,1.9502,1.96.23974.24.47021.48.69971.72.66015.68,1.30029,1.36,1.95019,2.05.2002.22.41016.44.62012.67q.97485,1.06494,1.95019,2.16c.16993.2.34961.4.52979.6.65967.75,1.31006,1.50995,1.94971,2.27.15039.18.30029.35.45019.53.66016.79,1.31006,1.58,1.9502,2.38.12988.16.25.31.37011.47q.98951,1.23,1.94971,2.49c.1001.13.2002.26.29.39q.99024,1.29,1.94971,2.61c.07031.1.14013.2.22021.31.6499.9,1.30029,1.81,1.93018,2.73.0498.07.09961.15.1499.22q.97485,1.41,1.91992,2.85C309.9502,78.02,309.96,78.04,309.96973,78.05Z"/><path fill="#0593fc" d="M307.68994,252.80005A155.4304,155.4304,0,0,1,228.5498,311.98a180.39658,180.39658,0,0,1-52.1499-56.59c.98.02991,1.96.04993,2.9502.04993a91.7333,91.7333,0,0,0,91.73974-91.73Z"/><path fill="#f1f6f9" d="M355,239.99V482.1499a22.355,22.355,0,0,1-44.71,0V239.99Z"/><polygon fill="#dde8ef" points="355 276.29 355 394.23 310.29 318.34 307.69 314.8 310.29 312.68 355 276.29"/><ellipse cx="332.646" cy="163.707" fill="#fed402" rx="156.16" ry="156.226" transform="rotate(-45 332.646 163.707)"/><path fill="#fac600" d="M421.68213,35.41345a157.05156,157.05156,0,0,0-26.22852-14.7077A156.17351,156.17351,0,0,1,224.83936,276.7085a156.17421,156.17421,0,1,0,196.84277-241.295Z"/><path fill="#26a6fe" d="M300.88965,316.66174a156.68392,156.68392,0,0,0,117.46582-22.30456,155.75946,155.75946,0,0,0-85.709-130.65,155.63938,155.63938,0,0,1-31.75683,152.95459Z"/><path fill="#0593fc" d="M322.271,286.01831a156.6041,156.6041,0,0,1-21.38135,30.64343q1.88159.39057,3.76855.7334c.084.01526.16748.02808.25147.04309q1.7622.31768,3.52783.596c.14258.02222.28516.04077.42773.06274q1.67945.25818,3.36182.4823c.18262.024.36524.04358.54785.0669,1.082.1383,2.165.26892,3.24854.3844.21191.0227.42431.04028.63623.062,1.05566.10815,2.11181.20947,3.168.2959.231.0188.46142.03271.69238.05053,1.03711.08033,2.07471.15418,3.1123.21363.24805.01416.49659.02331.74463.03637,1.022.05372,2.04444.10132,3.06641.13477.25586.00855.51172.012.76709.019,1.01416.02832,2.02832.05066,3.04248.05921.26269.00232.52539-.00025.78809.00061,1.00732.00342,2.01464.001,3.021-.01514.26514-.00415.53028-.01294.79541-.01843,1.00488-.02112,2.00928-.04834,3.01319-.08875.26318-.01062.52636-.02539.79-.03735,1.0044-.04541,2.00831-.09741,3.01075-.16211.26172-.01685.52343-.0376.78515-.05591,1.00586-.07007,2.01172-.14673,3.01563-.23608.25342-.02258.50635-.04859.75928-.07239q1.51684-.14245,3.03076-.31164c.2456-.02784.49121-.059.73681-.088q1.5249-.18036,3.04493-.38806c.23632-.03271.47167-.068.70751-.10168q1.533-.21882,3.06055-.46595c.22754-.037.45459-.07641.68164-.1145q1.53955-.25781,3.07373-.54455c.21729-.0409.43408-.08374.65088-.12537q1.54761-.29792,3.08985-.62512c.20556-.04383.41064-.08948.61621-.13416q1.55859-.33893,3.11084-.70825c.19091-.04565.38183-.09277.57324-.13916q1.5703-.3814,3.1333-.79419c.17725-.04687.35449-.095.53174-.14245q1.582-.425,3.15625-.88221c.16211-.04712.32422-.09509.48584-.14282q1.59154-.46875,3.17431-.971.22559-.0716.45118-.14428,1.59814-.51326,3.187-1.06055.20508-.0705.40918-.14185,1.60913-.55976,3.20605-1.15442.18092-.06718.36084-.13488,1.61939-.60755,3.2251-1.25122.15821-.063.31543-.12647,1.62671-.65588,3.23926-1.34875.13623-.05861.27246-.11719,1.63257-.70477,3.24951-1.44763c.07715-.03528.15381-.07032.23047-.10572q1.63842-.75549,3.26025-1.54956c.06153-.03.12354-.05993.18506-.09021q1.64136-.8062,3.26514-1.65173c.04931-.02563.09863-.051.148-.07678q1.64428-.8584,3.2705-1.7572c.0337-.0188.06788-.03724.10157-.056q1.64574-.91132,3.272-1.8639l.06543-.03808q1.6421-.96314,3.26318-1.968l.03467-.02124q1.6377-1.01588,3.25342-2.07446a157.19216,157.19216,0,0,0-14.10742-56.66626A155.50046,155.50046,0,0,1,322.271,286.01831Z"/><path fill="#26a6fe" d="M253.33984,168.66711a156.69007,156.69007,0,0,1-73.66162-36.78167,156.75651,156.75651,0,0,0,22.35449,117.47528,155.59238,155.59238,0,0,0,130.61377-85.65357A156.473,156.473,0,0,1,253.33984,168.66711Z"/><path fill="#26a6fe" d="M364.40332,10.75256A156.68465,156.68465,0,0,0,246.9375,33.057a156.66647,156.66647,0,0,0,26.1001,78.07788,156.57946,156.57946,0,0,0,59.60888,52.57232A155.6395,155.6395,0,0,1,364.40332,10.75256Z"/><path fill="#26a6fe" d="M463.26025,78.05365a155.59184,155.59184,0,0,0-130.61377,85.6535,155.711,155.711,0,0,1,152.96778,31.82166A156.75372,156.75372,0,0,0,463.26025,78.05365Z"/><path fill="#0593fc" d="M488.82568,161.34937c-.00439-.25416-.01269-.50818-.01806-.76233-.02149-1.01551-.04981-2.03064-.09082-3.04505-.01075-.25415-.02491-.50781-.03662-.76172-.04639-1.0144-.09913-2.02832-.165-3.041-.01612-.252-.03662-.50366-.0542-.7555q-.1062-1.52251-.23926-3.04272c-.022-.246-.04736-.49158-.0708-.73755-.09619-1.01916-.19922-2.03747-.31543-3.0542-.02686-.23767-.05713-.475-.085-.71252q-.18237-1.53626-.39258-3.06873c-.03174-.22888-.06592-.4574-.09912-.68616q-.22045-1.54431-.4707-3.08416c-.03565-.21881-.07373-.43726-.11036-.656q-.26073-1.55263-.55029-3.1001c-.03955-.20837-.08056-.41638-.1206-.62463q-.30177-1.56216-.63233-3.11829c-.042-.196-.08545-.39172-.12793-.58764q-.34276-1.57151-.71582-3.13623c-.04394-.18451-.08935-.36865-.13428-.553q-.38451-1.581-.80078-3.15448c-.04541-.1709-.09179-.34162-.13769-.51239q-.427-1.59036-.8877-3.1723-.06885-.23758-.13965-.47474-.47167-1.59987-.977-3.19049l-.13769-.43023q-.51783-1.6095-1.06885-3.20856c-.04492-.12982-.09033-.25952-.13525-.38922q-.564-1.61929-1.16309-3.22736l-.12744-.3407q-.61158-1.6278-1.25977-3.24316-.06006-.15042-.1206-.30084-.65919-1.63395-1.356-3.25427l-.11133-.25812q-.70826-1.63944-1.45508-3.26435-.0498-.10886-.10009-.21765-.75879-1.645-1.55713-3.274c-.02783-.05719-.05567-.11457-.084-.17176q-.80932-1.648-1.65966-3.27887l-.07032-.1358q-.86133-1.64915-1.76318-3.28l-.05273-.0954q-.91333-1.64831-1.86768-3.277l-.03613-.06213q-.96534-1.64475-1.97217-3.26861l-.01807-.02942q-1.01733-1.639-2.07666-3.2558l-.00049-.00049a155.98733,155.98733,0,0,0-28.166,4.187,156.70981,156.70981,0,0,1,5.15283,84.99188,157.28032,157.28032,0,0,1,45.36719,28.29627q.39038-1.88562.7334-3.777c.01074-.058.01953-.11609.02978-.174q.32447-1.801.60791-3.6062c.01807-.11743.0332-.23511.05127-.35266q.2644-1.71661.4917-3.43579c.021-.16187.03857-.324.05908-.486.14112-1.103.27344-2.20655.39063-3.311.02-.19287.03613-.386.05615-.57886.10937-1.07373.21191-2.1477.29932-3.22216.01806-.21814.03076-.43641.04785-.65455.08056-1.05053.15527-2.10107.21484-3.15185.01319-.23413.022-.46814.03369-.70215.0542-1.036.102-2.072.13574-3.10791.00782-.2439.01124-.48779.01758-.73169.02832-1.02661.05078-2.05322.0586-3.07947.002-.24939-.00049-.49878.00049-.74817C488.84521,163.389,488.84229,162.3689,488.82568,161.34937Z"/><circle cx="332.646" cy="163.707" r="37.324" fill="#f1f6f9"/><path fill="#dde8ef" d="M350.45557,130.89807a37.33539,37.33539,0,0,1-50.61817,50.61817,37.329,37.329,0,1,0,50.61817-50.61817Z"/></svg>