<svg xmlns="http://www.w3.org/2000/svg" data-name="Layer 1" viewBox="0 0 512 512"><path fill="#f1f6f9" d="M447.16016,256A192.127,192.127,0,0,1,254.83984,448.32007C148.62012,448.32007,62.52,362.22,62.52,256A192.323,192.323,0,0,1,254.83984,63.67993C361.0498,63.67993,447.16016,149.79,447.16016,256Z"/><path fill="#e53950" d="M90.68018,316.89014A37.43506,37.43506,0,1,1,40.27,281.76a34.07511,34.07511,0,0,1,3.43018-1.08008A37.48386,37.48386,0,0,1,87.00977,300.7a36.88892,36.88892,0,0,1,2.04,5.22A37.475,37.475,0,0,1,90.68018,316.89014Z"/><path fill="#ca2e43" d="M90.68018,316.89014a37.451,37.451,0,0,1-21.79,34.01977A25.44215,25.44215,0,0,1,76.79,306.82007a15.16951,15.16951,0,0,1-2.43994.21,15.838,15.838,0,0,1-15.84033-15.84009,16.97576,16.97576,0,0,1,.14013-2.02l-5.65967,2.4502a7.50383,7.50383,0,0,1-9.29-10.94019A37.48386,37.48386,0,0,1,87.00977,300.7,15.84422,15.84422,0,0,1,79.87012,306.02a25.93529,25.93529,0,0,1,4.87011-.47,24.49726,24.49726,0,0,1,4.30957.36987A37.475,37.475,0,0,1,90.68018,316.89014Z"/><circle cx="94.587" cy="326.272" r="25.455" fill="#e53950"/><path fill="#ca2e43" d="M94.5874,300.81714a25.50346,25.50346,0,0,0-6.09277.73926,25.45529,25.45529,0,0,1,0,49.43042,25.45478,25.45478,0,1,0,6.09277-50.16968Z"/><circle cx="84.196" cy="286.459" r="15.838" fill="#ffcebf"/><path fill="#ffb09e" d="M84.19629,270.62183a15.8139,15.8139,0,0,0-4.24756.593,15.82039,15.82039,0,0,1,0,30.48877,15.83188,15.83188,0,1,0,4.24756-31.08178Z"/><path fill="#e53950" d="M59.40444,280.02786,95.01923,264.7818c-1.39647-2.08015-10.42009-15.0316-28.04883-17.26933a42.48,42.48,0,0,0-23.903,4.13071,1.00006,1.00006,0,0,0,.48393,1.89266c7.95177-.07485,14.91006,4.00922,17.61048,10.25423C64.47883,271.461,59.95785,279.12271,59.40444,280.02786Z"/><path fill="#ca2e43" d="M95.019,264.78174c-1.39648-2.08008-10.41992-15.0315-28.04883-17.26929a40.14149,40.14149,0,0,0-6.53564-.28467,41.6367,41.6367,0,0,1,11.13811,8.09784,4.96975,4.96975,0,0,1-1.61078,8.0446l-7.88622,3.37587c1.29737,6.58008-2.18945,12.49341-2.67138,13.28174Z"/><path fill="#f1f6f9" d="M59.86816,287.50391a7.50121,7.50121,0,0,1-2.98046-14.38575l36.127-15.623a7.49976,7.49976,0,1,1,5.95312,13.76758l-36.12695,15.623A7.465,7.465,0,0,1,59.86816,287.50391Z"/><path fill="#dde8ef" d="M102.875 261.40234a7.49771 7.49771 0 0 0-9.86035-3.90722l-.92676.40088a7.50169 7.50169 0 0 1-2.68945 11.79834L54.2002 284.91577a7.48669 7.48669 0 0 0 8.64062 1.97l36.127-15.623A7.4992 7.4992 0 0 0 102.875 261.40234zM38.65408 264.83379a10.1905 10.1905 0 0 1-8.03353-18.73093l.01281-.00548a10.1905 10.1905 0 0 1 8.02072 18.73641z"/><path fill="#fed402" d="M61.84863,434.31543a7.50132,7.50132,0,0,1-2.77246-14.47168l105.668-42.00879a9.54511,9.54511,0,0,0-7.05371-17.73926,7.50019,7.50019,0,0,1-5.541-13.93945,24.54548,24.54548,0,0,1,18.13575,45.61816L64.61719,433.7832A7.48188,7.48188,0,0,1,61.84863,434.31543Z"/><path fill="#fed402" d="M85.90332 424.75293a7.5016 7.5016 0 0 1-6.91211-4.585l-11.626-27.541a7.49971 7.49971 0 1 1 13.81836-5.834l11.626 27.541a7.50452 7.50452 0 0 1-6.90625 10.41895zM129.66211 407.35645a7.50122 7.50122 0 0 1-6.88672-4.52247l-12.77832-29.51855a7.5 7.5 0 1 1 13.76563-5.959L136.541 396.875a7.50407 7.50407 0 0 1-6.87891 10.48145z"/><path fill="#e53950" d="M143.31006,316.07007a7.48474,7.48474,0,0,0-9.41992-4.42017.98363.98363,0,0,0-.16016.05l-43,15.69019-56.08984,20.46v-.01026l-4.57032-10.5A19.16909,19.16909,0,0,0,5.21973,326.72a7.50023,7.50023,0,0,0,5.54,13.93994A4.18212,4.18212,0,0,1,16.18018,343c.02978.08008.06005.1499.08984.22l4.56982,10.51,2.86036,6.58008a.00964.00964,0,0,1,.00976.01l2.62012,6.03979,4.58008,10.53028A35.50636,35.50636,0,0,0,77.04,396.67993L110.23,383.49A35.57274,35.57274,0,0,0,132.3501,355.04l4.08984-25.74c.01026-.08008.02-.15015.02979-.23a4.17825,4.17825,0,0,1,2.47021-3.3c.04-.02.09033-.04.12988-.06006A7.49634,7.49634,0,0,0,143.31006,316.07007Z"/><path fill="#fed402" d="M34.64014,347.8501v-.01026l-4.57032-10.5A19.16909,19.16909,0,0,0,5.21973,326.72a7.50023,7.50023,0,0,0,5.54,13.93994A4.18212,4.18212,0,0,1,16.18018,343c.02978.08008.06005.1499.08984.22l4.56982,10.51,2.86036,6.58008a.00964.00964,0,0,1,.00976.01l2.62012,6.03979"/><path fill="#ca2e43" d="M143.31006,316.07007a7.48474,7.48474,0,0,0-9.41992-4.42017.98363.98363,0,0,0-.16016.05l-6.54932,2.38989A7.488,7.488,0,0,1,124.06982,325.71c-.03955.02-.08984.04-.12988.06006a4.17825,4.17825,0,0,0-2.47021,3.3c-.00977.07983-.01953.1499-.02979.23l-4.08984,25.74A35.57274,35.57274,0,0,1,95.23,383.49L62.04,396.67993a35.84974,35.84974,0,0,1-5.64551,1.71436A35.22555,35.22555,0,0,0,77.04,396.67993L110.23,383.49A35.57274,35.57274,0,0,0,132.3501,355.04l4.08984-25.74c.01026-.08008.02-.15015.02979-.23a4.17825,4.17825,0,0,1,2.47021-3.3c.04-.02.09033-.04.12988-.06006A7.49634,7.49634,0,0,0,143.31006,316.07007Z"/><path fill="#fed402" d="M139.7998,325.46l-.85986.31006L128.81982,329.46l-8.06,2.93994L106.18994,337.71l-72.62012,26.48-4.67968,1.71a7.44515,7.44515,0,0,1-2.56006.46L23.71,360.32007a.00964.00964,0,0,0-.00976-.01L20.83984,353.73A7.59521,7.59521,0,0,1,23.75,351.81006l1.16016-.41992,2.66992-.98023,7.06006-2.57007L90.73,327.39014l43.16016-15.74024.85009-.31006a6.80776,6.80776,0,0,0,4.32959-8.46972l-.36962-1.2002A7.49959,7.49959,0,0,1,153.03027,297.24l.36963,1.2A21.742,21.742,0,0,1,139.7998,325.46Z"/><path fill="#fac600" d="M153.3999,298.43994l-.36963-1.2a7.50373,7.50373,0,0,0-6.42431-5.24707l.293.95093a21.742,21.742,0,0,1-13.6001,27.02l-.85987.31006-10.12011,3.68994-8.06006,2.93994L99.689,332.21387l-72.62011,26.48-3.51319,1.28369.14454.33252a.00964.00964,0,0,1,.00976.01l2.62012,6.03979a7.44515,7.44515,0,0,0,2.56006-.46l4.67968-1.71,72.62012-26.48,14.56983-5.31006,8.06-2.93994L138.93994,325.77l.85986-.31006A21.742,21.742,0,0,0,153.3999,298.43994Z"/><path fill="#fdb441" d="M322.98682,247.02686c.332.00927,6.39746.26635,8.45117,4.56738a6.7878,6.7878,0,0,1,.646,2.8706L329.44434,282.457a7.49965,7.49965,0,0,0,6.76269,8.1709q.35889.03369.71289.03418a7.502,7.502,0,0,0,7.458-6.79688l2.63965-27.99316a19.60455,19.60455,0,0,0-13.48926-20.5791l-8.6792-2.84107a31.98832,31.98832,0,0,0,5.24561-31.19311l-2.16309-6c1.23828-.57813,2.17383-1.01563,2.207-1.03125.05469-.02539,1.97266-.92188,3.88965-1.81738l3.85742-1.80176a7.5001,7.5001,0,0,0-6.3164-13.60547c-.05469.02539-1.97266.92187-3.88965,1.81738l-3.88477,1.81446c-.208.09765-8.13086,3.7998-8.38672,3.918-.0874.04053-.16845.08887-.2539.13233a18.97231,18.97231,0,0,1-20.2002-15.36963,7.50034,7.50034,0,1,0-14.74023,2.7832,33.97537,33.97537,0,0,0,33.291,27.66114c.03467,0,.06934-.00245.104-.00245l2.37451,6.58741a17.06766,17.06766,0,0,1-9.83887,21.77221c-.02246.00879-.04394.0188-.06641.02759-4.45214,1.7478-13.70507,5.34717-22.98339,8.95606-9.35791,3.64062-18.73291,7.28759-23.2461,9.06054l-.02539.00977-.04687.01855c-.1084.04248-.20948.09546-.31494.14234-.1084.04858-.21827.09057-.32569.14477a19.27639,19.27639,0,0,1-11.07715,1.957,7.49956,7.49956,0,0,0-1.80078,14.89063,34.30468,34.30468,0,0,0,4.13672.25c1.05811,0,2.11377-.06445,3.166-.16211a32.93081,32.93081,0,0,0,.52148,4.33984c1.03906,5.50293,4.50586,11.22168,7.94483,15.46436a31.19078,31.19078,0,0,1-3.43018,7.76025,7.50056,7.50056,0,0,0,.12988,8.15918,24.34618,24.34618,0,0,1,4.12891,12.1211,25.32227,25.32227,0,0,1-5.58985,16.89648,7.50064,7.50064,0,0,0,11.6875,9.4043A40.56665,40.56665,0,0,0,277.832,310.4043a38.97744,38.97744,0,0,0-4.25488-15.55664c.55908-1.26734,1.37549-3.18067,2.271-5.54029,3.82959-10.09008,3.0459-12.37085,4.68848-15.47778,4.78027-9.04272,18.93555-3.948,31.96729-13.73608A35.477,35.477,0,0,0,322.98682,247.02686Z"/><path fill="#685e68" d="M297.4502 211.03223a7.50416 7.50416 0 0 0-10.01368-3.49805c-21.376 10.30762-42.6084 15.36328-63.07422 15.10742a175.8646 175.8646 0 0 1-24.18945-2.333c-13.21875-1.93652-25.70117-3.7666-40.61621 1.70411-14.72559 5.40136-27.37793 16.19628-37.60547 32.08593a7.50025 7.50025 0 1 0 12.61328 8.11914c8.41993-13.082 18.56739-21.87109 30.15723-26.123 11.3418-4.15918 20.542-2.81055 33.27637-.94532a190.6036 190.6036 0 0 0 26.15625 2.49024c22.82715.33105 46.30859-5.2666 69.79785-16.59375A7.50136 7.50136 0 0 0 297.4502 211.03223zM447.51562 129.874a7.49971 7.49971 0 1 0-3.875-14.49023c-35.44335 9.47851-55.71972 23.45117-61.99023 42.7168-.75 2.30566-1.28809 4.68457-1.80859 6.98535-1.32715 5.86621-2.58106 11.4082-7.21192 16.5332C367.917 186.835 360.877 190.25781 351.707 191.793a7.50071 7.50071 0 0 0 1.22949 14.89844 7.63707 7.63707 0 0 0 1.24707-.10352c12.58789-2.1084 22.53907-7.125 29.5752-14.91211 7.26562-8.04 9.17676-16.49023 10.71289-23.28027.46582-2.06055.90625-4.00586 1.44238-5.65332C400.4248 148.88379 417.78613 137.8252 447.51562 129.874z"/><path fill="#fdb441" d="M482.81983,150.62991c.32653-.06091,6.30989-1.088,9.224,2.68352a6.78791,6.78791,0,0,1,1.23653,2.67l3.31958,27.91972a7.49966,7.49966,0,0,0,8.333,6.562q.35793-.04272.70408-.11685a7.502,7.502,0,0,0,5.85789-8.21611l-3.31979-27.92068a19.60456,19.60456,0,0,0-17.5237-17.27366l-9.083-.94792a31.98832,31.98832,0,0,0-1.44683-31.598l-3.37912-5.4093c1.08862-.82613,1.91093-1.451,1.9401-1.47326.04811-.03635,1.734-1.31694,3.41922-2.59638l3.391-2.57431a7.5001,7.5001,0,0,0-9.04215-11.96852c-.04811.03635-1.734,1.31694-3.41922,2.59638L469.61628,85.559c-.18275.1393-7.14732,5.42819-7.37252,5.59763-.0769.058-.146.12237-.22032.18286A18.97229,18.97229,0,0,1,439.03757,80.5727a7.50035,7.50035,0,0,0-13.82249,5.82749,33.97538,33.97538,0,0,0,38.37331,20.023c.03389-.0073.06726-.017.10115-.0243l3.7096,5.93894a17.06765,17.06765,0,0,1-5.02889,23.35686c-.02011.01332-.039.02764-.0591.041-3.98375,2.64692-12.27018,8.11568-20.57942,13.59909-8.38035,5.53121-16.77607,11.07223-20.81418,13.7566l-.02277.0149-.04191.028c-.097.06437-.18464.13746-.27786.20551-.09573.07034-.19427.13455-.28786.21017a19.27654,19.27654,0,0,1-10.41582,4.24781,7.49956,7.49956,0,1,0,1.37818,14.93566,34.30317,34.30317,0,0,0,4.09648-.62751c1.03434-.223,2.0527-.50853,3.06073-.82577a32.93051,32.93051,0,0,0,1.42448,4.13244c2.17558,5.1603,6.76984,10.01988,11.02578,13.44242a31.19039,31.19039,0,0,1-1.71749,8.3089,7.50057,7.50057,0,0,0,1.84668,7.94851,24.34628,24.34628,0,0,1,6.59093,10.97855,25.32235,25.32235,0,0,1-1.903,17.69509,7.50064,7.50064,0,0,0,13.4071,6.72965,40.56661,40.56661,0,0,0,2.95632-28.41474,38.97748,38.97748,0,0,0-7.43818-14.31037c.2794-1.3567.6742-3.39912,1.05225-5.89448,1.61686-10.67059.37006-12.73493,1.32089-16.11828,2.76694-9.84712,17.678-7.85037,28.354-20.16527A35.47683,35.47683,0,0,0,482.81983,150.62991Z"/><ellipse cx="182.283" cy="128.974" fill="#dde8ef" rx="25.382" ry="14.084" transform="rotate(-30 182.283 128.974)"/><path fill="#dde8ef" d="M111.66 175.36c-12.74 12.74-27.53 20.52-39.74 22.01a192.3525 192.3525 0 0 1 53.41-83.28 16.77359 16.77359 0 0 1 3.15991 2.48C140.08008 128.15 132.54 154.4801 111.66 175.36zM236.0893 117.28249a7.49787 7.49787 0 0 1-5.91084-13.78167l.00942-.004a7.49788 7.49788 0 0 1 5.90142 13.78571zM435.25977 322.73a190.77492 190.77492 0 0 1-19.2295 38.21A193.11621 193.11621 0 0 1 338.33984 429.29 189.88923 189.88923 0 0 1 306.96 441.16992a35.02617 35.02617 0 0 1 1.04-69.29 2.78662 2.78662 0 0 0 2.39014-2.79v-.01977A35.027 35.027 0 0 1 361.46 337.92993a3.31377 3.31377 0 0 0 4.43018-1.41992 45.774 45.774 0 0 1 69.36963-13.78z"/><path fill="#e8edf2" d="M465.44667,370.658a45.86688,45.86688,0,0,0-84.55335-34.144,3.323,3.323,0,0,1-4.43653,1.41746A35.02433,35.02433,0,0,0,325.38616,369.067v.026a2.77323,2.77323,0,0,1-2.3821,2.78283,35.02889,35.02889,0,0,0-30.42151,34.7207v0a35.02757,35.02757,0,0,0,35.02757,35.02757H454.37657a35.02757,35.02757,0,0,0,35.02757-35.02757v0a35.03726,35.03726,0,0,0-22.29834-32.64A2.754,2.754,0,0,1,465.44667,370.658Z"/></svg>