<svg xmlns="http://www.w3.org/2000/svg" data-name="Layer 1" viewBox="0 0 512 512"><path fill="#f1f6f9" d="M405.86133,222.69141a7.49974,7.49974,0,0,1-7.5-7.5v-27.5376a7.5,7.5,0,1,1,15,0v27.5376A7.49974,7.49974,0,0,1,405.86133,222.69141Z"/><path fill="#fed402" d="M368.76571,143.29192c0,24.50029,16.60842,44.36166,37.096,44.36166s37.096-19.86137,37.096-44.36166S405.86168,82.5,405.86168,82.5,368.76571,118.79162,368.76571,143.29192Z"/><path fill="#fac600" d="M405.86182,82.5s-3.10108,3.03735-7.5,7.93091c10.83691,12.05517,29.5957,35.43481,29.5957,52.861,0,21.42761-12.70361,39.30627-29.5957,43.45386a31.38958,31.38958,0,0,0,7.5.90783c20.4873,0,37.0957-19.86132,37.0957-44.36169S405.86182,82.5,405.86182,82.5Z"/><path fill="#fdb441" d="M387.3137,165.47275c0,12.25015,8.30421,22.18083,18.548,22.18083s18.548-9.93068,18.548-22.18083-18.548-30.396-18.548-30.396S387.3137,153.2226,387.3137,165.47275Z"/><path fill="#fea613" d="M405.86182,135.07678s-.51026.49988-1.3501,1.37635c5.042,6.30078,10.6289,14.79589,10.6289,21.51977,0,12.25024-8.30419,22.18091-18.54785,22.18091a15.75046,15.75046,0,0,1-5.26757-.91284c3.39746,5.1228,8.644,8.41259,14.53662,8.41259,10.24365,0,18.54785-9.93066,18.54785-22.1809C424.40967,153.22266,405.86182,135.07678,405.86182,135.07678Z"/><path fill="#f1f6f9" d="M355.47941,453.5H456.244V235.19144a20,20,0,0,0-20-20H375.47941a20,20,0,0,0-20,20Z"/><path fill="#dde8ef" d="M436.24414,215.19141h-10V380.72468A27.77531,27.77531,0,0,1,398.46883,408.5H355.47949v45H456.24414V235.19141A20,20,0,0,0,436.24414,215.19141Z"/><path fill="#e5eef9" d="M463.95332,230.07847l.369,48.99135a22.41524,22.41524,0,0,1-22.41461,22.58407h0a22.41525,22.41525,0,0,1-22.41525-22.41525V266.199a18.8232,18.8232,0,0,0-18.82319-18.8232h0A18.8232,18.8232,0,0,0,381.846,266.199v3.1329a17.40628,17.40628,0,0,1-17.40628,17.40628h0a17.40629,17.40629,0,0,1-17.40556-17.24787l-.35644-39.16231a15,15,0,0,1,14.99938-15.13652h87.27669A15,15,0,0,1,463.95332,230.07847Z"/><path fill="#f1f6f9" d="M256.36133,148.69141a7.49974,7.49974,0,0,1-7.5-7.5v-27.5376a7.5,7.5,0,1,1,15,0v27.5376A7.49974,7.49974,0,0,1,256.36133,148.69141Z"/><path fill="#fed402" d="M219.26571,69.29192c0,24.50029,16.60842,44.36166,37.096,44.36166s37.096-19.86137,37.096-44.36166S256.36168,8.5,256.36168,8.5,219.26571,44.79162,219.26571,69.29192Z"/><path fill="#fdb441" d="M237.8137,91.47275c0,12.25015,8.30421,22.18083,18.548,22.18083s18.548-9.93068,18.548-22.18083-18.548-30.396-18.548-30.396S237.8137,79.2226,237.8137,91.47275Z"/><path fill="#fac600" d="M256.362,8.5s-3.10107,3.03735-7.5,7.93091c10.83692,12.05517,29.59571,35.43481,29.59571,52.861,0,21.42761-12.70362,39.30627-29.59571,43.45386a31.38971,31.38971,0,0,0,7.5.90783c20.48731,0,37.09571-19.86132,37.09571-44.36169S256.362,8.5,256.362,8.5Z"/><path fill="#fea613" d="M256.362,61.07679s-.51025.49988-1.35009,1.37634c5.042,6.30079,10.6289,14.7959,10.6289,21.51978,0,12.25024-8.3042,22.18091-18.54785,22.18091a15.75047,15.75047,0,0,1-5.26758-.91284c3.39746,5.1228,8.644,8.41259,14.53662,8.41259,10.24366,0,18.54785-9.93066,18.54785-22.1809C274.9098,79.22267,256.362,61.07679,256.362,61.07679Z"/><path fill="#f1f6f9" d="M205.97941,394.5H306.744V161.19144a20,20,0,0,0-20-20H225.97941a20,20,0,0,0-20,20Z"/><path fill="#dde8ef" d="M286.74414,141.19141h-10V338.4891A26.0109,26.0109,0,0,1,250.73324,364.5H205.97949v30H306.74414V161.19141A20,20,0,0,0,286.74414,141.19141Z"/><path fill="#e5eef9" d="M197.54668,156.07847l-.369,48.99135a22.41524,22.41524,0,0,0,22.41461,22.58407h0a22.41525,22.41525,0,0,0,22.41525-22.41525V192.199a18.8232,18.8232,0,0,1,18.82319-18.8232h0A18.8232,18.8232,0,0,1,279.654,192.199v3.1329a17.40628,17.40628,0,0,0,17.40628,17.40628h0a17.40629,17.40629,0,0,0,17.40556-17.24787l.35644-39.16231A15,15,0,0,0,299.823,141.19144H212.54626A15,15,0,0,0,197.54668,156.07847Z"/><path fill="#f1f6f9" d="M106.49965,222.83979a7.49974,7.49974,0,0,1-7.5-7.5v-27.5376a7.5,7.5,0,0,1,15,0v27.5376A7.49975,7.49975,0,0,1,106.49965,222.83979Z"/><path fill="#fed402" d="M69.404,143.4403c0,24.50029,16.60841,44.36166,37.096,44.36166s37.096-19.86137,37.096-44.36166S106.5,82.64838,106.5,82.64838,69.404,118.94,69.404,143.4403Z"/><path fill="#fdb441" d="M87.952,165.62113c0,12.25015,8.30421,22.18083,18.548,22.18083s18.548-9.93068,18.548-22.18083-18.548-30.396-18.548-30.396S87.952,153.371,87.952,165.62113Z"/><path fill="#fac600" d="M106.13859,82.64839s-3.10108,3.03735-7.5,7.93091c10.83691,12.05517,29.5957,35.43481,29.5957,52.861,0,21.42761-12.70361,39.30627-29.5957,43.45386a31.38958,31.38958,0,0,0,7.5.90783c20.4873,0,37.0957-19.86132,37.0957-44.36169S106.13859,82.64839,106.13859,82.64839Z"/><path fill="#fea613" d="M106.13859,135.22517s-.51026.49988-1.3501,1.37634c5.042,6.30079,10.62891,14.7959,10.62891,21.51978,0,12.25024-8.3042,22.18091-18.54786,22.18091a15.75046,15.75046,0,0,1-5.26757-.91284c3.39746,5.1228,8.644,8.41259,14.53662,8.41259,10.24365,0,18.54785-9.93066,18.54785-22.1809C124.68644,153.37105,106.13859,135.22517,106.13859,135.22517Z"/><path fill="#f1f6f9" d="M56.11773,453.64838H156.88227V235.33983a20,20,0,0,0-20-20H76.11773a20,20,0,0,0-20,20Z"/><path fill="#dde8ef" d="M136.88232,215.33984h-10v167.3086a26,26,0,0,1-26,26H56.11768v45l100.76462,0V235.33983A20,20,0,0,0,136.88232,215.33984Z"/><path fill="#e5eef9" d="M47.685,230.22685l-.369,48.99135a22.41525,22.41525,0,0,0,22.41461,22.58407h.00005A22.41524,22.41524,0,0,0,92.1459,279.387V266.34734a18.82319,18.82319,0,0,1,18.8232-18.82319h0a18.82319,18.82319,0,0,1,18.82319,18.82319v3.1329a17.40628,17.40628,0,0,0,17.40628,17.40628h0a17.40629,17.40629,0,0,0,17.40556-17.24786l.35643-39.16232a15,15,0,0,0-14.99937-15.13651H62.68457A15,15,0,0,0,47.685,230.22685Z"/><path fill="#685e68" d="M7.5,438.5h497a0,0,0,0,1,0,0v.00007A65.99993,65.99993,0,0,1,438.50007,504.5H73.49993A65.99993,65.99993,0,0,1,7.5,438.50007V438.5A0,0,0,0,1,7.5,438.5Z"/><path fill="#554e56" d="M467.28174,438.5A65.98025,65.98025,0,0,1,408.5,474.5H43.5a65.71088,65.71088,0,0,1-29.19434-6.80566A65.991,65.991,0,0,0,73.5,504.5h365a66.00015,66.00015,0,0,0,66-66H467.28174Z"/><path fill="#46cc8d" d="M257.70126,460.99563c19.80642,3.21582,42.24974,9.06855,62.16136,12.38956a2.98811,2.98811,0,0,0,3.49071-2.66063c1.09935-13.144,8.5947-24.74312,19.8847-30.312a35.23375,35.23375,0,0,1,21.68353-2.89135,2.99156,2.99156,0,0,0,3.14671-4.31584,36.58855,36.58855,0,0,1-3.11654-25.46392c3.109-12.54,11.91388-19.60205,16.94714-22.73173a2.98383,2.98383,0,0,0,.57532-4.59325c-3.8-3.99363-9.77346-12.076-9.69906-23.48524a32.59466,32.59466,0,0,1,2.36858-11.94913,2.99611,2.99611,0,0,0-3.9055-3.9055,32.59466,32.59466,0,0,1-11.94913,2.36858c-11.40923.0744-19.49161-5.8991-23.48524-9.69906a2.98383,2.98383,0,0,0-4.59325.57532c-3.12968,5.03326-10.19171,13.83818-22.73173,16.94714a36.58855,36.58855,0,0,1-25.46392-3.11654,2.99156,2.99156,0,0,0-4.31584,3.14671,35.23375,35.23375,0,0,1-2.89135,21.68353c-5.56891,11.29-17.168,18.78535-30.312,19.8847a2.98811,2.98811,0,0,0-2.66063,3.49071c3.321,19.91162,9.17374,42.35494,12.38956,62.16136A2.98336,2.98336,0,0,0,257.70126,460.99563Z"/><path fill="#00c27a" d="M382.47412,380.4165c-3.7998-3.99365-9.77344-12.07617-9.69873-23.48535a32.59018,32.59018,0,0,1,2.36816-11.94909,2.996,2.996,0,0,0-3.90527-3.90552,32.59612,32.59612,0,0,1-11.94922,2.36853c-.501.00342-.9873-.01917-1.47558-.03858a34.2324,34.2324,0,0,0,9.66064,22.01,2.98389,2.98389,0,0,1-.57519,4.59327c-5.03321,3.12963-13.83838,10.19165-16.94727,22.73169a36.58875,36.58875,0,0,0,3.1167,25.46386,2.99168,2.99168,0,0,1-3.147,4.31592,35.23077,35.23077,0,0,0-21.68311,2.89136c-11.29,5.56885-18.78564,17.168-19.88476,30.312a2.98845,2.98845,0,0,1-3.49073,2.66064c-16.42724-2.73974-34.57373-7.19946-51.54443-10.48327.69678,3.60022,1.34375,7.15075,1.90625,10.61706a2.983,2.983,0,0,0,2.47656,2.47657c19.80664,3.21582,42.25,9.0686,62.16162,12.38964a2.98845,2.98845,0,0,0,3.49073-2.66064c1.09912-13.144,8.59472-24.74316,19.88476-30.312a35.23077,35.23077,0,0,1,21.68311-2.89136,2.99168,2.99168,0,0,0,3.147-4.31592,36.58875,36.58875,0,0,1-3.1167-25.46386c3.10889-12.54,11.91406-19.60206,16.94727-22.73169A2.98389,2.98389,0,0,0,382.47412,380.4165Z"/><path fill="#00c27a" d="M255.77832,467.94141a7.5,7.5,0,0,1-5.30371-12.80371l71.3457-71.34473a7.50058,7.50058,0,0,1,10.60742,10.60742L261.082,465.74512A7.481,7.481,0,0,1,255.77832,467.94141Z"/><path fill="#46cc8d" d="M254.29874,460.99563c-19.80642,3.21582-42.24974,9.06855-62.16136,12.38956a2.98811,2.98811,0,0,1-3.49071-2.66063c-1.09935-13.144-8.5947-24.74312-19.8847-30.312a35.23375,35.23375,0,0,0-21.68353-2.89135,2.99156,2.99156,0,0,1-3.14671-4.31584,36.58855,36.58855,0,0,0,3.11654-25.46392c-3.109-12.54-11.91388-19.60205-16.94714-22.73173a2.98383,2.98383,0,0,1-.57532-4.59325c3.8-3.99363,9.77346-12.076,9.69906-23.48524a32.59466,32.59466,0,0,0-2.36858-11.94913,2.99611,2.99611,0,0,1,3.9055-3.9055,32.59466,32.59466,0,0,0,11.94913,2.36858c11.40923.0744,19.49161-5.8991,23.48524-9.69906a2.98383,2.98383,0,0,1,4.59325.57532c3.12968,5.03326,10.19171,13.83818,22.73173,16.94714a36.58855,36.58855,0,0,0,25.46392-3.11654,2.99156,2.99156,0,0,1,4.31584,3.14671,35.23375,35.23375,0,0,0,2.89135,21.68353c5.56891,11.29,17.168,18.78535,30.312,19.8847a2.98811,2.98811,0,0,1,2.66063,3.49071c-3.321,19.91162-9.17374,42.35494-12.38956,62.16136A2.98336,2.98336,0,0,1,254.29874,460.99563Z"/><path fill="#00c27a" d="M256.22168,467.94141a7.481,7.481,0,0,1-5.30371-2.19629l-71.3457-71.34473A7.50058,7.50058,0,1,1,190.17969,383.793l71.3457,71.34473a7.5,7.5,0,0,1-5.30371,12.80371Z"/><circle cx="256" cy="457.134" r="47.366" fill="#e53950"/><path fill="#ca2e43" d="M281.13818,416.99634a47.35777,47.35777,0,0,1-65.27636,65.27612,47.36157,47.36157,0,1,0,65.27636-65.27612Z"/></svg>