<svg xmlns="http://www.w3.org/2000/svg" data-name="Layer 1" viewBox="0 0 512 512"><path fill="#fee903" d="M201.98828,90.93994h-16.2207a7.49974,7.49974,0,0,1-7.5-7.5V67.22021a23.72022,23.72022,0,1,1,23.7207,23.71973Zm-8.7207-15h8.7207a8.72,8.72,0,1,0-8.7207-8.71973Z"/><path fill="#fee903" d="M185.76758,90.93994H169.54785a23.72,23.72,0,1,1,23.71973-23.71973V83.43994A7.49974,7.49974,0,0,1,185.76758,90.93994ZM169.54785,58.5a8.72,8.72,0,0,0,0,17.43994h8.71973V67.22021A8.73,8.73,0,0,0,169.54785,58.5Z"/><rect width="103.615" height="74.465" x="133.96" y="105.94" fill="#fee903"/><rect width="118.615" height="30" x="126.46" y="75.94" fill="#26a6fe" rx="4"/><path fill="#26a6fe" d="M185.76758,187.90527a7.49974,7.49974,0,0,1-7.5-7.5V105.93994a7.5,7.5,0,0,1,15,0v74.46533A7.49974,7.49974,0,0,1,185.76758,187.90527Z"/><path fill="#e53950" d="M286.40991,322.03a57.25221,57.25221,0,0,1-46.30981,44.38,309.99625,309.99625,0,0,1-104.82007,0,57.15987,57.15987,0,0,1-45.65991-71.16l32.81982-76.2,3.27-7.59,3.23-7.5-5.52-7.5-12.77-17.34A15.00128,15.00128,0,0,1,122.72,155.22H252.6499A15.00488,15.00488,0,0,1,264.73,179.12l-12.77,17.34-5.53,7.5,3.23,7.5L285.75,295.25A56.98823,56.98823,0,0,1,286.40991,322.03Z"/><path fill="#ca2e43" d="M286.40991,322.03a57.25221,57.25221,0,0,1-46.30981,44.38,309.99625,309.99625,0,0,1-104.82007,0,57.15987,57.15987,0,0,1-45.65991-71.16l32.81982-76.2h94.47a29.99808,29.99808,0,0,1,30,30v10.34a69.48251,69.48251,0,0,0,39.5,62.64Z"/><polygon fill="#ca2e43" points="246.43 203.96 249.66 211.46 125.71 211.46 128.94 203.96 123.42 196.46 251.96 196.46 246.43 203.96"/><path fill="#26a6fe" d="M343.21973,270.98727H327a7.49974,7.49974,0,0,1-7.5-7.5V247.26706a23.72022,23.72022,0,1,1,23.71973,23.72021Zm-8.71973-15h8.71973A8.72,8.72,0,1,0,334.5,247.26706Z"/><path fill="#26a6fe" d="M327,270.98727H310.78027A23.72,23.72,0,1,1,334.5,247.26706v16.22021A7.49974,7.49974,0,0,1,327,270.98727Zm-16.21973-32.43994a8.72,8.72,0,1,0,0,17.43994H319.5v-8.72021A8.72988,8.72988,0,0,0,310.78027,238.54733Z"/><rect width="103.62" height="74.46" x="275.19" y="285.99" fill="#26a6fe"/><path fill="#fee903" d="M334.5,285.99v74.46h-15V285.99a7.5,7.5,0,0,1,15,0Z"/><rect width="118.615" height="30" x="267.692" y="255.987" fill="#fee903" rx="4"/><rect width="45" height="67.431" x="92.709" y="401.069" fill="#f1f6f9"/><rect width="45" height="67.38" x="314.29" y="401.07" fill="#f1f6f9"/><polygon fill="#e8edf2" points="314.29 410.92 359.29 409.03 359.29 446.91 314.29 416.1 314.29 410.92"/><polygon fill="#e8edf2" points="92.709 410.92 137.709 409.03 137.709 446.91 92.709 416.1 92.709 410.92"/><path fill="#e53950" d="M424.68994,270.99V386.07a30.0045,30.0045,0,0,1-30,30H359.2907l-26.8776-15-18.1224,15H137.7093l-27.00423-15-17.99577,15H85.24a77.72934,77.72934,0,0,1-70.61011-45.2h-.00976A77.42743,77.42743,0,0,1,7.5,338.33V186.69a6.99985,6.99985,0,0,1,12.29-4.58L45.74,212A64.05391,64.05391,0,0,0,94.1001,234.05H201.90991a29.99808,29.99808,0,0,1,30,30v10.34a69.4,69.4,0,0,0,138.80005,0v-3.4a14.99266,14.99266,0,0,1,15-15h23.98A14.99906,14.99906,0,0,1,424.68994,270.99Z"/><path fill="#ca2e43" d="M15.74 182a64.013 64.013 0 0 0 14.87573 12.57953L19.79 182.11a6.82211 6.82211 0 0 0-6.01416-2.3722zM409.68994 255.99h-15V356.07a30.0045 30.0045 0 0 1-30 30H329.29077l-26.87768-15-18.12232 15H107.70923l-27.00415-15-17.99585 15H55.24a77.37563 77.37563 0 0 1-37.87134-9.83771A77.69266 77.69266 0 0 0 85.24 416.07h7.46924l17.99585-15 27.00415 15H314.29077l18.12232-15 26.87768 15h35.39917a30.0045 30.0045 0 0 0 30-30V270.99A14.99906 14.99906 0 0 0 409.68994 255.99z"/><path fill="#fed402" d="M424.68994,370.87v15.2a30.0045,30.0045,0,0,1-30,30H85.24a77.72934,77.72934,0,0,1-70.61011-45.2Z"/><path fill="#fac600" d="M394.68994,370.87l-3.97974.00248a30.2,30.2,0,0,1-30.2,30.2L55.24,401.07a77.85583,77.85583,0,0,1-18.92944-2.33332A77.40939,77.40939,0,0,0,85.24,416.07H394.68994a30,30,0,0,0,30-30v-15.2Z"/><path fill="#fed402" d="M428.608,504.5H26.01024a18.29246,18.29246,0,1,1,0-36.58232H428.608c21.4341,0,38.87151-17.23147,38.87151-38.41144a18.51155,18.51155,0,0,1,37.02048,0C504.5,470.85784,470.45489,504.5,428.608,504.5Z"/></svg>