<svg xmlns="http://www.w3.org/2000/svg" data-name="Layer 1" viewBox="0 0 512 512"><path fill="#d88a55" d="M60.813 258.93622l1.75342-36.78095a7.49971 7.49971 0 1 0-14.98243-.71386l-1.10864 23.257-18.321-18.19348A7.50028 7.50028 0 0 0 17.584 237.14844l17.38184 17.26074H7.5a7.5 7.5 0 0 0 0 15H50.0708l63.24658 62.80615a7.50028 7.50028 0 0 0 10.57032-10.64355zM504.5 254.40918H477.03418L494.416 237.14844a7.50028 7.50028 0 0 0-10.57032-10.64356l-18.321 18.19348-1.10864-23.257a7.49971 7.49971 0 1 0-14.98243.71386l1.75342 36.78095L388.1123 321.57178a7.50028 7.50028 0 0 0 10.57032 10.64355l63.24658-62.80615H504.5a7.5 7.5 0 0 0 0-15z"/><path fill="#f1f6f9" d="M398.12988,363.15c0,78.07-63.73,141.35-142.33984,141.35C177.17993,504.5,113.45,441.22,113.45,363.15a140.51713,140.51713,0,0,1,46.02-104.07,142.86736,142.86736,0,0,1,192.63989,0A140.51713,140.51713,0,0,1,398.12988,363.15Z"/><ellipse cx="255.79" cy="161.957" fill="#f1f6f9" rx="88.616" ry="87.999"/><path fill="#dde8ef" d="M279.87158 77.2486a87.63622 87.63622 0 0 1 34.53394 69.70825c0 48.6004-39.67456 87.99878-88.616 87.99878a89.261 89.261 0 0 1-24.08179-3.29047 88.622 88.622 0 0 0 54.08179 18.29047c48.94141 0 88.616-39.39838 88.616-87.99878C344.40552 121.64581 317.10986 87.6673 279.87158 77.2486zM181.97168 410.13672a7.49974 7.49974 0 0 1-7.5-7.5V366.77783a7.5 7.5 0 0 1 15 0v35.85889A7.49974 7.49974 0 0 1 181.97168 410.13672zM204.47168 410.13672a7.49974 7.49974 0 0 1-7.5-7.5V378.14941a7.5 7.5 0 0 1 15 0v24.48731A7.49974 7.49974 0 0 1 204.47168 410.13672zM227.55859 410.13672a7.49975 7.49975 0 0 1-7.5-7.5V365.96338a7.5 7.5 0 0 1 15 0v36.67334A7.49974 7.49974 0 0 1 227.55859 410.13672z"/><path fill="#dde8ef" d="M352.10986,259.08923V259.08c-.22973-.21009-.46533-.41382-.69653-.62238-.41187-.371-.82373-.74152-1.24-1.10779q-.62769-.55315-1.26367-1.09729-.52223-.44879-1.04737-.894-.7196-.60728-1.44824-1.20386-.45666-.37481-.916-.74652-.791-.63894-1.59229-1.26636-.40648-.31851-.81494-.63415-.8529-.65891-1.71582-1.30524-.36585-.27374-.73389-.54474-.90893-.67154-1.82861-1.32971c-.21973-.1568-.44043-.312-.66064-.46753q-.958-.6762-1.92676-1.33832c-.20264-.138-.40674-.2741-.60987-.41113q-1.00194-.67493-2.01391-1.33508c-.18335-.11908-.36841-.236-.55225-.35431q-1.04772-.67374-2.10669-1.33167c-.16284-.10076-.32715-.19915-.49072-.29931q-1.09644-.672-2.2041-1.32733c-.13574-.08-.27319-.15753-.40943-.23706q-1.15612-.67521-2.325-1.33185c-.08935-.05-.17993-.09821-.26953-.148A142.31717,142.31717,0,0,0,308.33008,231.74h-.02051a142.1106,142.1106,0,0,0-30.33594-8.22949A142.5259,142.5259,0,0,1,291.51221,231.74H203.25a142.36663,142.36663,0,0,0-28.47046,15.17H174.47v.21308a142.36487,142.36487,0,0,0-15,11.95691v25.09a7.74,7.74,0,0,0,7.74,7.74h7.26v78.5a7.74,7.74,0,0,0,7.74,7.74h45.11011a7.74,7.74,0,0,0,7.74-7.74V310.01109A18.10112,18.10112,0,0,1,253.16118,291.91h43.738c30.8252,0,56.10229,24.815,56.23145,55.6399q.00109.29946.00122.59936c0,78.06586-63.72876,141.35077-142.34229,141.35077a144.373,144.373,0,0,1-22.18384-1.712A142.49322,142.49322,0,0,0,255.78955,504.5c78.61353,0,142.34229-63.28491,142.34229-141.35077A140.51592,140.51592,0,0,0,352.10986,259.08923Z"/><path fill="#e53950" d="M166.97168 410.13672a7.49974 7.49974 0 0 1-7.5-7.5V366.77783a7.5 7.5 0 0 1 15 0v35.85889A7.49974 7.49974 0 0 1 166.97168 410.13672zM189.47168 410.13672a7.49974 7.49974 0 0 1-7.5-7.5V378.14941a7.5 7.5 0 0 1 15 0v24.48731A7.49974 7.49974 0 0 1 189.47168 410.13672zM212.55859 410.13672a7.49975 7.49975 0 0 1-7.5-7.5V365.96338a7.5 7.5 0 0 1 15 0v36.67334A7.49974 7.49974 0 0 1 212.55859 410.13672z"/><path fill="#e53950" d="M220.06006,246.91v123.5a7.746,7.746,0,0,1-7.74,7.74H167.21a7.746,7.746,0,0,1-7.74-7.74V246.91Z"/><path fill="#ca2e43" d="M220.06006,231.91v60H167.21a7.746,7.746,0,0,1-7.74-7.74V239.48a7.74377,7.74377,0,0,1,6.13013-7.57Z"/><path fill="#554e56" d="M209.58529,7.5H301.9941a15,15,0,0,1,15,15V84.4325a0,0,0,0,1,0,0H194.58529a0,0,0,0,1,0,0V22.5a15,15,0,0,1,15-15Z"/><path fill="#433f43" d="M301.99414,7.5h-15v0a34.64321,34.64321,0,0,1-34.64321,34.64322H194.58521V84.4325H316.99414V22.5A15,15,0,0,0,301.99414,7.5Z"/><rect width="169.014" height="30" x="171.493" y="58.958" fill="#685e68" rx="7"/><path fill="#554e56" d="M333.50708,58.95813h-30a7,7,0,0,1,7,7v16a7,7,0,0,1-7,7h30a7,7,0,0,0,7-7v-16A7,7,0,0,0,333.50708,58.95813Z"/><ellipse cx="286.073" cy="124.226" fill="#433f43" rx="7.5" ry="7.448"/><ellipse cx="229.488" cy="124.226" fill="#433f43" rx="7.5" ry="7.448"/><path fill="#fed402" d="M270.64746,148.6395,259.62438,185.773a4,4,0,0,1-7.66922,0L240.93188,148.6395a23.56493,23.56493,0,0,1,29.71558,0Z"/><ellipse cx="256" cy="335.189" fill="#e53950" rx="7.5" ry="7.448"/><ellipse cx="256" cy="365.189" fill="#e53950" rx="7.5" ry="7.448"/><ellipse cx="256" cy="395.189" fill="#e53950" rx="7.5" ry="7.448"/><ellipse cx="256" cy="425.189" fill="#e53950" rx="7.5" ry="7.448"/><rect width="192.636" height="60.165" x="159.472" y="216.744" fill="#e53950" rx="7.74"/><path fill="#ca2e43" d="M344.36694,216.744H322.10742V229.4135a32.49551,32.49551,0,0,1-32.4955,32.4955h-130.14v7.25952a7.74048,7.74048,0,0,0,7.74048,7.74048H344.36694a7.74048,7.74048,0,0,0,7.74048-7.74048V224.48444A7.74048,7.74048,0,0,0,344.36694,216.744Z"/></svg>