<svg xmlns="http://www.w3.org/2000/svg" data-name="Layer 1" viewBox="0 0 512 512"><path fill="#e53950" d="M67.02316,211.793l.00009-.00008a61.20328,61.20328,0,0,1,85.59948.04074l25.79275,25.41794.048-98.00608C178.49915,66.44931,238.46915,7.46483,312.41024,7.49993h.00027C386.3516,7.535,446.26378,66.57645,446.22812,139.37261l-.13057,266.54769-267.76463-.14179L66.986,296.07109A58.94044,58.94044,0,0,1,67.02316,211.793Z"/><path fill="#ca2e43" d="M363.28418,17.38568a130.32249,130.32249,0,0,1,37.944,91.98694l-.09039,184.5444a82,82,0,0,1-82.04344,81.95982l-171.20186-.09071L178.333,405.77856l267.76459.14173.13055-266.54767C446.25513,84.31079,411.98059,37.12677,363.28418,17.38568Z"/><path fill="#f1f6f9" d="M462.73,428.07007,462.7,482.37a22.13691,22.13691,0,0,1-22.15,22.13l-258.69-.12a22.15619,22.15619,0,0,1-22.13-22.15l.01-26.58008.01-15,.01-12.73A22.1496,22.1496,0,0,1,181.91,405.79l258.69.12988A22.1434,22.1434,0,0,1,462.73,428.07007Z"/><path fill="#dde8ef" d="M440.6,405.91992l-9.0575-.00464c.76587,2.24549-4.05841,25.23158-6.68135,34.27a68.33654,68.33654,0,0,1-65.66056,49.291L160.919,489.38428A22.16087,22.16087,0,0,0,181.86,504.38l258.69.12a22.13691,22.13691,0,0,0,22.15-22.13l.03-54.29993A22.1434,22.1434,0,0,0,440.6,405.91992Z"/><path fill="#f1f6f9" d="M401.5791,232.47852l-32.93542,8.68823-33.49085-19.03662,33.49079-19.0365,32.93548,8.6886a7.5,7.5,0,0,0,3.82617-14.50391l-18.12091-4.78027,18.64-10.59522a7.50012,7.50012,0,1,0-7.41211-13.041L379.5708,179.6283l4.88184-17.93592a7.50009,7.50009,0,0,0-14.47364-3.93945l-8.79907,32.329-34.89624,19.83533V171.81055l24.03809-23.666a7.50012,7.50012,0,1,0-10.52344-10.68945l-13.51465,13.30554V129.312a7.5,7.5,0,0,0-15,0v21.44873l-13.51514-13.30566a7.50012,7.50012,0,1,0-10.52343,10.68945l24.03857,23.666v36.75207l-32.51294-18.48071-8.79858-32.329a7.50009,7.50009,0,1,0-14.47363,3.93945l4.88159,17.936-18.94165-10.7666a7.50012,7.50012,0,1,0-7.41211,13.041l18.63989,10.59522-18.12085,4.78027a7.50005,7.50005,0,1,0,3.82617,14.50391l32.93555-8.6886,33.49072,19.0365L271.307,241.16675l-32.93543-8.68823a7.5,7.5,0,1,0-3.82617,14.5039l18.12061,4.78-16.25586,9.24a7.50013,7.50013,0,1,0,7.41211,13.041l16.55786-9.41162-4.88159,17.93652a7.50009,7.50009,0,1,0,14.47363,3.93945l8.79858-32.32959,32.51294-18.48059v38.10706l-24.03857,23.666a7.50012,7.50012,0,0,0,10.52343,10.68946l13.51514-13.30567v18.73877a7.5,7.5,0,0,0,15,0V294.85461l13.51465,13.30555a7.50012,7.50012,0,0,0,10.52344-10.68946l-24.03809-23.666V234.343l34.89624,19.83532,8.79907,32.32947a7.50009,7.50009,0,0,0,14.47364-3.93945l-4.8819-17.93652,16.55768,9.41162a7.50013,7.50013,0,0,0,7.41211-13.041l-16.25592-9.24,18.12066-4.78a7.5,7.5,0,1,0-3.82617-14.5039Z"/><path fill="#dde8ef" d="M410.74414 237.81738a7.4977 7.4977 0 0 0-9.165-5.33886l-.41131.10852-.00757 15.51525 4.245-1.11987A7.50012 7.50012 0 0 0 410.74414 237.81738zM406.355 271.229a7.50019 7.50019 0 0 0-2.81445-10.22656l-2.386-1.3562-.00745 15.24658A7.4716 7.4716 0 0 0 406.355 271.229zM405.40527 197.27832l-4.2196-1.11316-.00763 15.51135.40106.10572a7.5 7.5 0 0 0 3.82617-14.50391zM408.73877 171.67627a7.49878 7.49878 0 0 0-7.53931-3.72046l-.00818 16.63733 4.733-2.69031A7.50019 7.50019 0 0 0 408.73877 171.67627z"/><path fill="#e53950" d="M462.72,440.6499l-.01,15c-10.68,0-15.75,2.81006-21.61,6.06006-6.71,3.72-14.32,7.93994-28.89,7.93994-14.56,0-22.17-4.22-28.88-7.93994-5.87-3.25-10.93-6.06006-21.62-6.06006-10.68,0-15.74,2.81006-21.6,6.06006-6.72,3.72-14.32,7.93994-28.89,7.93994-14.55994,0-22.16992-4.22-28.87988-7.93994C276.48,458.46,271.41,455.6499,260.73,455.6499S244.98,458.46,239.12,461.71c-6.71,3.72-14.32,7.93994-28.88,7.93994s-22.16992-4.22-28.88-7.93994c-5.87-3.25-10.93006-6.06006-21.61-6.06006h-.01l.01-15c14.56006,0,22.17,4.2201,28.88,7.94007,5.86,3.25,10.93006,6.05993,21.61,6.05993S225.98,451.84,231.8501,448.59c6.71-3.72,14.31994-7.94007,28.87988-7.94007S282.9,444.87,289.61,448.59c5.87,3.25,10.93,6.05993,21.61,6.05993C321.91,454.6499,326.97,451.84,332.83,448.59c6.71-3.72,14.32-7.94007,28.88-7.94007,14.57,0,22.18,4.2201,28.89,7.94007,5.86,3.25,10.93,6.05993,21.61,6.05993,10.69,0,15.75-2.80993,21.62-6.05993,6.71-3.72,14.32-7.94007,28.88-7.94007Z"/><path fill="#ca2e43" d="M462.71,455.6499l.01-15h-.01c-14.56,0-22.17,4.2201-28.88,7.94007-4.457,2.46765-8.45319,4.67834-14.79523,5.60119a68.1851,68.1851,0,0,1-11.52325,15.29529c1.48577.10242,3.04168.16345,4.69848.16345,14.57,0,22.18-4.22,28.89-7.93994C446.96,458.46,452.03,455.6499,462.71,455.6499Z"/></svg>