<svg xmlns="http://www.w3.org/2000/svg" data-name="Layer 1" viewBox="0 0 512 512"><path fill="#e53950" d="M71.25054,71.90991A17.625,17.625,0,0,0,82.48052,57.98a19.52606,19.52606,0,0,1,.79-3.12,18.88548,18.88548,0,0,1,4.66-7.38,18.628,18.628,0,0,1,6.32-4.11c.17-.06995.34-.14.51-.20008a18.6318,18.6318,0,0,1,4.45-1.02991,19.0124,19.0124,0,0,1,19.94,12.37l7.06,19.36,7.11,19.48,7.65,20.97009,7.12006,19.5,10.71,29.34985a17.29907,17.29907,0,0,0,32.52-11.80993l-22.06-60.47-7.01-19.21008-7.76-21.24v-.01l-2.82-7.73a53.36729,53.36729,0,0,0-22.52-27.36,51.29424,51.29424,0,0,0-6.67-3.44007,54.15037,54.15037,0,0,0-7.12-2.5,53.49821,53.49821,0,0,0-32.44,1.33008c-1.5.55005-2.96,1.15-4.38,1.82007a53.17808,53.17808,0,0,0-6.55,3.61987v.01a50.25635,50.25635,0,0,0-6.08,4.6001,53.67191,53.67191,0,0,0-17.71,32.57C46.31054,66.2,59.03057,76.34,71.25054,71.90991Z"/><path fill="#fff" d="M71.99053,16.16992v.01L87.93053,47.48a18.628,18.628,0,0,1,6.32-4.11c.17-.06995.34-.14.51-.20008a18.6318,18.6318,0,0,1,4.45-1.02991,19.04114,19.04114,0,0,1,7.96.82q7.65006-15.54,15.31-31.06006a54.15037,54.15037,0,0,0-7.12-2.5,53.49821,53.49821,0,0,0-32.44,1.33008c-1.5.55005-2.96,1.15-4.38,1.82007A53.17808,53.17808,0,0,0,71.99053,16.16992Z"/><polygon fill="#fff" points="150.91 40.748 129.771 83.607 144.534 124.061 165.699 81.149 150.91 40.748"/><path fill="#e53950" d="M348.75,71.90991A17.625,17.625,0,0,1,337.52,57.98a19.52606,19.52606,0,0,0-.79-3.12,18.88548,18.88548,0,0,0-4.66-7.38,18.628,18.628,0,0,0-6.32-4.11c-.17-.06995-.34-.14-.51-.20008A18.6318,18.6318,0,0,0,320.79,42.14a19.0124,19.0124,0,0,0-19.94,12.37l-7.06,19.36-7.11,19.48-7.65,20.97009-7.12006,19.5L261.2,163.16992A17.29907,17.29907,0,0,1,228.68,151.36l22.06-60.47,7.01-19.21008,7.76-21.24v-.01l2.82-7.73a53.36729,53.36729,0,0,1,22.52-27.36,51.29424,51.29424,0,0,1,6.67-3.44007,54.15074,54.15074,0,0,1,7.12-2.5A53.49824,53.49824,0,0,1,337.08,10.73c1.5.55005,2.96,1.15,4.38,1.82007a53.17808,53.17808,0,0,1,6.55,3.61987v.01a50.25635,50.25635,0,0,1,6.08,4.6001A53.67191,53.67191,0,0,1,371.8,53.35C373.69,66.2,360.97,76.34,348.75,71.90991Z"/><path fill="#fff" d="M348.01,16.16992v.01L332.07,47.48a18.628,18.628,0,0,0-6.32-4.11c-.17-.06995-.34-.14-.51-.20008A18.6318,18.6318,0,0,0,320.79,42.14a19.04114,19.04114,0,0,0-7.96.82Q305.18,27.42,297.52,11.8999a54.15074,54.15074,0,0,1,7.12-2.5A53.49824,53.49824,0,0,1,337.08,10.73c1.5.55005,2.96,1.15,4.38,1.82007A53.17808,53.17808,0,0,1,348.01,16.16992Z"/><path fill="#ca2e43" d="M275.916,199.4917a7.5,7.5,0,0,1-5.251-12.856,119.894,119.894,0,0,1,73.61328-34.106,7.50015,7.50015,0,1,1,1.33887,14.94042A104.887,104.887,0,0,0,281.166,197.34766,7.47737,7.47737,0,0,1,275.916,199.4917Z"/><path fill="#ca2e43" d="M363.293,215.48877a7.46158,7.46158,0,0,1-3.84717-1.06738,117.09459,117.09459,0,0,0-79.937-15.03223,7.50014,7.50014,0,1,1-2.47363-14.79492,132.09149,132.09149,0,0,1,90.11963,16.96,7.5007,7.5007,0,0,1-3.86182,13.93457Z"/><path fill="#e53950" d="M393.94,503.6499c-.11.02-.21.04-.32.05a3.68856,3.68856,0,0,1-.46.08008,16.14217,16.14217,0,0,1-2.42.17993H23.51A15.98866,15.98866,0,0,1,8.83,481.62988L14.27,469.03a317.1855,317.1855,0,0,0,12.06-32.78,318.42691,318.42691,0,0,0,14.02-92.69995A166.813,166.813,0,0,1,250.1795,182.83191l-.03949-.03186c1.11.29993,2.22.59985,3.32.91992q4.965,1.40991,9.79,3.16a161.7953,161.7953,0,0,1,18.73,8.0199c3.02,1.51,6,3.12012,8.91,4.82007.97.57007,1.93,1.14,2.89,1.73.96.58008,1.91,1.17005,2.86,1.78.94.6,1.88,1.21,2.81,1.83008,2.77,1.82995,5.47,3.76,8.12,5.76a1.33705,1.33705,0,0,0,.19.13989c.73.56006,1.46,1.12,2.19,1.68994.17.14014.33.27.49.39014q1.26.98986,2.49,2.01c.05.03992.09.07.14.10986q1.23,1.00508,2.43,2.04c.85.73,1.69,1.46,2.52,2.2q3.54,3.15015,6.88995,6.49011c.14.14.28.27991.41.42005.79.78992,1.57,1.58984,2.34,2.38989.01.02.03.03.04.04.76.8,1.51,1.6,2.25,2.40991q2.27994,2.46021,4.44,5.02c.72.8501,1.43,1.71008,2.14,2.58008.55.67993,1.1,1.37,1.65,2.06006.88,1.12988,1.76,2.26,2.62,3.40991q1.95,2.595,3.78,5.27c.61.89,1.21,1.78,1.81,2.67993a.87179.87179,0,0,0,.06.1001q.87,1.31982,1.71,2.63989c.13.21009.27.43006.4.64014q2.535,4.04992,4.85,8.26c.54.99,1.07,1.98,1.59,2.98,1.05,1.99,2.06,4.02,3.02,6.05994.48,1.02.95,2.04992,1.41,3.07995.42.94007.84,1.88013,1.24,2.83008.07.16992.14.34.21.5.41.97.81,1.95,1.2,2.92993q.63,1.59009,1.23,3.18006c.36.95007.71,1.91,1.05,2.87l.21.6c.35.99.68,1.99,1.01,2.9801.34,1.03992.68,2.08984,1,3.12988a2.76554,2.76554,0,0,1,.07995.27c.32,1.06006.63,2.11.93006,3.17.3,1.04993.59,2.1.86,3.15.04.12988.08.27.11.40991.25.97.49,1.94006.73,2.91.03.14.07.28991.1.43.19.82.38,1.63989.56,2.47.09.38.18.77.25,1.15991.22.97009.42,1.96008.61,2.94007.22,1.14.43,2.28991.63,3.43.2,1.1499.39,2.29993.56,3.46.18,1.15991.34,2.31006.49,3.48.16,1.16.3,2.33008.42,3.5.11005.96.2,1.92993.29,2.9a.48591.48591,0,0,1,.01.12c.04.41992.08.85.11,1.27q.24,2.86487.38,5.76c.02.33.03.65991.04.99.06,1.18994.1,2.37988.12,3.58.02,1.05993.04,2.13.04,3.20007a319.09227,319.09227,0,0,0,26.09,125.48l5.44,12.59985A16.005,16.005,0,0,1,393.94,503.6499Z"/><path fill="#ca2e43" d="M275.91547,191.99176a198.79633,198.79633,0,0,1-137.57563,0q-13.70391-21.75563-27.40781-43.51127a6.39839,6.39839,0,0,1,5.41385-9.80859H297.90952a6.39839,6.39839,0,0,1,5.41387,9.80859Z"/><path fill="#fed402" d="M251.46,374.27a7.18,7.18,0,0,0-2.06,6.35l6.74,39.27A7.17412,7.17412,0,0,1,245.73,427.45l-35.27-18.54a7.15418,7.15418,0,0,0-6.67,0l-35.26,18.54A7.17237,7.17237,0,0,1,158.12,419.89l2.15-12.53,4.59-26.74a7.214,7.214,0,0,0-2.07-6.35L134.26,346.46a7.17478,7.17478,0,0,1,3.98-12.23l39.43-5.73a7.14773,7.14773,0,0,0,5.39-3.92l17.64-35.73a7.17011,7.17011,0,0,1,12.86,0l17.63,35.73a7.12016,7.12016,0,0,0,4.35,3.68,6.16045,6.16045,0,0,0,1.05.24l39.43,5.73a7.16945,7.16945,0,0,1,3.97,12.23Z"/><path fill="#fac600" d="M251.46,374.27a7.18,7.18,0,0,0-2.06,6.35l6.74,39.27A7.17412,7.17412,0,0,1,245.73,427.45l-35.27-18.54a7.15418,7.15418,0,0,0-6.67,0l-35.26,18.54A7.17237,7.17237,0,0,1,158.12,419.89l2.15-12.53c12.42-2.87,33.03-10.01,50.4-28.42005C225.85,362.86,232.71,344.38,235.54,328.26a6.16045,6.16045,0,0,0,1.05.24l39.43,5.73a7.16945,7.16945,0,0,1,3.97,12.23Z"/><path fill="#26a6fe" d="M438.16357,358.069H413.106a7.49974,7.49974,0,0,1-7.5-7.5V325.63542a32.46969,32.46969,0,0,1,32.43359-32.43262h.124a32.4331,32.4331,0,1,1,0,64.86621Zm-17.55761-15h17.55761a17.4331,17.4331,0,1,0,0-34.86621h-.124A17.453,17.453,0,0,0,420.606,325.63542Z"/><path fill="#26a6fe" d="M413.106,358.069H388.04883a32.43311,32.43311,0,1,1,0-64.86621h.124A32.46928,32.46928,0,0,1,420.606,325.63542V350.569A7.49974,7.49974,0,0,1,413.106,358.069ZM388.04883,308.2028a17.43311,17.43311,0,1,0,0,34.86621H405.606V325.63542a17.45257,17.45257,0,0,0-17.43311-17.43262Z"/><path fill="#ca2e43" d="M477.94,389.18994v97.77a16.68994,16.68994,0,0,1-16.68994,16.68994H393.94c-.11.02-.21.04-.32.05a3.68856,3.68856,0,0,1-.46.08008,16.14217,16.14217,0,0,1-2.42.17993H23.51A15.99042,15.99042,0,0,1,8.82945,481.63119L14.27,469.03a317.1855,317.1855,0,0,0,12.06-32.78c35.45,40.2,119.99,46.25,129.86,46.96,42.42733,3.03993,79.741-5.61561,109.32683-17.00282A82.48152,82.48152,0,0,0,318.27,389.19v-.00005h4.88a318.15161,318.15161,0,0,1-6.92-37.49,313.189,313.189,0,0,1-2.33-38.1499,166.47083,166.47083,0,0,0-63.76-130.75c1.11.29993,2.22.59985,3.32.91992q4.965,1.42493,9.79,3.16a166.12282,166.12282,0,0,1,18.73,8.0199q4.53,2.28,8.91,4.82007c.97.57007,1.93,1.14,2.89,1.73.96.58008,1.91,1.17005,2.86,1.78.94.6,1.88,1.21,2.81,1.83008q4.15494,2.75976,8.12,5.76a1.33705,1.33705,0,0,0,.19.13989c.73.56006,1.46,1.12,2.19,1.68994.17.14014.33.27.49.39014q1.26.98986,2.49,2.01c.05.03992.09.07.14.10986q1.23,1.00508,2.43,2.04c.85.73,1.69,1.46,2.52,2.2q3.75,3.34515,7.3,6.91016c.79.78992,1.57,1.58984,2.34,2.38989.01.02.03.03.04.04.76.8,1.51,1.6,2.25,2.40991,1.51,1.64014,2.99,3.32007,4.44,5.02.72.8501,1.43,1.71008,2.14,2.58008.55.67993,1.1,1.37,1.65,2.06006.88,1.12988,1.76,2.26,2.62,3.40991q1.93506,2.595,3.78,5.27c.61.89,1.21,1.78,1.81,2.67993a.87179.87179,0,0,0,.06.1001q.87,1.31982,1.71,2.63989c.13.21009.27.43006.4.64014q2.535,4.04992,4.85,8.26c.54.99,1.07,1.98,1.59,2.98,1.05,1.99,2.05,4.01,3.02,6.05994.48,1.02.95,2.04992,1.41,3.07995.42.94007.84,1.88013,1.24,2.83008.07.16992.14.34.21.5.41.97.81,1.95,1.2,2.92993q.63,1.59009,1.23,3.18006c.36.95007.71,1.91,1.05,2.87l.21.6c.35.99.68,1.99,1.01,2.9801.34,1.03992.68,2.08984,1,3.12988a2.76554,2.76554,0,0,1,.07995.27c.32,1.06006.63,2.11.93006,3.17.3,1.04993.59,2.1.86,3.15.04.12988.08.27.11.40991.25.97.49,1.94006.73,2.91.03.14.07.28991.1.43.19.82.38,1.63989.56,2.47.09.38.18.77.25,1.15991.22.97009.42,1.96008.61,2.94007.22,1.14.43,2.28991.63,3.43.2,1.1499.39,2.29993.56,3.46.18,1.15991.34,2.31006.49,3.48.16,1.16.3,2.33008.42,3.5.11005.96.2,1.92993.29,2.9a.48591.48591,0,0,1,.01.12c.04.41992.08.85.11,1.27q.24,2.86487.38,5.76c.02.33.03.65991.04.99.06,1.18994.1,2.37988.12,3.58.02,1.05993.04,2.13.04,3.20007a314.73258,314.73258,0,0,0,3.35,45.63989Z"/><path fill="#ca2e43" d="M483.33594,389.1851H312.87624a6.15643,6.15643,0,0,1-6.16406-6.14877V349.21808a6.15643,6.15643,0,0,1,6.16406-6.14877h170.4597A6.15643,6.15643,0,0,1,489.5,349.21808v33.81825A6.15643,6.15643,0,0,1,483.33594,389.1851Z"/><path fill="#fed402" d="M492.94,389.18994v97.77a16.687,16.687,0,0,1-16.69,16.68994H349.96A16.68692,16.68692,0,0,1,333.27,486.96v-97.77Z"/><path fill="#fac600" d="M333.27,389.18994v15H440.74331A22.19669,22.19669,0,0,1,462.94,426.38663V486.96a16.687,16.687,0,0,1-16.69,16.68994h30a16.69,16.69,0,0,0,16.69-16.69v-97.77Z"/><path fill="#fed402" d="M498.33594,389.1851H327.87624a6.15643,6.15643,0,0,1-6.16406-6.14877V349.21808a6.15643,6.15643,0,0,1,6.16406-6.14877h170.4597A6.15643,6.15643,0,0,1,504.5,349.21808v33.81825A6.15643,6.15643,0,0,1,498.33594,389.1851Z"/><path fill="#fac600" d="M498.33594,343.06934h-15A6.15645,6.15645,0,0,1,489.5,349.218v33.81836a6.15645,6.15645,0,0,1-6.16406,6.14868h15A6.15645,6.15645,0,0,0,504.5,383.03638V349.218A6.15645,6.15645,0,0,0,498.33594,343.06934Z"/><path fill="#26a6fe" d="M420.61,389.18994v114.46h-15v-114.46a7.5,7.5,0,0,1,15,0Z"/><path fill="#26a6fe" d="M413.106,396.68555a7.49975,7.49975,0,0,1-7.5-7.5V343.06934a7.5,7.5,0,0,1,15,0v46.11621A7.49975,7.49975,0,0,1,413.106,396.68555Z"/><rect width="15.002" height="15" x="405.604" y="389.19" fill="#0593fc"/><polygon fill="#fff" points="269.09 40.748 290.229 83.607 275.467 124.061 254.302 81.149 269.09 40.748"/></svg>