<svg xmlns="http://www.w3.org/2000/svg" data-name="Layer 1" viewBox="0 0 512 512"><polygon fill="#e5eef9" points="471 289.07 471 504.5 41 504.5 41 289.07 256 189.7 441.81 275.58 471 289.07"/><polygon fill="#d0e4f7" points="471 289.07 471 321.1 256 221.75 41 321.1 41 289.07 256 189.7 441.81 275.58 471 289.07"/><path fill="#e53950" d="M471.12881,306.15993,256,206.74555,40.87119,306.15993A24.44282,24.44282,0,0,1,7.5,283.40612v0L256,170.89719,504.5,283.40608v0A24.44282,24.44282,0,0,1,471.12881,306.15993Z"/><polygon fill="#f1f6f9" points="348.33 174.42 348.33 504.5 163.67 504.5 163.67 174.42 256 131.75 348.33 174.42"/><path fill="#d88a55" d="M308.5,411v93.5h-105V411a52.49679,52.49679,0,0,1,45-51.96,52.3495,52.3495,0,0,1,15,0,52.51029,52.51029,0,0,1,45,51.96Z"/><path fill="#7a6d79" d="M300,231.5a43.97532,43.97532,0,1,1-.64-7.5A44.12938,44.12938,0,0,1,300,231.5Z"/><path fill="#685e68" d="M300,231.5a44.12938,44.12938,0,0,1-.64,7.5H265.5a2,2,0,0,0-2,2v33.86a44.26463,44.26463,0,0,1-15,0V241a2,2,0,0,0-2-2H212.64a44.26463,44.26463,0,0,1,0-15H246.5a2,2,0,0,0,2-2V188.14a44.26463,44.26463,0,0,1,15,0V222a2,2,0,0,0,2,2h33.86A44.12938,44.12938,0,0,1,300,231.5Z"/><path fill="#ea9b58" d="M263.5,359.04V504.5h-15V359.04a52.3495,52.3495,0,0,1,15,0Z"/><path fill="#dfeff7" d="M348.33008,174.42v14.66a23.82933,23.82933,0,0,1-3.58008-1.32L256,146.75l-88.75,41.01a23.83349,23.83349,0,0,1-3.58,1.32V174.42L256,131.75Z"/><path fill="#e53950" d="M378.33008,151.29v0A23.65508,23.65508,0,0,1,344.752,172.76325L256,131.75l-88.752,41.01324A23.65507,23.65507,0,0,1,133.67,151.29008v0L256,95.8999Z"/><path fill="#cbc4cc" d="M298.47366,33.5H278.5a5,5,0,0,1-5-5v-16a5,5,0,0,0-5-5h-25a5,5,0,0,0-5,5v16a5,5,0,0,1-5,5H213.52634a5,5,0,0,0-5,5v25a5,5,0,0,0,5,5H233.5a5,5,0,0,1,5,5v76a5,5,0,0,0,5,5h25a5,5,0,0,0,5-5v-76a5,5,0,0,1,5-5h19.97363a5,5,0,0,0,5-5v-25A5,5,0,0,0,298.47366,33.5Z"/><path fill="#c4e2ff" d="M348.33482,352.5h63a7,7,0,0,1,7,7v59a7,7,0,0,1-7,7h-63a0,0,0,0,1,0,0v-73A0,0,0,0,1,348.33482,352.5Z"/><path fill="#c4e2ff" d="M93.66518,352.5h63a7,7,0,0,1,7,7v59a7,7,0,0,1-7,7h-63a0,0,0,0,1,0,0v-73A0,0,0,0,1,93.66518,352.5Z" transform="rotate(180 128.665 389)"/><path fill="#b5adb6" d="M504.5,512H7.5a7.5,7.5,0,0,1,0-15h497a7.5,7.5,0,0,1,0,15Z"/></svg>