<svg xmlns="http://www.w3.org/2000/svg" data-name="Layer 1" viewBox="0 0 512 512"><path fill="#e53950" d="M139.33287 506.67951a7.5 7.5 0 0 1-5.33106-12.77539l31.92383-32.25782a7.5 7.5 0 1 1 10.66211 10.55079L144.66392 504.4549A7.47742 7.47742 0 0 1 139.33287 506.67951zM115.87109 481.125a7.5 7.5 0 0 1-5.331-12.77539l31.92383-32.25781A7.5 7.5 0 1 1 153.126 446.64258l-31.92383 32.25781A7.47744 7.47744 0 0 1 115.87109 481.125zM87.03223 450.25a7.5 7.5 0 0 1-5.33106-12.77539L113.625 405.21582a7.5 7.5 0 0 1 10.66211 10.55078L92.36328 448.02539A7.47578 7.47578 0 0 1 87.03223 450.25zM58.19434 419.374a7.5 7.5 0 0 1-5.33106-12.77539l31.92285-32.25781A7.5 7.5 0 0 1 95.44824 384.8916L63.52539 417.14941A7.47574 7.47574 0 0 1 58.19434 419.374zM34.73256 393.82087a7.5 7.5 0 0 1-5.33105-12.77539l31.92383-32.25781a7.5 7.5 0 1 1 10.66211 10.55078L40.06362 391.59626A7.47744 7.47744 0 0 1 34.73256 393.82087zM372.66713 506.679a7.47578 7.47578 0 0 1-5.33105-2.22461l-31.92383-32.25781a7.5 7.5 0 1 1 10.66211-10.55078l31.92383 32.25781a7.5 7.5 0 0 1-5.33106 12.77539zM396.12891 481.125a7.47579 7.47579 0 0 1-5.33106-2.22461L358.874 446.64258a7.5 7.5 0 1 1 10.66211-10.55078L401.46 468.34961a7.5 7.5 0 0 1-5.33105 12.77539zM424.96777 450.25a7.47578 7.47578 0 0 1-5.331-2.22461L387.71289 415.7666A7.5 7.5 0 0 1 398.375 405.21582l31.92383 32.25879A7.5 7.5 0 0 1 424.96777 450.25zM453.80566 419.374a7.47574 7.47574 0 0 1-5.33105-2.22461L416.55176 384.8916a7.5 7.5 0 0 1 10.66211-10.55078l31.92285 32.25781a7.5 7.5 0 0 1-5.33106 12.77539zM477.26744 393.82051a7.47579 7.47579 0 0 1-5.33106-2.22461l-31.92383-32.25782a7.5 7.5 0 0 1 10.66211-10.55078l31.92383 32.25782a7.5 7.5 0 0 1-5.33105 12.77539z"/><path fill="#ca2e43" d="M475.02,131.42993,256,151.98l-219.02-20.55L140.66992,19.45a1.76334,1.76334,0,0,1,.13013-.13989c.03-.04.07007-.07007.09985-.11011A37.228,37.228,0,0,1,168.02,7.5H343.98A37.20157,37.20157,0,0,1,371.2,19.31006a1.76334,1.76334,0,0,1,.13013.13989Z"/><path fill="#e53950" d="M474.4502,171.31006l-90.52027,91.46L374.79,272.01l-109.6499,110.79L256,392.04l-41.06006,41.49-38.31006,38.71L147.79,441.37,118.96,410.49,90.12012,379.62,61.28,348.74,99.58008,310.04,137.21,272.01l9.14014-9.24L256,151.98l9.14014-9.24,11.2-11.31006L359.60986,47.29a28.78506,28.78506,0,0,0,5.07007-33.52,37.28368,37.28368,0,0,1,6.52,5.54,1.76334,1.76334,0,0,1,.13013.13989L475.02,131.42993A29.09449,29.09449,0,0,1,474.4502,171.31006Z"/><polygon fill="#f1f6f9" points="176.633 472.242 61.279 348.741 99.582 310.038 214.935 433.538 176.633 472.242"/><polygon fill="#ca2e43" points="383.93 262.77 374.79 272.01 247.039 401.119 128.249 281.089 256 151.98 265.14 142.74 375.45 254.2 383.93 262.77"/><path fill="#e53950" d="M450.72,348.74l-28.84009,30.88L393.04,410.49,364.21,441.37l-28.83984,30.87-38.31006-38.71L256,392.04,137.21,272.01l-99.65991-100.7A29.09449,29.09449,0,0,1,36.98,131.42993L140.66992,19.45a1.76334,1.76334,0,0,1,.13013-.13989c.03-.04.07007-.07007.09985-.11011A37.18531,37.18531,0,0,1,147.32007,13.77a28.78506,28.78506,0,0,0,5.07007,33.52l83.26977,84.13989L256,151.98,374.79,272.01l37.62988,38.03Z"/><polygon fill="#f1f6f9" points="335.367 472.242 450.721 348.741 412.418 310.038 297.065 433.538 335.367 472.242"/><path fill="#dde8ef" d="M412.41846,310.0376l-14.56641,15.59521,0,0a33.81488,33.81488,0,0,1,.67683,46.86748l-78.59555,84.14641,15.43359,15.59521L450.7207,348.74121Z"/><path fill="#f1f6f9" d="M310.62012,278.36719l-6.44434-1.827L308.499,274.127a7.50035,7.50035,0,1,0-7.3125-13.09765l-17.41992,9.72485L267.249,266.07129,279.564,254.10742l19.94874.28809c.0371.00049.07421.001.11035.001a7.4999,7.4999,0,0,0,.10644-14.999l-4.95044-.07165,4.804-4.66712a7.50032,7.50032,0,1,0-10.45313-10.75879l-4.80395,4.667.07153-4.95019a7.49981,7.49981,0,0,0-14.99805-.2168l-.28808,19.948-12.92774,12.55933L251.562,237.60571l10.22412-17.133a7.5,7.5,0,1,0-12.88086-7.68653l-2.53686,4.25122-1.63989-6.49438a7.4998,7.4998,0,1,0-14.543,3.67285l1.63965,6.49341-4.251-2.53687a7.50024,7.50024,0,0,0-7.6875,12.88086L237.019,241.27759l4.4126,17.47436-17.34033-4.916-9.72412-17.42041a7.50012,7.50012,0,0,0-13.09766,7.31152l2.41309,4.323-4.80078-1.36109a7.5,7.5,0,1,0-4.0918,14.43116l4.801,1.36108-4.32348,2.41333a7.50036,7.50036,0,1,0,7.3125,13.09766L220,268.26733l18.16089,5.14869-13.54028,13.15429-19.94776-.28808c-.03711-.001-.07422-.001-.11035-.001a7.4999,7.4999,0,0,0-.10645,14.999l4.94947.07154-3.57837,3.47631a7.50067,7.50067,0,0,0,10.45312,10.75977l3.57862-3.47656-.07178,4.94922a7.49917,7.49917,0,0,0,7.39062,7.60742c.03711.001.07325.001.11036.001a7.50026,7.50026,0,0,0,7.49707-7.39161l.28906-19.94775,12.92724-12.55908,4.20337,16.64612-10.22436,17.1322a7.50024,7.50024,0,1,0,12.88086,7.6875l2.53711-4.25159,1.22168,4.83753a7.49968,7.49968,0,0,0,14.543-3.67188l-1.22168-4.83838,4.25195,2.5376a7.50024,7.50024,0,1,0,7.6875-12.88086l-17.1333-10.225-4.41235-17.474,17.34008,4.916,9.7251,17.42066a7.50036,7.50036,0,0,0,13.09766-7.3125l-2.41284-4.32178,6.44311,1.82666a7.50025,7.50025,0,1,0,4.0918-14.43164Z"/><path fill="#fed402" d="M406.81006 154.2a2.80858 2.80858 0 0 0-.8 2.46L408.62012 171.86a2.77805 2.77805 0 0 1-4.03 2.93l-13.65015-7.18a2.81882 2.81882 0 0 0-2.58984 0L374.7 174.79a2.778 2.778 0 0 1-4.03-2.93l1.92017-11.20008.68994-4a2.81 2.81 0 0 0-.8-2.46l-11.05-10.77a2.77718 2.77718 0 0 1 1.54-4.73l15.27-2.22a2.78936 2.78936 0 0 0 2.09009-1.52l6.82983-13.83a2.76506 2.76506 0 0 1 4.97 0l6.12012 12.4.71 1.42993a2.78936 2.78936 0 0 0 2.09009 1.52l15.27 2.22a2.777 2.777 0 0 1 1.53979 4.73zM124.73324 121.128l6.82685 13.83272a2.77645 2.77645 0 0 0 2.09048 1.51883l15.26532 2.21818a2.77644 2.77644 0 0 1 1.53874 4.73575l-11.04609 10.76727a2.77641 2.77641 0 0 0-.79849 2.45751l2.60762 15.20363a2.77643 2.77643 0 0 1-4.02846 2.92685l-13.65372-7.17818a2.77646 2.77646 0 0 0-2.584 0l-13.65371 7.17818a2.77644 2.77644 0 0 1-4.02847-2.92685l2.60763-15.20363a2.77644 2.77644 0 0 0-.79849-2.45751L94.03238 143.43345a2.77644 2.77644 0 0 1 1.53874-4.73575l15.26531-2.21818a2.77645 2.77645 0 0 0 2.09049-1.51883l6.82685-13.83272A2.77645 2.77645 0 0 1 124.73324 121.128z"/><path fill="#fac600" d="M406.81006 154.2a2.80858 2.80858 0 0 0-.8 2.46L408.62012 171.86a2.77805 2.77805 0 0 1-4.03 2.93l-13.65015-7.18a2.81882 2.81882 0 0 0-2.58984 0L374.7 174.79a2.778 2.778 0 0 1-4.03-2.93l1.92017-11.20008A44.78811 44.78811 0 0 0 386.95 151.31006a45.80525 45.80525 0 0 0 11.3-17.78l.71 1.42993a2.78936 2.78936 0 0 0 2.09009 1.52l15.27 2.22a2.777 2.777 0 0 1 1.53979 4.73zM139.7219 154.36285a2.80863 2.80863 0 0 0-.8 2.46l2.61011 15.20007a2.778 2.778 0 0 1-4.03 2.93005l-13.65014-7.18005a2.8189 2.8189 0 0 0-2.58985 0l-13.65014 7.18005a2.778 2.778 0 0 1-4.03-2.93005l1.92016-11.20007A44.78812 44.78812 0 0 0 119.8618 151.473a45.80519 45.80519 0 0 0 11.3-17.78l.71 1.42994a2.78942 2.78942 0 0 0 2.09009 1.52l15.27 2.22a2.77705 2.77705 0 0 1 1.5398 4.73z"/></svg>