<svg xmlns="http://www.w3.org/2000/svg" data-name="Layer 1" viewBox="0 0 512 512"><path fill="#e53950" d="M304.5,269.33984l-48.5,84-9.07007,15.71021L170.17,502a4.99374,4.99374,0,0,1-8.57.14014L133.91,457.53a4.98216,4.98216,0,0,0-4.09-2.36011L77.35,453.5a5.00055,5.00055,0,0,1-4.17-7.5l67.66-117.19995L207.5,213.33984Z"/><path fill="#e53950" d="M434.65,453.5l-52.47009,1.66992a4.982,4.982,0,0,0-4.08984,2.36011L350.4,502.14014A4.99369,4.99369,0,0,1,341.83008,502l-76.76-132.94995L256,353.33984l-48.5-84,97-56,66.65991,115.46021L438.82007,446A5.00064,5.00064,0,0,1,434.65,453.5Z"/><path fill="#fed402" d="M435.02738,178.8673c0,18.2339-22.39841,32.70524-27.74059,49.15822-5.53681,17.05239,3.88592,41.88867-6.4439,56.08251-10.43307,14.33571-37.03514,12.9982-51.37086,23.43127-14.19363,10.32966-21.08448,36.10013-38.13658,41.63693-16.4532,5.34233-37.10128-11.28156-55.33545-11.28156-18.23391,0-38.8817,16.624-55.33468,11.28181-17.05239-5.53681-23.94354-31.30738-38.13738-41.6372-14.33571-10.43308-40.93779-9.09557-51.37085-23.43128-10.32967-14.19363-.90686-39.0297-6.44366-56.0818C99.3711,211.573,76.97262,197.10147,76.97262,178.8673c0-18.23391,22.39841-32.70524,27.74059-49.15823,5.53681-17.05238-3.88592-41.88867,6.4439-56.0825,10.43307-14.33571,37.03515-12.9982,51.37086-23.43127,14.19363-10.32967,21.08448-36.10013,38.13658-41.63693C217.11775,3.216,237.76583,19.83992,256,19.83992c18.2339,0,38.88169-16.624,55.33468-11.2818,17.05239,5.53681,23.94354,31.30738,38.13738,41.6372,14.33571,10.43307,40.93779,9.09557,51.37085,23.43128,10.32967,14.19363.90686,39.0297,6.44366,56.0818C412.6289,146.16159,435.02738,160.63313,435.02738,178.8673Z"/><path fill="#ca2e43" d="M371.15991,328.80005c-7.98,2.2-15.84985,4.49-21.68994,8.74-14.18994,10.33008-21.08,36.1001-38.12988,41.63989-13.78,4.47-30.5-6.46-46.27-10.12988L256,353.33984l-9.07007,15.71021c-15.77,3.66992-32.48993,14.59985-46.26,10.12988C183.61,373.64014,176.72,347.87012,162.53,337.54c-5.84-4.25-13.71-6.54-21.69-8.74L207.5,213.33984l48.5,28,48.5-28Z"/><path fill="#fed402" d="M435.02738,178.8673c0,18.2339-22.39841,32.70524-27.74059,49.15822-5.53681,17.05239,3.88592,41.88867-6.4439,56.08251-10.43307,14.33571-37.03514,12.9982-51.37086,23.43127-14.19363,10.32966-21.08448,36.10013-38.13658,41.63693-16.4532,5.34233-37.10128-11.28156-55.33545-11.28156-18.23391,0-38.8817,16.624-55.33468,11.28181-17.05239-5.53681-23.94354-31.30738-38.13738-41.6372-14.33571-10.43308-40.93779-9.09557-51.37085-23.43128-10.32967-14.19363-.90686-39.0297-6.44366-56.0818C99.3711,211.573,76.97262,197.10147,76.97262,178.8673c0-18.23391,22.39841-32.70524,27.74059-49.15823,5.53681-17.05238-3.88592-41.88867,6.4439-56.0825,10.43307-14.33571,37.03515-12.9982,51.37086-23.43127,14.19363-10.32967,21.08448-36.10013,38.13658-41.63693C217.11775,3.216,237.76583,19.83992,256,19.83992c18.2339,0,38.88169-16.624,55.33468-11.2818,17.05239,5.53681,23.94354,31.30738,38.13738,41.6372,14.33571,10.43307,40.93779,9.09557,51.37085,23.43128,10.32967,14.19363.90686,39.0297,6.44366,56.0818C412.6289,146.16159,435.02738,160.63313,435.02738,178.8673Z"/><path fill="#fac600" d="M132.528,292.53925c-5.80316-4.22333-13.61645-6.51777-21.55346-8.704.06311.08966.11792.18383.18261.2727,5.77466,7.93482,16.50324,11.06763,27.36329,14.05274A36.90871,36.90871,0,0,0,132.528,292.53925Z"/><path fill="#fff" d="M374.9,178.87A118.9,118.9,0,1,1,256,59.97,118.912,118.912,0,0,1,374.9,178.87Z"/><path fill="#d88a55" d="M270.15991,253.47v43.46a119.7713,119.7713,0,0,1-28.31982,0V253.47Z"/><path fill="#46cc8d" d="M195.86,245.647l58.00064-74.1643a2.71536,2.71536,0,0,1,4.27786,0L316.13917,245.647a2.71666,2.71666,0,0,1-1.43748,4.29611,224.91682,224.91682,0,0,1-117.41948-.00418A2.71379,2.71379,0,0,1,195.86,245.647Z"/><path fill="#00c27a" d="M316.13917,245.647l-58.00063-74.16431a2.7154,2.7154,0,0,0-4.27794,0l-6.18763,7.91211L292.73524,237.015a6.33811,6.33811,0,0,1-3.479,10.06592,225.0313,225.0313,0,0,1-52.43116,6.392,224.742,224.742,0,0,1-37.71594-3.053,224.85,224.85,0,0,0,115.58874-.47579A2.71731,2.71731,0,0,0,316.13917,245.647Z"/><path fill="#46cc8d" d="M204.91673,209.28391l49.26537-62.99468a2.3064,2.3064,0,0,1,3.63358,0l49.26537,62.99467a2.30752,2.30752,0,0,1-1.221,3.64909,191.043,191.043,0,0,1-99.73535-.00355A2.30507,2.30507,0,0,1,204.91673,209.28391Z"/><path fill="#00c27a" d="M307.08108,209.28392l-49.26541-62.99461a2.30618,2.30618,0,0,0-3.63354,0l-5.58423,7.14038,35.39719,45.26185a6.53623,6.53623,0,0,1-3.64451,10.3958,191.12536,191.12536,0,0,1-42.73693,5.00079,190.8569,190.8569,0,0,1-33.09424-2.77417,2.27186,2.27186,0,0,0,1.60528,1.61548,191.04474,191.04474,0,0,0,99.75515-.00168A2.30179,2.30179,0,0,0,307.08108,209.28392Z"/><path fill="#46cc8d" d="M216.50547,172.64044l38.08874-48.70335a1.78317,1.78317,0,0,1,2.80925,0l38.08874,48.70334a1.784,1.784,0,0,1-.944,2.82124,147.702,147.702,0,0,1-77.10881-.00275A1.78212,1.78212,0,0,1,216.50547,172.64044Z"/><path fill="#00c27a" d="M295.4922,172.64037,257.40344,123.937a1.78313,1.78313,0,0,0-2.8092,0l-4.458,5.70044,23.17716,29.63626a7.37252,7.37252,0,0,1-4.35838,11.76138,147.47933,147.47933,0,0,1-52.21972,1.31159l-.2298.2937a1.77912,1.77912,0,0,0,.9281,2.817,147.70014,147.70014,0,0,0,77.1297.00017A1.77893,1.77893,0,0,0,295.4922,172.64037Z"/><circle cx="255.999" cy="121.987" r="15.8" fill="#e53950"/><path fill="#ca2e43" d="M262.69409,107.69214A15.77243,15.77243,0,0,1,241.708,128.69238a15.79,15.79,0,1,0,20.98608-21.00024Z"/></svg>