<svg xmlns="http://www.w3.org/2000/svg" data-name="Layer 1" viewBox="0 0 512 512"><path fill="#f1f6f9" d="M256,125.6123a7.50006,7.50006,0,0,1-7.5-7.5V7.5a7.5,7.5,0,0,1,15,0V118.1123A7.50006,7.50006,0,0,1,256,125.6123Z"/><path fill="#46cc8d" d="M226.87348,118.11219h58.253a22.37767,22.37767,0,0,1,22.37767,22.37767v71.60855a0,0,0,0,1,0,0H204.49581a0,0,0,0,1,0,0V140.48986A22.37767,22.37767,0,0,1,226.87348,118.11219Z"/><path fill="#00c27a" d="M285.12653,118.11218h-7.62232v6.57787a27.40834,27.40834,0,0,1-27.40833,27.40834h-45.6v60H307.50421V140.48987A22.37768,22.37768,0,0,0,285.12653,118.11218Z"/><path fill="#e53950" d="M423.09,337.40991a166.6267,166.6267,0,0,1-11.75,61.66016c-1.05,2.6499-2.22,5.3999-3.53,8.25q-1.875,4.06494-3.96,8.00989a167.15149,167.15149,0,0,1-296.07-.72,163.2612,163.2612,0,0,1-7.01-15.26,167.68388,167.68388,0,0,1,.42-124.93006,163.67491,163.67491,0,0,1,7.46-15.84985,167.152,167.152,0,0,1,294.71.00989,164.69149,164.69149,0,0,1,7.45,15.84A166.58682,166.58682,0,0,1,423.09,337.40991Z"/><path fill="#ca2e43" d="M410.81,274.41992a164.69149,164.69149,0,0,0-7.45-15.84,167.281,167.281,0,0,0-117.56818-85.59278A167.78777,167.78777,0,0,1,358.36,243.58a164.69149,164.69149,0,0,1,7.45,15.84,167.20553,167.20553,0,0,1-184.58356,227.4303A167.163,167.163,0,0,0,410.81,274.41992Z"/><path fill="#46cc8d" d="M423.09,337.40991a166.6267,166.6267,0,0,1-11.75,61.66016c-1.05,2.6499-2.22,5.3999-3.53,8.25q-1.875,4.06494-3.96,8.00989a55.70087,55.70087,0,0,0-10.74,5.35C386.2,424.75,378.37,429.37,367.07,429.37c-11.78,0-18.02-4.7201-23.04-8.52-4.21-3.18006-7.25-5.48-13.99-5.48s-9.78,2.29992-13.99,5.48c-5.02,3.79-11.26,8.52-23.04,8.52-11.77,0-18.01-4.73-23.03-8.52-4.21-3.18006-7.25-5.48-13.99-5.48s-9.78,2.29992-13.99,5.48c-5.02,3.79-11.26,8.52-23.03,8.52-11.78,0-18.02-4.73-23.04-8.52-4.21-3.18006-7.25-5.48-13.99-5.48-6.73,0-9.77,2.29992-13.98,5.48-5.02,3.79-11.26,8.52-23.03,8.52-11.47,0-18.74-4.70008-25.15-8.85-4.12-2.67-7.61-4.93-12-5.91a163.2612,163.2612,0,0,1-7.01-15.26,167.68388,167.68388,0,0,1,.42-124.93006,163.67491,163.67491,0,0,1,7.46-15.84985c3.95-1.06006,7.34-3,11.06-5.12012,6.55-3.75,13.97-7.99,25.22-7.99,11.78,0,18.02,4.72,23.04,8.52,4.21,3.17993,7.25,5.48,13.99,5.48s9.78-2.3,13.99-5.48c5.02-3.8,11.26-8.52,23.04-8.52,11.77,0,18.01,4.72,23.03,8.52,4.21,3.17993,7.25,5.48,13.99,5.48s9.78-2.3,13.99-5.48c5.02-3.8,11.26-8.52,23.03-8.52,11.78,0,18.02,4.72,23.04,8.52,4.21,3.17993,7.25,5.48,13.99,5.48,6.73,0,9.77-2.3,13.98-5.48,5.02-3.8,11.26-8.52,23.03-8.52,11.25,0,18.67,4.24,25.21,7.99,3.72,2.13,7.11,4.07007,11.08,5.13a164.69149,164.69149,0,0,1,7.45,15.84A166.58682,166.58682,0,0,1,423.09,337.40991Z"/><path fill="#00c27a" d="M410.81,274.41992a164.69149,164.69149,0,0,0-7.45-15.84c-3.97-1.05994-7.36-3-11.08-5.13-6.54-3.75-13.96-7.99-25.21-7.99a37.19909,37.19909,0,0,0-7.36585.70459c2.21826,4.312,4.26471,8.73169,6.10584,13.25537a166.57,166.57,0,0,1-20.51093,162.38355C350.11725,425.395,356.2583,429.37,367.07,429.37c11.3,0,19.13-4.62,26.04-8.69007a55.70087,55.70087,0,0,1,10.74-5.35q2.98379-5.6457,5.52752-11.5448c.08246-.1908.17572-.38941.2569-.57923q.87955-2.05445,1.70557-4.13586a167.677,167.677,0,0,0-.53-124.65015Z"/><circle cx="159.208" cy="337.413" r="19.358" fill="#f1f6f9"/><circle cx="352.792" cy="337.413" r="19.358" fill="#f1f6f9"/><path fill="#dde8ef" d="M359.81244 319.3877a19.33139 19.33139 0 0 1-24.19592 26.93408 19.35078 19.35078 0 1 0 24.19592-26.93408zM166.22807 319.3877a19.33139 19.33139 0 0 1-24.19593 26.93408 19.35079 19.35079 0 1 0 24.19593-26.93408z"/><path fill="#f1f6f9" d="M91 110.52441a7.50006 7.50006 0 0 1-7.5-7.5V7.5a7.5 7.5 0 0 1 15 0v95.52441A7.50006 7.50006 0 0 1 91 110.52441zM421 110.52441a7.50006 7.50006 0 0 1-7.5-7.5V7.5a7.5 7.5 0 0 1 15 0v95.52441A7.50006 7.50006 0 0 1 421 110.52441zM256.05584 471.323a7.51741 7.51741 0 0 1-7.52433-7.47566 7.43475 7.43475 0 0 1 7.42748-7.47567h.09685a7.47567 7.47567 0 1 1 0 14.95133zM301.05584 471.323a7.51741 7.51741 0 0 1-7.52433-7.47566 7.43475 7.43475 0 0 1 7.42748-7.47567h.09685a7.47567 7.47567 0 1 1 0 14.95133zM211.05584 471.323a7.51741 7.51741 0 0 1-7.52433-7.47566 7.43475 7.43475 0 0 1 7.42748-7.47567h.09685a7.47567 7.47567 0 1 1 0 14.95133zM256.05584 227.04974a7.51741 7.51741 0 0 1-7.52433-7.47566 7.43475 7.43475 0 0 1 7.42748-7.47567h.09685a7.47567 7.47567 0 1 1 0 14.95133zM301.05584 227.04974a7.51741 7.51741 0 0 1-7.52433-7.47566 7.43475 7.43475 0 0 1 7.42748-7.47567h.09685a7.47567 7.47567 0 1 1 0 14.95133zM211.05584 227.04974a7.51741 7.51741 0 0 1-7.52433-7.47566 7.43475 7.43475 0 0 1 7.42748-7.47567h.09685a7.47567 7.47567 0 1 1 0 14.95133z"/><path fill="#fed402" d="M280.85 347.34a4.01425 4.01425 0 0 0-1.15 3.55993l3.77 22.01a4.01894 4.01894 0 0 1-5.83 4.24L257.87 366.75a4.05056 4.05056 0 0 0-3.74 0l-19.77 10.3999a4.01891 4.01891 0 0 1-5.83-4.24l2.22-12.95 1.55-9.06006a4.01405 4.01405 0 0 0-1.15-3.55993l-16-15.59a4.02065 4.02065 0 0 1 2.23-6.86l22.1-3.21008a4.0473 4.0473 0 0 0 3.03-2.2l9.88-20.03a4.027 4.027 0 0 1 7.22 0l9.88 20.03a4.05386 4.05386 0 0 0 2.07 1.92993 3.90076 3.90076 0 0 0 .96.27l22.1 3.21008a4.02066 4.02066 0 0 1 2.23 6.86zM424.60507 90.26521l9.88511 20.02943a4.02023 4.02023 0 0 0 3.027 2.19922l22.10379 3.21187A4.02021 4.02021 0 0 1 461.849 122.563l-15.99446 15.59074a4.02024 4.02024 0 0 0-1.1562 3.55841l3.77578 22.01448a4.02021 4.02021 0 0 1-5.83312 4.238l-19.77023-10.39383a4.02026 4.02026 0 0 0-3.74154 0L399.359 167.96462a4.02021 4.02021 0 0 1-5.83312-4.238l3.77578-22.01448a4.02024 4.02024 0 0 0-1.1562-3.55841L380.151 122.563a4.02021 4.02021 0 0 1 2.22806-6.85725l22.10379-3.21187a4.02023 4.02023 0 0 0 3.027-2.19922l9.88511-20.02943A4.02022 4.02022 0 0 1 424.60507 90.26521zM94.60507 90.26521l9.88511 20.02943a4.02023 4.02023 0 0 0 3.027 2.19922l22.10379 3.21187A4.02021 4.02021 0 0 1 131.849 122.563l-15.99446 15.59074a4.02024 4.02024 0 0 0-1.1562 3.55841l3.77578 22.01448a4.02021 4.02021 0 0 1-5.83312 4.238L92.87077 157.57079a4.02026 4.02026 0 0 0-3.74154 0L69.359 167.96462a4.02021 4.02021 0 0 1-5.83312-4.238l3.77578-22.01448a4.02024 4.02024 0 0 0-1.1562-3.55841L50.151 122.563a4.02021 4.02021 0 0 1 2.22806-6.85725l22.10379-3.21187a4.02023 4.02023 0 0 0 3.027-2.19922l9.88511-20.02943A4.02022 4.02022 0 0 1 94.60507 90.26521z"/><path fill="#fac600" d="M280.85 347.34a4.01425 4.01425 0 0 0-1.15 3.55993l3.77 22.01a4.01894 4.01894 0 0 1-5.83 4.24L257.87 366.75a4.05056 4.05056 0 0 0-3.74 0l-19.77 10.3999a4.01891 4.01891 0 0 1-5.83-4.24l2.22-12.95a71.96125 71.96125 0 0 0 29.2-20.07 70.912 70.912 0 0 0 11.61-18.4801 3.90076 3.90076 0 0 0 .96.27l22.1 3.21008a4.02066 4.02066 0 0 1 2.23 6.86zM446.08105 138.15553a4.01429 4.01429 0 0 0-1.15 3.55994l3.77 22.01a4.019 4.019 0 0 1-5.83 4.24l-19.77-10.39991a4.0506 4.0506 0 0 0-3.74 0l-19.77 10.39991a4.01891 4.01891 0 0 1-5.82995-4.24l2.22-12.95a71.96138 71.96138 0 0 0 29.2-20.06994 70.912 70.912 0 0 0 11.61-18.4801 3.90082 3.90082 0 0 0 .96.27l22.1 3.21009a4.02065 4.02065 0 0 1 2.23 6.86zM116.08105 138.15553a4.01429 4.01429 0 0 0-1.15 3.55994l3.77 22.01a4.019 4.019 0 0 1-5.83 4.24l-19.77-10.39991a4.0506 4.0506 0 0 0-3.74 0l-19.77 10.39991a4.01891 4.01891 0 0 1-5.82995-4.24l2.22-12.95a71.96138 71.96138 0 0 0 29.2-20.06994 70.912 70.912 0 0 0 11.61-18.4801 3.90082 3.90082 0 0 0 .96.27l22.1 3.21009a4.02065 4.02065 0 0 1 2.23 6.86z"/></svg>