<svg xmlns="http://www.w3.org/2000/svg" data-name="Layer 1" viewBox="0 0 512 512"><path fill="#b5adb6" d="M102.55566 316.6333a7.49975 7.49975 0 0 1-7.5-7.5V274.82666a7.5 7.5 0 0 1 15 0V309.1333A7.49974 7.49974 0 0 1 102.55566 316.6333zM409.23926 316.6333a7.49974 7.49974 0 0 1-7.5-7.5V274.82666a7.5 7.5 0 0 1 15 0V309.1333A7.49974 7.49974 0 0 1 409.23926 316.6333z"/><ellipse cx="256" cy="159.456" fill="#e53950" rx="30" ry="47.956"/><path fill="#b5adb6" d="M256,91a7.49974,7.49974,0,0,1-7.5-7.5V37.7666a7.5,7.5,0,1,1,15,0V83.5A7.49974,7.49974,0,0,1,256,91Z"/><path fill="#e53950" d="M256 263.5a7.49974 7.49974 0 0 1-7.5-7.5V237.41162a7.5 7.5 0 1 1 15 0V256A7.49974 7.49974 0 0 1 256 263.5zM210.99512 263.50049a7.50088 7.50088 0 0 1-5.832-12.21045l15-18.58838a7.50022 7.50022 0 0 1 11.67382 9.41992l-15 18.58838A7.48732 7.48732 0 0 1 210.99512 263.50049zM301.00488 263.50049a7.48732 7.48732 0 0 1-5.84179-2.79053l-15-18.58838a7.50022 7.50022 0 0 1 11.67382-9.41992l15 18.58838a7.50088 7.50088 0 0 1-5.832 12.21045z"/><ellipse cx="102.556" cy="136.589" fill="#26a6fe" rx="30" ry="47.956"/><path fill="#b5adb6" d="M102.55566,68.1333a7.49975,7.49975,0,0,1-7.5-7.5V26.32666a7.5,7.5,0,1,1,15,0V60.6333A7.49974,7.49974,0,0,1,102.55566,68.1333Z"/><path fill="#26a6fe" d="M102.55566 239.54785a7.49975 7.49975 0 0 1-7.5-7.5V213.45947a7.5 7.5 0 0 1 15 0v18.58838A7.49974 7.49974 0 0 1 102.55566 239.54785zM57.55078 239.54834a7.50088 7.50088 0 0 1-5.832-12.21045l15-18.58838a7.50022 7.50022 0 0 1 11.67383 9.41992l-15 18.58838A7.48734 7.48734 0 0 1 57.55078 239.54834zM147.56055 239.54834a7.48732 7.48732 0 0 1-5.8418-2.79053l-15-18.58838a7.50022 7.50022 0 0 1 11.67383-9.41992l15 18.58838a7.50089 7.50089 0 0 1-5.832 12.21045z"/><ellipse cx="409.239" cy="136.589" fill="#fed402" rx="30" ry="47.956"/><path fill="#b5adb6" d="M409.23926,68.1333a7.49974,7.49974,0,0,1-7.5-7.5V26.32666a7.5,7.5,0,0,1,15,0V60.6333A7.49974,7.49974,0,0,1,409.23926,68.1333Z"/><path fill="#fed402" d="M409.23926 239.54785a7.49974 7.49974 0 0 1-7.5-7.5V213.45947a7.5 7.5 0 0 1 15 0v18.58838A7.49974 7.49974 0 0 1 409.23926 239.54785zM364.23438 239.54834a7.50089 7.50089 0 0 1-5.832-12.21045l15-18.58838a7.50022 7.50022 0 0 1 11.67383 9.41992l-15 18.58838A7.48732 7.48732 0 0 1 364.23438 239.54834zM454.24414 239.54834a7.48735 7.48735 0 0 1-5.8418-2.79053l-15-18.58838a7.50022 7.50022 0 0 1 11.67383-9.41992l15 18.58838a7.50088 7.50088 0 0 1-5.832 12.21045z"/><path fill="#b5adb6" d="M256,339.5a7.49974,7.49974,0,0,1-7.5-7.5V286.2666a7.5,7.5,0,1,1,15,0V332A7.49974,7.49974,0,0,1,256,339.5Z"/><path fill="#685e68" d="M255.86133,293.76611q-13.78565,0-27.55469-.36523A1045.494,1045.494,0,0,1,5.70117,263.28125a7.50016,7.50016,0,0,1,3.59766-14.5625,1030.44243,1030.44243,0,0,0,219.40625,29.687,1030.19231,1030.19231,0,0,0,273.999-29.6875,7.49993,7.49993,0,1,1,3.5918,14.56348A1045.85723,1045.85723,0,0,1,255.86133,293.76611Z"/><ellipse cx="256" cy="407.956" fill="#e53950" rx="30" ry="47.956"/><path fill="#ca2e43" d="M263.68555,361.595C268.23877,370.00409,271,380.96112,271,392.95581c0,26.48529-13.43164,47.95587-30,47.95587a19.64053,19.64053,0,0,1-7.68555-1.595c5.501,10.15894,13.62061,16.595,22.68555,16.595,16.56836,0,30-21.47058,30-47.95587C286,385.71808,276.52979,367.02185,263.68555,361.595Z"/><path fill="#685e68" d="M278.96033,375H233.03967a5,5,0,0,1-4.721-6.64686l11.51163-33A5,5,0,0,1,244.5513,332h22.8974a5,5,0,0,1,4.721,3.35314l11.51163,33A5,5,0,0,1,278.96033,375Z"/><path fill="#554e56" d="M283.68127,368.35347l-11.51135-33.00032A4.99993,4.99993,0,0,0,267.449,332h-9.75365l4.26674,12.2309a15,15,0,0,1-14.16295,19.94073H229.77734l-1.45865,4.182A4.99979,4.99979,0,0,0,233.03955,375h45.9209A4.99979,4.99979,0,0,0,283.68127,368.35347Z"/><path fill="#e53950" d="M256 512a7.49974 7.49974 0 0 1-7.5-7.5V485.91162a7.5 7.5 0 0 1 15 0V504.5A7.49974 7.49974 0 0 1 256 512zM210.99512 512.00049a7.50088 7.50088 0 0 1-5.832-12.21045l15-18.58838a7.50022 7.50022 0 0 1 11.67382 9.41992l-15 18.58838A7.48732 7.48732 0 0 1 210.99512 512.00049zM301.00488 512.00049a7.48732 7.48732 0 0 1-5.84179-2.79053l-15-18.58838a7.50022 7.50022 0 0 1 11.67382-9.41992l15 18.58838a7.50088 7.50088 0 0 1-5.832 12.21045z"/><ellipse cx="102.556" cy="385.089" fill="#26a6fe" rx="30" ry="47.956"/><path fill="#0593fc" d="M110.2417,338.72821c4.55322,8.40906,7.31445,19.36615,7.31445,31.36084,0,26.48529-13.43164,47.95581-30,47.95581a19.64049,19.64049,0,0,1-7.68554-1.595c5.501,10.15893,13.6206,16.595,22.68554,16.595,16.56836,0,30-21.47052,30-47.95581C132.55615,362.85132,123.08594,344.15509,110.2417,338.72821Z"/><path fill="#685e68" d="M125.51647,352.13321H79.59581a5,5,0,0,1-4.721-6.64686l11.51163-33a5,5,0,0,1,4.721-3.35314h22.8974a5,5,0,0,1,4.721,3.35314l11.51163,33A5,5,0,0,1,125.51647,352.13321Z"/><path fill="#26a6fe" d="M102.55566 488.04785a7.49975 7.49975 0 0 1-7.5-7.5V461.95947a7.5 7.5 0 0 1 15 0v18.58838A7.49974 7.49974 0 0 1 102.55566 488.04785zM57.55078 488.04834a7.50088 7.50088 0 0 1-5.832-12.21045l15-18.58838a7.50022 7.50022 0 0 1 11.67383 9.41992l-15 18.58838A7.48734 7.48734 0 0 1 57.55078 488.04834zM147.56055 488.04834a7.48732 7.48732 0 0 1-5.8418-2.79053l-15-18.58838a7.50022 7.50022 0 0 1 11.67383-9.41992l15 18.58838a7.50089 7.50089 0 0 1-5.832 12.21045z"/><ellipse cx="409.239" cy="385.089" fill="#fed402" rx="30" ry="47.956"/><path fill="#fac600" d="M416.9248,338.72821c4.55323,8.40906,7.31446,19.36615,7.31446,31.36084,0,26.48529-13.43164,47.95581-30,47.95581a19.6405,19.6405,0,0,1-7.68555-1.595c5.501,10.15893,13.62061,16.595,22.68555,16.595,16.56836,0,30-21.47052,30-47.95581C439.23926,362.85132,429.76855,344.15509,416.9248,338.72821Z"/><path fill="#ca2e43" d="M263.68555,113.86682C268.23877,122.27588,271,133.23291,271,145.2276c0,26.48529-13.43164,47.95587-30,47.95587a19.64053,19.64053,0,0,1-7.68555-1.595c5.501,10.15894,13.62061,16.595,22.68555,16.595,16.56836,0,30-21.47058,30-47.95587C286,137.98987,276.52979,119.29364,263.68555,113.86682Z"/><path fill="#0593fc" d="M110.2417,91c4.55322,8.40906,7.31445,19.36615,7.31445,31.36084,0,26.48529-13.43164,47.95581-30,47.95581a19.64049,19.64049,0,0,1-7.68554-1.595c5.501,10.15893,13.6206,16.595,22.68554,16.595,16.56836,0,30-21.47052,30-47.95581C132.55615,115.12311,123.08594,96.42688,110.2417,91Z"/><path fill="#fac600" d="M416.9248,91c4.55323,8.40906,7.31446,19.36615,7.31446,31.36084,0,26.48529-13.43164,47.95581-30,47.95581a19.6405,19.6405,0,0,1-7.68555-1.595c5.501,10.15893,13.62061,16.595,22.68555,16.595,16.56836,0,30-21.47052,30-47.95581C439.23926,115.12311,429.76855,96.42688,416.9248,91Z"/><path fill="#685e68" d="M432.1995,352.13321H386.27885a5,5,0,0,1-4.721-6.64686l11.51162-33a5,5,0,0,1,4.721-3.35314h22.8974a5,5,0,0,1,4.721,3.35314l11.51163,33A5,5,0,0,1,432.1995,352.13321Z"/><path fill="#fed402" d="M409.23926 488.04785a7.49974 7.49974 0 0 1-7.5-7.5V461.95947a7.5 7.5 0 0 1 15 0v18.58838A7.49974 7.49974 0 0 1 409.23926 488.04785zM364.23438 488.04834a7.50089 7.50089 0 0 1-5.832-12.21045l15-18.58838a7.50022 7.50022 0 0 1 11.67383 9.41992l-15 18.58838A7.48732 7.48732 0 0 1 364.23438 488.04834zM454.24414 488.04834a7.48735 7.48735 0 0 1-5.8418-2.79053l-15-18.58838a7.50022 7.50022 0 0 1 11.67383-9.41992l15 18.58838a7.50088 7.50088 0 0 1-5.832 12.21045z"/><path fill="#554e56" d="M436.92044 345.48669L425.4091 312.48636a5 5 0 0 0-4.721-3.35315h-9.75364l4.26673 12.2309a15 15 0 0 1-14.16295 19.94073H383.01652l-1.45866 4.182a4.99979 4.99979 0 0 0 4.72086 6.6464h45.9209A4.99978 4.99978 0 0 0 436.92044 345.48669zM130.23742 345.48669l-11.51135-33.00033a4.99993 4.99993 0 0 0-4.721-3.35315h-9.75365l4.26674 12.2309a15 15 0 0 1-14.16295 19.94073H76.3335l-1.45866 4.182a4.99978 4.99978 0 0 0 4.72086 6.6464h45.9209A4.99979 4.99979 0 0 0 130.23742 345.48669z"/><path fill="#685e68" d="M278.96033 126.5H233.03967a5 5 0 0 1-4.721-6.64686l11.51163-33A5 5 0 0 1 244.5513 83.5h22.8974a5 5 0 0 1 4.721 3.35314l11.51163 33A5 5 0 0 1 278.96033 126.5zM125.51647 103.63321H79.59581a5 5 0 0 1-4.721-6.64686l11.51163-33a5 5 0 0 1 4.721-3.35314h22.8974a5 5 0 0 1 4.721 3.35314l11.51163 33A5 5 0 0 1 125.51647 103.63321zM432.1995 103.63321H386.27885a5 5 0 0 1-4.721-6.64686l11.51162-33a5 5 0 0 1 4.721-3.35314h22.8974a5 5 0 0 1 4.721 3.35314l11.51163 33A5 5 0 0 1 432.1995 103.63321zM255.86133 45.26611q-13.78565 0-27.55469-.36523A1045.494 1045.494 0 0 1 5.70117 14.78125 7.50016 7.50016 0 0 1 9.29883.21875a1030.44243 1030.44243 0 0 0 219.40625 29.687A1030.09159 1030.09159 0 0 0 502.7041.21826a7.49993 7.49993 0 1 1 3.5918 14.56348A1045.85723 1045.85723 0 0 1 255.86133 45.26611z"/><path fill="#554e56" d="M283.68127 119.85356L272.16992 86.85324a4.99993 4.99993 0 0 0-4.721-3.35315h-9.75365L261.962 95.731a15 15 0 0 1-14.16295 19.94073H229.77734l-1.45865 4.182a4.99979 4.99979 0 0 0 4.72086 6.6464h45.9209A4.99979 4.99979 0 0 0 283.68127 119.85356zM436.92044 96.98678L425.4091 63.98645a5 5 0 0 0-4.721-3.35315h-9.75364l4.26673 12.2309a15 15 0 0 1-14.16295 19.94073H383.01652l-1.45866 4.182a4.99979 4.99979 0 0 0 4.72086 6.6464h45.9209A4.99979 4.99979 0 0 0 436.92044 96.98678zM130.23742 96.98678L118.72607 63.98645a4.99993 4.99993 0 0 0-4.721-3.35315h-9.75365l4.26674 12.2309A15 15 0 0 1 94.35525 92.80493H76.3335l-1.45866 4.182a4.99978 4.99978 0 0 0 4.72086 6.6464h45.9209A4.99979 4.99979 0 0 0 130.23742 96.98678z"/></svg>