<svg xmlns="http://www.w3.org/2000/svg" data-name="Layer 1" viewBox="0 0 512 512"><rect width="251.08" height="437" x="136.96" y="67.5" fill="#fff" rx="30"/><path fill="#433f43" d="M324.04338 67.5L303.023 92.02374A30 30 0 0 1 280.24533 102.5H244.75467A30 30 0 0 1 221.977 92.02374L200.95662 67.5M343.04346 467H181.95654a7.5 7.5 0 0 1 0-15H343.04346a7.5 7.5 0 0 1 0 15z"/><path fill="#eaf6ff" d="M388.04 168.5v55H351.88l-19.97 19.97a1.9916 1.9916 0 0 1-2.81994 0L309.12 223.5H300.5a6.00472 6.00472 0 0 1-6-6v-43a6.00472 6.00472 0 0 1 6-6zM217.5 279.5v43a6.00472 6.00472 0 0 1-6 6h-8.62l-19.97 19.97a1.9916 1.9916 0 0 1-2.81994 0L160.12 328.5H136.96v-55H211.5A6.00472 6.00472 0 0 1 217.5 279.5zM388.04 348.5v55H351.88l-19.97 19.97a1.9916 1.9916 0 0 1-2.81994 0L309.12 403.5H300.5a6.00472 6.00472 0 0 1-6-6v-43a6.00472 6.00472 0 0 1 6-6z"/><path fill="#433f43" d="M358.04346,512H166.95654a37.54227,37.54227,0,0,1-37.5-37.5V97.5a37.54227,37.54227,0,0,1,37.5-37.5H358.04346a37.54227,37.54227,0,0,1,37.5,37.5v377A37.54227,37.54227,0,0,1,358.04346,512ZM166.95654,75a22.52554,22.52554,0,0,0-22.5,22.5v377a22.52554,22.52554,0,0,0,22.5,22.5H358.04346a22.52554,22.52554,0,0,0,22.5-22.5V97.5a22.52554,22.52554,0,0,0-22.5-22.5Z"/><path fill="#fed402" d="M300.5,333.5h198a6,6,0,0,1,6,6v43a6,6,0,0,1-6,6H351.88477l-19.97056,19.97055a2,2,0,0,1-2.82842,0L309.11523,388.5H300.5a6,6,0,0,1-6-6v-43A6,6,0,0,1,300.5,333.5Z"/><rect width="124.759" height="34.395" x="104.008" y="66.607" fill="#f1f6f9" rx="6.879" transform="rotate(139.75 166.388 83.805)"/><path fill="#dde8ef" d="M220.6651,51.37549l-13.334-15.75095a6.87908,6.87908,0,0,0-9.695-.80569l-3.48761,2.95239,3.41812,7.43525a22.98615,22.98615,0,0,1-6.03311,27.145l-67.90662,57.48664,1.81738,2.14673a6.87918,6.87918,0,0,0,9.695.80567l84.72022-71.72022A6.87878,6.87878,0,0,0,220.6651,51.37549Z"/><path fill="#e53950" d="M112.91581,106.53886l84.72017-71.72c-5.7492-4.72856-42.455-33.90355-93.25851-25.95432C62.53382,15.41172,38.25931,42.8977,32.18611,50.2119c25.289-14.05126,55.13562-9.276,70.87418,9.18323C119.19065,78.31392,113.62655,103.54274,112.91581,106.53886Z"/><path fill="#ca2e43" d="M39.33478 42.39209c-3.34876 3.345-5.7428 6.12671-7.14868 7.81982a65.22712 65.22712 0 0 1 15.75128-6.24536A56.97878 56.97878 0 0 0 39.33478 42.39209zM197.636 34.81885c-5.65363-4.6499-41.2536-32.91406-90.74732-26.29395A124.21357 124.21357 0 0 1 151.812 24.01152a13.78761 13.78761 0 0 1 2.03235 22.48258q-20.29354 17.17947-40.587 34.35893a63.54114 63.54114 0 0 1-.34149 25.68579Q155.27591 70.67871 197.636 34.81885z"/><circle cx="32.609" cy="49.17" r="18.609" fill="#f1f6f9"/><path fill="#dde8ef" d="M46.8125,37.14673A18.61715,18.61715,0,0,0,25.34442,32.033a18.60557,18.60557,0,0,1,3.373,35.31616A18.59347,18.59347,0,0,0,46.8125,37.14673Z"/><path fill="#46cc8d" d="M211.5,258.5H13.5a6,6,0,0,0-6,6v43a6,6,0,0,0,6,6H160.11523l19.97056,19.97055a2,2,0,0,0,2.82842,0L202.88477,313.5H211.5a6,6,0,0,0,6-6v-43A6,6,0,0,0,211.5,258.5Z"/><path fill="#fed402" d="M300.5,153.5h198a6,6,0,0,1,6,6v43a6,6,0,0,1-6,6H351.88477l-19.97056,19.97055a2,2,0,0,1-2.82842,0L309.11523,208.5H300.5a6,6,0,0,1-6-6v-43A6,6,0,0,1,300.5,153.5Z"/></svg>