<svg xmlns="http://www.w3.org/2000/svg" data-name="Layer 1" viewBox="0 0 512 512"><path fill="#e53950" d="M437.71,109.31006l-10.03,49.63989L350.73,126.72a4.00258,4.00258,0,0,0-5.52,3.17017,4.39694,4.39694,0,0,0-.03.51977V282.08984H166.82007V130.40991a3.99954,3.99954,0,0,0-5.55-3.68994L84.32007,158.95,74.29,109.31006l134.28-67.41016L256,35.21l47.42993,6.68994Z"/><path fill="#ca2e43" d="M345.21,129.89014a4.39694,4.39694,0,0,0-.03.51977v108.76l-27.983.04V156.576a26.71727,26.71727,0,0,1,28.01295-26.68584Z"/><path fill="#e53950" d="M121.81641,130.40649a3.9998,3.9998,0,0,0-5.54541-3.6892L80.80908,141.57275l3.51245,17.37989,37.49488-15.70728Z"/><path fill="#ca2e43" d="M303.42847,41.89917,256,35.21045l-22.5,3.17309,24.92847,3.51563L370.33415,98.07449A32.76734,32.76734,0,0,1,387.75163,133.85l-1.56071,7.7228,41.48755,17.37989,10.033-49.645Z"/><rect width="86" height="44" x="37.658" y="108.335" fill="#f1f6f9" rx="9" transform="rotate(-107.499 80.658 130.335)"/><rect width="86" height="44" x="384.809" y="109.013" fill="#f1f6f9" rx="9" transform="rotate(-72.501 427.81 131.013)"/><path fill="#dde8ef" d="M453.13733,93.91231l-9.3617-2.95162-17.00171,53.92562a19.66238,19.66238,0,0,1-24.6649,12.8401l-5.26576-1.66025-.23926.75855a8.99892,8.99892,0,0,0,5.87618,11.28939l24.7979,7.81852a9,9,0,0,0,11.28973-5.87726l20.44684-64.85321A9.00014,9.00014,0,0,0,453.13733,93.91231Z"/><rect width="44" height="192" x="234" y="60.5" fill="#f1f6f9"/><polygon fill="#685e68" points="345.184 171.218 345.184 200.847 166.816 201.218 166.816 171.588 345.184 171.218"/><polygon fill="#554e56" points="345.184 171.218 345.184 200.847 317.197 201.218 317.197 171.588 345.184 171.218"/><path fill="#ca2e43" d="M270.37913,71.18363h0a50.49988,50.49988,0,0,1-28.75816,0h-.00005c-2.60329-.77326-5.10719,13.25674-7.49743,12.10913A50.50717,50.50717,0,0,1,205.5,37.77405v0a8.46927,8.46927,0,0,1,6.05777-8.11869l4.57939-1.36022a140.0001,140.0001,0,0,1,79.72568,0l4.57939,1.36022A8.46927,8.46927,0,0,1,306.5,37.774v0a50.5074,50.5074,0,0,1-28.41692,45.419C275.63066,84.38426,273.0575,70.38807,270.37913,71.18363Z"/><path fill="#dde8ef" d="M234,83.2312a50.5913,50.5913,0,0,0,7.62085,2.95239h0a50.5014,50.5014,0,0,0,28.7583,0h0A50.5913,50.5913,0,0,0,278,83.2312V60.5H234Z"/><path fill="#f1f6f9" d="M270.37913,71.18363h0a50.49988,50.49988,0,0,1-28.75816,0h-.00005A50.5,50.5,0,0,1,205.5,22.77405v0a8.46927,8.46927,0,0,1,6.05777-8.11869l4.57939-1.36022a140.0001,140.0001,0,0,1,79.72568,0l4.57939,1.36022A8.46927,8.46927,0,0,1,306.5,22.774v0A50.5,50.5,0,0,1,270.37913,71.18363Z"/><path fill="#e53950" d="M345,466.82533H301.5L262.67005,351.61557a7,7,0,0,0-13.27416.0221L211,466.82533H167v-197H345Z"/><path fill="#ca2e43" d="M315,269.8252V413.21413a23.61107,23.61107,0,0,1-23.61106,23.61107h0l10.11108,30H345v-197Z"/><path fill="#f1f6f9" d="M360.5,248.16354V274.5a9,9,0,0,1-8.98406,9l-190,.33641a9,9,0,0,1-9.01594-9V248.5a9,9,0,0,1,8.98406-9l190-.33641A9,9,0,0,1,360.5,248.16354Z"/><path fill="#dde8ef" d="M351.48413,239.16357l-5.98413.0105v9.3454a20,20,0,0,1-19.9646,20L152.5,268.82568v6.01075a9,9,0,0,0,9.016,9l190-.33643a9,9,0,0,0,8.98408-9V248.16364A9.00008,9.00008,0,0,0,351.48413,239.16357Z"/><rect width="71" height="44" x="154.5" y="460.5" fill="#f1f6f9" rx="9"/><rect width="71" height="44" x="287.5" y="460.5" fill="#f1f6f9" rx="9"/><path fill="#dde8ef" d="M349.5 460.5h-6v7.73329A21.26671 21.26671 0 0 1 322.23329 489.5H287.5v6a9 9 0 0 0 9 9h53a9 9 0 0 0 9-9v-26A9 9 0 0 0 349.5 460.5zM216.5 460.5h-6v7.73329A21.26671 21.26671 0 0 1 189.23329 489.5H154.5v6a9 9 0 0 0 9 9h53a9 9 0 0 0 9-9v-26A9 9 0 0 0 216.5 460.5z"/><rect width="100.564" height="27.725" x="7.5" y="287.395" fill="#f1f6f9" rx="5.545"/><path fill="#dde8ef" d="M102.51855,287.39478H94.3667v6.78748a11.80138,11.80138,0,0,1-11.80139,11.80138H7.5v3.59082a5.54492,5.54492,0,0,0,5.54492,5.54492h89.47363a5.54492,5.54492,0,0,0,5.54493-5.54492V292.9397A5.54492,5.54492,0,0,0,102.51855,287.39478Z"/><path fill="#e53950" d="M102.51862,287.39471H13.045c1.0743-5.90332,8.46155-42.96895,43.85666-64.53753,29.15269-17.76468,58.40171-13.49735,65.94734-12.16053-22.87618,4.52623-38.75126,23.0085-38.82008,42.5617C83.95839,273.29833,100.521,285.92161,102.51862,287.39471Z"/><path fill="#ca2e43" d="M84.02881,253.2583c.06885-19.55322,15.94385-38.0354,38.82031-42.56152a97.3285,97.3285,0,0,0-24.09619-1.13867,91.58672,91.58672,0,0,1,9.09619,1.13867c-22.87646,4.52612-38.75146,23.0083-38.82031,42.56152-.07031,20.04,16.49219,32.66333,18.48974,34.13648h15C100.521,285.92163,83.9585,273.29834,84.02881,253.2583Z"/><circle cx="122.046" cy="210.276" r="15" fill="#f1f6f9"/><path fill="#dde8ef" d="M129.67627,197.37842a14.97288,14.97288,0,0,1-22.11548,16.7373,14.99116,14.99116,0,1,0,22.11548-16.7373Z"/></svg>