<svg xmlns="http://www.w3.org/2000/svg" data-name="Layer 1" viewBox="0 0 512 512"><circle cx="256" cy="228.489" r="220.989" fill="#c4e2ff"/><path fill="#eaf6ff" d="M84.01367 152.959A7.50263 7.50263 0 0 1 77.27051 142.186 199.739 199.739 0 0 1 196.71 39.043a7.49987 7.49987 0 0 1 4.48828 14.3125A184.68142 184.68142 0 0 0 90.76855 148.729 7.501 7.501 0 0 1 84.01367 152.959zM67.25488 206.749a7.50605 7.50605 0 0 1-7.42187-8.645c.93457-6.05761 2.166-12.13427 3.65722-18.06152a7.50038 7.50038 0 0 1 14.54688 3.66211c-1.37891 5.47559-2.51563 11.08984-3.37988 16.6875A7.50165 7.50165 0 0 1 67.25488 206.749z"/><circle cx="289.322" cy="76.777" r="7.5" fill="#fef6ad"/><circle cx="409.649" cy="290.874" r="7.5" fill="#fef6ad"/><circle cx="371.94" cy="216.248" r="7.5" fill="#f07281"/><circle cx="424.649" cy="182.958" r="7.5" fill="#fef6ad"/><circle cx="159.589" cy="115.99" r="7.5" fill="#f07281"/><circle cx="179.409" cy="178.871" r="7.5" fill="#fef6ad"/><circle cx="110.872" cy="302.75" r="7.5" fill="#f07281"/><rect width="35.846" height="63.352" x="238.077" y="314.538" fill="#e8ad8c"/><polygon fill="#e19974" points="238.077 319.936 238.077 314.538 273.923 314.538 273.923 356.734 238.077 319.936"/><path fill="#91deb6" d="M179.87234,304.62977l73.42045-93.88133a3.43725,3.43725,0,0,1,5.41515,0l73.42044,93.88131a3.43889,3.43889,0,0,1-1.81965,5.43825,284.71238,284.71238,0,0,1-148.63613-.00528A3.43526,3.43526,0,0,1,179.87234,304.62977Z"/><path fill="#6ed5a1" d="M332.12843,304.62975,258.708,210.74842a3.43734,3.43734,0,0,0-5.41529,0l-8.08569,10.339,53.93275,68.96246a8.32609,8.32609,0,0,1-4.5892,13.2253,284.84777,284.84777,0,0,1-65.897,7.97667,284.46428,284.46428,0,0,1-49.49292-4.16382,3.41523,3.41523,0,0,0,2.512,2.97473,284.71434,284.71434,0,0,0,148.64882.00177A3.4349,3.4349,0,0,0,332.12843,304.62975Z"/><path fill="#91deb6" d="M191.3368,258.59936l62.36286-79.74219a2.91958,2.91958,0,0,1,4.59959,0l62.36285,79.74218a2.921,2.921,0,0,1-1.5456,4.61921,241.833,241.833,0,0,1-126.25057-.00448A2.91789,2.91789,0,0,1,191.3368,258.59936Z"/><path fill="#6ed5a1" d="M320.66211,258.59937l-62.36279-79.74219a2.91958,2.91958,0,0,0-4.59961,0l-8.19019,10.47265L287.381,242.87021a8.94927,8.94927,0,0,1-5.091,14.23656,241.93526,241.93526,0,0,1-52.98069,6.07219,241.60711,241.60711,0,0,1-38.5691-2.96253,2.89617,2.89617,0,0,0,2.12574,2.99768,241.8307,241.8307,0,0,0,126.25049.0044A2.92085,2.92085,0,0,0,320.66211,258.59937Z"/><path fill="#91deb6" d="M206.00647,212.214l48.21486-61.65141a2.25721,2.25721,0,0,1,3.5561,0l48.21486,61.6514a2.25832,2.25832,0,0,1-1.195,3.57128,186.96946,186.96946,0,0,1-97.60865-.00347A2.25593,2.25593,0,0,1,206.00647,212.214Z"/><path fill="#6ed5a1" d="M305.9922,212.214l-48.21488-61.65151a2.25722,2.25722,0,0,0-3.55613,0l-8.19067,10.47363,26.5435,33.94074a9.56459,9.56459,0,0,1-5.57669,15.26786,186.89683,186.89683,0,0,1-61.16237,2.257,2.24412,2.24412,0,0,0,1.35376,3.28,186.9666,186.9666,0,0,0,97.62789-.00168A2.25267,2.25267,0,0,0,305.9922,212.214Z"/><circle cx="255.999" cy="148.095" r="20" fill="#f07281"/><path fill="#eb5569" d="M262.02344,129.02179a19.99947,19.99947,0,0,1-22.51709,30.37726,19.99819,19.99819,0,1,0,22.51709-30.37726Z"/><path fill="#f1f6f9" d="M95.99536,380.918a220.98821,220.98821,0,0,0,320.00928,0,1101.79162,1101.79162,0,0,0-320.00928,0Z"/><path fill="#7a6d79" d="M440,504.5H72l26.58114-79.74342A15,15,0,0,1,112.81139,414.5H399.18861a15,15,0,0,1,14.23025,10.25658Z"/><path fill="#685e68" d="M413.419,424.7568A15.0003,15.0003,0,0,0,399.18848,414.5H375l5.96024,17.88071A32,32,0,0,1,350.60237,474.5H82l-10,30H440Z"/><path fill="#7a6d79" d="M504.5,512H7.5a7.5,7.5,0,0,1,0-15h497a7.5,7.5,0,0,1,0,15Z"/><rect width="198" height="30" x="157" y="444.5" fill="#cbc4cc" rx="6"/><path fill="#eaf6ff" d="M390.30023 131.12854h0A57.30771 57.30771 0 0 0 355 166.42874v0a57.30771 57.30771 0 0 0-35.30019-35.30019h0A57.30775 57.30775 0 0 0 355 95.82833v0a57.30775 57.30775 0 0 0 35.30019 35.3002zM159.07806 236.57289h0a44.06694 44.06694 0 0 0-27.1442 27.14419v0a44.06693 44.06693 0 0 0-27.14419-27.14419h0a44.067 44.067 0 0 0 27.14419-27.14419v0a44.067 44.067 0 0 0 27.1442 27.14419z"/></svg>