<svg xmlns="http://www.w3.org/2000/svg" data-name="Layer 1" viewBox="0 0 512 512"><path fill="#e53950" d="M256,7.5C118.75732,7.5,7.5,118.75732,7.5,256S118.75732,504.5,256,504.5,504.5,393.24268,504.5,256,393.24268,7.5,256,7.5Zm0,379.95142A131.45142,131.45142,0,1,1,387.45142,256,131.4514,131.4514,0,0,1,256,387.45142Z"/><path fill="#fff" d="M68.71 238.83984l-.76855 14.90528L88.23828 254.792c2.39746.124 3.44531 3.10645 3.29492 6.02637-.15136 2.92187-1.5 5.78125-3.89648 5.65723L40.001 264.01953c-2.47266-.12695-3.36914-3.10254-3.21875-6.02344s1.34961-5.78906 3.82129-5.66113l18.3496.94629.76856-14.9043-18.34961-.94629c-2.47168-.12793-3.37012-3.10254-3.21875-6.02441.15039-2.91992 1.34961-5.78711 3.82129-5.66016l47.63574 2.457c2.39649.123 3.44434 3.10645 3.294 6.02637-.15137 2.92188-1.5 5.78125-3.89746 5.65723zM88.2666 225.67578a3.77657 3.77657 0 0 1-.73633-.40234L48.47754 197.65039c-2.23145-1.6084-2.38184-5.21289-1.29785-8.48926 1.085-3.27441 3.35644-6.07812 6.10742-6.03613l47.84375 1.06348a3.90974 3.90974 0 0 1 .83008.11621c2.63574.873 3.21386 5.56738 2.20019 8.62988-.58886 1.78027-1.62988 3.01465-3.2666 2.94727l-9.70215-.52442-4.97461 15.02442 8.09961 5.36621c1.3545.92285 1.45215 2.53515.86328 4.3164C94.167 223.125 90.90039 226.54785 88.2666 225.67578zm-6.39648-30.79785l-20.80469-1.12012 17.3623 11.51563zM63.71191 157.61523c-1.59472-.98437-2.09277-3.31835-.71289-5.55273l8.15625-13.21094c5.20215-8.42383 13.25782-12.61816 23.97852-5.99707l.31933.19727c10.72168 6.62012 10.54981 16.03515 5.11231 24.84082l-3.90137 6.31933 13.78418 8.51075c2.043 1.26172 1.52735 4.38086-.00976 6.86914-1.53711 2.49023-4.09571 4.34765-6.1377 3.08691zM75.54 151.168l13.46484 8.31445 3.90137-6.31836c2.208-3.57324 1.50488-7.00488-2.835-9.68457l-.70117-.43261c-4.33985-2.67969-7.72168-1.77149-9.92871 1.80273zM92.8252 114.51074c-1.3125-1.34082-1.23536-3.72558.63964-5.56347L104.55566 98.082c7.07227-6.92871 15.89844-9.06641 24.7168-.06543l.2627.26758c8.81836 9.00195 6.3916 18.09961-1.002 25.34277l-5.30371 5.19727 11.33789 11.57226c1.67969 1.71485.42969 4.61914-1.66015 6.666-2.08887 2.04688-5.01856 3.23633-6.69825 1.52246zm13.02929-3.4209l11.0752 11.30567 5.30371-5.19727c3.001-2.93945 3.14355-6.43945-.42676-10.082l-.57715-.58887c-3.56933-3.64257-7.07031-3.57422-10.07129-.63379zM156.27051 98.49414a1.94271 1.94271 0 0 0-.792-.75293L129.041 83.46387a1.76534 1.76534 0 0 1-.54786-.63379c-1.4082-2.39063 1.63282-6.53418 4.41114-8.17188 1.61523-.95215 2.57812-.64843 4.01172.15918l18.833 11.27246-.80761-21.89746a3.31135 3.31135 0 0 1 1.80371-3.58789c2.77832-1.63769 7.877-2.292 9.28515.09863a1.75486 1.75486 0 0 1 .29.78614l-.24609 30.00586a1.92937 1.92937 0 0 0 .27539 1.05761l9.55859 16.21582c1.21875 2.06739-.6914 4.58692-3.21093 6.07227-2.52051 1.48535-5.64942 1.93652-6.86719-.13086zM230.76465 90.64844l-18.9834-22.71973 4.91406 25.02246c.46094 2.35547-2.17773 4.09668-5.04785 4.66016-2.87012.56445-5.97266-.04981-6.43359-2.40528l-9.17774-46.73437c-.47656-2.42871 2.17578-4.09668 5.04688-4.65918 4.12109-.80957 5.73926-.74609 9.59082 4.07812L227.0625 68.291l-4.91406-25.02344c-.47656-2.42969 2.19043-4.02149 5.06152-4.58594 2.87012-.56348 5.94336-.09668 6.41992 2.332l9.19141 46.8086c.46289 2.35449-2.17578 4.0957-5.04688 4.65918C235.126 93.00195 232.669 92.94922 230.76465 90.64844zM261.96094 60.07812l11.2334.59766c2.24707.11817 3.40527 2.35742 3.27832 4.75391-.10645 2.02343-1.28321 4.36328-3.75489 4.23242l-11.23437-.5957-.67481 12.73242 20.07129 1.06543c2.24707.11816 3.39356 2.583 3.2461 5.35351-.127 2.39649-1.31446 4.96192-3.78614 4.832l-26.66308-1.415c-2.5459-.13575-5.0293-1.46875-4.90235-3.86524L251.29785 40.21c.12695-2.39648 2.73828-3.46 5.28418-3.32422l26.66309 1.415c2.4707.13086 3.38086 2.80762 3.2539 5.2041-.14746 2.77051-1.54687 5.10059-3.79492 4.98145l-20.07226-1.06445zM333.31152 106.21094c-1.76953 2.13769-5.3789 2.13574-8.60449.915-3.1582-1.19434-6.07324-3.66016-5.706-6.32715L321.6416 82.793l-9.93652 15.24512c-1.49024 2.24316-5.3086 2.16211-8.46485.96875-3.22656-1.22168-6.00293-3.63477-5.8457-6.38086l2.22754-48.07325a3.32114 3.32114 0 0 1 .20313-.96484c.90332-2.38477 5.57421-2.8623 8.73144-1.66992 1.68359.63672 2.874 1.72949 2.73731 3.3623L308.34473 85.2998l14.51074-21.61425c1.13769-1.73438 3.96387-1.78809 6.34961-.88575 2.38476.90235 4.46875 2.81348 4.17285 4.86622l-3.42676 25.80761 24.27539-31.9541c.97852-1.31445 2.59278-1.34473 4.27637-.708 3.1582 1.19434 6.34277 4.64453 5.44043 7.0293a3.2997 3.2997 0 0 1-.48438.85938zM381.17578 117.72559a1.93688 1.93688 0 0 0 .5127-.96289l6.71679-29.28418a1.77906 1.77906 0 0 1 .46485-.69825c1.92968-1.99414 6.73437-.166 9.05176 2.0752 1.34863 1.30273 1.3125 2.31055.915 3.9082l-5.8457 21.15528 20.89063-6.61329a3.31 3.31 0 0 1 3.9375.78223c2.31836 2.24121 4.30859 6.98047 2.38086 8.97656a1.7574 1.7574 0 0 1-.68262.48828l-28.98535 7.75782a1.9415 1.9415 0 0 0-.94532.54785l-13.082 13.5332c-1.668 1.72559-4.60547.55567-6.708-1.47754-2.10352-2.03222-3.37208-4.92773-1.70411-6.65332zM419.1123 147.41992l6.01465 9.50781c1.2041 1.90137.04688 4.14063-1.98047 5.42383-1.71289 1.082-4.30175 1.47852-5.625-.61328l-6.01464-9.50781-10.77539 6.81641 10.74609 16.98828c1.20312 1.90136-.14356 4.26172-2.48828 5.74609-2.02832 1.2832-4.8086 1.79785-6.13184-.293L388.583 158.92383c-1.36426-2.15528-1.71289-4.95215.31445-6.23535l40.25-25.46289c2.02832-1.28321 4.4043.23144 5.76856 2.38574l14.27441 22.56445c1.32422 2.0918-.333 4.38281-2.36133 5.666-2.34472 1.48242-5.05469 1.68847-6.25781-.21289l-10.74707-16.98633z"/><path fill="#fff" d="M408.89941 181.39648a3.89382 3.89382 0 0 1 .83008-.12109l47.8086-1.47851c2.75195-.06153 5.042 2.7246 6.15039 5.99316 1.10742 3.26758.9834 6.874-1.23828 8.49707L423.624 222.25977a3.81015 3.81015 0 0 1-.73242.40722c-2.6289.89063-5.91992-2.50683-6.95508-5.56152-.60156-1.77539-.51562-3.38867.832-4.32129l8.06055-5.4248-5.082-14.98829-9.69727.59571c-1.63671.0791-2.68652-1.14844-3.2871-2.92383C405.72559 186.98828 406.27148 182.28906 408.89941 181.39648zM432.55762 202.125l17.27929-11.63867L429.043 191.75586zM469.29 221.60352A3.49044 3.49044 0 0 1 473.085 224.918l1.21094 15.47851c.80176 10.24317-2.374 18.69141-14.5625 19.64551-8.375.65528-13.458-2.78418-15.88672-7.85937l-15.81152 10.41406a2.45994 2.45994 0 0 1-1.31641.47949c-2.917.22754-6.36035-3.41406-6.62988-6.85351a3.998 3.998 0 0 1 1.877-3.90918l19.08691-11.79981-.38574-4.93555-18.02051 1.41114c-2.39257.18652-3.8164-2.63574-4.04589-5.55274-.22754-2.916.74121-5.9248 3.13379-6.1123zm-5.74219 12.18554l-13.9082 1.08789.58008 7.40235c.32715 4.1875 2.24511 6.5957 7.48047 6.18554 5.23339-.4082 6.7539-3.08593 6.42675-7.27343z"/><path fill="#fed402" d="M258.48973 420.1063l6.82686 13.83272a2.77645 2.77645 0 0 0 2.09048 1.51883l15.26531 2.21818a2.77643 2.77643 0 0 1 1.53874 4.73574L273.165 453.17905a2.77644 2.77644 0 0 0-.7985 2.45751l2.60763 15.20363a2.77643 2.77643 0 0 1-4.02847 2.92685L257.292 466.58886a2.77646 2.77646 0 0 0-2.584 0L241.0543 473.767a2.77643 2.77643 0 0 1-4.02847-2.92685l2.60763-15.20363a2.77644 2.77644 0 0 0-.7985-2.45751l-11.04608-10.76728a2.77643 2.77643 0 0 1 1.53874-4.73574l15.26531-2.21818a2.77645 2.77645 0 0 0 2.09048-1.51883l6.82686-13.83272A2.77644 2.77644 0 0 1 258.48973 420.1063zM408.87769 346.18732L415.70455 360.02a2.77641 2.77641 0 0 0 2.09048 1.51882l15.26532 2.21818a2.77644 2.77644 0 0 1 1.53874 4.73575L423.553 379.26007a2.77641 2.77641 0 0 0-.79849 2.45751l2.60762 15.20363a2.77643 2.77643 0 0 1-4.02846 2.92685L407.68 392.66988a2.77646 2.77646 0 0 0-2.584 0l-13.65371 7.17818a2.77644 2.77644 0 0 1-4.02847-2.92685l2.60763-15.20363a2.77644 2.77644 0 0 0-.79849-2.45751l-11.04609-10.76728a2.77644 2.77644 0 0 1 1.53874-4.73575l15.26531-2.21818a2.77641 2.77641 0 0 0 2.09049-1.51882l6.82685-13.83272A2.77643 2.77643 0 0 1 408.87769 346.18732zM108.04234 346.18732L114.86919 360.02a2.77641 2.77641 0 0 0 2.09049 1.51882L132.225 363.757a2.77644 2.77644 0 0 1 1.53874 4.73575l-11.04609 10.76728a2.77647 2.77647 0 0 0-.79849 2.45751l2.60763 15.20363a2.77644 2.77644 0 0 1-4.02847 2.92685l-13.65371-7.17818a2.77646 2.77646 0 0 0-2.584 0l-13.65371 7.17818a2.77643 2.77643 0 0 1-4.02847-2.92685l2.60762-15.20363a2.77641 2.77641 0 0 0-.79849-2.45751L77.34149 368.49279a2.77643 2.77643 0 0 1 1.53873-4.73575l15.26532-2.21818A2.77641 2.77641 0 0 0 96.236 360.02l6.82686-13.83272A2.77643 2.77643 0 0 1 108.04234 346.18732z"/><circle cx="440" cy="309" r="7.5" fill="#00c27a"/><circle cx="345.03" cy="426.059" r="7.5" fill="#00c27a"/><circle cx="180.967" cy="426.059" r="7.5" fill="#00c27a"/><circle cx="69" cy="309" r="7.5" fill="#00c27a"/><path fill="#c4e2ff" d="M221.584,349.14648a7.5014,7.5014,0,0,1-6.165-11.76171l34.84667-50.47754a7.49973,7.49973,0,1,1,12.34376,8.52148L227.7627,345.90625A7.4907,7.4907,0,0,1,221.584,349.14648Z"/><line x1="241.923" x2="200.904" y1="356.15" y2="327.819" fill="#c4e2ff"/><path fill="#c4e2ff" d="M241.916 363.65137a7.46938 7.46938 0 0 1-4.25586-1.33008l-41.01954-28.332a7.5 7.5 0 0 1 8.5254-12.3418l41.01953 28.332a7.50079 7.50079 0 0 1-4.26953 13.67188zM342.99 211.66992a166.14244 166.14244 0 0 1-18.92993 35.18994c-23.61011 33.97022-53.72 53.92017-67.25 44.57007-13.54-9.34985-5.38013-44.46 18.22-78.42993a166.31483 166.31483 0 0 1 26.40991-30.05 4.3932 4.3932 0 0 1 5.40015-.32007L341.39014 206.49A4.38515 4.38515 0 0 1 342.99 211.66992z"/><path fill="#fed402" d="M324.06006,246.85986c-23.61011,33.97022-53.72,53.92017-67.25,44.57007-13.54-9.34985-5.38013-44.46,18.22-78.42993,10,1.72,15.84985,5.60986,19.43994,9.25,5.31006,5.3999,5.42993,10,10.77,15.42993C310.87988,243.41992,318.14014,245.79,324.06006,246.85986Z"/><path fill="#c4e2ff" d="M290.416,349.14648a7.4907,7.4907,0,0,1-6.17872-3.24023l-34.84668-50.47754a7.49973,7.49973,0,1,1,12.34376-8.52148l34.84667,50.47754a7.5014,7.5014,0,0,1-6.165,11.76171Z"/><path fill="#c4e2ff" d="M272.17578 362.20605a7.50079 7.50079 0 0 1-4.26953-13.67187L306.834 321.64746a7.5 7.5 0 0 1 8.5254 12.3418L276.43164 360.876A7.46721 7.46721 0 0 1 272.17578 362.20605zM255.18994 291.42993c-13.53 9.3501-43.63989-10.59985-67.25-44.57007A166.14244 166.14244 0 0 1 169.01 211.66992a4.38515 4.38515 0 0 1 1.59985-5.17993l34.55005-23.86011a4.3932 4.3932 0 0 1 5.40015.32007A166.31483 166.31483 0 0 1 236.97 213C260.57007 246.97 268.73 282.08008 255.18994 291.42993z"/><path fill="#fedf30" d="M255.18994,291.42993c-13.53,9.3501-43.63989-10.59985-67.25-44.57007,5.91992-1.06982,13.18018-3.43994,18.82007-9.17993,5.34009-5.42993,5.46-10.03,10.77-15.42993,3.59009-3.64014,9.43994-7.53,19.43994-9.25C260.57007,246.97,268.73,282.08008,255.18994,291.42993Z"/><path fill="#ca2e43" d="M256,7.24483c-5.03809,0-10.03613.168-15,.46363C371.2561,15.46615,474.5,123.54,474.5,255.74483c0,132.20459-103.2439,240.27881-233.5,248.03638,4.96387.29566,9.96191.46362,15,.46362,137.24268,0,248.5-111.25732,248.5-248.5S393.24268,7.24483,256,7.24483Z"/><path fill="#fac600" d="M273.15527 453.17748a2.75418 2.75418 0 0 0-.8 2.46l2.59986 15.20007a2.7732 2.7732 0 0 1-4.02 2.93006l-13.65991-7.18006a2.80544 2.80544 0 0 0-1.85987-.26 27.18061 27.18061 0 0 0 10.21485-12.79943 27.49162 27.49162 0 0 0-.03492-19.13062 2.71488 2.71488 0 0 0 1.8 1.06006l15.26 2.22a2.7783 2.7783 0 0 1 1.54 4.74zM423.55791 379.2585a2.75418 2.75418 0 0 0-.8 2.46l2.59986 15.20007a2.7732 2.7732 0 0 1-4.02 2.93006l-13.65992-7.18006a2.8054 2.8054 0 0 0-1.85986-.26 27.18065 27.18065 0 0 0 10.21485-12.79944 27.49166 27.49166 0 0 0-.03492-19.13061 2.71486 2.71486 0 0 0 1.8 1.06006l15.26 2.22a2.7783 2.7783 0 0 1 1.54 4.74zM122.72255 379.2585a2.75415 2.75415 0 0 0-.8 2.46l2.59985 15.20007a2.7732 2.7732 0 0 1-4.02 2.93006l-13.65991-7.18006a2.80543 2.80543 0 0 0-1.85987-.26 27.18065 27.18065 0 0 0 10.21485-12.79944 27.49162 27.49162 0 0 0-.03491-19.13061 2.71483 2.71483 0 0 0 1.8 1.06006l15.26 2.22a2.7783 2.7783 0 0 1 1.54 4.74z"/></svg>