<svg xmlns="http://www.w3.org/2000/svg" data-name="Layer 1" viewBox="0 0 512 512"><path fill="#f1f6f9" d="M478.87,71.82V474.5a29.99813,29.99813,0,0,1-30,30H63.13a29.99813,29.99813,0,0,1-30-30V71.82A30.05154,30.05154,0,0,1,63.17993,41.77H448.82007A30.05154,30.05154,0,0,1,478.87,71.82Z"/><path fill="#dde8ef" d="M448.86877,41.77118,448.87,41.82V392.5a82,82,0,0,1-82,82H33.13a29.99813,29.99813,0,0,0,30,30H448.87a30,30,0,0,0,30-30V71.82A30.05082,30.05082,0,0,0,448.86877,41.77118Z"/><path fill="#e53950" d="M478.87,71.82V148.95H33.13V71.82A30.05154,30.05154,0,0,1,63.17993,41.77H448.82007A30.05154,30.05154,0,0,1,478.87,71.82Z"/><path fill="#ca2e43" d="M448.86877 41.77118L448.87 41.82V65.89737A53.05258 53.05258 0 0 1 395.81742 118.95H33.13v30H478.87V71.82A30.05082 30.05082 0 0 0 448.86877 41.77118zM110.49158 86.63c2.26734 3.12385 4.04016 5.56623 3.29981 7.10914-1.78247 3.7146-18.788 3.58282-27.71363-6.49952C80.94092 81.43719 80.27723 74.3689 80.18152 71.33V41.77h15V71.33a7.81219 7.81219 0 0 0 7.81006 7.8C107.24683 79.13 108.22376 83.50562 110.49158 86.63z"/><path fill="#dde8ef" d="M129.2998,41.77393V22.80664A7.81536,7.81536,0,0,0,121.49316,15H118.0498a7.81578,7.81578,0,0,0-7.80712,7.80664V71.32617a7.81578,7.81578,0,0,0,7.80712,7.80664,7.5,7.5,0,0,1,0,15A22.8328,22.8328,0,0,1,95.24268,71.32617V22.80664A22.83281,22.83281,0,0,1,118.0498,0h3.44336A22.83239,22.83239,0,0,1,144.2998,22.80664V41.77393Z"/><path fill="#ca2e43" d="M383.01 86.63c2.26733 3.12385 4.04016 5.56623 3.2998 7.10914-1.78247 3.7146-18.788 3.58282-27.71362-6.49952C353.45935 81.43719 352.79565 74.3689 352.7 71.33V41.77h15V71.33a7.81219 7.81219 0 0 0 7.81006 7.8C379.76526 79.13 380.74219 83.50562 383.01 86.63zM246.79033 86.63c2.26734 3.12385 4.04017 5.56623 3.29981 7.10914-1.78247 3.7146-18.788 3.58282-27.71362-6.49952C217.23968 81.43719 216.576 74.3689 216.48028 71.33V41.77h15V71.33a7.81218 7.81218 0 0 0 7.81005 7.8C243.54558 79.13 244.52251 83.50562 246.79033 86.63z"/><path fill="#dde8ef" d="M401.75732 41.77393V22.80664A7.81578 7.81578 0 0 0 393.9502 15h-3.44336a7.81536 7.81536 0 0 0-7.80664 7.80664V71.32617a7.81536 7.81536 0 0 0 7.80664 7.80664 7.5 7.5 0 0 1 0 15A22.83239 22.83239 0 0 1 367.7002 71.32617V22.80664A22.83239 22.83239 0 0 1 390.50684 0h3.44336a22.83281 22.83281 0 0 1 22.80712 22.80664V41.77393zM265.52881 41.77393V22.80664A7.81578 7.81578 0 0 0 257.72168 15h-3.44336a7.81578 7.81578 0 0 0-7.80713 7.80664V71.32617a7.81578 7.81578 0 0 0 7.80713 7.80664 7.5 7.5 0 0 1 0 15 22.83281 22.83281 0 0 1-22.80713-22.80664V22.80664A22.83282 22.83282 0 0 1 254.27832 0h3.44336a22.83282 22.83282 0 0 1 22.80713 22.80664V41.77393z"/><path fill="#e53950" d="M315.9471,399.54453a53.87532,53.87532,0,0,1-42.022-19.98876,14.99992,14.99992,0,1,1,23.26319-18.94239,24.18473,24.18473,0,1,0,18.7705-39.44433c-9.86816,0-13.70556,1.40673-18.853,3.72412-.53955.24267-.88526.41113-.9961.46728a14.97579,14.97579,0,0,1-21.62207-15.80957l9.53662-57.561a15.0006,15.0006,0,0,1,14.79834-12.54834h48.14014a15,15,0,1,1,0,30h-35.4209L307.89388,291.461c2.46485-.19287,5.13135-.292,8.06494-.292a54.424,54.424,0,0,1,39.2959,16.88574,53.74912,53.74912,0,0,1,14.81787,40.16406,54.34824,54.34824,0,0,1-53.00293,51.31445Q316.5079,399.5443,315.9471,399.54453Z"/><path fill="#ca2e43" d="M346.96265 254.44141a15.00012 15.00012 0 0 1-15 15h15a15 15 0 0 0 0-30h-15A15.00012 15.00012 0 0 1 346.96265 254.44141zM297.18823 360.61328a14.99078 14.99078 0 0 0-19.12817-3.5022 14.932 14.932 0 0 1 4.12817 3.5022 24.16623 24.16623 0 0 0 26.25281 7.74011A24.08059 24.08059 0 0 1 297.18823 360.61328z"/><path fill="#ca2e43" d="M355.25464,308.05469a54.424,54.424,0,0,0-39.2959-16.88574c-2.93359,0-5.6001.09912-8.06494.292l3.64795-22.01953h-15l-3.64795,22.01953c2.46484-.19287,5.13135-.292,8.06494-.292a54.424,54.424,0,0,1,39.2959,16.88574,53.74912,53.74912,0,0,1,14.81787,40.16406,54.37046,54.37046,0,0,1-46.62769,50.79187,54.8574,54.8574,0,0,0,7.5022.53381q.56031,0,1.12256-.01123a54.34826,54.34826,0,0,0,53.00293-51.31445A53.74912,53.74912,0,0,0,355.25464,308.05469Z"/><path fill="#ca2e43" d="M282.10571,324.89307c-.10913.04907-.20446.09289-.29736.13549a14.92966,14.92966,0,0,0,14.30127.33179c.11084-.05615.45654-.22461.99609-.46728a35.74315,35.74315,0,0,1,9.43408-3.07532,24.40158,24.40158,0,0,0-5.58105-.6488C291.09058,321.169,287.25317,322.57568,282.10571,324.89307Z"/><path fill="#e53950" d="M227.24228,399.24912h-.04736l-65.29248-.20117a15,15,0,0,1-11.86377-24.11865c.18457-.24463,5.84522-7.79443,45.22754-64.06348,5.80371-8.293,9.54785-15.66845,11.13672-21.936l.38965-3.04639a17.78961,17.78961,0,0,0-35.21924-2.65234,15,15,0,0,1-29.4375-5.78223,47.78925,47.78925,0,0,1,94.6748,9.2461,15.005,15.005,0,0,1-.12109,1.90136l-.6333,4.95606a15.02368,15.02368,0,0,1-.2666,1.48681c-2.35742,10.167-7.72217,21.2793-15.94483,33.02832-12.84521,18.353-22.13183,31.56543-28.83886,41.06983l36.28173.11181a15,15,0,0,1-.04541,30Z"/><path fill="#ca2e43" d="M156.57336,283.231a14.952,14.952,0,0,1-7.22033,10.08593A14.97164,14.97164,0,0,0,171.57336,283.231a17.76615,17.76615,0,0,1,9.93128-12.64966A17.7447,17.7447,0,0,0,156.57336,283.231Z"/><path fill="#ca2e43" d="M227.28772,369.249l-36.28174-.11181c6.707-9.5044,15.99365-22.7168,28.83887-41.06983,8.22265-11.749,13.5874-22.86133,15.94482-33.02832a15.02077,15.02077,0,0,0,.2666-1.48681l.63331-4.95606a15.00693,15.00693,0,0,0,.12109-1.90137,47.71852,47.71852,0,0,0-55.25513-47.18676,47.8579,47.8579,0,0,1,40.25513,47.18676,15.00693,15.00693,0,0,1-.12109,1.90137l-.63331,4.95606a15.02077,15.02077,0,0,1-.2666,1.48681c-2.35742,10.167-7.72217,21.2793-15.94482,33.02832-12.84522,18.353-22.13184,31.56543-28.83887,41.06983l36.28174.11181a14.9905,14.9905,0,0,1,.81616,29.95667l14.09107.04333h.04736a15,15,0,0,0,.04541-30Z"/></svg>