<svg xmlns="http://www.w3.org/2000/svg" data-name="Layer 1" viewBox="0 0 512 512"><path fill="#e53950" d="M274.63,52.22a17.6288,17.6288,0,0,1-17.27-4.66,19.04366,19.04366,0,0,0-3.52991-2.75A18.91725,18.91725,0,0,0,239.25,42.66c-.17993.04-.35.09-.53.14a18.7951,18.7951,0,0,0-4.63989,2.04A19.08234,19.08234,0,0,0,225.45,56.74v.01a18.75145,18.75145,0,0,0,.21,9.57l5.67011,19.8,5.7,19.95,6.13989,21.46,4.91016,17.18L257.47,177.52a17.29995,17.29995,0,0,1-33.25,9.57L206.52,125.2l-5.71-19.94L194.67,83.8l-2.26-7.92a53.547,53.547,0,0,1,5.5-42.07V33.8a54.86115,54.86115,0,0,1,4.29-6.21A53.49352,53.49352,0,0,1,229.22,9.6q2.31006-.66,4.62012-1.11A52.585,52.585,0,0,1,241.26,7.57a53.77955,53.77955,0,0,1,41.11,16.08C291.46,32.95,287.12,48.63,274.63,52.22Z"/><path fill="#f1f6f9" d="M243.16992,127.53,201.13,105.42c-.11-.06-.21-.11-.32-.16L194.67,83.8,237.03,106.07Z"/><path fill="#ca2e43" d="M282.37,23.65a53.62755,53.62755,0,0,0-11.08387-8.684A17.37789,17.37789,0,0,1,259.63,37.22a17.6288,17.6288,0,0,1-17.27-4.66,19.031,19.031,0,0,0-18.11-4.9c-.17993.04-.35.09-.53.14a18.7951,18.7951,0,0,0-4.63989,2.04A19.11773,19.11773,0,0,0,210.45,41.74v.01a18.75145,18.75145,0,0,0,.21,9.57l5.67011,19.8,5.7,19.95,2.39574,8.37353,10.20838,13.29622-4.0723,8.15926,2.51823,8.81094L242.47,162.52a17.30887,17.30887,0,0,1-19.01752,21.88623L224.22,187.09a17.29995,17.29995,0,0,0,33.25-9.57L248.08008,144.71l-4.91016-17.18L237.03,106.07l-5.7-19.95L225.66,66.32a18.75145,18.75145,0,0,1-.21-9.57v-.01a19.11773,19.11773,0,0,1,8.63007-11.9A18.7951,18.7951,0,0,1,238.72,42.8c.18005-.05.3501-.1.53-.14a19.031,19.031,0,0,1,18.11,4.9,17.6288,17.6288,0,0,0,17.27,4.66C287.12,48.63,291.46,32.95,282.37,23.65Z"/><polygon fill="#dde8ef" points="224.426 99.444 228.17 112.53 230.562 120.899 243.17 127.53 237.03 106.07 224.426 99.444"/><path fill="#fee903" d="M112.30307,103.85152l-8.50317,5.58881a6.39514,6.39514,0,0,1-7.12038-.06392L25.5202,60.75476a6.39513,6.39513,0,0,1,2.36053-11.55254L62.85,42.248a6.39515,6.39515,0,0,0,4.01565-2.63934l20.2545-29.34224a6.39513,6.39513,0,0,1,11.54117,2.41549l16.40741,84.608A6.39512,6.39512,0,0,1,112.30307,103.85152Z"/><path fill="#f4d902" d="M115.06873,97.28986l-16.40741-84.608a6.39513,6.39513,0,0,0-11.5412-2.41546L84.0542,14.708l16.01453,82.58191A6.39516,6.39516,0,0,1,97.303,103.8515l-4.43921,2.91773,3.81567,2.60717a6.3952,6.3952,0,0,0,7.12043.06391l8.50311-5.58881A6.39516,6.39516,0,0,0,115.06873,97.28986Z"/><path fill="#fee903" d="M137.24107,141.79379l-8.50318,5.5888a6.39515,6.39515,0,0,0-2.76566,6.56164l16.40741,84.608a6.39513,6.39513,0,0,0,11.54118,2.41549l20.25449-29.34224a6.3951,6.3951,0,0,1,4.01565-2.63933l34.96928-6.95423a6.39513,6.39513,0,0,0,2.36052-11.55254L144.36145,141.8577A6.39512,6.39512,0,0,0,137.24107,141.79379Z"/><path fill="#e53950" d="M149.57,169.82007A52.88858,52.88858,0,1,1,164.72,96.57,52.63107,52.63107,0,0,1,149.57,169.82007Z"/><path fill="#ca2e43" d="M164.72,96.57A52.884,52.884,0,0,0,130.9859,73.77765a52.88292,52.88292,0,0,1-47.14081,89.95526A52.89232,52.89232,0,0,0,164.72,96.57Z"/><path fill="#fee903" d="M138.47,75.87,117.26,178.40991A52.80733,52.80733,0,0,1,102.57,175.37L123.78,72.83A52.66122,52.66122,0,0,1,138.47,75.87Z"/><path fill="#f4d902" d="M136.44012 75.18573c-.55419-.175-1.11029-.34369-1.6698-.49994l-.04577-.012q-1.85211-.51545-3.73816-.896l-.00049-.00012a53.19815 53.19815 0 0 1 6.38056 7.42743L138.47 75.87q-.90848-.32915-1.82812-.6233C136.575 75.22522 136.50714 75.207 136.44012 75.18573zM104.984 163.69971L102.57 175.37a52.80733 52.80733 0 0 0 14.69 3.03991l4.39484-21.24695A52.6112 52.6112 0 0 1 104.984 163.69971z"/><rect width="236" height="63" x="75.392" y="157.114" fill="#f1f6f9" rx="15" transform="rotate(-18.457 193.392 188.614)"/><path fill="#dde8ef" d="M310.5459,166.90747l-10.44751-31.30255a15,15,0,0,0-18.97743-9.47957l-8.25988,2.75685,3.03361,9.08931A29.69168,29.69168,0,0,1,257.13032,175.536L83.92249,233.34521l2.76257,8.27735a14.99993,14.99993,0,0,0,18.97723,9.47963l195.404-65.21744A15,15,0,0,0,310.5459,166.90747Z"/><path fill="#e53950" d="M399.40991,489.45l-30.34985,15.01-80.461.02951L259.87,489.5c-36.23.01-53.4-8.16-64.87-42.52l-29.36617-43.05045L147.13,348.48l-4.75-14.22-9.5-28.46-4.75-14.23-14.4-43.16016L293,188.58l14.40991,43.16L312.15,245.96l9.5,28.46,4.75,14.23L343.93994,341.2a15.00958,15.00958,0,0,0,13.28,10.22L390.83008,353.54,404.11,369.38c18.11,1.14,19.53-6.31994,31.93,5.44007A74.9417,74.9417,0,0,1,458.98,420.59C464.21,465.22,444.35,489.42993,399.40991,489.45Z"/><path fill="#ca2e43" d="M250.11065,227.8878a29.405,29.405,0,0,1,37.20045,18.58042L292.40991,261.74,297.15,275.96,311.4,318.6499,328.93994,371.2a15.00958,15.00958,0,0,0,13.28,10.22L375.83008,383.54l13.27991.84a75.186,75.186,0,0,1,68.29968,92.63611A75.10559,75.10559,0,0,0,404.11,354.38l-13.27991-.84L357.22,351.41992a15.00958,15.00958,0,0,1-13.28-10.22L326.4,288.6499,312.15,245.96l-4.74011-14.22L293,188.58l-179.27,59.83,7.50348,22.48963Z"/><path fill="#46cc8d" d="M312.15 245.96c-8.59 2.87-11.37 7.43994-15.20007 13.75-4.22 6.93994-9.47 15.58008-23.28 20.18994C259.85 284.5 250.47 280.75 242.92993 277.74 236.07007 275 231.11 273.01 222.51 275.88c-8.59 2.87-11.37 7.43006-15.21 13.75-4.21 6.94007-9.46 15.57-23.27 20.18006A39.33418 39.33418 0 0 1 171.45 311.97c-7.36 0-13.16-2.32007-18.16-4.31006-6.86-2.75-11.82-4.73-20.41-1.85986l-4.75-14.23c13.81-4.61011 23.19-.86011 30.73 2.15991 6.87 2.74 11.82 4.72 20.42 1.85s11.37-7.43006 15.21-13.74c4.21-6.94007 9.46-15.58 23.27-20.19007 13.82007-4.59985 23.2-.84985 30.74 2.16016 6.86 2.74 11.82007 4.73 20.41992 1.85986 8.6001-2.86987 11.37012-7.43994 15.21008-13.75C288.35 244.98 293.6 236.35 307.40991 231.74zM326.4 288.6499c-8.6 2.87012-11.37 7.43006-15.21008 13.75-4.22 6.93006-9.46 15.57007-23.28 20.18006-13.80993 4.61-23.18994.86-30.73-2.16-6.86987-2.74-11.81994-4.72-20.41992-1.84985-8.6 2.86987-11.37 7.42993-15.21 13.74C217.33 339.25 212.09 347.89 198.27 352.5a39.55333 39.55333 0 0 1-12.57 2.15991c-7.36 0-13.17-2.31994-18.16-4.31994-6.86-2.74-11.82-4.73-20.41-1.86l-4.75-14.22c13.81-4.61011 23.19-.86011 30.73 2.1499 6.86 2.75 11.82 4.7301 20.42 1.86011 8.59-2.87012 11.37-7.43 15.2-13.75 4.22-6.94006 9.47-15.57007 23.28-20.18s23.2-.86 30.74 2.16c6.86 2.74 11.82007 4.72 20.40991 1.85C291.76 305.48 294.54 300.91992 298.38 294.6c4.21009-6.93006 9.46009-15.57 23.27-20.18006z"/><path fill="#00c27a" d="M287.41235 246.77173L292.40991 261.74l1.11157 3.33459c1.28064-1.83435 2.38672-3.65136 3.42847-5.36462 3.83008-6.31006 6.61011-10.88 15.20007-13.75l-4.74011-14.22A37.22812 37.22812 0 0 0 287.41235 246.77173zM301.65564 289.45776l6.10828 18.29932c1.27941-1.83228 2.38452-3.647 3.426-5.35718C315.03 296.08 317.80005 291.52 326.4 288.6499l-4.75-14.23A37.21044 37.21044 0 0 0 301.65564 289.45776z"/><path fill="#f1f6f9" d="M288.933 449.9865a84.618 84.618 0 0 0-123.3023-46.05594l14.3664 43.04451a84.17324 84.17324 0 0 0 79.87577 57.52486l28.7262-.011A84.21507 84.21507 0 0 0 288.933 449.9865zM399.40991 504.45l-30.34985.01 21.77-150.91992 13.27991.84a75.10946 75.10946 0 0 1-4.70008 150.07z"/><path fill="#dde8ef" d="M389.11,384.38a75.186,75.186,0,0,1,68.29968,92.63611,75.207,75.207,0,0,0,13.85754-25.82666c.0155-.051.032-.10156.04737-.15258q.50867-1.68257.93713-3.397c.02368-.09472.04834-.18908.07178-.28393q.41289-1.67048.748-3.36841c.02442-.12341.0492-.24671.073-.37024q.323-1.67193.5697-3.3678.03077-.21131.06018-.42309.23585-1.68493.39612-3.39063c.0138-.147.02576-.29443.0387-.44165q.1496-1.71021.22314-3.43945c.00574-.1399.009-.28052.01392-.42066.0415-1.16736.05933-2.34008.046-3.51892-.00134-.11743-.00562-.23547-.00745-.35315-.01928-1.20739-.06323-2.41967-.14111-3.63745-.00488-.07446-.012-.14917-.01709-.22363-.08459-1.2655-.19727-2.53565-.34668-3.81091a75.11826,75.11826,0,0,0-69.87-66.21l-13.27991-.84L386.40613,384.209Z"/><path fill="#fff" d="M246.78,42.26a18.69342,18.69342,0,0,0-7.53.4c-.17993.04-.35.09-.53.14a18.7951,18.7951,0,0,0-4.63989,2.04A19.0284,19.0284,0,0,0,228.57,49.93q-15.33-8.07-30.66-16.12V33.8a54.86115,54.86115,0,0,1,4.29-6.21A53.49352,53.49352,0,0,1,229.22,9.6q2.31006-.66,4.62012-1.11A52.585,52.585,0,0,1,241.26,7.57l.01.00995Z"/><path fill="#dde8ef" d="M228.57,49.93c.295-.40545.61651-.79071.94189-1.17254.07654-.09.14331-.18732.22156-.27588.30243-.34217.63055-.662.95746-.98255.12158-.119.2312-.24859.356-.3645A19.05066,19.05066,0,0,1,238.72,42.8c.18005-.05.3501-.1.53-.14a18.7705,18.7705,0,0,1,3.84448-.58624c.0409-.002.0813.00171.12219,0,.587-.02429,1.17225-.02637,1.75306.00433.35485.01831.70385.068,1.05529.10608.25135.02765.50562.03821.755.07587l-1.12927-7.10785A18.87607,18.87607,0,0,1,242.36,32.56a19.031,19.031,0,0,0-18.11-4.9c-.17993.04-.35.09-.53.14a18.7951,18.7951,0,0,0-4.63989,2.04,19.08814,19.08814,0,0,0-8.29358,10.74Q219.67829,45.2536,228.57,49.93Z"/></svg>