<svg xmlns="http://www.w3.org/2000/svg" data-name="Layer 1" viewBox="0 0 512 512"><path fill="#46cc8d" d="M352.46,137.53c-7.34,4.94-17.02,13.7-21.80994,27.68-6.4,18.7-1.69006,39.92,11.97,55.61005a3.9889,3.9889,0,0,1-.75,5.85c-6.16,4.38-12.65,8.76-19.30994,13.13-21.41,14.08-44.58008,28.16-64.23,42.24a3.99452,3.99452,0,0,1-4.66016,0C234.22,268.1,211.32,254.17,190.1,240.24c-6.89-4.52-13.6-9.05-19.97-13.57a3.98886,3.98886,0,0,1-.75-5.85c13.66-15.69,18.37-36.91,11.97-55.61-4.79-13.98-14.47-22.74-21.81-27.68a3.991,3.991,0,0,1,1.06-7.12c9.52-2.89,23.56-9.59,32.88-24.93,10.72-17.65,8.39-35.56,6.23-44.28a3.99206,3.99206,0,0,1,3.85-4.95c8.45-.1,24.58-2.16,37.51007-15.16a50.76066,50.76066,0,0,0,11.23-17.23,3.98941,3.98941,0,0,1,7.3999,0,50.76066,50.76066,0,0,0,11.23,17.23c12.93006,13,29.06006,15.06,37.51,15.16A3.99217,3.99217,0,0,1,312.29,61.2c-2.16,8.72-4.49,26.63,6.23,44.28,9.32007,15.34,23.36,22.04,32.88,24.93A3.991,3.991,0,0,1,352.46,137.53Z"/><path fill="#00c27a" d="M256,291.22168a7.50006,7.50006,0,0,1-7.5-7.5V90.89063a7.5,7.5,0,1,1,15,0V283.72168A7.50006,7.50006,0,0,1,256,291.22168Z"/><path fill="#46cc8d" d="M226.18,408.31c-20.75,1.44-39.07,13.11-47.78,30.86-6.5,13.27-5.85,26.31-4.15,34.99a3.98913,3.98913,0,0,1-5.81,4.27c-8.79-4.68-23.44-9.85-40.85-5.6-20.06,4.9-31.08,19.2-35.72,26.91a3.99027,3.99027,0,0,1-6.22.77c-6.04-5.9-18.91-15.85-37.24-15.81A50.79021,50.79021,0,0,0,28.28,488.95a3.98978,3.98978,0,0,1-5.23-5.23,50.79156,50.79156,0,0,0,4.25-20.13c.04-18.33-9.91-31.2-15.81-37.24a3.99026,3.99026,0,0,1,.77-6.22c7.71-4.64,22.01-15.66,26.91-35.72,4.25-17.41-.92-32.06-5.6-40.85a3.98912,3.98912,0,0,1,4.27-5.81c8.68,1.7,21.72,2.35,34.99-4.15,17.75-8.71,29.42-27.03,30.86-47.78a3.97265,3.97265,0,0,1,4.66-3.61005c14.69,2.48,30.29,5.87,45.93005,9.3,17.8,3.91,35.66,7.87,52.3,10.62a3.96973,3.96973,0,0,1,3.29,3.29c4.7,28.43,12.93,60.4,18.38,89.59q.825,4.365,1.54,8.63995A3.97269,3.97269,0,0,1,226.18,408.31Z"/><path fill="#00c27a" d="M73.06494,446.43506a7.5,7.5,0,0,1-5.30322-12.80322L204.11377,297.27979a7.49989,7.49989,0,0,1,10.60644,10.60644L78.36816,444.23828A7.47664,7.47664,0,0,1,73.06494,446.43506Z"/><path fill="#46cc8d" d="M500.51,426.35c-5.9,6.04-15.8501,18.91-15.81006,37.24a50.79469,50.79469,0,0,0,4.25,20.13,3.98973,3.98973,0,0,1-5.23,5.23,50.79014,50.79014,0,0,0-20.12988-4.25C445.26,484.66,432.39,494.61,426.35,500.51a3.99026,3.99026,0,0,1-6.22-.77c-4.64-7.71-15.66-22.01-35.72009-26.91-17.40991-4.25-32.05993.92-40.84985,5.6a3.98917,3.98917,0,0,1-5.81006-4.27c1.7-8.68,2.35-21.72-4.15-34.99-8.71-17.75-27.02991-29.42-47.77991-30.86a3.97277,3.97277,0,0,1-3.61011-4.66q.72-4.305,1.55-8.72c5.45-29.17,13.66992-61.11,18.37-89.51a3.96967,3.96967,0,0,1,3.28992-3.29c16.76-2.77,34.76-6.77,52.69007-10.71,15.51-3.4,30.97009-6.75,45.54-9.21a3.97276,3.97276,0,0,1,4.66,3.61005c1.43994,20.75,13.10986,39.07,30.85986,47.78,13.27,6.5,26.31006,5.85,34.99,4.15a3.98909,3.98909,0,0,1,4.27,5.81c-4.67993,8.79-9.84985,23.44-5.59985,40.85,4.8999,20.06,19.2,31.08,26.90991,35.72A3.99026,3.99026,0,0,1,500.51,426.35Z"/><path fill="#00c27a" d="M421.60693 501.14636A3.99384 3.99384 0 0 0 426.35 500.51c.11511-.11249.23754-.22907.35766-.34442A49.29786 49.29786 0 0 0 421.60693 501.14636zM438.93506 446.43506a7.47664 7.47664 0 0 1-5.30322-2.19678l-136.35205-136.352a7.49989 7.49989 0 0 1 10.60644-10.60644l136.352 136.35205a7.5 7.5 0 0 1-5.30322 12.80322zM228.25 395.01a68.51832 68.51832 0 0 1-73.97-103.5c17.8 3.91 35.66 7.87 52.3 10.62a3.96973 3.96973 0 0 1 3.29 3.29C214.57 333.85 222.8 365.82 228.25 395.01z"/><circle cx="211.975" cy="328.463" r="49.5" fill="#e53950"/><path fill="#ca2e43" d="M229.85376,282.30548a49.4989,49.4989,0,0,1-57.63281,75.65088,49.49969,49.49969,0,1,0,57.63281-75.65088Z"/><path fill="#00c27a" d="M369,328.5a68.52448,68.52448,0,0,1-85.24,66.43c5.45-29.17,13.66992-61.11,18.37-89.51a3.96967,3.96967,0,0,1,3.28992-3.29c16.76-2.77,34.76-6.77,52.69007-10.71A68.17079,68.17079,0,0,1,369,328.5Z"/><circle cx="300.025" cy="328.463" r="49.5" fill="#e53950"/><path fill="#ca2e43" d="M323.64978,284.95465a49.509,49.509,0,0,1-67.9248,65.5907,49.50148,49.50148,0,1,0,67.9248-65.5907Z"/><path fill="#00c27a" d="M322.56006,239.8c-21.41,14.08-44.58008,28.16-64.23,42.24a3.99452,3.99452,0,0,1-4.66016,0C234.22,268.1,211.32,254.17,190.1,240.24a68.51148,68.51148,0,0,1,132.46008-.44Z"/><circle cx="256.389" cy="257.537" r="49.5" fill="#e53950"/><path fill="#ca2e43" d="M285.57019,217.56079a49.4931,49.4931,0,0,1-75.15094,58.3302,49.498,49.498,0,1,0,75.15094-58.3302Z"/></svg>