<svg xmlns="http://www.w3.org/2000/svg" data-name="Layer 1" viewBox="0 0 512 512"><path fill="#e53950" d="M395.00342,499.80859,271.67456,415.002c-8.62109-5.92822-22.728-5.92822-31.34912,0L116.99658,499.80859c-15.645,10.7583-39.78613,1.823-39.78613-14.72558V37.5a30.00008,30.00008,0,0,1,30-30h297.5791a30.00008,30.00008,0,0,1,30,30V485.083C434.78955,501.63159,410.64844,510.56689,395.00342,499.80859Z"/><path fill="#d88a55" d="M270.15991,262.90991v38.45a5.02312,5.02312,0,0,1-5.01977,5.02H246.85986a5.02312,5.02312,0,0,1-5.01977-5.02V262.90991Z"/><polygon fill="#c57a44" points="270.16 262.91 270.16 289.65 241.84 266.34 241.29 265.89 241.84 265.79 256.97 262.91 270.16 262.91"/><path fill="#46cc8d" d="M195.86072,255.0802l58.00064-74.1643a2.71535,2.71535,0,0,1,4.27785,0l58.00064,74.16429a2.71666,2.71666,0,0,1-1.43749,4.29611,224.91678,224.91678,0,0,1-117.41947-.00418A2.71378,2.71378,0,0,1,195.86072,255.0802Z"/><path fill="#00c27a" d="M316.13989,255.08008,258.13916,180.916a2.71534,2.71534,0,0,0-4.27784,0l-4.96532,6.34911,43.60331,55.75476a7.48486,7.48486,0,0,1-4.18067,11.90049,224.7095,224.7095,0,0,1-93.02225,2.07863,2.69852,2.69852,0,0,0,1.98657,2.37305,224.91371,224.91371,0,0,0,117.41943.00415A2.71672,2.71672,0,0,0,316.13989,255.08008Z"/><path fill="#46cc8d" d="M204.91741,218.71713l49.26537-62.99468a2.3064,2.3064,0,0,1,3.63358,0l49.26536,62.99467a2.30751,2.30751,0,0,1-1.221,3.64909,191.04295,191.04295,0,0,1-99.73534-.00355A2.30507,2.30507,0,0,1,204.91741,218.71713Z"/><path fill="#00c27a" d="M307.0818,218.717,257.8164,155.7224a2.30637,2.30637,0,0,0-3.63354,0l-5.47412,6.99976L280.37941,203.219a6.91281,6.91281,0,0,1,.46289,7.79117c-2.41244,3.981-7.05546,5.5721-11.39323,6.33273-10.86786,1.90569-22.23844,3.98662-33.297,4.02672a190.98908,190.98908,0,0,1-31.34057-2.47461,2.29433,2.29433,0,0,0,1.314,3.46777,191.04771,191.04771,0,0,0,99.75506-.00192A2.30179,2.30179,0,0,0,307.0818,218.717Z"/><path fill="#46cc8d" d="M216.50615,182.07366l38.08874-48.70335a1.78317,1.78317,0,0,1,2.80925,0l38.08874,48.70334a1.784,1.784,0,0,1-.944,2.82124,147.702,147.702,0,0,1-77.10881-.00275A1.78212,1.78212,0,0,1,216.50615,182.07366Z"/><path fill="#00c27a" d="M295.49293,182.07372l-38.08886-48.70333a1.78308,1.78308,0,0,0-2.8091,0l-5.95483,7.614,21.9938,28.12271a5.99352,5.99352,0,0,1-3.3853,9.54516,147.40308,147.40308,0,0,1-49.97276,2.43711l-.76978.98437a1.77926,1.77926,0,0,0,.92848,2.8169,147.704,147.704,0,0,0,77.12945.00027A1.77891,1.77891,0,0,0,295.49293,182.07372Z"/><circle cx="255.999" cy="131.421" r="15.8" fill="#fed402"/><path fill="#fac600" d="M259.97534,116.14551a15.76571,15.76571,0,0,1-17.15381,23.98291,15.79361,15.79361,0,1,0,17.15381-23.98291Z"/><path fill="#fed402" d="M140.49307 199.78092l6.82686 13.83272a2.77642 2.77642 0 0 0 2.09048 1.51883l15.26532 2.21818a2.77644 2.77644 0 0 1 1.53874 4.73575l-11.04609 10.76727a2.77641 2.77641 0 0 0-.79849 2.45751l2.60762 15.20363a2.77643 2.77643 0 0 1-4.02846 2.92686l-13.65372-7.17818a2.7764 2.7764 0 0 0-2.584 0l-13.65371 7.17818a2.77644 2.77644 0 0 1-4.02847-2.92686l2.60763-15.20363a2.77644 2.77644 0 0 0-.79849-2.45751L109.79222 222.0864a2.77644 2.77644 0 0 1 1.53874-4.73575l15.26531-2.21818a2.77642 2.77642 0 0 0 2.09049-1.51883l6.82685-13.83272A2.77644 2.77644 0 0 1 140.49307 199.78092zM391.15991 232.8501a2.80964 2.80964 0 0 0-.8 2.46l2.61011 15.2a2.77792 2.77792 0 0 1-4.03 2.92993l-13.5-7.1001L375.29 246.26a2.81862 2.81862 0 0 0-2.59009 0l-13.6499 7.17993a2.77788 2.77788 0 0 1-4.03-2.92993l2.60986-15.19995a2.7809 2.7809 0 0 0-.7998-2.46l-11.04-10.76026a2.77839 2.77839 0 0 1 1.53-4.73974l15.27-2.22022a2.77161 2.77161 0 0 0 2.08984-1.52L371.51 199.78a2.779 2.779 0 0 1 4.98 0l2.8 5.67993c.12988.26.29.59009.49.99l3.53 7.15991a2.78866 2.78866 0 0 0 2.08984 1.52l15.27 2.22022a2.778 2.778 0 0 1 1.54 4.73974z"/><path fill="#fac600" d="M391.15991 232.8501a2.80964 2.80964 0 0 0-.8 2.46l2.61011 15.2a2.77792 2.77792 0 0 1-4.03 2.92993l-13.5-7.1001a36.81759 36.81759 0 0 0 6.73-13.11987A39.11835 39.11835 0 0 0 379.78 206.45l3.53 7.15991a2.78866 2.78866 0 0 0 2.08984 1.52l15.27 2.22022a2.778 2.778 0 0 1 1.54 4.73974zM155.16322 232.8501a2.80964 2.80964 0 0 0-.8 2.46l2.61011 15.2a2.77792 2.77792 0 0 1-4.03 2.92993l-13.5-7.1001a36.81759 36.81759 0 0 0 6.73-13.11987 39.11835 39.11835 0 0 0-2.38989-26.77l3.53 7.15991a2.78866 2.78866 0 0 0 2.08984 1.52l15.27 2.22022a2.778 2.778 0 0 1 1.54 4.73974z"/><path fill="#fff" d="M139.26465 75.76172c0-9.0752-23.77442-7.5-23.77442-25.04883 0-11.25 9.8252-15.52441 19.19922-15.52441 3.97559 0 14.92481.75 14.92481 6.59961 0 2.02441-1.34961 6.14941-4.64942 6.14941-2.70019 0-4.125-2.84961-10.27539-2.84961-5.32422 0-7.499 2.17481-7.499 4.5 0 7.499 23.77344 6.07422 23.77344 24.97363 0 10.79981-7.874 16.64942-18.749 16.64942-9.82422 0-18.07422-4.79981-18.07422-9.75 0-2.54981 2.25-6.29981 5.09961-6.29981 3.52539 0 5.77539 5.54981 12.75 5.54981C135.43945 80.71094 139.26465 79.36133 139.26465 75.76172zM159.74023 39.16309c0-1.875 1.72461-3.52539 4.34961-3.52539h15.52442c9.89941 0 17.69922 4.65039 17.69922 17.25v.375c0 12.5996-8.09961 17.39941-18.44922 17.39941h-7.42481V86.86133c0 2.39941-2.9248 3.59961-5.84961 3.59961s-5.84961-1.2002-5.84961-3.59961zm11.69922 6.6748V61.66211h7.42481c4.20019 0 6.75-2.40039 6.75-7.5v-.82422c0-5.10059-2.54981-7.5-6.75-7.5zM217.11328 58.5127h11.25c2.25 0 3.52442 2.1748 3.52442 4.57421 0 2.02539-1.04981 4.42481-3.52442 4.42481h-11.25v12.75h20.09961c2.25 0 3.52441 2.39941 3.52441 5.1748 0 2.39942-1.0498 5.02442-3.52441 5.02442H210.51367c-2.5498 0-5.09961-1.2002-5.09961-3.59961v-47.623c0-2.40039 2.54981-3.60058 5.09961-3.60058h26.69922c2.47461 0 3.52441 2.625 3.52441 5.02539 0 2.77441-1.27441 5.1748-3.52441 5.1748H217.11328zM266.16309 45.83789c-4.27539 0-6.75 2.39941-6.75 7.5v19.874c0 5.09961 2.47461 7.499 6.82421 7.499 6 0 6.375-4.57422 6.60059-7.499.22461-2.77539 2.77441-3.52539 5.77441-3.52539 4.04981 0 5.92481 1.04981 5.92481 5.54981 0 9.97461-8.09961 15.6748-18.82422 15.6748-9.82422 0-17.999-4.7998-17.999-17.69922v-19.874c0-12.90039 8.1748-17.70019 17.999-17.70019 10.72461 0 18.82422 5.40039 18.82422 14.9248 0 4.5-1.875 5.5498-5.84961 5.5498-3.15039 0-5.7002-.82519-5.84961-3.52441C272.7627 50.6377 272.53711 45.83789 266.16309 45.83789zM293.46289 39.16309c0-2.47461 2.92481-3.52539 5.84961-3.52539s5.84961 1.05078 5.84961 3.52539V86.86133c0 2.39941-2.92481 3.59961-5.84961 3.59961s-5.84961-1.2002-5.84961-3.59961zM312.5127 85.66113a3.86411 3.86411 0 0 1 .15039-.82519l13.94921-45.748c.8252-2.625 4.2002-3.89941 7.64942-3.89941 3.45019 0 6.82519 1.27441 7.65039 3.89941l14.02441 45.748a3.91832 3.91832 0 0 1 .14942.82519c0 2.77442-4.27442 4.79981-7.5 4.79981-1.874 0-3.374-.59961-3.82422-2.17481l-2.54981-9.375H326.3877l-2.54981 9.375c-.45019 1.5752-1.95019 2.17481-3.82519 2.17481C316.78809 90.46094 312.5127 88.43555 312.5127 85.66113zm27.22363-15.749L334.26172 49.8125l-5.47461 20.09961zM368.53613 90.46094c-2.5498 0-5.09961-1.2002-5.09961-3.59961V39.16309c0-2.47461 2.92481-3.52539 5.84961-3.52539s5.84961 1.05078 5.84961 3.52539V80.26172h17.09961c2.25 0 3.375 2.5498 3.375 5.09961s-1.125 5.09961-3.375 5.09961zM147.92969 371.40234v-20.1416c0-13.07226 8.13281-17.93652 18.62109-17.93652s18.69727 4.86426 18.69727 17.93652v20.1416c0 13.07227-8.209 17.93653-18.69727 17.93653S147.92969 384.47461 147.92969 371.40234zm25.46093-20.1416c0-5.24414-2.584-7.60058-6.83984-7.60058s-6.76562 2.35644-6.76562 7.60058v20.1416c0 5.24414 2.50976 7.59961 6.76562 7.59961s6.83984-2.35547 6.83984-7.59961zM195.88477 336.97168c0-2.43164 2.584-3.64746 5.168-3.64746h26.37305c2.50977 0 3.57227 2.66016 3.57227 5.0918 0 2.8125-1.291 5.24414-3.57227 5.24414H207.74219v12.84472h11.47656c2.2793 0 3.57227 2.2041 3.57227 4.63672 0 2.05176-1.06446 4.48438-3.57227 4.48438H207.74219v19.6084c0 2.43261-2.96485 3.64843-5.92969 3.64843-2.96289 0-5.92773-1.21582-5.92773-3.64843zM238.06445 336.97168c0-2.43164 2.584-3.64746 5.168-3.64746h26.37305c2.50976 0 3.57226 2.66016 3.57226 5.0918 0 2.8125-1.291 5.24414-3.57226 5.24414H249.92188v12.84472h11.47656c2.27929 0 3.57226 2.2041 3.57226 4.63672 0 2.05176-1.06445 4.48438-3.57226 4.48438H249.92188v19.6084c0 2.43261-2.96485 3.64843-5.92969 3.64843-2.96289 0-5.92774-1.21582-5.92774-3.64843zM292.10156 356.50488H303.502c2.2793 0 3.57227 2.2041 3.57227 4.63672 0 2.05176-1.06445 4.48438-3.57227 4.48438H292.10156V378.5459H312.4707c2.2793 0 3.57227 2.43262 3.57227 5.24512 0 2.43164-1.06445 5.09179-3.57227 5.09179H285.41211c-2.584 0-5.168-1.21582-5.168-3.64843v-48.2627c0-2.43164 2.584-3.64746 5.168-3.64746H312.4707c2.50782 0 3.57227 2.66016 3.57227 5.0918 0 2.8125-1.293 5.24414-3.57227 5.24414H292.10156zM324.24805 336.89648a3.53686 3.53686 0 0 1 3.64648-3.57226h15.73438c10.41211 0 18.69726 3.876 18.69726 16.26465 0 8.51269-3.87695 13.377-9.19726 15.42871l9.27148 16.79687a2.49714 2.49714 0 0 1 .38086 1.36817c0 2.96386-3.95117 6.15625-7.44922 6.15625a4.05022 4.05022 0 0 1-3.79883-2.2041L341.12109 366.918h-5.01757v18.31641c0 2.43261-2.9629 3.64843-5.92774 3.64843s-5.92773-1.21582-5.92773-3.64843zm11.85547 6.76368v14.13672h7.52539c4.25586 0 6.83984-1.748 6.83984-7.06836s-2.584-7.06836-6.83984-7.06836z"/></svg>