<svg xmlns="http://www.w3.org/2000/svg" data-name="Layer 1" viewBox="0 0 512 512"><path fill="#e53950" d="M376.48682 116.18848a7.49975 7.49975 0 0 1-7.5-7.5V55.76758a7.5 7.5 0 0 1 15 0v52.9209A7.49975 7.49975 0 0 1 376.48682 116.18848zM376.48682 286.49316a7.49974 7.49974 0 0 1-7.5-7.5V226.07227a7.5 7.5 0 1 1 15 0v52.92089A7.49974 7.49974 0 0 1 376.48682 286.49316zM317.79492 174.88086H264.874a7.5 7.5 0 0 1 0-15h52.9209a7.5 7.5 0 0 1 0 15zM488.09961 174.88086h-52.9209a7.5 7.5 0 0 1 0-15h52.9209a7.5 7.5 0 0 1 0 15zM417.98828 133.37891a7.5 7.5 0 0 1-5.30322-12.80371L450.106 83.1543A7.50023 7.50023 0 0 1 460.7124 93.76172l-37.4209 37.4209A7.47823 7.47823 0 0 1 417.98828 133.37891zM297.56445 253.80273a7.5 7.5 0 0 1-5.30322-12.80371l37.4209-37.4209a7.50024 7.50024 0 0 1 10.60644 10.60743l-37.42089 37.4209A7.47825 7.47825 0 0 1 297.56445 253.80273zM334.98535 133.37891a7.47823 7.47823 0 0 1-5.30322-2.19629l-37.4209-37.4209A7.50024 7.50024 0 0 1 302.86768 83.1543l37.42089 37.4209a7.5 7.5 0 0 1-5.30322 12.80371zM455.40918 253.80273a7.47822 7.47822 0 0 1-5.30322-2.19628l-37.4209-37.4209a7.50024 7.50024 0 0 1 10.60644-10.60743l37.4209 37.4209a7.5 7.5 0 0 1-5.30322 12.80371z"/><circle cx="376.487" cy="167.38" r="16.391" fill="#fac600"/><path d="M119.57959 75.7666a7.52494 7.52494 0 1 1 7.5-7.59961v.09961A7.49974 7.49974 0 0 1 119.57959 75.7666zm0-30.09961a7.49974 7.49974 0 0 1-7.5-7.5v-.10058a7.5 7.5 0 1 1 15 0V38.167A7.49974 7.49974 0 0 1 119.57959 45.667zm0-30.10058a7.52495 7.52495 0 0 1 0-15.04981 7.4574 7.4574 0 0 1 7.5 7.4502v.09961A7.49975 7.49975 0 0 1 119.57959 15.56641zM119.57959 238.64258a7.4574 7.4574 0 0 1-7.5-7.4502v-.09961a7.50016 7.50016 0 1 1 7.5 7.54981zm0-30.04981a7.49974 7.49974 0 0 1-7.5-7.5v-.10058a7.5 7.5 0 0 1 15 0v.10058A7.49974 7.49974 0 0 1 119.57959 208.59277zM68.2666 127.08008a7.54241 7.54241 0 0 1-7.5498-7.5 7.45739 7.45739 0 0 1 7.45019-7.5h.09961a7.5 7.5 0 0 1 0 15zm-30.09961 0h-.1001a7.5 7.5 0 0 1 0-15h.1001a7.5 7.5 0 1 1 0 15zm-30.1001 0H7.9668a7.5 7.5 0 0 1 0-15h.10009a7.5 7.5 0 0 1 0 15zM231.19238 127.08008h-.10009a7.5 7.5 0 0 1 0-15h.10009a7.5 7.5 0 0 1 0 15zm-30.10009 0h-.1001a7.5 7.5 0 0 1 0-15h.1001a7.5 7.5 0 0 1 0 15zm-30.1001 0h-.09961a7.5 7.5 0 1 1 .09961 0z"/><path fill="#46cc8d" d="M119.57959 75.7666a7.52494 7.52494 0 1 1 7.5-7.59961v.09961A7.49974 7.49974 0 0 1 119.57959 75.7666zm0-30.09961a7.49974 7.49974 0 0 1-7.5-7.5v-.10058a7.5 7.5 0 1 1 15 0V38.167A7.49974 7.49974 0 0 1 119.57959 45.667zm0-30.10058a7.52495 7.52495 0 0 1 0-15.04981 7.4574 7.4574 0 0 1 7.5 7.4502v.09961A7.49975 7.49975 0 0 1 119.57959 15.56641zM119.57959 238.64258a7.4574 7.4574 0 0 1-7.5-7.4502v-.09961a7.50016 7.50016 0 1 1 7.5 7.54981zm0-30.04981a7.49974 7.49974 0 0 1-7.5-7.5v-.10058a7.5 7.5 0 0 1 15 0v.10058A7.49974 7.49974 0 0 1 119.57959 208.59277zm0-30.15039a7.45739 7.45739 0 0 1-7.5-7.45019v-.09961a7.50016 7.50016 0 1 1 7.5 7.5498zM68.2666 127.08008a7.54241 7.54241 0 0 1-7.5498-7.5 7.45739 7.45739 0 0 1 7.45019-7.5h.09961a7.5 7.5 0 0 1 0 15zm-30.09961 0h-.1001a7.5 7.5 0 0 1 0-15h.1001a7.5 7.5 0 1 1 0 15zm-30.1001 0H7.9668a7.5 7.5 0 0 1 0-15h.10009a7.5 7.5 0 0 1 0 15zM231.19238 127.08008h-.10009a7.5 7.5 0 0 1 0-15h.10009a7.5 7.5 0 0 1 0 15zm-30.10009 0h-.1001a7.5 7.5 0 0 1 0-15h.1001a7.5 7.5 0 0 1 0 15zm-30.1001 0h-.09961a7.5 7.5 0 1 1 .09961 0zM83.2959 90.7959a7.47828 7.47828 0 0 1-5.32129-2.21485l-.0708-.07128A7.49994 7.49994 0 1 1 88.54639 77.93945l.0708.07129A7.5 7.5 0 0 1 83.2959 90.7959zM62.01172 69.51172a7.51482 7.51482 0 1 1 5.23291-12.874l.07031.07031a7.5 7.5 0 0 1-5.30322 12.80371zM40.728 48.22754a7.51459 7.51459 0 1 1 5.21386-12.8916l.07129.07031A7.49976 7.49976 0 0 1 40.728 48.22754zM198.44971 205.98438a7.39255 7.39255 0 0 1-5.23242-2.16114l-.07129-.07031a7.45873 7.45873 0 1 1 5.30371 2.23145zM177.166 184.7002a7.39784 7.39784 0 0 1-5.25147-2.17872l-.07031-.07031a7.45943 7.45943 0 1 1 5.32178 2.249zm-21.23194-21.26563a7.47833 7.47833 0 0 1-5.32129-2.21484l-.0708-.07129a7.49994 7.49994 0 1 1 10.64258-10.57032l.0708.07129a7.5 7.5 0 0 1-5.32129 12.78516zM40.67578 205.94922a7.48243 7.48243 0 0 1-5.30371-12.76856l.0708-.07031a7.5 7.5 0 1 1 5.23291 12.83887zM61.95947 184.665a7.48246 7.48246 0 0 1-5.32129-12.751l.07032-.07031a7.50027 7.50027 0 1 1 5.251 12.82129zM83.2251 163.43457a7.5 7.5 0 0 1-5.32129-12.78516l.0708-.07129a7.49994 7.49994 0 0 1 10.64258 10.57032l-.0708.07129A7.47833 7.47833 0 0 1 83.2251 163.43457zM155.86328 90.7959A7.5 7.5 0 0 1 150.542 78.01074l.0708-.07129a7.49994 7.49994 0 0 1 10.64258 10.57032l-.0708.07128A7.47828 7.47828 0 0 1 155.86328 90.7959zm21.28418-21.28418a7.53489 7.53489 0 1 1 5.37354-2.2666l-.07032.07031A7.47819 7.47819 0 0 1 177.14746 69.51172zm21.28369-21.28418a7.53518 7.53518 0 1 1 5.356-2.249l-.0708.07031A7.47619 7.47619 0 0 1 198.43115 48.22754z"/><path fill="#26a6fe" d="M119.57959,137.47346A17.89338,17.89338,0,1,1,137.473,119.58008,17.91341,17.91341,0,0,1,119.57959,137.47346Z"/><path fill="#fac600" d="M176.332 341.22852a7.49975 7.49975 0 0 1-7.5-7.5v-52.9209a7.5 7.5 0 0 1 15 0v52.9209A7.49975 7.49975 0 0 1 176.332 341.22852zM176.332 261.56055a7.49975 7.49975 0 0 1-7.5-7.5v-5.12012a7.5 7.5 0 0 1 15 0v5.12012A7.49975 7.49975 0 0 1 176.332 261.56055zM176.332 479.666a7.49975 7.49975 0 0 1-7.5-7.5v-52.9209a7.5 7.5 0 0 1 15 0V472.166A7.49975 7.49975 0 0 1 176.332 479.666zM176.332 511.5332a7.49974 7.49974 0 0 1-7.5-7.5v-5.12011a7.5 7.5 0 0 1 15 0v5.12011A7.49974 7.49974 0 0 1 176.332 511.5332zM133.57373 383.98633H80.65283a7.5 7.5 0 0 1 0-15h52.9209a7.5 7.5 0 0 1 0 15zM53.90576 383.98633H48.78564a7.5 7.5 0 0 1 0-15h5.12012a7.5 7.5 0 0 1 0 15zM272.01123 383.98633h-52.9209a7.5 7.5 0 1 1 0-15h52.9209a7.5 7.5 0 0 1 0 15zM303.87842 383.98633H298.7583a7.5 7.5 0 0 1 0-15h5.12012a7.5 7.5 0 0 1 0 15zM146.09717 353.752a7.47817 7.47817 0 0 1-5.30322-2.19629l-37.42041-37.42089A7.50024 7.50024 0 0 1 113.98 303.52734l37.42041 37.4209a7.5 7.5 0 0 1-5.30322 12.80371zM89.76367 297.418a7.47708 7.47708 0 0 1-5.30273-2.19629l-3.62061-3.62012A7.49989 7.49989 0 0 1 91.4458 280.99414l3.62061 3.62012A7.5 7.5 0 0 1 89.76367 297.418zM243.9873 451.64258a7.47821 7.47821 0 0 1-5.30322-2.19629l-37.4209-37.4209A7.50024 7.50024 0 1 1 211.86963 401.418l37.4209 37.4209a7.5 7.5 0 0 1-5.30323 12.80371zM266.521 474.17578a7.4771 7.4771 0 0 1-5.30274-2.19629l-3.6206-3.62011A7.49989 7.49989 0 0 1 268.20312 457.752l3.62061 3.62012a7.5 7.5 0 0 1-5.30273 12.80371zM108.67676 451.64258a7.5 7.5 0 0 1-5.30322-12.80371L140.794 401.418a7.50023 7.50023 0 1 1 10.60644 10.60742L113.98 449.44629A7.47821 7.47821 0 0 1 108.67676 451.64258zM86.14307 474.17578a7.5 7.5 0 0 1-5.30274-12.80371l3.62061-3.62012a7.49989 7.49989 0 0 1 10.60547 10.60743l-3.62061 3.62011A7.47791 7.47791 0 0 1 86.14307 474.17578zM206.56641 353.752a7.5 7.5 0 0 1-5.30323-12.80371l37.4209-37.4209a7.50024 7.50024 0 0 1 10.60645 10.60743l-37.4209 37.42089A7.47821 7.47821 0 0 1 206.56641 353.752zM262.90039 297.418a7.5 7.5 0 0 1-5.30273-12.80371l3.6206-3.62012a7.49989 7.49989 0 1 1 10.60547 10.60742l-3.62061 3.62012A7.47789 7.47789 0 0 1 262.90039 297.418z"/><circle cx="176.332" cy="376.487" r="16.391" fill="#e53950"/></svg>