<?xml version="1.0" ?><svg viewBox="0 0 60 60" xmlns="http://www.w3.org/2000/svg"><title/><g id="text"><text font-family="MyriadPro-Regular, Myriad Pro" font-size="9" transform="translate(3.63281 -49.60986)"><tspan letter-spacing="-0.00998em" x="10.80908" y="0"/><tspan x="13.66211" y="0"/><tspan letter-spacing="0.00998em" x="31.6709" y="0"/><tspan x="36.60254" y="0"/></text></g><g id="colour"><path d="M23.11669,50c-17.71,0-21.31-12.55-19.81-30,.19-2.26.47-4.6.81-7a26.83837,26.83837,0,0,0,.46,7c2.54,11.61,13.54,10.14,13.54,5l24.58-7.45C44.72668,36.27,41.64672,50,23.11669,50Z" fill="#aaa"/><path d="M42.69672,17.55l-5.60034,1.69739C38.08148,35.52069,34.05762,47,17.1167,47a27.396,27.396,0,0,1-7.31854-.895C12.89868,48.60321,17.22253,50,23.1167,50,41.64673,50,44.72668,36.27,42.69672,17.55Z" fill="#999"/><path d="M57.0291,31.17326C54.45843,37.03154,47.13311,43.44622,38,45a16.975,16.975,0,0,0,1.96457-2.9921c8.00458-2.71919,15.63292-10.69815,14.358-15.0236-.57473-1.93178-3.00955-3.76905-11.35892-1.60633-.01046-1.15483-.0627-2.35169-.13585-3.601,6.8969-1.45933,11.83964-.85039,13.98183,1.7218C58.31441,25.30447,58.398,28.03417,57.0291,31.17326Z" fill="#aaa"/><polygon fill="#999" points="45 54 35 59 11 59 1 54 45 54"/><path d="M36.29,54H9.71l4.74-4.74A26.61913,26.61913,0,0,0,23,50.5a26.61913,26.61913,0,0,0,8.55-1.24Z" fill="#616161"/><path d="M43,17.69755l-25.14745,7.45-1.02309-5,25.57713-7C42.63164,14.69755,42.826,16.20756,43,17.69755Z" fill="#999"/><path d="M17.85255,25.14756c0,5.14-11.25394,6.61-13.85255-5H16.82947Z" fill="#616161"/><path d="M42,13,17.03076,20H4.50622a26.87068,26.87068,0,0,1-.45946-7Z" fill="#616161"/></g><g data-name="Layer 1" id="Layer_1"><path d="M57.938,22.64782c-1.70544-1.98535-5.53906-3.86-14.06805-1.88293-.18719-2.45526-.47614-5.07831-.88019-7.90613A1.00006,1.00006,0,0,0,42,12.00036H4a1.00006,1.00006,0,0,0-.98975.8584C.68164,29.15661,1.92871,39.05895,7.05274,44.96715a15.87291,15.87291,0,0,0,5.52887,4.03754L8.58594,53.00036H1a1.00012,1.00012,0,0,0-.44727,1.89453l10,5A1.00067,1.00067,0,0,0,11,60.00036H35a1.00067,1.00067,0,0,0,.44727-.10547l10-5A1.00012,1.00012,0,0,0,45,53.00036H37.41406L33.4184,49.00469A16.13376,16.13376,0,0,0,37.864,46.06444c9.76941-.62756,17.713-7.53564,20.54181-14.12073C59.99756,28.23668,59.82715,24.849,57.938,22.64782Zm-13.83105,4.364c5.11255-1.30151,8.44641-1.1095,8.937.53546.73987,2.48364-4.16925,8.62439-10.78168,11.65613A36.00344,36.00344,0,0,0,44.10693,27.01177ZM18.76679,23.73516l-.60419-3.02191,3.02325-.8465.73694,2.94788Zm-1.76825,1.356a2.65621,2.65621,0,0,1-1.48145,2.19531,5.74805,5.74805,0,0,1-5.74023-.44531,9.86685,9.86685,0,0,1-4.0246-5.84082h10.428ZM10,19.00036v-5h3v5Zm-2,0H5.28888a25.67586,25.67586,0,0,1-.31757-5H8ZM30,15.322V14.00036h4.72015Zm-2,.56-3,.84V14.00036h3ZM23.84424,22.2542l-.73175-2.92694,2.97986-.83435.72369,2.89453ZM28.73743,20.827l-.71838-2.8736,3.2135-.89978.70966,2.83868Zm5.12622-1.49512-.70441-2.81775,2.97443-.83282.66254,2.79523Zm4.85516-1.41608-.65759-2.77423,3.1037-.869q.19592,1.45084.35126,2.82733ZM23,14.00036V17.282l-3,.84V14.00036ZM18,18.682l-1.137.31836H15v-5h3ZM34.76416,58.00036H11.23584l-6-3H40.76416Zm-.17822-5H11.41406l3.2099-3.2099A27.20511,27.20511,0,0,0,23,51.00036a27.20511,27.20511,0,0,0,8.376-1.2099ZM23,49.00036c-6.5957,0-11.31738-1.748-14.436-5.34375-3.72717-4.29706-5.19208-11.09174-4.53369-21.5022a11.60946,11.60946,0,0,0,4.686,6.38306A8.51465,8.51465,0,0,0,13.18994,29.85a6.78855,6.78855,0,0,0,3.29688-.81348A4.65381,4.65381,0,0,0,18.92536,25.772L41.7276,19.12139C42.884,31.2661,41.51355,38.95568,37.436,43.65661,34.31738,47.25231,29.5957,49.00036,23,49.00036Zm33.56787-17.8457c-2.3186,5.39709-8.78693,11.28656-16.70361,12.655a17.74742,17.74742,0,0,0,1.21515-1.97113C49.04364,39.05523,56.26849,31.365,54.96094,26.97594c-.59686-2.00208-2.99847-3.92175-10.87616-2.014q-.02664-1.06192-.08624-2.17633c6.10919-1.46808,10.50787-1.06293,12.42188,1.165C57.79346,25.55016,57.84717,28.17614,56.56787,31.15465Z"/></g></svg>