<?xml version="1.0" ?><svg viewBox="0 0 60 60" xmlns="http://www.w3.org/2000/svg"><title/><g id="text"><text font-family="MyriadPro-Regular, Myriad Pro" font-size="9" transform="translate(7.08545 67.39014)"><tspan letter-spacing="0.00401em"/><tspan x="6.02979" y="0"/><tspan letter-spacing="-0.00401em" x="10.53857" y="0"/><tspan x="14.84033" y="0"/><tspan letter-spacing="-0.00401em" x="29.1499" y="0"/><tspan letter-spacing="-0.00597em" x="33.45166" y="0"/><tspan x="36.37695" xml:space="preserve" y="0"/><tspan letter-spacing="-0.06402em" x="9.92236" y="10.7998"/><tspan letter-spacing="-0.00396em" x="13.81934" y="10.7998"/><tspan x="18.12158" y="10.7998"/><tspan letter-spacing="-0.00602em" x="21.10059" y="10.7998"/><tspan x="24.02539" y="10.7998"/></text></g><g id="colour"><path d="M25,15V13a6.89,6.89,0,0,1-2-5A7,7,0,0,1,37,8a6.89337,6.89337,0,0,1-2,5v2c0,1.10547-2.23633,2-5,2S25,16.10547,25,15Z" fill="#aaa"/><path d="M30,1a7.013,7.013,0,0,0-1.5.16516A6.99963,6.99963,0,0,1,34,8a6.89343,6.89343,0,0,1-2,5v2c0,.8949-1.47552,1.6427-3.5,1.89844A11.885,11.885,0,0,0,30,17c2.76367,0,5-.89453,5-2V13a6.89343,6.89343,0,0,0,2-5A7,7,0,0,0,30,1Z" fill="#969696"/><path d="M30,1a7.013,7.013,0,0,1,1.5.16516A6.99963,6.99963,0,0,0,26,8a6.89343,6.89343,0,0,0,2,5v2c0,.8949,1.47552,1.6427,3.5,1.89844A11.885,11.885,0,0,1,30,17c-2.76367,0-5-.89453-5-2V13a6.89343,6.89343,0,0,1-2-5A7,7,0,0,1,30,1Z" fill="#bababa"/><path d="M42.80506,47c1,3,1,6-3,6C37.80506,50,39.80506,48,42.80506,47Z" fill="#689f39"/></g><g data-name="Layer 1" id="Layer_1"><circle cx="27" cy="8.00036" r="1"/><circle cx="33" cy="8.00036" r="1"/><path d="M30,13.00036a1,1,0,0,0,1-1v-1a1,1,0,0,0-2,0v1A1,1,0,0,0,30,13.00036Z"/><path d="M45,44.00036a3.25326,3.25326,0,0,0-1,.162v-.162a1,1,0,0,0-2,0v2.30652a5.78637,5.78637,0,0,0-3.60547,3.21252,4.27311,4.27311,0,0,0,.51245,3.60736c-.89319,2.8222-2.38916,4.65649-3.97046,4.80328-1.43652.13623-2.90332-1.09863-4.042-3.377-.88568-1.77136-.9881-5.3468-.79205-9.56335,2.81226-.0575,5.41895-2.43829,6.08893-5.59534.65509-3.08771-.6062-5.93225-3.41418-7.95709a7.47733,7.47733,0,0,0,3.881-3.809,10.63855,10.63855,0,0,0-1.62317-10.902A2.14333,2.14333,0,0,0,36,15.00036V13.4027a7.95537,7.95537,0,0,0,2-5.40234,8,8,0,0,0-16,0,7.95359,7.95359,0,0,0,2,5.40234v1.59766a2.14333,2.14333,0,0,0,.965,1.72589,10.63855,10.63855,0,0,0-1.62317,10.902,7.47733,7.47733,0,0,0,3.881,3.809c-2.808,2.02484-4.06927,4.86938-3.41418,7.95709a7.18262,7.18262,0,0,0,4.30768,5.239c-.2287,4.68707-.103,8.62958.9892,10.81427,1.43945,2.87891,3.46826,4.49268,5.6167,4.49268q.19922,0,.39941-.01855c2.422-.22522,4.43909-2.404,5.61847-5.981a4.08724,4.08724,0,0,0,3.09344-1.53217c.89258-1.23822.94714-3.09851.176-5.52136A.8915.8915,0,0,1,45,46.00036a1,1,0,0,0,0-2ZM34.23486,38.97887a4.888,4.888,0,0,1-4.02112,3.99719c.13477-2.12793.32111-4.36237.507-6.57727.10419-1.24091.20837-2.48865.30554-3.72968C34.61743,34.87407,34.49561,37.75054,34.23486,38.97887ZM33.23193,17.64049a8.72211,8.72211,0,0,1,1.61475,9.13965,5.32716,5.32716,0,0,1-3.61505,3.06708,61.69815,61.69815,0,0,0-.061-11.89984,10.96277,10.96277,0,0,0,2.03088-.36322C33.21442,17.60192,33.21765,17.6234,33.23193,17.64049ZM24,8.00036a6,6,0,1,1,12,0A5.9154,5.9154,0,0,1,34.30029,12.286,1.00077,1.00077,0,0,0,34,13.00036l.00879,1.94678c-.13379.2998-1.52295,1.05322-4.00879,1.05322-2.43994,0-3.82324-.72559-4-1.03613V13.00036a.99993.99993,0,0,0-.30029-.71436A5.91379,5.91379,0,0,1,24,8.00036Zm1.15332,18.77979a8.72211,8.72211,0,0,1,1.61475-9.13965c.01428-.01709.01752-.03857.03046-.05634a11.26056,11.26056,0,0,0,2.3551.3866,59.00275,59.00275,0,0,1,.06677,11.97485A5.28779,5.28779,0,0,1,25.15332,26.78014Zm.61182,12.19873c-.262-1.23407-.38544-4.13184,3.25726-6.34076-.09406,1.19531-.19452,2.3974-.29486,3.5932-.17957,2.13965-.35516,4.24512-.4873,6.25262A5.37175,5.37175,0,0,1,25.76514,38.97887Zm16.4458,12.26025a2.19127,2.19127,0,0,1-1.65869.7373,2.2768,2.2768,0,0,1-.26611-1.80811,3.62408,3.62408,0,0,1,2.05762-1.83789A3.74359,3.74359,0,0,1,42.21094,51.23913Z"/></g></svg>