<?xml version="1.0" ?><svg viewBox="0 0 60 60" xmlns="http://www.w3.org/2000/svg"><title/><g id="colour"><polygon fill="#455a65" points="30 33 30 41 17.8 41 18.256 33 30 33"/><path d="M23,53v4.2a1.99449,1.99449,0,0,1-3.97,0V53Z" fill="#2d2d2d"/><path d="M27,51v5H23.03V51A3.767,3.767,0,0,0,27,51Z" fill="#3a3a3a"/><path d="M41,53v4.2a2.01111,2.01111,0,0,1-4,0V53Z" fill="#2d2d2d"/><path d="M37,51v5H33.03V51A3.767,3.767,0,0,0,37,51Z" fill="#3a3a3a"/><rect fill="#2d2d2d" height="4" width="5.96997" x="27.03003" y="52"/><rect fill="#3a3a3a" height="7" width="6" x="27" y="45"/><path d="M43,53H37.03V47.03582h5.40544A.4995.4995,0,0,0,42.62756,47Z" fill="#5f1b87"/><circle cx="25" cy="49" fill="#e0e0e0" r="2"/><polygon fill="#455a65" points="42 41 30 41 30 37 41.808 37 42 41"/><polygon fill="#455a65" points="42 37 30.03 37 30.03 33 41.804 33 42 37"/><path d="M41.5571,25H18.73294L18.29,33H42Z" fill="#7a1fa1"/><polygon fill="#455a65" points="41 25 30.03 25 30.03 21 40.807 21 41 25"/><polygon fill="#455a65" points="30 21 30 25 19 25 19.193 21 30 21"/><polygon fill="#455a65" points="30 17 30 21 19 21 19.198 17 30 17"/><polygon fill="#455a65" points="41 21 30.03 21 30.03 17 40.803 17 41 21"/><polygon fill="#7a1fa1" points="41 17 19.27 17 19.715 9 40.555 9 41 17"/><polygon fill="#455a65" points="30 5 30 9 19.76 9 19.959 5 30 5"/><polygon fill="#455a65" points="40 9 30.03 9 30.03 5 39.806 5 40 9"/><path d="M40,5H30.03V1c4.95729,0,7.98921.08,9.33917,2.06665A4.36634,4.36634,0,0,1,40,5Z" fill="#455a65"/><path d="M30,1V5H20a4.35725,4.35725,0,0,1,.63271-1.93335C21.98672,1.08,25.02777,1,30,1Z" fill="#455a65"/><circle cx="35" cy="49" fill="#e0e0e0" r="2"/><path d="M23,47.03582V53H17.06006l.37057-6a.49479.49479,0,0,0,.19112.03582Z" fill="#5f1b87"/><path d="M42,47.02a.26138.26138,0,0,0-.1015-.02393h-8.63V45.19722a.55385.55385,0,0,0-.50764-.5996H26.66916a.55385.55385,0,0,0-.50764.5996V46.996h-8.63a.26138.26138,0,0,0-.1015.02393L17.73457,41H41.69549Z" fill="#7a1fa1"/><path d="M42.56995,47.02a.26067.26067,0,0,0-.1015-.02393h.10028Z" fill="#8344a5"/><path d="M18,47.02,18.3964,41H21l-.39481,5.996H18.13213A.42541.42541,0,0,0,18,47.02Z" fill="#8344a5"/><path d="M20,47.02l.00122-.02393h.10028A.26067.26067,0,0,0,20,47.02Z" fill="#8344a5"/><path d="M44.17411,17.09093a.21794.21794,0,0,0-.1015-.03014h.10028Z" fill="#8344a5"/><path d="M19.60417,17.09093l.3964-7.58246h2.6036l-.39481,7.55232H19.7363A.34869.34869,0,0,0,19.60417,17.09093Z" fill="#8344a5"/><path d="M21.60417,17.09093l.00122-.03014h.10028A.21794.21794,0,0,0,21.60417,17.09093Z" fill="#8344a5"/><path d="M43.36161,32.58246a.21794.21794,0,0,0-.1015-.03014h.10028Z" fill="#8344a5"/><path d="M18.79167,32.58246,19.18807,25h2.6036l-.39481,7.55232H18.9238A.34869.34869,0,0,0,18.79167,32.58246Z" fill="#8344a5"/><path d="M20.79167,32.58246l.00122-.03014h.10028A.21794.21794,0,0,0,20.79167,32.58246Z" fill="#8344a5"/><path d="M44.56995,9a.23131.23131,0,0,0-.1015-.02782h.10028Z" fill="#4e626b"/><path d="M20,9l.3964-7H23l-.39481,6.97218H20.13213A.373.373,0,0,0,20,9Z" fill="#4e626b"/><path d="M22,9l.00122-.02782h.10028A.23131.23131,0,0,0,22,9Z" fill="#4e626b"/><path d="M43.75224,25.18185a.21794.21794,0,0,0-.1015-.03014H43.751Z" fill="#4e626b"/><path d="M19.18229,25.18185l.3964-7.58246h2.6036l-.39481,7.55232H19.31443A.34869.34869,0,0,0,19.18229,25.18185Z" fill="#4e626b"/><path d="M21.18229,25.18185l.00122-.03014h.10028A.21794.21794,0,0,0,21.18229,25.18185Z" fill="#4e626b"/><path d="M42.56995,41.02a.26067.26067,0,0,0-.1015-.02393h.10028Z" fill="#4e626b"/><path d="M18,41.02,18.46875,33H21.375L21,41l-2.86787-.004A.42541.42541,0,0,0,18,41.02Z" fill="#4e626b"/><path d="M20,41.02l.00122-.02393h.10028A.26067.26067,0,0,0,20,41.02Z" fill="#4e626b"/><path d="M17.43005,47.02a.26067.26067,0,0,1,.1015-.02393h-.10028Z" fill="#5f1b87"/><path d="M42,47.02,41.6036,41H39l.39481,5.996h2.47305A.42541.42541,0,0,1,42,47.02Z" fill="#5f1b87"/><path d="M40,47.02l-.00122-.02393H39.8985A.26067.26067,0,0,1,40,47.02Z" fill="#5f1b87"/><path d="M15.43005,9a.23131.23131,0,0,1,.1015-.02782h-.10028Z" fill="#384951"/><path d="M40,9l-.3964-7H37l.39481,6.97218h2.47305A.373.373,0,0,1,40,9Z" fill="#384951"/><path d="M38,9l-.00122-.02782H37.8985A.23131.23131,0,0,1,38,9Z" fill="#384951"/><path d="M15.82589,17.09093a.21794.21794,0,0,1,.1015-.03014h-.10028Z" fill="#5f1b87"/><path d="M40.39583,17.09093l-.3964-7.58246h-2.6036l.39481,7.55232H40.2637A.34869.34869,0,0,1,40.39583,17.09093Z" fill="#5f1b87"/><path d="M38.39583,17.09093l-.00122-.03014h-.10028A.21794.21794,0,0,1,38.39583,17.09093Z" fill="#5f1b87"/><path d="M16.24776,25.18185a.21794.21794,0,0,1,.1015-.03014H16.249Z" fill="#384951"/><path d="M40.81771,25.18185l-.3964-7.58246h-2.6036l.39481,7.55232h2.47305A.34869.34869,0,0,1,40.81771,25.18185Z" fill="#384951"/><path d="M38.81771,25.18185l-.00122-.03014h-.10028A.21794.21794,0,0,1,38.81771,25.18185Z" fill="#384951"/><path d="M16.63839,32.58246a.21794.21794,0,0,1,.1015-.03014h-.10028Z" fill="#5f1b87"/><path d="M41.20833,32.58246,40.81193,25h-2.6036l.39481,7.55232H41.0762A.34869.34869,0,0,1,41.20833,32.58246Z" fill="#5f1b87"/><path d="M39.20833,32.58246l-.00122-.03014h-.10028A.21794.21794,0,0,1,39.20833,32.58246Z" fill="#5f1b87"/><path d="M17.43005,41.02a.26067.26067,0,0,1,.1015-.02393h-.10028Z" fill="#5f1b87"/><path d="M42,41.02,41.53125,33H38.625L39,41l2.86787-.004A.42541.42541,0,0,1,42,41.02Z" fill="#384951"/><path d="M40,41.02l-.00122-.02393H39.8985A.26067.26067,0,0,1,40,41.02Z" fill="#5f1b87"/></g><g data-name="Layer 1" id="Layer_1"><path d="M46,32.00036H42.71619L41.0459,4.71666a4.53515,4.53515,0,0,0-.94043-2.61035C38.39258.00036,35.2334.00036,30,.00036s-8.39258,0-10.10449,2.106a4.529,4.529,0,0,0-.94141,2.61035L17.28381,32.00036H14a.99942.99942,0,0,0-1,1v3a1,1,0,0,0,2,0v-2h2.16138L16.002,52.93883A.99914.99914,0,0,0,17,54.00036h1v3a3,3,0,0,0,6,0H36a3,3,0,1,0,6,0v-3h1a.99914.99914,0,0,0,.998-1.06152L42.83862,34.00036H45v2a1,1,0,1,0,2,0v-3A.99942.99942,0,0,0,46,32.00036Zm-17-26v2H20.75665l.12244-2Zm10.97784,14H31v-2h8.85541Zm-.85693-14,.12244,2H31v-2Zm.24481,4,.36725,6H20.267l.36725-6ZM29,18.00036v2H20.02216l.12244-2Zm0,4v2H19.77734l.12238-2Zm2,0h9.10028l.12238,2H31Zm7.8855-18H31V2.002c4.03369.0072,6.52545.10168,7.55371,1.366A2.01661,2.01661,0,0,1,38.8855,4.00036ZM29,2.002V4.00036H21.11475a2.01243,2.01243,0,0,1,.33252-.63232C22.47461,2.10369,24.96631,2.00921,29,2.002ZM19.65491,26.00036H40.34509l.36725,6H19.28766Zm3.931,8-2.293,2.293A.99989.99989,0,1,0,22.707,37.70739l3.707-3.707H29v6H18.798l.36725-6Zm18.35059,18H38v-4h3.69171Zm-23.873,0,.24481-4H22v4Zm6.93652-4a1,1,0,1,1-1,1A1.00068,1.00068,0,0,1,25,48.00036Zm7,3H28v-5h4Zm-4,2h4v2H28Zm7-5a1,1,0,1,1-1,1A1.00068,1.00068,0,0,1,35,48.00036Zm-1-2v-1a.99942.99942,0,0,0-1-1H27a.99942.99942,0,0,0-1,1v1H18.43073l.24481-4H41.32446l.24481,4Zm7.202-6H31v-2H41.07959Zm-20.202,18a1.00068,1.00068,0,0,1-1-1v-3h2v3A1.00068,1.00068,0,0,1,21,58.00036ZM24,51.816a2.80518,2.80518,0,0,0,2,.00006v3.18427H24Zm10,3.18433V51.816a2.80518,2.80518,0,0,0,2,.00006v3.18427Zm6,2a1,1,0,1,1-2,0v-3h2Zm.95715-21H31v-2h9.83478Z"/><path d="M36,29.00036a.99974.99974,0,0,0-1-1H25a1,1,0,0,0,0,2H35A.99974.99974,0,0,0,36,29.00036Z"/></g></svg>