<?xml version="1.0" ?><svg viewBox="0 0 60 60" xmlns="http://www.w3.org/2000/svg"><title/><g id="text"><text font-family="MyriadPro-Regular, Myriad Pro" font-size="9" transform="translate(3.93555 67.39014)"><tspan letter-spacing="-0.04096em" x="26.90039" y="0"/><tspan letter-spacing="-0.07102em" x="28.43945" y="0"/><tspan x="32.27344" y="0"/></text></g><g id="colour"><path d="M37.43994,24.18c-3.35986.42-6.51,3.27-9.15991,1.68C30.22,19.71,31.01,12.03,29,1,32.36,5.49,35.40991,12.8,37.43994,24.18Z" fill="#d32f2e"/><path d="M37.43994,24.18C35.40991,12.8,32.36,5.49,29,1c.464,2.546.77271,4.90625.9585,7.11768A75.2684,75.2684,0,0,1,34.4397,24.18C35.42188,24.10938,34.25537,24.57806,37.43994,24.18Z" fill="#ba2a2a"/><path d="M40,59l-4-4-2,4-2-2-2,2-2-1-2,1-4-4-1,4-2-2-3,2c0-14.65,8.41992-20.87,12.28-33.14,2.6499,1.59,5.8-1.26,9.15991-1.68C39.04,33.09,40,44.5,40,59Z" fill="#e0e0e0"/><polygon fill="#c9c8c7" points="31 57 29 55 27 57 25 56 23.667 56.667 26 59 28 58 30 59 32 57 34 59 35.667 55.667 33 53 31 57"/><path d="M40,59c0-14.5-.96-25.91-2.56006-34.82a11.307,11.307,0,0,0-2.55151.69238,207.99543,207.99543,0,0,1,2.10718,31.12323Z" fill="#c9c8c7"/></g><g data-name="Layer 1" id="Layer_1"><path d="M29.79981.40026a.99957.99957,0,0,0-1.7832.77881c3.44531,18.95459-1.46777,27.75293-6.21973,36.26172C18.30176,43.70006,15,49.61168,15,59.00036a.99993.99993,0,0,0,1.55469.832L18.873,58.287,20.293,59.70739a.99947.99947,0,0,0,1.67676-.46436l.57227-2.28662,2.751,2.751a.99876.99876,0,0,0,1.1543.1875L28,59.11852l1.55273.77637a1.00017,1.00017,0,0,0,1.1543-.1875L32,58.41442l1.293,1.293a.99972.99972,0,0,0,1.60156-.25977l1.37988-2.75928,3.01855,3.019a.99991.99991,0,0,0,1.707-.707C41,30.02526,37.23145,10.30944,29.79981.40026Zm.92188,5.28662c1.99878,3.88147,3.96558,9.43591,5.481,17.36383a8.4575,8.4575,0,0,0-3.50049,1.37054c-1.35193.81262-1.78076,1.05731-2.93445-.072A48.65439,48.65439,0,0,0,30.72168,5.68688ZM36.707,54.29332a.99972.99972,0,0,0-1.60156.25977l-1.37988,2.75928-1.01855-1.019a.99964.99964,0,0,0-1.41406,0l-1.49023,1.49023-1.35547-.67773a1.0011,1.0011,0,0,0-.89453,0l-1.35547.67773L22.707,54.29332a.99947.99947,0,0,0-1.67676.46436L20.458,57.0443l-.751-.751a.9989.9989,0,0,0-1.26172-.125l-1.39551.93018c.418-7.80322,3.375-13.09912,6.49316-18.68262A65.30042,65.30042,0,0,0,29.156,26.4348a3.37119,3.37119,0,0,0,1.94653.67786,5.20276,5.20276,0,0,0,2.62988-.97754,6.53768,6.53768,0,0,1,2.83447-1.09027A196.06112,196.06112,0,0,1,38.99121,56.577Z"/></g></svg>